G04 #@! TF.GenerationSoftware,KiCad,Pcbnew,(5.0.1)-3*
G04 #@! TF.CreationDate,2021-02-08T17:12:00-05:00*
G04 #@! TF.ProjectId,fpga_esc,667067615F6573632E6B696361645F70,rev?*
G04 #@! TF.SameCoordinates,Original*
G04 #@! TF.FileFunction,Paste,Top*
G04 #@! TF.FilePolarity,Positive*
%FSLAX46Y46*%
G04 Gerber Fmt 4.6, Leading zero omitted, Abs format (unit mm)*
G04 Created by KiCad (PCBNEW (5.0.1)-3) date 2021-02-08 5:12:00 PM*
%MOMM*%
%LPD*%
G01*
G04 APERTURE LIST*
%ADD10C,0.100000*%
%ADD11C,0.875000*%
%ADD12R,0.150000X0.600000*%
%ADD13O,0.800000X0.230000*%
%ADD14R,0.230000X0.230000*%
%ADD15R,0.650000X0.900000*%
%ADD16R,0.230000X0.600000*%
%ADD17R,2.000000X3.800000*%
%ADD18R,2.000000X1.500000*%
G04 APERTURE END LIST*
D10*
G04 #@! TO.C,C4*
G36*
X158519691Y-53310053D02*
X158540926Y-53313203D01*
X158561750Y-53318419D01*
X158581962Y-53325651D01*
X158601368Y-53334830D01*
X158619781Y-53345866D01*
X158637024Y-53358654D01*
X158652930Y-53373070D01*
X158667346Y-53388976D01*
X158680134Y-53406219D01*
X158691170Y-53424632D01*
X158700349Y-53444038D01*
X158707581Y-53464250D01*
X158712797Y-53485074D01*
X158715947Y-53506309D01*
X158717000Y-53527750D01*
X158717000Y-53965250D01*
X158715947Y-53986691D01*
X158712797Y-54007926D01*
X158707581Y-54028750D01*
X158700349Y-54048962D01*
X158691170Y-54068368D01*
X158680134Y-54086781D01*
X158667346Y-54104024D01*
X158652930Y-54119930D01*
X158637024Y-54134346D01*
X158619781Y-54147134D01*
X158601368Y-54158170D01*
X158581962Y-54167349D01*
X158561750Y-54174581D01*
X158540926Y-54179797D01*
X158519691Y-54182947D01*
X158498250Y-54184000D01*
X157985750Y-54184000D01*
X157964309Y-54182947D01*
X157943074Y-54179797D01*
X157922250Y-54174581D01*
X157902038Y-54167349D01*
X157882632Y-54158170D01*
X157864219Y-54147134D01*
X157846976Y-54134346D01*
X157831070Y-54119930D01*
X157816654Y-54104024D01*
X157803866Y-54086781D01*
X157792830Y-54068368D01*
X157783651Y-54048962D01*
X157776419Y-54028750D01*
X157771203Y-54007926D01*
X157768053Y-53986691D01*
X157767000Y-53965250D01*
X157767000Y-53527750D01*
X157768053Y-53506309D01*
X157771203Y-53485074D01*
X157776419Y-53464250D01*
X157783651Y-53444038D01*
X157792830Y-53424632D01*
X157803866Y-53406219D01*
X157816654Y-53388976D01*
X157831070Y-53373070D01*
X157846976Y-53358654D01*
X157864219Y-53345866D01*
X157882632Y-53334830D01*
X157902038Y-53325651D01*
X157922250Y-53318419D01*
X157943074Y-53313203D01*
X157964309Y-53310053D01*
X157985750Y-53309000D01*
X158498250Y-53309000D01*
X158519691Y-53310053D01*
X158519691Y-53310053D01*
G37*
D11*
X158242000Y-53746500D03*
D10*
G36*
X158519691Y-51735053D02*
X158540926Y-51738203D01*
X158561750Y-51743419D01*
X158581962Y-51750651D01*
X158601368Y-51759830D01*
X158619781Y-51770866D01*
X158637024Y-51783654D01*
X158652930Y-51798070D01*
X158667346Y-51813976D01*
X158680134Y-51831219D01*
X158691170Y-51849632D01*
X158700349Y-51869038D01*
X158707581Y-51889250D01*
X158712797Y-51910074D01*
X158715947Y-51931309D01*
X158717000Y-51952750D01*
X158717000Y-52390250D01*
X158715947Y-52411691D01*
X158712797Y-52432926D01*
X158707581Y-52453750D01*
X158700349Y-52473962D01*
X158691170Y-52493368D01*
X158680134Y-52511781D01*
X158667346Y-52529024D01*
X158652930Y-52544930D01*
X158637024Y-52559346D01*
X158619781Y-52572134D01*
X158601368Y-52583170D01*
X158581962Y-52592349D01*
X158561750Y-52599581D01*
X158540926Y-52604797D01*
X158519691Y-52607947D01*
X158498250Y-52609000D01*
X157985750Y-52609000D01*
X157964309Y-52607947D01*
X157943074Y-52604797D01*
X157922250Y-52599581D01*
X157902038Y-52592349D01*
X157882632Y-52583170D01*
X157864219Y-52572134D01*
X157846976Y-52559346D01*
X157831070Y-52544930D01*
X157816654Y-52529024D01*
X157803866Y-52511781D01*
X157792830Y-52493368D01*
X157783651Y-52473962D01*
X157776419Y-52453750D01*
X157771203Y-52432926D01*
X157768053Y-52411691D01*
X157767000Y-52390250D01*
X157767000Y-51952750D01*
X157768053Y-51931309D01*
X157771203Y-51910074D01*
X157776419Y-51889250D01*
X157783651Y-51869038D01*
X157792830Y-51849632D01*
X157803866Y-51831219D01*
X157816654Y-51813976D01*
X157831070Y-51798070D01*
X157846976Y-51783654D01*
X157864219Y-51770866D01*
X157882632Y-51759830D01*
X157902038Y-51750651D01*
X157922250Y-51743419D01*
X157943074Y-51738203D01*
X157964309Y-51735053D01*
X157985750Y-51734000D01*
X158498250Y-51734000D01*
X158519691Y-51735053D01*
X158519691Y-51735053D01*
G37*
D11*
X158242000Y-52171500D03*
G04 #@! TD*
D10*
G04 #@! TO.C,C7*
G36*
X145438691Y-50871553D02*
X145459926Y-50874703D01*
X145480750Y-50879919D01*
X145500962Y-50887151D01*
X145520368Y-50896330D01*
X145538781Y-50907366D01*
X145556024Y-50920154D01*
X145571930Y-50934570D01*
X145586346Y-50950476D01*
X145599134Y-50967719D01*
X145610170Y-50986132D01*
X145619349Y-51005538D01*
X145626581Y-51025750D01*
X145631797Y-51046574D01*
X145634947Y-51067809D01*
X145636000Y-51089250D01*
X145636000Y-51526750D01*
X145634947Y-51548191D01*
X145631797Y-51569426D01*
X145626581Y-51590250D01*
X145619349Y-51610462D01*
X145610170Y-51629868D01*
X145599134Y-51648281D01*
X145586346Y-51665524D01*
X145571930Y-51681430D01*
X145556024Y-51695846D01*
X145538781Y-51708634D01*
X145520368Y-51719670D01*
X145500962Y-51728849D01*
X145480750Y-51736081D01*
X145459926Y-51741297D01*
X145438691Y-51744447D01*
X145417250Y-51745500D01*
X144904750Y-51745500D01*
X144883309Y-51744447D01*
X144862074Y-51741297D01*
X144841250Y-51736081D01*
X144821038Y-51728849D01*
X144801632Y-51719670D01*
X144783219Y-51708634D01*
X144765976Y-51695846D01*
X144750070Y-51681430D01*
X144735654Y-51665524D01*
X144722866Y-51648281D01*
X144711830Y-51629868D01*
X144702651Y-51610462D01*
X144695419Y-51590250D01*
X144690203Y-51569426D01*
X144687053Y-51548191D01*
X144686000Y-51526750D01*
X144686000Y-51089250D01*
X144687053Y-51067809D01*
X144690203Y-51046574D01*
X144695419Y-51025750D01*
X144702651Y-51005538D01*
X144711830Y-50986132D01*
X144722866Y-50967719D01*
X144735654Y-50950476D01*
X144750070Y-50934570D01*
X144765976Y-50920154D01*
X144783219Y-50907366D01*
X144801632Y-50896330D01*
X144821038Y-50887151D01*
X144841250Y-50879919D01*
X144862074Y-50874703D01*
X144883309Y-50871553D01*
X144904750Y-50870500D01*
X145417250Y-50870500D01*
X145438691Y-50871553D01*
X145438691Y-50871553D01*
G37*
D11*
X145161000Y-51308000D03*
D10*
G36*
X145438691Y-52446553D02*
X145459926Y-52449703D01*
X145480750Y-52454919D01*
X145500962Y-52462151D01*
X145520368Y-52471330D01*
X145538781Y-52482366D01*
X145556024Y-52495154D01*
X145571930Y-52509570D01*
X145586346Y-52525476D01*
X145599134Y-52542719D01*
X145610170Y-52561132D01*
X145619349Y-52580538D01*
X145626581Y-52600750D01*
X145631797Y-52621574D01*
X145634947Y-52642809D01*
X145636000Y-52664250D01*
X145636000Y-53101750D01*
X145634947Y-53123191D01*
X145631797Y-53144426D01*
X145626581Y-53165250D01*
X145619349Y-53185462D01*
X145610170Y-53204868D01*
X145599134Y-53223281D01*
X145586346Y-53240524D01*
X145571930Y-53256430D01*
X145556024Y-53270846D01*
X145538781Y-53283634D01*
X145520368Y-53294670D01*
X145500962Y-53303849D01*
X145480750Y-53311081D01*
X145459926Y-53316297D01*
X145438691Y-53319447D01*
X145417250Y-53320500D01*
X144904750Y-53320500D01*
X144883309Y-53319447D01*
X144862074Y-53316297D01*
X144841250Y-53311081D01*
X144821038Y-53303849D01*
X144801632Y-53294670D01*
X144783219Y-53283634D01*
X144765976Y-53270846D01*
X144750070Y-53256430D01*
X144735654Y-53240524D01*
X144722866Y-53223281D01*
X144711830Y-53204868D01*
X144702651Y-53185462D01*
X144695419Y-53165250D01*
X144690203Y-53144426D01*
X144687053Y-53123191D01*
X144686000Y-53101750D01*
X144686000Y-52664250D01*
X144687053Y-52642809D01*
X144690203Y-52621574D01*
X144695419Y-52600750D01*
X144702651Y-52580538D01*
X144711830Y-52561132D01*
X144722866Y-52542719D01*
X144735654Y-52525476D01*
X144750070Y-52509570D01*
X144765976Y-52495154D01*
X144783219Y-52482366D01*
X144801632Y-52471330D01*
X144821038Y-52462151D01*
X144841250Y-52454919D01*
X144862074Y-52449703D01*
X144883309Y-52446553D01*
X144904750Y-52445500D01*
X145417250Y-52445500D01*
X145438691Y-52446553D01*
X145438691Y-52446553D01*
G37*
D11*
X145161000Y-52883000D03*
G04 #@! TD*
D10*
G04 #@! TO.C,C2*
G36*
X139850691Y-50998553D02*
X139871926Y-51001703D01*
X139892750Y-51006919D01*
X139912962Y-51014151D01*
X139932368Y-51023330D01*
X139950781Y-51034366D01*
X139968024Y-51047154D01*
X139983930Y-51061570D01*
X139998346Y-51077476D01*
X140011134Y-51094719D01*
X140022170Y-51113132D01*
X140031349Y-51132538D01*
X140038581Y-51152750D01*
X140043797Y-51173574D01*
X140046947Y-51194809D01*
X140048000Y-51216250D01*
X140048000Y-51653750D01*
X140046947Y-51675191D01*
X140043797Y-51696426D01*
X140038581Y-51717250D01*
X140031349Y-51737462D01*
X140022170Y-51756868D01*
X140011134Y-51775281D01*
X139998346Y-51792524D01*
X139983930Y-51808430D01*
X139968024Y-51822846D01*
X139950781Y-51835634D01*
X139932368Y-51846670D01*
X139912962Y-51855849D01*
X139892750Y-51863081D01*
X139871926Y-51868297D01*
X139850691Y-51871447D01*
X139829250Y-51872500D01*
X139316750Y-51872500D01*
X139295309Y-51871447D01*
X139274074Y-51868297D01*
X139253250Y-51863081D01*
X139233038Y-51855849D01*
X139213632Y-51846670D01*
X139195219Y-51835634D01*
X139177976Y-51822846D01*
X139162070Y-51808430D01*
X139147654Y-51792524D01*
X139134866Y-51775281D01*
X139123830Y-51756868D01*
X139114651Y-51737462D01*
X139107419Y-51717250D01*
X139102203Y-51696426D01*
X139099053Y-51675191D01*
X139098000Y-51653750D01*
X139098000Y-51216250D01*
X139099053Y-51194809D01*
X139102203Y-51173574D01*
X139107419Y-51152750D01*
X139114651Y-51132538D01*
X139123830Y-51113132D01*
X139134866Y-51094719D01*
X139147654Y-51077476D01*
X139162070Y-51061570D01*
X139177976Y-51047154D01*
X139195219Y-51034366D01*
X139213632Y-51023330D01*
X139233038Y-51014151D01*
X139253250Y-51006919D01*
X139274074Y-51001703D01*
X139295309Y-50998553D01*
X139316750Y-50997500D01*
X139829250Y-50997500D01*
X139850691Y-50998553D01*
X139850691Y-50998553D01*
G37*
D11*
X139573000Y-51435000D03*
D10*
G36*
X139850691Y-52573553D02*
X139871926Y-52576703D01*
X139892750Y-52581919D01*
X139912962Y-52589151D01*
X139932368Y-52598330D01*
X139950781Y-52609366D01*
X139968024Y-52622154D01*
X139983930Y-52636570D01*
X139998346Y-52652476D01*
X140011134Y-52669719D01*
X140022170Y-52688132D01*
X140031349Y-52707538D01*
X140038581Y-52727750D01*
X140043797Y-52748574D01*
X140046947Y-52769809D01*
X140048000Y-52791250D01*
X140048000Y-53228750D01*
X140046947Y-53250191D01*
X140043797Y-53271426D01*
X140038581Y-53292250D01*
X140031349Y-53312462D01*
X140022170Y-53331868D01*
X140011134Y-53350281D01*
X139998346Y-53367524D01*
X139983930Y-53383430D01*
X139968024Y-53397846D01*
X139950781Y-53410634D01*
X139932368Y-53421670D01*
X139912962Y-53430849D01*
X139892750Y-53438081D01*
X139871926Y-53443297D01*
X139850691Y-53446447D01*
X139829250Y-53447500D01*
X139316750Y-53447500D01*
X139295309Y-53446447D01*
X139274074Y-53443297D01*
X139253250Y-53438081D01*
X139233038Y-53430849D01*
X139213632Y-53421670D01*
X139195219Y-53410634D01*
X139177976Y-53397846D01*
X139162070Y-53383430D01*
X139147654Y-53367524D01*
X139134866Y-53350281D01*
X139123830Y-53331868D01*
X139114651Y-53312462D01*
X139107419Y-53292250D01*
X139102203Y-53271426D01*
X139099053Y-53250191D01*
X139098000Y-53228750D01*
X139098000Y-52791250D01*
X139099053Y-52769809D01*
X139102203Y-52748574D01*
X139107419Y-52727750D01*
X139114651Y-52707538D01*
X139123830Y-52688132D01*
X139134866Y-52669719D01*
X139147654Y-52652476D01*
X139162070Y-52636570D01*
X139177976Y-52622154D01*
X139195219Y-52609366D01*
X139213632Y-52598330D01*
X139233038Y-52589151D01*
X139253250Y-52581919D01*
X139274074Y-52576703D01*
X139295309Y-52573553D01*
X139316750Y-52572500D01*
X139829250Y-52572500D01*
X139850691Y-52573553D01*
X139850691Y-52573553D01*
G37*
D11*
X139573000Y-53010000D03*
G04 #@! TD*
D10*
G04 #@! TO.C,C1*
G36*
X155725691Y-51735053D02*
X155746926Y-51738203D01*
X155767750Y-51743419D01*
X155787962Y-51750651D01*
X155807368Y-51759830D01*
X155825781Y-51770866D01*
X155843024Y-51783654D01*
X155858930Y-51798070D01*
X155873346Y-51813976D01*
X155886134Y-51831219D01*
X155897170Y-51849632D01*
X155906349Y-51869038D01*
X155913581Y-51889250D01*
X155918797Y-51910074D01*
X155921947Y-51931309D01*
X155923000Y-51952750D01*
X155923000Y-52390250D01*
X155921947Y-52411691D01*
X155918797Y-52432926D01*
X155913581Y-52453750D01*
X155906349Y-52473962D01*
X155897170Y-52493368D01*
X155886134Y-52511781D01*
X155873346Y-52529024D01*
X155858930Y-52544930D01*
X155843024Y-52559346D01*
X155825781Y-52572134D01*
X155807368Y-52583170D01*
X155787962Y-52592349D01*
X155767750Y-52599581D01*
X155746926Y-52604797D01*
X155725691Y-52607947D01*
X155704250Y-52609000D01*
X155191750Y-52609000D01*
X155170309Y-52607947D01*
X155149074Y-52604797D01*
X155128250Y-52599581D01*
X155108038Y-52592349D01*
X155088632Y-52583170D01*
X155070219Y-52572134D01*
X155052976Y-52559346D01*
X155037070Y-52544930D01*
X155022654Y-52529024D01*
X155009866Y-52511781D01*
X154998830Y-52493368D01*
X154989651Y-52473962D01*
X154982419Y-52453750D01*
X154977203Y-52432926D01*
X154974053Y-52411691D01*
X154973000Y-52390250D01*
X154973000Y-51952750D01*
X154974053Y-51931309D01*
X154977203Y-51910074D01*
X154982419Y-51889250D01*
X154989651Y-51869038D01*
X154998830Y-51849632D01*
X155009866Y-51831219D01*
X155022654Y-51813976D01*
X155037070Y-51798070D01*
X155052976Y-51783654D01*
X155070219Y-51770866D01*
X155088632Y-51759830D01*
X155108038Y-51750651D01*
X155128250Y-51743419D01*
X155149074Y-51738203D01*
X155170309Y-51735053D01*
X155191750Y-51734000D01*
X155704250Y-51734000D01*
X155725691Y-51735053D01*
X155725691Y-51735053D01*
G37*
D11*
X155448000Y-52171500D03*
D10*
G36*
X155725691Y-53310053D02*
X155746926Y-53313203D01*
X155767750Y-53318419D01*
X155787962Y-53325651D01*
X155807368Y-53334830D01*
X155825781Y-53345866D01*
X155843024Y-53358654D01*
X155858930Y-53373070D01*
X155873346Y-53388976D01*
X155886134Y-53406219D01*
X155897170Y-53424632D01*
X155906349Y-53444038D01*
X155913581Y-53464250D01*
X155918797Y-53485074D01*
X155921947Y-53506309D01*
X155923000Y-53527750D01*
X155923000Y-53965250D01*
X155921947Y-53986691D01*
X155918797Y-54007926D01*
X155913581Y-54028750D01*
X155906349Y-54048962D01*
X155897170Y-54068368D01*
X155886134Y-54086781D01*
X155873346Y-54104024D01*
X155858930Y-54119930D01*
X155843024Y-54134346D01*
X155825781Y-54147134D01*
X155807368Y-54158170D01*
X155787962Y-54167349D01*
X155767750Y-54174581D01*
X155746926Y-54179797D01*
X155725691Y-54182947D01*
X155704250Y-54184000D01*
X155191750Y-54184000D01*
X155170309Y-54182947D01*
X155149074Y-54179797D01*
X155128250Y-54174581D01*
X155108038Y-54167349D01*
X155088632Y-54158170D01*
X155070219Y-54147134D01*
X155052976Y-54134346D01*
X155037070Y-54119930D01*
X155022654Y-54104024D01*
X155009866Y-54086781D01*
X154998830Y-54068368D01*
X154989651Y-54048962D01*
X154982419Y-54028750D01*
X154977203Y-54007926D01*
X154974053Y-53986691D01*
X154973000Y-53965250D01*
X154973000Y-53527750D01*
X154974053Y-53506309D01*
X154977203Y-53485074D01*
X154982419Y-53464250D01*
X154989651Y-53444038D01*
X154998830Y-53424632D01*
X155009866Y-53406219D01*
X155022654Y-53388976D01*
X155037070Y-53373070D01*
X155052976Y-53358654D01*
X155070219Y-53345866D01*
X155088632Y-53334830D01*
X155108038Y-53325651D01*
X155128250Y-53318419D01*
X155149074Y-53313203D01*
X155170309Y-53310053D01*
X155191750Y-53309000D01*
X155704250Y-53309000D01*
X155725691Y-53310053D01*
X155725691Y-53310053D01*
G37*
D11*
X155448000Y-53746500D03*
G04 #@! TD*
D10*
G04 #@! TO.C,C3*
G36*
X122832691Y-52649553D02*
X122853926Y-52652703D01*
X122874750Y-52657919D01*
X122894962Y-52665151D01*
X122914368Y-52674330D01*
X122932781Y-52685366D01*
X122950024Y-52698154D01*
X122965930Y-52712570D01*
X122980346Y-52728476D01*
X122993134Y-52745719D01*
X123004170Y-52764132D01*
X123013349Y-52783538D01*
X123020581Y-52803750D01*
X123025797Y-52824574D01*
X123028947Y-52845809D01*
X123030000Y-52867250D01*
X123030000Y-53304750D01*
X123028947Y-53326191D01*
X123025797Y-53347426D01*
X123020581Y-53368250D01*
X123013349Y-53388462D01*
X123004170Y-53407868D01*
X122993134Y-53426281D01*
X122980346Y-53443524D01*
X122965930Y-53459430D01*
X122950024Y-53473846D01*
X122932781Y-53486634D01*
X122914368Y-53497670D01*
X122894962Y-53506849D01*
X122874750Y-53514081D01*
X122853926Y-53519297D01*
X122832691Y-53522447D01*
X122811250Y-53523500D01*
X122298750Y-53523500D01*
X122277309Y-53522447D01*
X122256074Y-53519297D01*
X122235250Y-53514081D01*
X122215038Y-53506849D01*
X122195632Y-53497670D01*
X122177219Y-53486634D01*
X122159976Y-53473846D01*
X122144070Y-53459430D01*
X122129654Y-53443524D01*
X122116866Y-53426281D01*
X122105830Y-53407868D01*
X122096651Y-53388462D01*
X122089419Y-53368250D01*
X122084203Y-53347426D01*
X122081053Y-53326191D01*
X122080000Y-53304750D01*
X122080000Y-52867250D01*
X122081053Y-52845809D01*
X122084203Y-52824574D01*
X122089419Y-52803750D01*
X122096651Y-52783538D01*
X122105830Y-52764132D01*
X122116866Y-52745719D01*
X122129654Y-52728476D01*
X122144070Y-52712570D01*
X122159976Y-52698154D01*
X122177219Y-52685366D01*
X122195632Y-52674330D01*
X122215038Y-52665151D01*
X122235250Y-52657919D01*
X122256074Y-52652703D01*
X122277309Y-52649553D01*
X122298750Y-52648500D01*
X122811250Y-52648500D01*
X122832691Y-52649553D01*
X122832691Y-52649553D01*
G37*
D11*
X122555000Y-53086000D03*
D10*
G36*
X122832691Y-54224553D02*
X122853926Y-54227703D01*
X122874750Y-54232919D01*
X122894962Y-54240151D01*
X122914368Y-54249330D01*
X122932781Y-54260366D01*
X122950024Y-54273154D01*
X122965930Y-54287570D01*
X122980346Y-54303476D01*
X122993134Y-54320719D01*
X123004170Y-54339132D01*
X123013349Y-54358538D01*
X123020581Y-54378750D01*
X123025797Y-54399574D01*
X123028947Y-54420809D01*
X123030000Y-54442250D01*
X123030000Y-54879750D01*
X123028947Y-54901191D01*
X123025797Y-54922426D01*
X123020581Y-54943250D01*
X123013349Y-54963462D01*
X123004170Y-54982868D01*
X122993134Y-55001281D01*
X122980346Y-55018524D01*
X122965930Y-55034430D01*
X122950024Y-55048846D01*
X122932781Y-55061634D01*
X122914368Y-55072670D01*
X122894962Y-55081849D01*
X122874750Y-55089081D01*
X122853926Y-55094297D01*
X122832691Y-55097447D01*
X122811250Y-55098500D01*
X122298750Y-55098500D01*
X122277309Y-55097447D01*
X122256074Y-55094297D01*
X122235250Y-55089081D01*
X122215038Y-55081849D01*
X122195632Y-55072670D01*
X122177219Y-55061634D01*
X122159976Y-55048846D01*
X122144070Y-55034430D01*
X122129654Y-55018524D01*
X122116866Y-55001281D01*
X122105830Y-54982868D01*
X122096651Y-54963462D01*
X122089419Y-54943250D01*
X122084203Y-54922426D01*
X122081053Y-54901191D01*
X122080000Y-54879750D01*
X122080000Y-54442250D01*
X122081053Y-54420809D01*
X122084203Y-54399574D01*
X122089419Y-54378750D01*
X122096651Y-54358538D01*
X122105830Y-54339132D01*
X122116866Y-54320719D01*
X122129654Y-54303476D01*
X122144070Y-54287570D01*
X122159976Y-54273154D01*
X122177219Y-54260366D01*
X122195632Y-54249330D01*
X122215038Y-54240151D01*
X122235250Y-54232919D01*
X122256074Y-54227703D01*
X122277309Y-54224553D01*
X122298750Y-54223500D01*
X122811250Y-54223500D01*
X122832691Y-54224553D01*
X122832691Y-54224553D01*
G37*
D11*
X122555000Y-54661000D03*
G04 #@! TD*
D10*
G04 #@! TO.C,C5*
G36*
X141501691Y-50998553D02*
X141522926Y-51001703D01*
X141543750Y-51006919D01*
X141563962Y-51014151D01*
X141583368Y-51023330D01*
X141601781Y-51034366D01*
X141619024Y-51047154D01*
X141634930Y-51061570D01*
X141649346Y-51077476D01*
X141662134Y-51094719D01*
X141673170Y-51113132D01*
X141682349Y-51132538D01*
X141689581Y-51152750D01*
X141694797Y-51173574D01*
X141697947Y-51194809D01*
X141699000Y-51216250D01*
X141699000Y-51653750D01*
X141697947Y-51675191D01*
X141694797Y-51696426D01*
X141689581Y-51717250D01*
X141682349Y-51737462D01*
X141673170Y-51756868D01*
X141662134Y-51775281D01*
X141649346Y-51792524D01*
X141634930Y-51808430D01*
X141619024Y-51822846D01*
X141601781Y-51835634D01*
X141583368Y-51846670D01*
X141563962Y-51855849D01*
X141543750Y-51863081D01*
X141522926Y-51868297D01*
X141501691Y-51871447D01*
X141480250Y-51872500D01*
X140967750Y-51872500D01*
X140946309Y-51871447D01*
X140925074Y-51868297D01*
X140904250Y-51863081D01*
X140884038Y-51855849D01*
X140864632Y-51846670D01*
X140846219Y-51835634D01*
X140828976Y-51822846D01*
X140813070Y-51808430D01*
X140798654Y-51792524D01*
X140785866Y-51775281D01*
X140774830Y-51756868D01*
X140765651Y-51737462D01*
X140758419Y-51717250D01*
X140753203Y-51696426D01*
X140750053Y-51675191D01*
X140749000Y-51653750D01*
X140749000Y-51216250D01*
X140750053Y-51194809D01*
X140753203Y-51173574D01*
X140758419Y-51152750D01*
X140765651Y-51132538D01*
X140774830Y-51113132D01*
X140785866Y-51094719D01*
X140798654Y-51077476D01*
X140813070Y-51061570D01*
X140828976Y-51047154D01*
X140846219Y-51034366D01*
X140864632Y-51023330D01*
X140884038Y-51014151D01*
X140904250Y-51006919D01*
X140925074Y-51001703D01*
X140946309Y-50998553D01*
X140967750Y-50997500D01*
X141480250Y-50997500D01*
X141501691Y-50998553D01*
X141501691Y-50998553D01*
G37*
D11*
X141224000Y-51435000D03*
D10*
G36*
X141501691Y-52573553D02*
X141522926Y-52576703D01*
X141543750Y-52581919D01*
X141563962Y-52589151D01*
X141583368Y-52598330D01*
X141601781Y-52609366D01*
X141619024Y-52622154D01*
X141634930Y-52636570D01*
X141649346Y-52652476D01*
X141662134Y-52669719D01*
X141673170Y-52688132D01*
X141682349Y-52707538D01*
X141689581Y-52727750D01*
X141694797Y-52748574D01*
X141697947Y-52769809D01*
X141699000Y-52791250D01*
X141699000Y-53228750D01*
X141697947Y-53250191D01*
X141694797Y-53271426D01*
X141689581Y-53292250D01*
X141682349Y-53312462D01*
X141673170Y-53331868D01*
X141662134Y-53350281D01*
X141649346Y-53367524D01*
X141634930Y-53383430D01*
X141619024Y-53397846D01*
X141601781Y-53410634D01*
X141583368Y-53421670D01*
X141563962Y-53430849D01*
X141543750Y-53438081D01*
X141522926Y-53443297D01*
X141501691Y-53446447D01*
X141480250Y-53447500D01*
X140967750Y-53447500D01*
X140946309Y-53446447D01*
X140925074Y-53443297D01*
X140904250Y-53438081D01*
X140884038Y-53430849D01*
X140864632Y-53421670D01*
X140846219Y-53410634D01*
X140828976Y-53397846D01*
X140813070Y-53383430D01*
X140798654Y-53367524D01*
X140785866Y-53350281D01*
X140774830Y-53331868D01*
X140765651Y-53312462D01*
X140758419Y-53292250D01*
X140753203Y-53271426D01*
X140750053Y-53250191D01*
X140749000Y-53228750D01*
X140749000Y-52791250D01*
X140750053Y-52769809D01*
X140753203Y-52748574D01*
X140758419Y-52727750D01*
X140765651Y-52707538D01*
X140774830Y-52688132D01*
X140785866Y-52669719D01*
X140798654Y-52652476D01*
X140813070Y-52636570D01*
X140828976Y-52622154D01*
X140846219Y-52609366D01*
X140864632Y-52598330D01*
X140884038Y-52589151D01*
X140904250Y-52581919D01*
X140925074Y-52576703D01*
X140946309Y-52573553D01*
X140967750Y-52572500D01*
X141480250Y-52572500D01*
X141501691Y-52573553D01*
X141501691Y-52573553D01*
G37*
D11*
X141224000Y-53010000D03*
G04 #@! TD*
D10*
G04 #@! TO.C,C6*
G36*
X124377955Y-52621741D02*
X124399190Y-52624891D01*
X124420014Y-52630107D01*
X124440226Y-52637339D01*
X124459632Y-52646518D01*
X124478045Y-52657554D01*
X124495288Y-52670342D01*
X124511194Y-52684758D01*
X124525610Y-52700664D01*
X124538398Y-52717907D01*
X124549434Y-52736320D01*
X124558613Y-52755726D01*
X124565845Y-52775938D01*
X124571061Y-52796762D01*
X124574211Y-52817997D01*
X124575264Y-52839438D01*
X124575264Y-53276938D01*
X124574211Y-53298379D01*
X124571061Y-53319614D01*
X124565845Y-53340438D01*
X124558613Y-53360650D01*
X124549434Y-53380056D01*
X124538398Y-53398469D01*
X124525610Y-53415712D01*
X124511194Y-53431618D01*
X124495288Y-53446034D01*
X124478045Y-53458822D01*
X124459632Y-53469858D01*
X124440226Y-53479037D01*
X124420014Y-53486269D01*
X124399190Y-53491485D01*
X124377955Y-53494635D01*
X124356514Y-53495688D01*
X123844014Y-53495688D01*
X123822573Y-53494635D01*
X123801338Y-53491485D01*
X123780514Y-53486269D01*
X123760302Y-53479037D01*
X123740896Y-53469858D01*
X123722483Y-53458822D01*
X123705240Y-53446034D01*
X123689334Y-53431618D01*
X123674918Y-53415712D01*
X123662130Y-53398469D01*
X123651094Y-53380056D01*
X123641915Y-53360650D01*
X123634683Y-53340438D01*
X123629467Y-53319614D01*
X123626317Y-53298379D01*
X123625264Y-53276938D01*
X123625264Y-52839438D01*
X123626317Y-52817997D01*
X123629467Y-52796762D01*
X123634683Y-52775938D01*
X123641915Y-52755726D01*
X123651094Y-52736320D01*
X123662130Y-52717907D01*
X123674918Y-52700664D01*
X123689334Y-52684758D01*
X123705240Y-52670342D01*
X123722483Y-52657554D01*
X123740896Y-52646518D01*
X123760302Y-52637339D01*
X123780514Y-52630107D01*
X123801338Y-52624891D01*
X123822573Y-52621741D01*
X123844014Y-52620688D01*
X124356514Y-52620688D01*
X124377955Y-52621741D01*
X124377955Y-52621741D01*
G37*
D11*
X124100264Y-53058188D03*
D10*
G36*
X124377955Y-54196741D02*
X124399190Y-54199891D01*
X124420014Y-54205107D01*
X124440226Y-54212339D01*
X124459632Y-54221518D01*
X124478045Y-54232554D01*
X124495288Y-54245342D01*
X124511194Y-54259758D01*
X124525610Y-54275664D01*
X124538398Y-54292907D01*
X124549434Y-54311320D01*
X124558613Y-54330726D01*
X124565845Y-54350938D01*
X124571061Y-54371762D01*
X124574211Y-54392997D01*
X124575264Y-54414438D01*
X124575264Y-54851938D01*
X124574211Y-54873379D01*
X124571061Y-54894614D01*
X124565845Y-54915438D01*
X124558613Y-54935650D01*
X124549434Y-54955056D01*
X124538398Y-54973469D01*
X124525610Y-54990712D01*
X124511194Y-55006618D01*
X124495288Y-55021034D01*
X124478045Y-55033822D01*
X124459632Y-55044858D01*
X124440226Y-55054037D01*
X124420014Y-55061269D01*
X124399190Y-55066485D01*
X124377955Y-55069635D01*
X124356514Y-55070688D01*
X123844014Y-55070688D01*
X123822573Y-55069635D01*
X123801338Y-55066485D01*
X123780514Y-55061269D01*
X123760302Y-55054037D01*
X123740896Y-55044858D01*
X123722483Y-55033822D01*
X123705240Y-55021034D01*
X123689334Y-55006618D01*
X123674918Y-54990712D01*
X123662130Y-54973469D01*
X123651094Y-54955056D01*
X123641915Y-54935650D01*
X123634683Y-54915438D01*
X123629467Y-54894614D01*
X123626317Y-54873379D01*
X123625264Y-54851938D01*
X123625264Y-54414438D01*
X123626317Y-54392997D01*
X123629467Y-54371762D01*
X123634683Y-54350938D01*
X123641915Y-54330726D01*
X123651094Y-54311320D01*
X123662130Y-54292907D01*
X123674918Y-54275664D01*
X123689334Y-54259758D01*
X123705240Y-54245342D01*
X123722483Y-54232554D01*
X123740896Y-54221518D01*
X123760302Y-54212339D01*
X123780514Y-54205107D01*
X123801338Y-54199891D01*
X123822573Y-54196741D01*
X123844014Y-54195688D01*
X124356514Y-54195688D01*
X124377955Y-54196741D01*
X124377955Y-54196741D01*
G37*
D11*
X124100264Y-54633188D03*
G04 #@! TD*
D10*
G04 #@! TO.C,C8*
G36*
X129055691Y-52421053D02*
X129076926Y-52424203D01*
X129097750Y-52429419D01*
X129117962Y-52436651D01*
X129137368Y-52445830D01*
X129155781Y-52456866D01*
X129173024Y-52469654D01*
X129188930Y-52484070D01*
X129203346Y-52499976D01*
X129216134Y-52517219D01*
X129227170Y-52535632D01*
X129236349Y-52555038D01*
X129243581Y-52575250D01*
X129248797Y-52596074D01*
X129251947Y-52617309D01*
X129253000Y-52638750D01*
X129253000Y-53076250D01*
X129251947Y-53097691D01*
X129248797Y-53118926D01*
X129243581Y-53139750D01*
X129236349Y-53159962D01*
X129227170Y-53179368D01*
X129216134Y-53197781D01*
X129203346Y-53215024D01*
X129188930Y-53230930D01*
X129173024Y-53245346D01*
X129155781Y-53258134D01*
X129137368Y-53269170D01*
X129117962Y-53278349D01*
X129097750Y-53285581D01*
X129076926Y-53290797D01*
X129055691Y-53293947D01*
X129034250Y-53295000D01*
X128521750Y-53295000D01*
X128500309Y-53293947D01*
X128479074Y-53290797D01*
X128458250Y-53285581D01*
X128438038Y-53278349D01*
X128418632Y-53269170D01*
X128400219Y-53258134D01*
X128382976Y-53245346D01*
X128367070Y-53230930D01*
X128352654Y-53215024D01*
X128339866Y-53197781D01*
X128328830Y-53179368D01*
X128319651Y-53159962D01*
X128312419Y-53139750D01*
X128307203Y-53118926D01*
X128304053Y-53097691D01*
X128303000Y-53076250D01*
X128303000Y-52638750D01*
X128304053Y-52617309D01*
X128307203Y-52596074D01*
X128312419Y-52575250D01*
X128319651Y-52555038D01*
X128328830Y-52535632D01*
X128339866Y-52517219D01*
X128352654Y-52499976D01*
X128367070Y-52484070D01*
X128382976Y-52469654D01*
X128400219Y-52456866D01*
X128418632Y-52445830D01*
X128438038Y-52436651D01*
X128458250Y-52429419D01*
X128479074Y-52424203D01*
X128500309Y-52421053D01*
X128521750Y-52420000D01*
X129034250Y-52420000D01*
X129055691Y-52421053D01*
X129055691Y-52421053D01*
G37*
D11*
X128778000Y-52857500D03*
D10*
G36*
X129055691Y-50846053D02*
X129076926Y-50849203D01*
X129097750Y-50854419D01*
X129117962Y-50861651D01*
X129137368Y-50870830D01*
X129155781Y-50881866D01*
X129173024Y-50894654D01*
X129188930Y-50909070D01*
X129203346Y-50924976D01*
X129216134Y-50942219D01*
X129227170Y-50960632D01*
X129236349Y-50980038D01*
X129243581Y-51000250D01*
X129248797Y-51021074D01*
X129251947Y-51042309D01*
X129253000Y-51063750D01*
X129253000Y-51501250D01*
X129251947Y-51522691D01*
X129248797Y-51543926D01*
X129243581Y-51564750D01*
X129236349Y-51584962D01*
X129227170Y-51604368D01*
X129216134Y-51622781D01*
X129203346Y-51640024D01*
X129188930Y-51655930D01*
X129173024Y-51670346D01*
X129155781Y-51683134D01*
X129137368Y-51694170D01*
X129117962Y-51703349D01*
X129097750Y-51710581D01*
X129076926Y-51715797D01*
X129055691Y-51718947D01*
X129034250Y-51720000D01*
X128521750Y-51720000D01*
X128500309Y-51718947D01*
X128479074Y-51715797D01*
X128458250Y-51710581D01*
X128438038Y-51703349D01*
X128418632Y-51694170D01*
X128400219Y-51683134D01*
X128382976Y-51670346D01*
X128367070Y-51655930D01*
X128352654Y-51640024D01*
X128339866Y-51622781D01*
X128328830Y-51604368D01*
X128319651Y-51584962D01*
X128312419Y-51564750D01*
X128307203Y-51543926D01*
X128304053Y-51522691D01*
X128303000Y-51501250D01*
X128303000Y-51063750D01*
X128304053Y-51042309D01*
X128307203Y-51021074D01*
X128312419Y-51000250D01*
X128319651Y-50980038D01*
X128328830Y-50960632D01*
X128339866Y-50942219D01*
X128352654Y-50924976D01*
X128367070Y-50909070D01*
X128382976Y-50894654D01*
X128400219Y-50881866D01*
X128418632Y-50870830D01*
X128438038Y-50861651D01*
X128458250Y-50854419D01*
X128479074Y-50849203D01*
X128500309Y-50846053D01*
X128521750Y-50845000D01*
X129034250Y-50845000D01*
X129055691Y-50846053D01*
X129055691Y-50846053D01*
G37*
D11*
X128778000Y-51282500D03*
G04 #@! TD*
D10*
G04 #@! TO.C,C9*
G36*
X112037691Y-50846053D02*
X112058926Y-50849203D01*
X112079750Y-50854419D01*
X112099962Y-50861651D01*
X112119368Y-50870830D01*
X112137781Y-50881866D01*
X112155024Y-50894654D01*
X112170930Y-50909070D01*
X112185346Y-50924976D01*
X112198134Y-50942219D01*
X112209170Y-50960632D01*
X112218349Y-50980038D01*
X112225581Y-51000250D01*
X112230797Y-51021074D01*
X112233947Y-51042309D01*
X112235000Y-51063750D01*
X112235000Y-51501250D01*
X112233947Y-51522691D01*
X112230797Y-51543926D01*
X112225581Y-51564750D01*
X112218349Y-51584962D01*
X112209170Y-51604368D01*
X112198134Y-51622781D01*
X112185346Y-51640024D01*
X112170930Y-51655930D01*
X112155024Y-51670346D01*
X112137781Y-51683134D01*
X112119368Y-51694170D01*
X112099962Y-51703349D01*
X112079750Y-51710581D01*
X112058926Y-51715797D01*
X112037691Y-51718947D01*
X112016250Y-51720000D01*
X111503750Y-51720000D01*
X111482309Y-51718947D01*
X111461074Y-51715797D01*
X111440250Y-51710581D01*
X111420038Y-51703349D01*
X111400632Y-51694170D01*
X111382219Y-51683134D01*
X111364976Y-51670346D01*
X111349070Y-51655930D01*
X111334654Y-51640024D01*
X111321866Y-51622781D01*
X111310830Y-51604368D01*
X111301651Y-51584962D01*
X111294419Y-51564750D01*
X111289203Y-51543926D01*
X111286053Y-51522691D01*
X111285000Y-51501250D01*
X111285000Y-51063750D01*
X111286053Y-51042309D01*
X111289203Y-51021074D01*
X111294419Y-51000250D01*
X111301651Y-50980038D01*
X111310830Y-50960632D01*
X111321866Y-50942219D01*
X111334654Y-50924976D01*
X111349070Y-50909070D01*
X111364976Y-50894654D01*
X111382219Y-50881866D01*
X111400632Y-50870830D01*
X111420038Y-50861651D01*
X111440250Y-50854419D01*
X111461074Y-50849203D01*
X111482309Y-50846053D01*
X111503750Y-50845000D01*
X112016250Y-50845000D01*
X112037691Y-50846053D01*
X112037691Y-50846053D01*
G37*
D11*
X111760000Y-51282500D03*
D10*
G36*
X112037691Y-52421053D02*
X112058926Y-52424203D01*
X112079750Y-52429419D01*
X112099962Y-52436651D01*
X112119368Y-52445830D01*
X112137781Y-52456866D01*
X112155024Y-52469654D01*
X112170930Y-52484070D01*
X112185346Y-52499976D01*
X112198134Y-52517219D01*
X112209170Y-52535632D01*
X112218349Y-52555038D01*
X112225581Y-52575250D01*
X112230797Y-52596074D01*
X112233947Y-52617309D01*
X112235000Y-52638750D01*
X112235000Y-53076250D01*
X112233947Y-53097691D01*
X112230797Y-53118926D01*
X112225581Y-53139750D01*
X112218349Y-53159962D01*
X112209170Y-53179368D01*
X112198134Y-53197781D01*
X112185346Y-53215024D01*
X112170930Y-53230930D01*
X112155024Y-53245346D01*
X112137781Y-53258134D01*
X112119368Y-53269170D01*
X112099962Y-53278349D01*
X112079750Y-53285581D01*
X112058926Y-53290797D01*
X112037691Y-53293947D01*
X112016250Y-53295000D01*
X111503750Y-53295000D01*
X111482309Y-53293947D01*
X111461074Y-53290797D01*
X111440250Y-53285581D01*
X111420038Y-53278349D01*
X111400632Y-53269170D01*
X111382219Y-53258134D01*
X111364976Y-53245346D01*
X111349070Y-53230930D01*
X111334654Y-53215024D01*
X111321866Y-53197781D01*
X111310830Y-53179368D01*
X111301651Y-53159962D01*
X111294419Y-53139750D01*
X111289203Y-53118926D01*
X111286053Y-53097691D01*
X111285000Y-53076250D01*
X111285000Y-52638750D01*
X111286053Y-52617309D01*
X111289203Y-52596074D01*
X111294419Y-52575250D01*
X111301651Y-52555038D01*
X111310830Y-52535632D01*
X111321866Y-52517219D01*
X111334654Y-52499976D01*
X111349070Y-52484070D01*
X111364976Y-52469654D01*
X111382219Y-52456866D01*
X111400632Y-52445830D01*
X111420038Y-52436651D01*
X111440250Y-52429419D01*
X111461074Y-52424203D01*
X111482309Y-52421053D01*
X111503750Y-52420000D01*
X112016250Y-52420000D01*
X112037691Y-52421053D01*
X112037691Y-52421053D01*
G37*
D11*
X111760000Y-52857500D03*
G04 #@! TD*
D12*
G04 #@! TO.C,U1*
X148676000Y-53434000D03*
X149876000Y-53434000D03*
X148676000Y-50584000D03*
X149876000Y-50584000D03*
D13*
X147801000Y-51009000D03*
X147801000Y-51509000D03*
D14*
X147516000Y-52009000D03*
D13*
X147801000Y-52509000D03*
D14*
X147516000Y-53009000D03*
D13*
X150751000Y-53009000D03*
X150751000Y-52509000D03*
D14*
X151036000Y-52009000D03*
X151036000Y-51509000D03*
X151036000Y-51009000D03*
D12*
X149076000Y-50584000D03*
X149476000Y-50584000D03*
X149076000Y-53434000D03*
X149476000Y-53434000D03*
D14*
X147516000Y-51009000D03*
X147516000Y-51509000D03*
D13*
X147801000Y-52009000D03*
D14*
X147516000Y-52509000D03*
D13*
X147801000Y-53009000D03*
D14*
X151036000Y-53009000D03*
X151036000Y-52509000D03*
D13*
X150751000Y-52009000D03*
X150751000Y-51509000D03*
X150751000Y-51009000D03*
D15*
X148841000Y-51449000D03*
X149711000Y-52569000D03*
X148841000Y-52569000D03*
X149711000Y-51449000D03*
D16*
X148676000Y-50584000D03*
X149076000Y-50584000D03*
X149476000Y-50584000D03*
X149876000Y-50584000D03*
X148676000Y-53434000D03*
X149076000Y-53434000D03*
X149476000Y-53434000D03*
X149876000Y-53434000D03*
G04 #@! TD*
D12*
G04 #@! TO.C,U2*
X132478000Y-53130000D03*
X133678000Y-53130000D03*
X132478000Y-50280000D03*
X133678000Y-50280000D03*
D13*
X131603000Y-50705000D03*
X131603000Y-51205000D03*
D14*
X131318000Y-51705000D03*
D13*
X131603000Y-52205000D03*
D14*
X131318000Y-52705000D03*
D13*
X134553000Y-52705000D03*
X134553000Y-52205000D03*
D14*
X134838000Y-51705000D03*
X134838000Y-51205000D03*
X134838000Y-50705000D03*
D12*
X132878000Y-50280000D03*
X133278000Y-50280000D03*
X132878000Y-53130000D03*
X133278000Y-53130000D03*
D14*
X131318000Y-50705000D03*
X131318000Y-51205000D03*
D13*
X131603000Y-51705000D03*
D14*
X131318000Y-52205000D03*
D13*
X131603000Y-52705000D03*
D14*
X134838000Y-52705000D03*
X134838000Y-52205000D03*
D13*
X134553000Y-51705000D03*
X134553000Y-51205000D03*
X134553000Y-50705000D03*
D15*
X132643000Y-51145000D03*
X133513000Y-52265000D03*
X132643000Y-52265000D03*
X133513000Y-51145000D03*
D16*
X132478000Y-50280000D03*
X132878000Y-50280000D03*
X133278000Y-50280000D03*
X133678000Y-50280000D03*
X132478000Y-53130000D03*
X132878000Y-53130000D03*
X133278000Y-53130000D03*
X133678000Y-53130000D03*
G04 #@! TD*
G04 #@! TO.C,U3*
X116820000Y-53360000D03*
X116420000Y-53360000D03*
X116020000Y-53360000D03*
X115620000Y-53360000D03*
X116820000Y-50510000D03*
X116420000Y-50510000D03*
X116020000Y-50510000D03*
X115620000Y-50510000D03*
D15*
X116655000Y-51375000D03*
X115785000Y-52495000D03*
X116655000Y-52495000D03*
X115785000Y-51375000D03*
D13*
X117695000Y-50935000D03*
X117695000Y-51435000D03*
X117695000Y-51935000D03*
D14*
X117980000Y-52435000D03*
X117980000Y-52935000D03*
D13*
X114745000Y-52935000D03*
D14*
X114460000Y-52435000D03*
D13*
X114745000Y-51935000D03*
D14*
X114460000Y-51435000D03*
X114460000Y-50935000D03*
D12*
X116420000Y-53360000D03*
X116020000Y-53360000D03*
X116420000Y-50510000D03*
X116020000Y-50510000D03*
D14*
X117980000Y-50935000D03*
X117980000Y-51435000D03*
X117980000Y-51935000D03*
D13*
X117695000Y-52435000D03*
X117695000Y-52935000D03*
D14*
X114460000Y-52935000D03*
D13*
X114745000Y-52435000D03*
D14*
X114460000Y-51935000D03*
D13*
X114745000Y-51435000D03*
X114745000Y-50935000D03*
D12*
X116820000Y-50510000D03*
X115620000Y-50510000D03*
X116820000Y-53360000D03*
X115620000Y-53360000D03*
G04 #@! TD*
D10*
G04 #@! TO.C,R1*
G36*
X158773691Y-57983553D02*
X158794926Y-57986703D01*
X158815750Y-57991919D01*
X158835962Y-57999151D01*
X158855368Y-58008330D01*
X158873781Y-58019366D01*
X158891024Y-58032154D01*
X158906930Y-58046570D01*
X158921346Y-58062476D01*
X158934134Y-58079719D01*
X158945170Y-58098132D01*
X158954349Y-58117538D01*
X158961581Y-58137750D01*
X158966797Y-58158574D01*
X158969947Y-58179809D01*
X158971000Y-58201250D01*
X158971000Y-58638750D01*
X158969947Y-58660191D01*
X158966797Y-58681426D01*
X158961581Y-58702250D01*
X158954349Y-58722462D01*
X158945170Y-58741868D01*
X158934134Y-58760281D01*
X158921346Y-58777524D01*
X158906930Y-58793430D01*
X158891024Y-58807846D01*
X158873781Y-58820634D01*
X158855368Y-58831670D01*
X158835962Y-58840849D01*
X158815750Y-58848081D01*
X158794926Y-58853297D01*
X158773691Y-58856447D01*
X158752250Y-58857500D01*
X158239750Y-58857500D01*
X158218309Y-58856447D01*
X158197074Y-58853297D01*
X158176250Y-58848081D01*
X158156038Y-58840849D01*
X158136632Y-58831670D01*
X158118219Y-58820634D01*
X158100976Y-58807846D01*
X158085070Y-58793430D01*
X158070654Y-58777524D01*
X158057866Y-58760281D01*
X158046830Y-58741868D01*
X158037651Y-58722462D01*
X158030419Y-58702250D01*
X158025203Y-58681426D01*
X158022053Y-58660191D01*
X158021000Y-58638750D01*
X158021000Y-58201250D01*
X158022053Y-58179809D01*
X158025203Y-58158574D01*
X158030419Y-58137750D01*
X158037651Y-58117538D01*
X158046830Y-58098132D01*
X158057866Y-58079719D01*
X158070654Y-58062476D01*
X158085070Y-58046570D01*
X158100976Y-58032154D01*
X158118219Y-58019366D01*
X158136632Y-58008330D01*
X158156038Y-57999151D01*
X158176250Y-57991919D01*
X158197074Y-57986703D01*
X158218309Y-57983553D01*
X158239750Y-57982500D01*
X158752250Y-57982500D01*
X158773691Y-57983553D01*
X158773691Y-57983553D01*
G37*
D11*
X158496000Y-58420000D03*
D10*
G36*
X158773691Y-59558553D02*
X158794926Y-59561703D01*
X158815750Y-59566919D01*
X158835962Y-59574151D01*
X158855368Y-59583330D01*
X158873781Y-59594366D01*
X158891024Y-59607154D01*
X158906930Y-59621570D01*
X158921346Y-59637476D01*
X158934134Y-59654719D01*
X158945170Y-59673132D01*
X158954349Y-59692538D01*
X158961581Y-59712750D01*
X158966797Y-59733574D01*
X158969947Y-59754809D01*
X158971000Y-59776250D01*
X158971000Y-60213750D01*
X158969947Y-60235191D01*
X158966797Y-60256426D01*
X158961581Y-60277250D01*
X158954349Y-60297462D01*
X158945170Y-60316868D01*
X158934134Y-60335281D01*
X158921346Y-60352524D01*
X158906930Y-60368430D01*
X158891024Y-60382846D01*
X158873781Y-60395634D01*
X158855368Y-60406670D01*
X158835962Y-60415849D01*
X158815750Y-60423081D01*
X158794926Y-60428297D01*
X158773691Y-60431447D01*
X158752250Y-60432500D01*
X158239750Y-60432500D01*
X158218309Y-60431447D01*
X158197074Y-60428297D01*
X158176250Y-60423081D01*
X158156038Y-60415849D01*
X158136632Y-60406670D01*
X158118219Y-60395634D01*
X158100976Y-60382846D01*
X158085070Y-60368430D01*
X158070654Y-60352524D01*
X158057866Y-60335281D01*
X158046830Y-60316868D01*
X158037651Y-60297462D01*
X158030419Y-60277250D01*
X158025203Y-60256426D01*
X158022053Y-60235191D01*
X158021000Y-60213750D01*
X158021000Y-59776250D01*
X158022053Y-59754809D01*
X158025203Y-59733574D01*
X158030419Y-59712750D01*
X158037651Y-59692538D01*
X158046830Y-59673132D01*
X158057866Y-59654719D01*
X158070654Y-59637476D01*
X158085070Y-59621570D01*
X158100976Y-59607154D01*
X158118219Y-59594366D01*
X158136632Y-59583330D01*
X158156038Y-59574151D01*
X158176250Y-59566919D01*
X158197074Y-59561703D01*
X158218309Y-59558553D01*
X158239750Y-59557500D01*
X158752250Y-59557500D01*
X158773691Y-59558553D01*
X158773691Y-59558553D01*
G37*
D11*
X158496000Y-59995000D03*
G04 #@! TD*
D10*
G04 #@! TO.C,R2*
G36*
X158773691Y-69921553D02*
X158794926Y-69924703D01*
X158815750Y-69929919D01*
X158835962Y-69937151D01*
X158855368Y-69946330D01*
X158873781Y-69957366D01*
X158891024Y-69970154D01*
X158906930Y-69984570D01*
X158921346Y-70000476D01*
X158934134Y-70017719D01*
X158945170Y-70036132D01*
X158954349Y-70055538D01*
X158961581Y-70075750D01*
X158966797Y-70096574D01*
X158969947Y-70117809D01*
X158971000Y-70139250D01*
X158971000Y-70576750D01*
X158969947Y-70598191D01*
X158966797Y-70619426D01*
X158961581Y-70640250D01*
X158954349Y-70660462D01*
X158945170Y-70679868D01*
X158934134Y-70698281D01*
X158921346Y-70715524D01*
X158906930Y-70731430D01*
X158891024Y-70745846D01*
X158873781Y-70758634D01*
X158855368Y-70769670D01*
X158835962Y-70778849D01*
X158815750Y-70786081D01*
X158794926Y-70791297D01*
X158773691Y-70794447D01*
X158752250Y-70795500D01*
X158239750Y-70795500D01*
X158218309Y-70794447D01*
X158197074Y-70791297D01*
X158176250Y-70786081D01*
X158156038Y-70778849D01*
X158136632Y-70769670D01*
X158118219Y-70758634D01*
X158100976Y-70745846D01*
X158085070Y-70731430D01*
X158070654Y-70715524D01*
X158057866Y-70698281D01*
X158046830Y-70679868D01*
X158037651Y-70660462D01*
X158030419Y-70640250D01*
X158025203Y-70619426D01*
X158022053Y-70598191D01*
X158021000Y-70576750D01*
X158021000Y-70139250D01*
X158022053Y-70117809D01*
X158025203Y-70096574D01*
X158030419Y-70075750D01*
X158037651Y-70055538D01*
X158046830Y-70036132D01*
X158057866Y-70017719D01*
X158070654Y-70000476D01*
X158085070Y-69984570D01*
X158100976Y-69970154D01*
X158118219Y-69957366D01*
X158136632Y-69946330D01*
X158156038Y-69937151D01*
X158176250Y-69929919D01*
X158197074Y-69924703D01*
X158218309Y-69921553D01*
X158239750Y-69920500D01*
X158752250Y-69920500D01*
X158773691Y-69921553D01*
X158773691Y-69921553D01*
G37*
D11*
X158496000Y-70358000D03*
D10*
G36*
X158773691Y-68346553D02*
X158794926Y-68349703D01*
X158815750Y-68354919D01*
X158835962Y-68362151D01*
X158855368Y-68371330D01*
X158873781Y-68382366D01*
X158891024Y-68395154D01*
X158906930Y-68409570D01*
X158921346Y-68425476D01*
X158934134Y-68442719D01*
X158945170Y-68461132D01*
X158954349Y-68480538D01*
X158961581Y-68500750D01*
X158966797Y-68521574D01*
X158969947Y-68542809D01*
X158971000Y-68564250D01*
X158971000Y-69001750D01*
X158969947Y-69023191D01*
X158966797Y-69044426D01*
X158961581Y-69065250D01*
X158954349Y-69085462D01*
X158945170Y-69104868D01*
X158934134Y-69123281D01*
X158921346Y-69140524D01*
X158906930Y-69156430D01*
X158891024Y-69170846D01*
X158873781Y-69183634D01*
X158855368Y-69194670D01*
X158835962Y-69203849D01*
X158815750Y-69211081D01*
X158794926Y-69216297D01*
X158773691Y-69219447D01*
X158752250Y-69220500D01*
X158239750Y-69220500D01*
X158218309Y-69219447D01*
X158197074Y-69216297D01*
X158176250Y-69211081D01*
X158156038Y-69203849D01*
X158136632Y-69194670D01*
X158118219Y-69183634D01*
X158100976Y-69170846D01*
X158085070Y-69156430D01*
X158070654Y-69140524D01*
X158057866Y-69123281D01*
X158046830Y-69104868D01*
X158037651Y-69085462D01*
X158030419Y-69065250D01*
X158025203Y-69044426D01*
X158022053Y-69023191D01*
X158021000Y-69001750D01*
X158021000Y-68564250D01*
X158022053Y-68542809D01*
X158025203Y-68521574D01*
X158030419Y-68500750D01*
X158037651Y-68480538D01*
X158046830Y-68461132D01*
X158057866Y-68442719D01*
X158070654Y-68425476D01*
X158085070Y-68409570D01*
X158100976Y-68395154D01*
X158118219Y-68382366D01*
X158136632Y-68371330D01*
X158156038Y-68362151D01*
X158176250Y-68354919D01*
X158197074Y-68349703D01*
X158218309Y-68346553D01*
X158239750Y-68345500D01*
X158752250Y-68345500D01*
X158773691Y-68346553D01*
X158773691Y-68346553D01*
G37*
D11*
X158496000Y-68783000D03*
G04 #@! TD*
D10*
G04 #@! TO.C,R3*
G36*
X142517691Y-58821553D02*
X142538926Y-58824703D01*
X142559750Y-58829919D01*
X142579962Y-58837151D01*
X142599368Y-58846330D01*
X142617781Y-58857366D01*
X142635024Y-58870154D01*
X142650930Y-58884570D01*
X142665346Y-58900476D01*
X142678134Y-58917719D01*
X142689170Y-58936132D01*
X142698349Y-58955538D01*
X142705581Y-58975750D01*
X142710797Y-58996574D01*
X142713947Y-59017809D01*
X142715000Y-59039250D01*
X142715000Y-59476750D01*
X142713947Y-59498191D01*
X142710797Y-59519426D01*
X142705581Y-59540250D01*
X142698349Y-59560462D01*
X142689170Y-59579868D01*
X142678134Y-59598281D01*
X142665346Y-59615524D01*
X142650930Y-59631430D01*
X142635024Y-59645846D01*
X142617781Y-59658634D01*
X142599368Y-59669670D01*
X142579962Y-59678849D01*
X142559750Y-59686081D01*
X142538926Y-59691297D01*
X142517691Y-59694447D01*
X142496250Y-59695500D01*
X141983750Y-59695500D01*
X141962309Y-59694447D01*
X141941074Y-59691297D01*
X141920250Y-59686081D01*
X141900038Y-59678849D01*
X141880632Y-59669670D01*
X141862219Y-59658634D01*
X141844976Y-59645846D01*
X141829070Y-59631430D01*
X141814654Y-59615524D01*
X141801866Y-59598281D01*
X141790830Y-59579868D01*
X141781651Y-59560462D01*
X141774419Y-59540250D01*
X141769203Y-59519426D01*
X141766053Y-59498191D01*
X141765000Y-59476750D01*
X141765000Y-59039250D01*
X141766053Y-59017809D01*
X141769203Y-58996574D01*
X141774419Y-58975750D01*
X141781651Y-58955538D01*
X141790830Y-58936132D01*
X141801866Y-58917719D01*
X141814654Y-58900476D01*
X141829070Y-58884570D01*
X141844976Y-58870154D01*
X141862219Y-58857366D01*
X141880632Y-58846330D01*
X141900038Y-58837151D01*
X141920250Y-58829919D01*
X141941074Y-58824703D01*
X141962309Y-58821553D01*
X141983750Y-58820500D01*
X142496250Y-58820500D01*
X142517691Y-58821553D01*
X142517691Y-58821553D01*
G37*
D11*
X142240000Y-59258000D03*
D10*
G36*
X142517691Y-60396553D02*
X142538926Y-60399703D01*
X142559750Y-60404919D01*
X142579962Y-60412151D01*
X142599368Y-60421330D01*
X142617781Y-60432366D01*
X142635024Y-60445154D01*
X142650930Y-60459570D01*
X142665346Y-60475476D01*
X142678134Y-60492719D01*
X142689170Y-60511132D01*
X142698349Y-60530538D01*
X142705581Y-60550750D01*
X142710797Y-60571574D01*
X142713947Y-60592809D01*
X142715000Y-60614250D01*
X142715000Y-61051750D01*
X142713947Y-61073191D01*
X142710797Y-61094426D01*
X142705581Y-61115250D01*
X142698349Y-61135462D01*
X142689170Y-61154868D01*
X142678134Y-61173281D01*
X142665346Y-61190524D01*
X142650930Y-61206430D01*
X142635024Y-61220846D01*
X142617781Y-61233634D01*
X142599368Y-61244670D01*
X142579962Y-61253849D01*
X142559750Y-61261081D01*
X142538926Y-61266297D01*
X142517691Y-61269447D01*
X142496250Y-61270500D01*
X141983750Y-61270500D01*
X141962309Y-61269447D01*
X141941074Y-61266297D01*
X141920250Y-61261081D01*
X141900038Y-61253849D01*
X141880632Y-61244670D01*
X141862219Y-61233634D01*
X141844976Y-61220846D01*
X141829070Y-61206430D01*
X141814654Y-61190524D01*
X141801866Y-61173281D01*
X141790830Y-61154868D01*
X141781651Y-61135462D01*
X141774419Y-61115250D01*
X141769203Y-61094426D01*
X141766053Y-61073191D01*
X141765000Y-61051750D01*
X141765000Y-60614250D01*
X141766053Y-60592809D01*
X141769203Y-60571574D01*
X141774419Y-60550750D01*
X141781651Y-60530538D01*
X141790830Y-60511132D01*
X141801866Y-60492719D01*
X141814654Y-60475476D01*
X141829070Y-60459570D01*
X141844976Y-60445154D01*
X141862219Y-60432366D01*
X141880632Y-60421330D01*
X141900038Y-60412151D01*
X141920250Y-60404919D01*
X141941074Y-60399703D01*
X141962309Y-60396553D01*
X141983750Y-60395500D01*
X142496250Y-60395500D01*
X142517691Y-60396553D01*
X142517691Y-60396553D01*
G37*
D11*
X142240000Y-60833000D03*
G04 #@! TD*
D10*
G04 #@! TO.C,R4*
G36*
X142517691Y-69566053D02*
X142538926Y-69569203D01*
X142559750Y-69574419D01*
X142579962Y-69581651D01*
X142599368Y-69590830D01*
X142617781Y-69601866D01*
X142635024Y-69614654D01*
X142650930Y-69629070D01*
X142665346Y-69644976D01*
X142678134Y-69662219D01*
X142689170Y-69680632D01*
X142698349Y-69700038D01*
X142705581Y-69720250D01*
X142710797Y-69741074D01*
X142713947Y-69762309D01*
X142715000Y-69783750D01*
X142715000Y-70221250D01*
X142713947Y-70242691D01*
X142710797Y-70263926D01*
X142705581Y-70284750D01*
X142698349Y-70304962D01*
X142689170Y-70324368D01*
X142678134Y-70342781D01*
X142665346Y-70360024D01*
X142650930Y-70375930D01*
X142635024Y-70390346D01*
X142617781Y-70403134D01*
X142599368Y-70414170D01*
X142579962Y-70423349D01*
X142559750Y-70430581D01*
X142538926Y-70435797D01*
X142517691Y-70438947D01*
X142496250Y-70440000D01*
X141983750Y-70440000D01*
X141962309Y-70438947D01*
X141941074Y-70435797D01*
X141920250Y-70430581D01*
X141900038Y-70423349D01*
X141880632Y-70414170D01*
X141862219Y-70403134D01*
X141844976Y-70390346D01*
X141829070Y-70375930D01*
X141814654Y-70360024D01*
X141801866Y-70342781D01*
X141790830Y-70324368D01*
X141781651Y-70304962D01*
X141774419Y-70284750D01*
X141769203Y-70263926D01*
X141766053Y-70242691D01*
X141765000Y-70221250D01*
X141765000Y-69783750D01*
X141766053Y-69762309D01*
X141769203Y-69741074D01*
X141774419Y-69720250D01*
X141781651Y-69700038D01*
X141790830Y-69680632D01*
X141801866Y-69662219D01*
X141814654Y-69644976D01*
X141829070Y-69629070D01*
X141844976Y-69614654D01*
X141862219Y-69601866D01*
X141880632Y-69590830D01*
X141900038Y-69581651D01*
X141920250Y-69574419D01*
X141941074Y-69569203D01*
X141962309Y-69566053D01*
X141983750Y-69565000D01*
X142496250Y-69565000D01*
X142517691Y-69566053D01*
X142517691Y-69566053D01*
G37*
D11*
X142240000Y-70002500D03*
D10*
G36*
X142517691Y-67991053D02*
X142538926Y-67994203D01*
X142559750Y-67999419D01*
X142579962Y-68006651D01*
X142599368Y-68015830D01*
X142617781Y-68026866D01*
X142635024Y-68039654D01*
X142650930Y-68054070D01*
X142665346Y-68069976D01*
X142678134Y-68087219D01*
X142689170Y-68105632D01*
X142698349Y-68125038D01*
X142705581Y-68145250D01*
X142710797Y-68166074D01*
X142713947Y-68187309D01*
X142715000Y-68208750D01*
X142715000Y-68646250D01*
X142713947Y-68667691D01*
X142710797Y-68688926D01*
X142705581Y-68709750D01*
X142698349Y-68729962D01*
X142689170Y-68749368D01*
X142678134Y-68767781D01*
X142665346Y-68785024D01*
X142650930Y-68800930D01*
X142635024Y-68815346D01*
X142617781Y-68828134D01*
X142599368Y-68839170D01*
X142579962Y-68848349D01*
X142559750Y-68855581D01*
X142538926Y-68860797D01*
X142517691Y-68863947D01*
X142496250Y-68865000D01*
X141983750Y-68865000D01*
X141962309Y-68863947D01*
X141941074Y-68860797D01*
X141920250Y-68855581D01*
X141900038Y-68848349D01*
X141880632Y-68839170D01*
X141862219Y-68828134D01*
X141844976Y-68815346D01*
X141829070Y-68800930D01*
X141814654Y-68785024D01*
X141801866Y-68767781D01*
X141790830Y-68749368D01*
X141781651Y-68729962D01*
X141774419Y-68709750D01*
X141769203Y-68688926D01*
X141766053Y-68667691D01*
X141765000Y-68646250D01*
X141765000Y-68208750D01*
X141766053Y-68187309D01*
X141769203Y-68166074D01*
X141774419Y-68145250D01*
X141781651Y-68125038D01*
X141790830Y-68105632D01*
X141801866Y-68087219D01*
X141814654Y-68069976D01*
X141829070Y-68054070D01*
X141844976Y-68039654D01*
X141862219Y-68026866D01*
X141880632Y-68015830D01*
X141900038Y-68006651D01*
X141920250Y-67999419D01*
X141941074Y-67994203D01*
X141962309Y-67991053D01*
X141983750Y-67990000D01*
X142496250Y-67990000D01*
X142517691Y-67991053D01*
X142517691Y-67991053D01*
G37*
D11*
X142240000Y-68427500D03*
G04 #@! TD*
D10*
G04 #@! TO.C,R5*
G36*
X126007691Y-58948553D02*
X126028926Y-58951703D01*
X126049750Y-58956919D01*
X126069962Y-58964151D01*
X126089368Y-58973330D01*
X126107781Y-58984366D01*
X126125024Y-58997154D01*
X126140930Y-59011570D01*
X126155346Y-59027476D01*
X126168134Y-59044719D01*
X126179170Y-59063132D01*
X126188349Y-59082538D01*
X126195581Y-59102750D01*
X126200797Y-59123574D01*
X126203947Y-59144809D01*
X126205000Y-59166250D01*
X126205000Y-59603750D01*
X126203947Y-59625191D01*
X126200797Y-59646426D01*
X126195581Y-59667250D01*
X126188349Y-59687462D01*
X126179170Y-59706868D01*
X126168134Y-59725281D01*
X126155346Y-59742524D01*
X126140930Y-59758430D01*
X126125024Y-59772846D01*
X126107781Y-59785634D01*
X126089368Y-59796670D01*
X126069962Y-59805849D01*
X126049750Y-59813081D01*
X126028926Y-59818297D01*
X126007691Y-59821447D01*
X125986250Y-59822500D01*
X125473750Y-59822500D01*
X125452309Y-59821447D01*
X125431074Y-59818297D01*
X125410250Y-59813081D01*
X125390038Y-59805849D01*
X125370632Y-59796670D01*
X125352219Y-59785634D01*
X125334976Y-59772846D01*
X125319070Y-59758430D01*
X125304654Y-59742524D01*
X125291866Y-59725281D01*
X125280830Y-59706868D01*
X125271651Y-59687462D01*
X125264419Y-59667250D01*
X125259203Y-59646426D01*
X125256053Y-59625191D01*
X125255000Y-59603750D01*
X125255000Y-59166250D01*
X125256053Y-59144809D01*
X125259203Y-59123574D01*
X125264419Y-59102750D01*
X125271651Y-59082538D01*
X125280830Y-59063132D01*
X125291866Y-59044719D01*
X125304654Y-59027476D01*
X125319070Y-59011570D01*
X125334976Y-58997154D01*
X125352219Y-58984366D01*
X125370632Y-58973330D01*
X125390038Y-58964151D01*
X125410250Y-58956919D01*
X125431074Y-58951703D01*
X125452309Y-58948553D01*
X125473750Y-58947500D01*
X125986250Y-58947500D01*
X126007691Y-58948553D01*
X126007691Y-58948553D01*
G37*
D11*
X125730000Y-59385000D03*
D10*
G36*
X126007691Y-60523553D02*
X126028926Y-60526703D01*
X126049750Y-60531919D01*
X126069962Y-60539151D01*
X126089368Y-60548330D01*
X126107781Y-60559366D01*
X126125024Y-60572154D01*
X126140930Y-60586570D01*
X126155346Y-60602476D01*
X126168134Y-60619719D01*
X126179170Y-60638132D01*
X126188349Y-60657538D01*
X126195581Y-60677750D01*
X126200797Y-60698574D01*
X126203947Y-60719809D01*
X126205000Y-60741250D01*
X126205000Y-61178750D01*
X126203947Y-61200191D01*
X126200797Y-61221426D01*
X126195581Y-61242250D01*
X126188349Y-61262462D01*
X126179170Y-61281868D01*
X126168134Y-61300281D01*
X126155346Y-61317524D01*
X126140930Y-61333430D01*
X126125024Y-61347846D01*
X126107781Y-61360634D01*
X126089368Y-61371670D01*
X126069962Y-61380849D01*
X126049750Y-61388081D01*
X126028926Y-61393297D01*
X126007691Y-61396447D01*
X125986250Y-61397500D01*
X125473750Y-61397500D01*
X125452309Y-61396447D01*
X125431074Y-61393297D01*
X125410250Y-61388081D01*
X125390038Y-61380849D01*
X125370632Y-61371670D01*
X125352219Y-61360634D01*
X125334976Y-61347846D01*
X125319070Y-61333430D01*
X125304654Y-61317524D01*
X125291866Y-61300281D01*
X125280830Y-61281868D01*
X125271651Y-61262462D01*
X125264419Y-61242250D01*
X125259203Y-61221426D01*
X125256053Y-61200191D01*
X125255000Y-61178750D01*
X125255000Y-60741250D01*
X125256053Y-60719809D01*
X125259203Y-60698574D01*
X125264419Y-60677750D01*
X125271651Y-60657538D01*
X125280830Y-60638132D01*
X125291866Y-60619719D01*
X125304654Y-60602476D01*
X125319070Y-60586570D01*
X125334976Y-60572154D01*
X125352219Y-60559366D01*
X125370632Y-60548330D01*
X125390038Y-60539151D01*
X125410250Y-60531919D01*
X125431074Y-60526703D01*
X125452309Y-60523553D01*
X125473750Y-60522500D01*
X125986250Y-60522500D01*
X126007691Y-60523553D01*
X126007691Y-60523553D01*
G37*
D11*
X125730000Y-60960000D03*
G04 #@! TD*
D10*
G04 #@! TO.C,R6*
G36*
X126007691Y-70048553D02*
X126028926Y-70051703D01*
X126049750Y-70056919D01*
X126069962Y-70064151D01*
X126089368Y-70073330D01*
X126107781Y-70084366D01*
X126125024Y-70097154D01*
X126140930Y-70111570D01*
X126155346Y-70127476D01*
X126168134Y-70144719D01*
X126179170Y-70163132D01*
X126188349Y-70182538D01*
X126195581Y-70202750D01*
X126200797Y-70223574D01*
X126203947Y-70244809D01*
X126205000Y-70266250D01*
X126205000Y-70703750D01*
X126203947Y-70725191D01*
X126200797Y-70746426D01*
X126195581Y-70767250D01*
X126188349Y-70787462D01*
X126179170Y-70806868D01*
X126168134Y-70825281D01*
X126155346Y-70842524D01*
X126140930Y-70858430D01*
X126125024Y-70872846D01*
X126107781Y-70885634D01*
X126089368Y-70896670D01*
X126069962Y-70905849D01*
X126049750Y-70913081D01*
X126028926Y-70918297D01*
X126007691Y-70921447D01*
X125986250Y-70922500D01*
X125473750Y-70922500D01*
X125452309Y-70921447D01*
X125431074Y-70918297D01*
X125410250Y-70913081D01*
X125390038Y-70905849D01*
X125370632Y-70896670D01*
X125352219Y-70885634D01*
X125334976Y-70872846D01*
X125319070Y-70858430D01*
X125304654Y-70842524D01*
X125291866Y-70825281D01*
X125280830Y-70806868D01*
X125271651Y-70787462D01*
X125264419Y-70767250D01*
X125259203Y-70746426D01*
X125256053Y-70725191D01*
X125255000Y-70703750D01*
X125255000Y-70266250D01*
X125256053Y-70244809D01*
X125259203Y-70223574D01*
X125264419Y-70202750D01*
X125271651Y-70182538D01*
X125280830Y-70163132D01*
X125291866Y-70144719D01*
X125304654Y-70127476D01*
X125319070Y-70111570D01*
X125334976Y-70097154D01*
X125352219Y-70084366D01*
X125370632Y-70073330D01*
X125390038Y-70064151D01*
X125410250Y-70056919D01*
X125431074Y-70051703D01*
X125452309Y-70048553D01*
X125473750Y-70047500D01*
X125986250Y-70047500D01*
X126007691Y-70048553D01*
X126007691Y-70048553D01*
G37*
D11*
X125730000Y-70485000D03*
D10*
G36*
X126007691Y-68473553D02*
X126028926Y-68476703D01*
X126049750Y-68481919D01*
X126069962Y-68489151D01*
X126089368Y-68498330D01*
X126107781Y-68509366D01*
X126125024Y-68522154D01*
X126140930Y-68536570D01*
X126155346Y-68552476D01*
X126168134Y-68569719D01*
X126179170Y-68588132D01*
X126188349Y-68607538D01*
X126195581Y-68627750D01*
X126200797Y-68648574D01*
X126203947Y-68669809D01*
X126205000Y-68691250D01*
X126205000Y-69128750D01*
X126203947Y-69150191D01*
X126200797Y-69171426D01*
X126195581Y-69192250D01*
X126188349Y-69212462D01*
X126179170Y-69231868D01*
X126168134Y-69250281D01*
X126155346Y-69267524D01*
X126140930Y-69283430D01*
X126125024Y-69297846D01*
X126107781Y-69310634D01*
X126089368Y-69321670D01*
X126069962Y-69330849D01*
X126049750Y-69338081D01*
X126028926Y-69343297D01*
X126007691Y-69346447D01*
X125986250Y-69347500D01*
X125473750Y-69347500D01*
X125452309Y-69346447D01*
X125431074Y-69343297D01*
X125410250Y-69338081D01*
X125390038Y-69330849D01*
X125370632Y-69321670D01*
X125352219Y-69310634D01*
X125334976Y-69297846D01*
X125319070Y-69283430D01*
X125304654Y-69267524D01*
X125291866Y-69250281D01*
X125280830Y-69231868D01*
X125271651Y-69212462D01*
X125264419Y-69192250D01*
X125259203Y-69171426D01*
X125256053Y-69150191D01*
X125255000Y-69128750D01*
X125255000Y-68691250D01*
X125256053Y-68669809D01*
X125259203Y-68648574D01*
X125264419Y-68627750D01*
X125271651Y-68607538D01*
X125280830Y-68588132D01*
X125291866Y-68569719D01*
X125304654Y-68552476D01*
X125319070Y-68536570D01*
X125334976Y-68522154D01*
X125352219Y-68509366D01*
X125370632Y-68498330D01*
X125390038Y-68489151D01*
X125410250Y-68481919D01*
X125431074Y-68476703D01*
X125452309Y-68473553D01*
X125473750Y-68472500D01*
X125986250Y-68472500D01*
X126007691Y-68473553D01*
X126007691Y-68473553D01*
G37*
D11*
X125730000Y-68910000D03*
G04 #@! TD*
D10*
G04 #@! TO.C,C16*
G36*
X157516991Y-82736453D02*
X157538226Y-82739603D01*
X157559050Y-82744819D01*
X157579262Y-82752051D01*
X157598668Y-82761230D01*
X157617081Y-82772266D01*
X157634324Y-82785054D01*
X157650230Y-82799470D01*
X157664646Y-82815376D01*
X157677434Y-82832619D01*
X157688470Y-82851032D01*
X157697649Y-82870438D01*
X157704881Y-82890650D01*
X157710097Y-82911474D01*
X157713247Y-82932709D01*
X157714300Y-82954150D01*
X157714300Y-83466650D01*
X157713247Y-83488091D01*
X157710097Y-83509326D01*
X157704881Y-83530150D01*
X157697649Y-83550362D01*
X157688470Y-83569768D01*
X157677434Y-83588181D01*
X157664646Y-83605424D01*
X157650230Y-83621330D01*
X157634324Y-83635746D01*
X157617081Y-83648534D01*
X157598668Y-83659570D01*
X157579262Y-83668749D01*
X157559050Y-83675981D01*
X157538226Y-83681197D01*
X157516991Y-83684347D01*
X157495550Y-83685400D01*
X157058050Y-83685400D01*
X157036609Y-83684347D01*
X157015374Y-83681197D01*
X156994550Y-83675981D01*
X156974338Y-83668749D01*
X156954932Y-83659570D01*
X156936519Y-83648534D01*
X156919276Y-83635746D01*
X156903370Y-83621330D01*
X156888954Y-83605424D01*
X156876166Y-83588181D01*
X156865130Y-83569768D01*
X156855951Y-83550362D01*
X156848719Y-83530150D01*
X156843503Y-83509326D01*
X156840353Y-83488091D01*
X156839300Y-83466650D01*
X156839300Y-82954150D01*
X156840353Y-82932709D01*
X156843503Y-82911474D01*
X156848719Y-82890650D01*
X156855951Y-82870438D01*
X156865130Y-82851032D01*
X156876166Y-82832619D01*
X156888954Y-82815376D01*
X156903370Y-82799470D01*
X156919276Y-82785054D01*
X156936519Y-82772266D01*
X156954932Y-82761230D01*
X156974338Y-82752051D01*
X156994550Y-82744819D01*
X157015374Y-82739603D01*
X157036609Y-82736453D01*
X157058050Y-82735400D01*
X157495550Y-82735400D01*
X157516991Y-82736453D01*
X157516991Y-82736453D01*
G37*
D11*
X157276800Y-83210400D03*
D10*
G36*
X155941991Y-82736453D02*
X155963226Y-82739603D01*
X155984050Y-82744819D01*
X156004262Y-82752051D01*
X156023668Y-82761230D01*
X156042081Y-82772266D01*
X156059324Y-82785054D01*
X156075230Y-82799470D01*
X156089646Y-82815376D01*
X156102434Y-82832619D01*
X156113470Y-82851032D01*
X156122649Y-82870438D01*
X156129881Y-82890650D01*
X156135097Y-82911474D01*
X156138247Y-82932709D01*
X156139300Y-82954150D01*
X156139300Y-83466650D01*
X156138247Y-83488091D01*
X156135097Y-83509326D01*
X156129881Y-83530150D01*
X156122649Y-83550362D01*
X156113470Y-83569768D01*
X156102434Y-83588181D01*
X156089646Y-83605424D01*
X156075230Y-83621330D01*
X156059324Y-83635746D01*
X156042081Y-83648534D01*
X156023668Y-83659570D01*
X156004262Y-83668749D01*
X155984050Y-83675981D01*
X155963226Y-83681197D01*
X155941991Y-83684347D01*
X155920550Y-83685400D01*
X155483050Y-83685400D01*
X155461609Y-83684347D01*
X155440374Y-83681197D01*
X155419550Y-83675981D01*
X155399338Y-83668749D01*
X155379932Y-83659570D01*
X155361519Y-83648534D01*
X155344276Y-83635746D01*
X155328370Y-83621330D01*
X155313954Y-83605424D01*
X155301166Y-83588181D01*
X155290130Y-83569768D01*
X155280951Y-83550362D01*
X155273719Y-83530150D01*
X155268503Y-83509326D01*
X155265353Y-83488091D01*
X155264300Y-83466650D01*
X155264300Y-82954150D01*
X155265353Y-82932709D01*
X155268503Y-82911474D01*
X155273719Y-82890650D01*
X155280951Y-82870438D01*
X155290130Y-82851032D01*
X155301166Y-82832619D01*
X155313954Y-82815376D01*
X155328370Y-82799470D01*
X155344276Y-82785054D01*
X155361519Y-82772266D01*
X155379932Y-82761230D01*
X155399338Y-82752051D01*
X155419550Y-82744819D01*
X155440374Y-82739603D01*
X155461609Y-82736453D01*
X155483050Y-82735400D01*
X155920550Y-82735400D01*
X155941991Y-82736453D01*
X155941991Y-82736453D01*
G37*
D11*
X155701800Y-83210400D03*
G04 #@! TD*
D10*
G04 #@! TO.C,C17*
G36*
X157440891Y-94522053D02*
X157462126Y-94525203D01*
X157482950Y-94530419D01*
X157503162Y-94537651D01*
X157522568Y-94546830D01*
X157540981Y-94557866D01*
X157558224Y-94570654D01*
X157574130Y-94585070D01*
X157588546Y-94600976D01*
X157601334Y-94618219D01*
X157612370Y-94636632D01*
X157621549Y-94656038D01*
X157628781Y-94676250D01*
X157633997Y-94697074D01*
X157637147Y-94718309D01*
X157638200Y-94739750D01*
X157638200Y-95252250D01*
X157637147Y-95273691D01*
X157633997Y-95294926D01*
X157628781Y-95315750D01*
X157621549Y-95335962D01*
X157612370Y-95355368D01*
X157601334Y-95373781D01*
X157588546Y-95391024D01*
X157574130Y-95406930D01*
X157558224Y-95421346D01*
X157540981Y-95434134D01*
X157522568Y-95445170D01*
X157503162Y-95454349D01*
X157482950Y-95461581D01*
X157462126Y-95466797D01*
X157440891Y-95469947D01*
X157419450Y-95471000D01*
X156981950Y-95471000D01*
X156960509Y-95469947D01*
X156939274Y-95466797D01*
X156918450Y-95461581D01*
X156898238Y-95454349D01*
X156878832Y-95445170D01*
X156860419Y-95434134D01*
X156843176Y-95421346D01*
X156827270Y-95406930D01*
X156812854Y-95391024D01*
X156800066Y-95373781D01*
X156789030Y-95355368D01*
X156779851Y-95335962D01*
X156772619Y-95315750D01*
X156767403Y-95294926D01*
X156764253Y-95273691D01*
X156763200Y-95252250D01*
X156763200Y-94739750D01*
X156764253Y-94718309D01*
X156767403Y-94697074D01*
X156772619Y-94676250D01*
X156779851Y-94656038D01*
X156789030Y-94636632D01*
X156800066Y-94618219D01*
X156812854Y-94600976D01*
X156827270Y-94585070D01*
X156843176Y-94570654D01*
X156860419Y-94557866D01*
X156878832Y-94546830D01*
X156898238Y-94537651D01*
X156918450Y-94530419D01*
X156939274Y-94525203D01*
X156960509Y-94522053D01*
X156981950Y-94521000D01*
X157419450Y-94521000D01*
X157440891Y-94522053D01*
X157440891Y-94522053D01*
G37*
D11*
X157200700Y-94996000D03*
D10*
G36*
X155865891Y-94522053D02*
X155887126Y-94525203D01*
X155907950Y-94530419D01*
X155928162Y-94537651D01*
X155947568Y-94546830D01*
X155965981Y-94557866D01*
X155983224Y-94570654D01*
X155999130Y-94585070D01*
X156013546Y-94600976D01*
X156026334Y-94618219D01*
X156037370Y-94636632D01*
X156046549Y-94656038D01*
X156053781Y-94676250D01*
X156058997Y-94697074D01*
X156062147Y-94718309D01*
X156063200Y-94739750D01*
X156063200Y-95252250D01*
X156062147Y-95273691D01*
X156058997Y-95294926D01*
X156053781Y-95315750D01*
X156046549Y-95335962D01*
X156037370Y-95355368D01*
X156026334Y-95373781D01*
X156013546Y-95391024D01*
X155999130Y-95406930D01*
X155983224Y-95421346D01*
X155965981Y-95434134D01*
X155947568Y-95445170D01*
X155928162Y-95454349D01*
X155907950Y-95461581D01*
X155887126Y-95466797D01*
X155865891Y-95469947D01*
X155844450Y-95471000D01*
X155406950Y-95471000D01*
X155385509Y-95469947D01*
X155364274Y-95466797D01*
X155343450Y-95461581D01*
X155323238Y-95454349D01*
X155303832Y-95445170D01*
X155285419Y-95434134D01*
X155268176Y-95421346D01*
X155252270Y-95406930D01*
X155237854Y-95391024D01*
X155225066Y-95373781D01*
X155214030Y-95355368D01*
X155204851Y-95335962D01*
X155197619Y-95315750D01*
X155192403Y-95294926D01*
X155189253Y-95273691D01*
X155188200Y-95252250D01*
X155188200Y-94739750D01*
X155189253Y-94718309D01*
X155192403Y-94697074D01*
X155197619Y-94676250D01*
X155204851Y-94656038D01*
X155214030Y-94636632D01*
X155225066Y-94618219D01*
X155237854Y-94600976D01*
X155252270Y-94585070D01*
X155268176Y-94570654D01*
X155285419Y-94557866D01*
X155303832Y-94546830D01*
X155323238Y-94537651D01*
X155343450Y-94530419D01*
X155364274Y-94525203D01*
X155385509Y-94522053D01*
X155406950Y-94521000D01*
X155844450Y-94521000D01*
X155865891Y-94522053D01*
X155865891Y-94522053D01*
G37*
D11*
X155625700Y-94996000D03*
G04 #@! TD*
D17*
G04 #@! TO.C,U7*
X150977200Y-89052400D03*
D18*
X157277200Y-89052400D03*
X157277200Y-86752400D03*
X157277200Y-91352400D03*
G04 #@! TD*
M02*
