G04 #@! TF.GenerationSoftware,KiCad,Pcbnew,(5.0.1)-3*
G04 #@! TF.CreationDate,2021-02-08T17:12:00-05:00*
G04 #@! TF.ProjectId,fpga_esc,667067615F6573632E6B696361645F70,rev?*
G04 #@! TF.SameCoordinates,Original*
G04 #@! TF.FileFunction,Copper,L3,Inr,Plane*
G04 #@! TF.FilePolarity,Positive*
%FSLAX46Y46*%
G04 Gerber Fmt 4.6, Leading zero omitted, Abs format (unit mm)*
G04 Created by KiCad (PCBNEW (5.0.1)-3) date 2021-02-08 5:12:00 PM*
%MOMM*%
%LPD*%
G01*
G04 APERTURE LIST*
G04 #@! TA.AperFunction,ViaPad*
%ADD10R,2.600000X2.600000*%
G04 #@! TD*
G04 #@! TA.AperFunction,ViaPad*
%ADD11C,2.600000*%
G04 #@! TD*
G04 #@! TA.AperFunction,ViaPad*
%ADD12C,0.600000*%
G04 #@! TD*
G04 #@! TA.AperFunction,ViaPad*
%ADD13R,1.700000X1.700000*%
G04 #@! TD*
G04 #@! TA.AperFunction,ViaPad*
%ADD14O,1.700000X1.700000*%
G04 #@! TD*
G04 #@! TA.AperFunction,ViaPad*
%ADD15C,0.800000*%
G04 #@! TD*
G04 #@! TA.AperFunction,Conductor*
%ADD16C,0.250000*%
G04 #@! TD*
G04 #@! TA.AperFunction,Conductor*
%ADD17C,0.254000*%
G04 #@! TD*
G04 APERTURE END LIST*
D10*
G04 #@! TO.N,V_POWER*
G04 #@! TO.C,J3*
X160600400Y-44043600D03*
D11*
G04 #@! TO.N,GND*
X155600400Y-44043600D03*
G04 #@! TD*
D10*
G04 #@! TO.N,/Motor Output/output_1*
G04 #@! TO.C,J1*
X122301000Y-93853000D03*
D11*
G04 #@! TO.N,/Motor Output/output_2*
X117301000Y-93853000D03*
G04 #@! TO.N,/Motor Output/output_3*
X112301000Y-93853000D03*
G04 #@! TD*
D12*
G04 #@! TO.N,GND*
G04 #@! TO.C,U1*
X149276000Y-52009000D03*
X148776000Y-51509000D03*
X149776000Y-51509000D03*
X148776000Y-52509000D03*
X149776000Y-52509000D03*
G04 #@! TD*
G04 #@! TO.N,GND*
G04 #@! TO.C,U2*
X133078000Y-51705000D03*
X132578000Y-51205000D03*
X133578000Y-51205000D03*
X132578000Y-52205000D03*
X133578000Y-52205000D03*
G04 #@! TD*
G04 #@! TO.N,GND*
G04 #@! TO.C,U3*
X116720000Y-52435000D03*
X115720000Y-52435000D03*
X116720000Y-51435000D03*
X115720000Y-51435000D03*
X116220000Y-51935000D03*
G04 #@! TD*
D13*
G04 #@! TO.N,/Control Signals (from FPGA or microcontroller)/VS_3*
G04 #@! TO.C,J2*
X125730000Y-40640000D03*
D14*
G04 #@! TO.N,/Control Signals (from FPGA or microcontroller)/VS_2*
X128270000Y-40640000D03*
G04 #@! TO.N,/Control Signals (from FPGA or microcontroller)/VS_1*
X130810000Y-40640000D03*
G04 #@! TO.N,/Control Signals (from FPGA or microcontroller)/L3*
X133350000Y-40640000D03*
G04 #@! TO.N,/Control Signals (from FPGA or microcontroller)/H3*
X135890000Y-40640000D03*
G04 #@! TO.N,/Control Signals (from FPGA or microcontroller)/L2*
X138430000Y-40640000D03*
G04 #@! TO.N,/Control Signals (from FPGA or microcontroller)/H2*
X140970000Y-40640000D03*
G04 #@! TO.N,/Control Signals (from FPGA or microcontroller)/L1*
X143510000Y-40640000D03*
G04 #@! TO.N,/Control Signals (from FPGA or microcontroller)/H1*
X146050000Y-40640000D03*
G04 #@! TD*
D15*
G04 #@! TO.N,*
X115443000Y-70231000D03*
X115443000Y-61341000D03*
X117348000Y-63246000D03*
X117348000Y-59690000D03*
X113538000Y-59690000D03*
X113538000Y-63246000D03*
X113538000Y-72136000D03*
X117348000Y-72136000D03*
X117348000Y-68580000D03*
X113538000Y-68580000D03*
X150241000Y-68834000D03*
X146304000Y-72136000D03*
X146304000Y-68834000D03*
X150368000Y-72263000D03*
X148336000Y-70612000D03*
X150495000Y-59563000D03*
X146558000Y-62865000D03*
X146558000Y-59563000D03*
X150622000Y-62992000D03*
X148590000Y-61341000D03*
X134112000Y-63119000D03*
X133985000Y-59690000D03*
X132080000Y-61468000D03*
X130048000Y-62992000D03*
X130048000Y-59690000D03*
X133985000Y-72390000D03*
X130175000Y-72390000D03*
X132080000Y-70612000D03*
X133985000Y-68707000D03*
X130175000Y-68707000D03*
G04 #@! TO.N,/Control Signals (from FPGA or microcontroller)/H2*
X139573000Y-54356000D03*
G04 #@! TO.N,/Control Signals (from FPGA or microcontroller)/H3*
X121158000Y-53848000D03*
G04 #@! TO.N,/Control Signals (from FPGA or microcontroller)/L2*
X137922000Y-52247490D03*
G04 #@! TO.N,/Control Signals (from FPGA or microcontroller)/L3*
X124206000Y-51435000D03*
G04 #@! TO.N,/Three Phase Bridge/PHASE_1*
X154940000Y-66167000D03*
G04 #@! TO.N,/Three Phase Bridge/PHASE_2*
X138303000Y-65659000D03*
G04 #@! TO.N,/Three Phase Bridge/PHASE_3*
X121675000Y-66040000D03*
G04 #@! TO.N,/Control Signals (from FPGA or microcontroller)/VS_3*
X118110000Y-77470000D03*
G04 #@! TO.N,/Control Signals (from FPGA or microcontroller)/VS_1*
X152019000Y-77597000D03*
G04 #@! TO.N,/Control Signals (from FPGA or microcontroller)/VS_2*
X134874000Y-77470000D03*
G04 #@! TO.N,+3V3*
X130810000Y-81915000D03*
X113665000Y-82042000D03*
X147320000Y-82042000D03*
G04 #@! TO.N,Net-(Q1-Pad2)*
X158496000Y-61341000D03*
G04 #@! TO.N,V_POWER*
X140335000Y-57150000D03*
X156591000Y-57150000D03*
X123571000Y-57150000D03*
X114808000Y-46990000D03*
X131572000Y-46990000D03*
X147828000Y-47117000D03*
G04 #@! TO.N,Net-(Q2-Pad2)*
X157099000Y-70358000D03*
G04 #@! TO.N,Net-(Q3-Pad2)*
X140843000Y-60833000D03*
G04 #@! TO.N,Net-(Q4-Pad2)*
X140716000Y-69977000D03*
G04 #@! TO.N,Net-(Q5-Pad2)*
X125730000Y-62484000D03*
G04 #@! TO.N,Net-(Q6-Pad2)*
X124333000Y-70485000D03*
G04 #@! TD*
D16*
G04 #@! TO.N,+3V3*
X130937000Y-82042000D02*
X130810000Y-81915000D01*
X130683000Y-82042000D02*
X130810000Y-81915000D01*
X113665000Y-82042000D02*
X130683000Y-82042000D01*
X147193000Y-81915000D02*
X147320000Y-82042000D01*
X130810000Y-81915000D02*
X147193000Y-81915000D01*
G04 #@! TD*
D17*
G04 #@! TO.N,V_POWER*
G36*
X124281843Y-39542235D02*
X124232560Y-39790000D01*
X124232560Y-41490000D01*
X124281843Y-41737765D01*
X124422191Y-41947809D01*
X124632235Y-42088157D01*
X124880000Y-42137440D01*
X126580000Y-42137440D01*
X126827765Y-42088157D01*
X127037809Y-41947809D01*
X127178157Y-41737765D01*
X127187184Y-41692381D01*
X127199375Y-41710625D01*
X127690582Y-42038839D01*
X128123744Y-42125000D01*
X128416256Y-42125000D01*
X128849418Y-42038839D01*
X129340625Y-41710625D01*
X129540000Y-41412239D01*
X129739375Y-41710625D01*
X130230582Y-42038839D01*
X130663744Y-42125000D01*
X130956256Y-42125000D01*
X131389418Y-42038839D01*
X131880625Y-41710625D01*
X132080000Y-41412239D01*
X132279375Y-41710625D01*
X132770582Y-42038839D01*
X133203744Y-42125000D01*
X133496256Y-42125000D01*
X133929418Y-42038839D01*
X134420625Y-41710625D01*
X134620000Y-41412239D01*
X134819375Y-41710625D01*
X135310582Y-42038839D01*
X135743744Y-42125000D01*
X136036256Y-42125000D01*
X136469418Y-42038839D01*
X136960625Y-41710625D01*
X137160000Y-41412239D01*
X137359375Y-41710625D01*
X137850582Y-42038839D01*
X138283744Y-42125000D01*
X138576256Y-42125000D01*
X139009418Y-42038839D01*
X139500625Y-41710625D01*
X139700000Y-41412239D01*
X139899375Y-41710625D01*
X140390582Y-42038839D01*
X140823744Y-42125000D01*
X141116256Y-42125000D01*
X141549418Y-42038839D01*
X142040625Y-41710625D01*
X142240000Y-41412239D01*
X142439375Y-41710625D01*
X142930582Y-42038839D01*
X143363744Y-42125000D01*
X143656256Y-42125000D01*
X144089418Y-42038839D01*
X144580625Y-41710625D01*
X144780000Y-41412239D01*
X144979375Y-41710625D01*
X145470582Y-42038839D01*
X145903744Y-42125000D01*
X146196256Y-42125000D01*
X146629418Y-42038839D01*
X147120625Y-41710625D01*
X147448839Y-41219418D01*
X147564092Y-40640000D01*
X147448839Y-40060582D01*
X147120625Y-39569375D01*
X147012308Y-39497000D01*
X163703000Y-39497000D01*
X163703000Y-58039000D01*
X109347000Y-58039000D01*
X109347000Y-53642126D01*
X120123000Y-53642126D01*
X120123000Y-54053874D01*
X120280569Y-54434280D01*
X120571720Y-54725431D01*
X120952126Y-54883000D01*
X121363874Y-54883000D01*
X121744280Y-54725431D01*
X122035431Y-54434280D01*
X122153131Y-54150126D01*
X138538000Y-54150126D01*
X138538000Y-54561874D01*
X138695569Y-54942280D01*
X138986720Y-55233431D01*
X139367126Y-55391000D01*
X139778874Y-55391000D01*
X140159280Y-55233431D01*
X140450431Y-54942280D01*
X140608000Y-54561874D01*
X140608000Y-54150126D01*
X140450431Y-53769720D01*
X140159280Y-53478569D01*
X139778874Y-53321000D01*
X139367126Y-53321000D01*
X138986720Y-53478569D01*
X138695569Y-53769720D01*
X138538000Y-54150126D01*
X122153131Y-54150126D01*
X122193000Y-54053874D01*
X122193000Y-53642126D01*
X122035431Y-53261720D01*
X121744280Y-52970569D01*
X121363874Y-52813000D01*
X120952126Y-52813000D01*
X120571720Y-52970569D01*
X120280569Y-53261720D01*
X120123000Y-53642126D01*
X109347000Y-53642126D01*
X109347000Y-51249017D01*
X114785000Y-51249017D01*
X114785000Y-51620983D01*
X114915070Y-51935000D01*
X114785000Y-52249017D01*
X114785000Y-52620983D01*
X114927345Y-52964635D01*
X115190365Y-53227655D01*
X115534017Y-53370000D01*
X115905983Y-53370000D01*
X116220000Y-53239930D01*
X116534017Y-53370000D01*
X116905983Y-53370000D01*
X117249635Y-53227655D01*
X117512655Y-52964635D01*
X117655000Y-52620983D01*
X117655000Y-52249017D01*
X117524930Y-51935000D01*
X117655000Y-51620983D01*
X117655000Y-51249017D01*
X117646761Y-51229126D01*
X123171000Y-51229126D01*
X123171000Y-51640874D01*
X123328569Y-52021280D01*
X123619720Y-52312431D01*
X124000126Y-52470000D01*
X124411874Y-52470000D01*
X124792280Y-52312431D01*
X125083431Y-52021280D01*
X125241000Y-51640874D01*
X125241000Y-51229126D01*
X125153971Y-51019017D01*
X131643000Y-51019017D01*
X131643000Y-51390983D01*
X131773070Y-51705000D01*
X131643000Y-52019017D01*
X131643000Y-52390983D01*
X131785345Y-52734635D01*
X132048365Y-52997655D01*
X132392017Y-53140000D01*
X132763983Y-53140000D01*
X133078000Y-53009930D01*
X133392017Y-53140000D01*
X133763983Y-53140000D01*
X134107635Y-52997655D01*
X134370655Y-52734635D01*
X134513000Y-52390983D01*
X134513000Y-52041616D01*
X136887000Y-52041616D01*
X136887000Y-52453364D01*
X137044569Y-52833770D01*
X137335720Y-53124921D01*
X137716126Y-53282490D01*
X138127874Y-53282490D01*
X138508280Y-53124921D01*
X138799431Y-52833770D01*
X138957000Y-52453364D01*
X138957000Y-52041616D01*
X138799431Y-51661210D01*
X138508280Y-51370059D01*
X138394711Y-51323017D01*
X147841000Y-51323017D01*
X147841000Y-51694983D01*
X147971070Y-52009000D01*
X147841000Y-52323017D01*
X147841000Y-52694983D01*
X147983345Y-53038635D01*
X148246365Y-53301655D01*
X148590017Y-53444000D01*
X148961983Y-53444000D01*
X149276000Y-53313930D01*
X149590017Y-53444000D01*
X149961983Y-53444000D01*
X150305635Y-53301655D01*
X150568655Y-53038635D01*
X150711000Y-52694983D01*
X150711000Y-52323017D01*
X150580930Y-52009000D01*
X150711000Y-51694983D01*
X150711000Y-51323017D01*
X150568655Y-50979365D01*
X150305635Y-50716345D01*
X149961983Y-50574000D01*
X149590017Y-50574000D01*
X149276000Y-50704070D01*
X148961983Y-50574000D01*
X148590017Y-50574000D01*
X148246365Y-50716345D01*
X147983345Y-50979365D01*
X147841000Y-51323017D01*
X138394711Y-51323017D01*
X138127874Y-51212490D01*
X137716126Y-51212490D01*
X137335720Y-51370059D01*
X137044569Y-51661210D01*
X136887000Y-52041616D01*
X134513000Y-52041616D01*
X134513000Y-52019017D01*
X134382930Y-51705000D01*
X134513000Y-51390983D01*
X134513000Y-51019017D01*
X134370655Y-50675365D01*
X134107635Y-50412345D01*
X133763983Y-50270000D01*
X133392017Y-50270000D01*
X133078000Y-50400070D01*
X132763983Y-50270000D01*
X132392017Y-50270000D01*
X132048365Y-50412345D01*
X131785345Y-50675365D01*
X131643000Y-51019017D01*
X125153971Y-51019017D01*
X125083431Y-50848720D01*
X124792280Y-50557569D01*
X124411874Y-50400000D01*
X124000126Y-50400000D01*
X123619720Y-50557569D01*
X123328569Y-50848720D01*
X123171000Y-51229126D01*
X117646761Y-51229126D01*
X117512655Y-50905365D01*
X117249635Y-50642345D01*
X116905983Y-50500000D01*
X116534017Y-50500000D01*
X116220000Y-50630070D01*
X115905983Y-50500000D01*
X115534017Y-50500000D01*
X115190365Y-50642345D01*
X114927345Y-50905365D01*
X114785000Y-51249017D01*
X109347000Y-51249017D01*
X109347000Y-43658705D01*
X153665400Y-43658705D01*
X153665400Y-44428495D01*
X153959986Y-45139690D01*
X154504310Y-45684014D01*
X155215505Y-45978600D01*
X155985295Y-45978600D01*
X156696490Y-45684014D01*
X157240814Y-45139690D01*
X157535400Y-44428495D01*
X157535400Y-44329350D01*
X158665400Y-44329350D01*
X158665400Y-45469910D01*
X158762073Y-45703299D01*
X158940702Y-45881927D01*
X159174091Y-45978600D01*
X160314650Y-45978600D01*
X160473400Y-45819850D01*
X160473400Y-44170600D01*
X160727400Y-44170600D01*
X160727400Y-45819850D01*
X160886150Y-45978600D01*
X162026709Y-45978600D01*
X162260098Y-45881927D01*
X162438727Y-45703299D01*
X162535400Y-45469910D01*
X162535400Y-44329350D01*
X162376650Y-44170600D01*
X160727400Y-44170600D01*
X160473400Y-44170600D01*
X158824150Y-44170600D01*
X158665400Y-44329350D01*
X157535400Y-44329350D01*
X157535400Y-43658705D01*
X157240814Y-42947510D01*
X156910594Y-42617290D01*
X158665400Y-42617290D01*
X158665400Y-43757850D01*
X158824150Y-43916600D01*
X160473400Y-43916600D01*
X160473400Y-42267350D01*
X160727400Y-42267350D01*
X160727400Y-43916600D01*
X162376650Y-43916600D01*
X162535400Y-43757850D01*
X162535400Y-42617290D01*
X162438727Y-42383901D01*
X162260098Y-42205273D01*
X162026709Y-42108600D01*
X160886150Y-42108600D01*
X160727400Y-42267350D01*
X160473400Y-42267350D01*
X160314650Y-42108600D01*
X159174091Y-42108600D01*
X158940702Y-42205273D01*
X158762073Y-42383901D01*
X158665400Y-42617290D01*
X156910594Y-42617290D01*
X156696490Y-42403186D01*
X155985295Y-42108600D01*
X155215505Y-42108600D01*
X154504310Y-42403186D01*
X153959986Y-42947510D01*
X153665400Y-43658705D01*
X109347000Y-43658705D01*
X109347000Y-39497000D01*
X124312068Y-39497000D01*
X124281843Y-39542235D01*
X124281843Y-39542235D01*
G37*
X124281843Y-39542235D02*
X124232560Y-39790000D01*
X124232560Y-41490000D01*
X124281843Y-41737765D01*
X124422191Y-41947809D01*
X124632235Y-42088157D01*
X124880000Y-42137440D01*
X126580000Y-42137440D01*
X126827765Y-42088157D01*
X127037809Y-41947809D01*
X127178157Y-41737765D01*
X127187184Y-41692381D01*
X127199375Y-41710625D01*
X127690582Y-42038839D01*
X128123744Y-42125000D01*
X128416256Y-42125000D01*
X128849418Y-42038839D01*
X129340625Y-41710625D01*
X129540000Y-41412239D01*
X129739375Y-41710625D01*
X130230582Y-42038839D01*
X130663744Y-42125000D01*
X130956256Y-42125000D01*
X131389418Y-42038839D01*
X131880625Y-41710625D01*
X132080000Y-41412239D01*
X132279375Y-41710625D01*
X132770582Y-42038839D01*
X133203744Y-42125000D01*
X133496256Y-42125000D01*
X133929418Y-42038839D01*
X134420625Y-41710625D01*
X134620000Y-41412239D01*
X134819375Y-41710625D01*
X135310582Y-42038839D01*
X135743744Y-42125000D01*
X136036256Y-42125000D01*
X136469418Y-42038839D01*
X136960625Y-41710625D01*
X137160000Y-41412239D01*
X137359375Y-41710625D01*
X137850582Y-42038839D01*
X138283744Y-42125000D01*
X138576256Y-42125000D01*
X139009418Y-42038839D01*
X139500625Y-41710625D01*
X139700000Y-41412239D01*
X139899375Y-41710625D01*
X140390582Y-42038839D01*
X140823744Y-42125000D01*
X141116256Y-42125000D01*
X141549418Y-42038839D01*
X142040625Y-41710625D01*
X142240000Y-41412239D01*
X142439375Y-41710625D01*
X142930582Y-42038839D01*
X143363744Y-42125000D01*
X143656256Y-42125000D01*
X144089418Y-42038839D01*
X144580625Y-41710625D01*
X144780000Y-41412239D01*
X144979375Y-41710625D01*
X145470582Y-42038839D01*
X145903744Y-42125000D01*
X146196256Y-42125000D01*
X146629418Y-42038839D01*
X147120625Y-41710625D01*
X147448839Y-41219418D01*
X147564092Y-40640000D01*
X147448839Y-40060582D01*
X147120625Y-39569375D01*
X147012308Y-39497000D01*
X163703000Y-39497000D01*
X163703000Y-58039000D01*
X109347000Y-58039000D01*
X109347000Y-53642126D01*
X120123000Y-53642126D01*
X120123000Y-54053874D01*
X120280569Y-54434280D01*
X120571720Y-54725431D01*
X120952126Y-54883000D01*
X121363874Y-54883000D01*
X121744280Y-54725431D01*
X122035431Y-54434280D01*
X122153131Y-54150126D01*
X138538000Y-54150126D01*
X138538000Y-54561874D01*
X138695569Y-54942280D01*
X138986720Y-55233431D01*
X139367126Y-55391000D01*
X139778874Y-55391000D01*
X140159280Y-55233431D01*
X140450431Y-54942280D01*
X140608000Y-54561874D01*
X140608000Y-54150126D01*
X140450431Y-53769720D01*
X140159280Y-53478569D01*
X139778874Y-53321000D01*
X139367126Y-53321000D01*
X138986720Y-53478569D01*
X138695569Y-53769720D01*
X138538000Y-54150126D01*
X122153131Y-54150126D01*
X122193000Y-54053874D01*
X122193000Y-53642126D01*
X122035431Y-53261720D01*
X121744280Y-52970569D01*
X121363874Y-52813000D01*
X120952126Y-52813000D01*
X120571720Y-52970569D01*
X120280569Y-53261720D01*
X120123000Y-53642126D01*
X109347000Y-53642126D01*
X109347000Y-51249017D01*
X114785000Y-51249017D01*
X114785000Y-51620983D01*
X114915070Y-51935000D01*
X114785000Y-52249017D01*
X114785000Y-52620983D01*
X114927345Y-52964635D01*
X115190365Y-53227655D01*
X115534017Y-53370000D01*
X115905983Y-53370000D01*
X116220000Y-53239930D01*
X116534017Y-53370000D01*
X116905983Y-53370000D01*
X117249635Y-53227655D01*
X117512655Y-52964635D01*
X117655000Y-52620983D01*
X117655000Y-52249017D01*
X117524930Y-51935000D01*
X117655000Y-51620983D01*
X117655000Y-51249017D01*
X117646761Y-51229126D01*
X123171000Y-51229126D01*
X123171000Y-51640874D01*
X123328569Y-52021280D01*
X123619720Y-52312431D01*
X124000126Y-52470000D01*
X124411874Y-52470000D01*
X124792280Y-52312431D01*
X125083431Y-52021280D01*
X125241000Y-51640874D01*
X125241000Y-51229126D01*
X125153971Y-51019017D01*
X131643000Y-51019017D01*
X131643000Y-51390983D01*
X131773070Y-51705000D01*
X131643000Y-52019017D01*
X131643000Y-52390983D01*
X131785345Y-52734635D01*
X132048365Y-52997655D01*
X132392017Y-53140000D01*
X132763983Y-53140000D01*
X133078000Y-53009930D01*
X133392017Y-53140000D01*
X133763983Y-53140000D01*
X134107635Y-52997655D01*
X134370655Y-52734635D01*
X134513000Y-52390983D01*
X134513000Y-52041616D01*
X136887000Y-52041616D01*
X136887000Y-52453364D01*
X137044569Y-52833770D01*
X137335720Y-53124921D01*
X137716126Y-53282490D01*
X138127874Y-53282490D01*
X138508280Y-53124921D01*
X138799431Y-52833770D01*
X138957000Y-52453364D01*
X138957000Y-52041616D01*
X138799431Y-51661210D01*
X138508280Y-51370059D01*
X138394711Y-51323017D01*
X147841000Y-51323017D01*
X147841000Y-51694983D01*
X147971070Y-52009000D01*
X147841000Y-52323017D01*
X147841000Y-52694983D01*
X147983345Y-53038635D01*
X148246365Y-53301655D01*
X148590017Y-53444000D01*
X148961983Y-53444000D01*
X149276000Y-53313930D01*
X149590017Y-53444000D01*
X149961983Y-53444000D01*
X150305635Y-53301655D01*
X150568655Y-53038635D01*
X150711000Y-52694983D01*
X150711000Y-52323017D01*
X150580930Y-52009000D01*
X150711000Y-51694983D01*
X150711000Y-51323017D01*
X150568655Y-50979365D01*
X150305635Y-50716345D01*
X149961983Y-50574000D01*
X149590017Y-50574000D01*
X149276000Y-50704070D01*
X148961983Y-50574000D01*
X148590017Y-50574000D01*
X148246365Y-50716345D01*
X147983345Y-50979365D01*
X147841000Y-51323017D01*
X138394711Y-51323017D01*
X138127874Y-51212490D01*
X137716126Y-51212490D01*
X137335720Y-51370059D01*
X137044569Y-51661210D01*
X136887000Y-52041616D01*
X134513000Y-52041616D01*
X134513000Y-52019017D01*
X134382930Y-51705000D01*
X134513000Y-51390983D01*
X134513000Y-51019017D01*
X134370655Y-50675365D01*
X134107635Y-50412345D01*
X133763983Y-50270000D01*
X133392017Y-50270000D01*
X133078000Y-50400070D01*
X132763983Y-50270000D01*
X132392017Y-50270000D01*
X132048365Y-50412345D01*
X131785345Y-50675365D01*
X131643000Y-51019017D01*
X125153971Y-51019017D01*
X125083431Y-50848720D01*
X124792280Y-50557569D01*
X124411874Y-50400000D01*
X124000126Y-50400000D01*
X123619720Y-50557569D01*
X123328569Y-50848720D01*
X123171000Y-51229126D01*
X117646761Y-51229126D01*
X117512655Y-50905365D01*
X117249635Y-50642345D01*
X116905983Y-50500000D01*
X116534017Y-50500000D01*
X116220000Y-50630070D01*
X115905983Y-50500000D01*
X115534017Y-50500000D01*
X115190365Y-50642345D01*
X114927345Y-50905365D01*
X114785000Y-51249017D01*
X109347000Y-51249017D01*
X109347000Y-43658705D01*
X153665400Y-43658705D01*
X153665400Y-44428495D01*
X153959986Y-45139690D01*
X154504310Y-45684014D01*
X155215505Y-45978600D01*
X155985295Y-45978600D01*
X156696490Y-45684014D01*
X157240814Y-45139690D01*
X157535400Y-44428495D01*
X157535400Y-44329350D01*
X158665400Y-44329350D01*
X158665400Y-45469910D01*
X158762073Y-45703299D01*
X158940702Y-45881927D01*
X159174091Y-45978600D01*
X160314650Y-45978600D01*
X160473400Y-45819850D01*
X160473400Y-44170600D01*
X160727400Y-44170600D01*
X160727400Y-45819850D01*
X160886150Y-45978600D01*
X162026709Y-45978600D01*
X162260098Y-45881927D01*
X162438727Y-45703299D01*
X162535400Y-45469910D01*
X162535400Y-44329350D01*
X162376650Y-44170600D01*
X160727400Y-44170600D01*
X160473400Y-44170600D01*
X158824150Y-44170600D01*
X158665400Y-44329350D01*
X157535400Y-44329350D01*
X157535400Y-43658705D01*
X157240814Y-42947510D01*
X156910594Y-42617290D01*
X158665400Y-42617290D01*
X158665400Y-43757850D01*
X158824150Y-43916600D01*
X160473400Y-43916600D01*
X160473400Y-42267350D01*
X160727400Y-42267350D01*
X160727400Y-43916600D01*
X162376650Y-43916600D01*
X162535400Y-43757850D01*
X162535400Y-42617290D01*
X162438727Y-42383901D01*
X162260098Y-42205273D01*
X162026709Y-42108600D01*
X160886150Y-42108600D01*
X160727400Y-42267350D01*
X160473400Y-42267350D01*
X160314650Y-42108600D01*
X159174091Y-42108600D01*
X158940702Y-42205273D01*
X158762073Y-42383901D01*
X158665400Y-42617290D01*
X156910594Y-42617290D01*
X156696490Y-42403186D01*
X155985295Y-42108600D01*
X155215505Y-42108600D01*
X154504310Y-42403186D01*
X153959986Y-42947510D01*
X153665400Y-43658705D01*
X109347000Y-43658705D01*
X109347000Y-39497000D01*
X124312068Y-39497000D01*
X124281843Y-39542235D01*
G04 #@! TD*
M02*
