G04 #@! TF.GenerationSoftware,KiCad,Pcbnew,(5.0.1)-3*
G04 #@! TF.CreationDate,2021-02-08T17:12:00-05:00*
G04 #@! TF.ProjectId,fpga_esc,667067615F6573632E6B696361645F70,rev?*
G04 #@! TF.SameCoordinates,Original*
G04 #@! TF.FileFunction,Copper,L4,Bot,Signal*
G04 #@! TF.FilePolarity,Positive*
%FSLAX46Y46*%
G04 Gerber Fmt 4.6, Leading zero omitted, Abs format (unit mm)*
G04 Created by KiCad (PCBNEW (5.0.1)-3) date 2021-02-08 5:12:00 PM*
%MOMM*%
%LPD*%
G01*
G04 APERTURE LIST*
G04 #@! TA.AperFunction,ComponentPad*
%ADD10R,2.600000X2.600000*%
G04 #@! TD*
G04 #@! TA.AperFunction,ComponentPad*
%ADD11C,2.600000*%
G04 #@! TD*
G04 #@! TA.AperFunction,Conductor*
%ADD12C,0.100000*%
G04 #@! TD*
G04 #@! TA.AperFunction,SMDPad,CuDef*
%ADD13C,0.875000*%
G04 #@! TD*
G04 #@! TA.AperFunction,ComponentPad*
%ADD14C,0.600000*%
G04 #@! TD*
G04 #@! TA.AperFunction,Conductor*
%ADD15R,2.300000X2.300000*%
G04 #@! TD*
G04 #@! TA.AperFunction,SMDPad,CuDef*
%ADD16R,1.550000X0.600000*%
G04 #@! TD*
G04 #@! TA.AperFunction,ComponentPad*
%ADD17R,1.700000X1.700000*%
G04 #@! TD*
G04 #@! TA.AperFunction,ComponentPad*
%ADD18O,1.700000X1.700000*%
G04 #@! TD*
G04 #@! TA.AperFunction,SMDPad,CuDef*
%ADD19R,6.400000X5.800000*%
G04 #@! TD*
G04 #@! TA.AperFunction,SMDPad,CuDef*
%ADD20R,2.200000X1.200000*%
G04 #@! TD*
G04 #@! TA.AperFunction,ViaPad*
%ADD21C,0.800000*%
G04 #@! TD*
G04 #@! TA.AperFunction,Conductor*
%ADD22C,0.250000*%
G04 #@! TD*
G04 #@! TA.AperFunction,Conductor*
%ADD23C,1.000000*%
G04 #@! TD*
G04 #@! TA.AperFunction,Conductor*
%ADD24C,0.254000*%
G04 #@! TD*
G04 APERTURE END LIST*
D10*
G04 #@! TO.P,J3,1*
G04 #@! TO.N,V_POWER*
X160600400Y-44043600D03*
D11*
G04 #@! TO.P,J3,2*
G04 #@! TO.N,GND*
X155600400Y-44043600D03*
G04 #@! TD*
D10*
G04 #@! TO.P,J1,1*
G04 #@! TO.N,/Motor Output/output_1*
X122301000Y-93853000D03*
D11*
G04 #@! TO.P,J1,2*
G04 #@! TO.N,/Motor Output/output_2*
X117301000Y-93853000D03*
G04 #@! TO.P,J1,3*
G04 #@! TO.N,/Motor Output/output_3*
X112301000Y-93853000D03*
G04 #@! TD*
D12*
G04 #@! TO.N,/Control Signals (from FPGA or microcontroller)/VS_3*
G04 #@! TO.C,C10*
G36*
X113905191Y-75726053D02*
X113926426Y-75729203D01*
X113947250Y-75734419D01*
X113967462Y-75741651D01*
X113986868Y-75750830D01*
X114005281Y-75761866D01*
X114022524Y-75774654D01*
X114038430Y-75789070D01*
X114052846Y-75804976D01*
X114065634Y-75822219D01*
X114076670Y-75840632D01*
X114085849Y-75860038D01*
X114093081Y-75880250D01*
X114098297Y-75901074D01*
X114101447Y-75922309D01*
X114102500Y-75943750D01*
X114102500Y-76456250D01*
X114101447Y-76477691D01*
X114098297Y-76498926D01*
X114093081Y-76519750D01*
X114085849Y-76539962D01*
X114076670Y-76559368D01*
X114065634Y-76577781D01*
X114052846Y-76595024D01*
X114038430Y-76610930D01*
X114022524Y-76625346D01*
X114005281Y-76638134D01*
X113986868Y-76649170D01*
X113967462Y-76658349D01*
X113947250Y-76665581D01*
X113926426Y-76670797D01*
X113905191Y-76673947D01*
X113883750Y-76675000D01*
X113446250Y-76675000D01*
X113424809Y-76673947D01*
X113403574Y-76670797D01*
X113382750Y-76665581D01*
X113362538Y-76658349D01*
X113343132Y-76649170D01*
X113324719Y-76638134D01*
X113307476Y-76625346D01*
X113291570Y-76610930D01*
X113277154Y-76595024D01*
X113264366Y-76577781D01*
X113253330Y-76559368D01*
X113244151Y-76539962D01*
X113236919Y-76519750D01*
X113231703Y-76498926D01*
X113228553Y-76477691D01*
X113227500Y-76456250D01*
X113227500Y-75943750D01*
X113228553Y-75922309D01*
X113231703Y-75901074D01*
X113236919Y-75880250D01*
X113244151Y-75860038D01*
X113253330Y-75840632D01*
X113264366Y-75822219D01*
X113277154Y-75804976D01*
X113291570Y-75789070D01*
X113307476Y-75774654D01*
X113324719Y-75761866D01*
X113343132Y-75750830D01*
X113362538Y-75741651D01*
X113382750Y-75734419D01*
X113403574Y-75729203D01*
X113424809Y-75726053D01*
X113446250Y-75725000D01*
X113883750Y-75725000D01*
X113905191Y-75726053D01*
X113905191Y-75726053D01*
G37*
D13*
G04 #@! TD*
G04 #@! TO.P,C10,1*
G04 #@! TO.N,/Control Signals (from FPGA or microcontroller)/VS_3*
X113665000Y-76200000D03*
D12*
G04 #@! TO.N,GND*
G04 #@! TO.C,C10*
G36*
X112330191Y-75726053D02*
X112351426Y-75729203D01*
X112372250Y-75734419D01*
X112392462Y-75741651D01*
X112411868Y-75750830D01*
X112430281Y-75761866D01*
X112447524Y-75774654D01*
X112463430Y-75789070D01*
X112477846Y-75804976D01*
X112490634Y-75822219D01*
X112501670Y-75840632D01*
X112510849Y-75860038D01*
X112518081Y-75880250D01*
X112523297Y-75901074D01*
X112526447Y-75922309D01*
X112527500Y-75943750D01*
X112527500Y-76456250D01*
X112526447Y-76477691D01*
X112523297Y-76498926D01*
X112518081Y-76519750D01*
X112510849Y-76539962D01*
X112501670Y-76559368D01*
X112490634Y-76577781D01*
X112477846Y-76595024D01*
X112463430Y-76610930D01*
X112447524Y-76625346D01*
X112430281Y-76638134D01*
X112411868Y-76649170D01*
X112392462Y-76658349D01*
X112372250Y-76665581D01*
X112351426Y-76670797D01*
X112330191Y-76673947D01*
X112308750Y-76675000D01*
X111871250Y-76675000D01*
X111849809Y-76673947D01*
X111828574Y-76670797D01*
X111807750Y-76665581D01*
X111787538Y-76658349D01*
X111768132Y-76649170D01*
X111749719Y-76638134D01*
X111732476Y-76625346D01*
X111716570Y-76610930D01*
X111702154Y-76595024D01*
X111689366Y-76577781D01*
X111678330Y-76559368D01*
X111669151Y-76539962D01*
X111661919Y-76519750D01*
X111656703Y-76498926D01*
X111653553Y-76477691D01*
X111652500Y-76456250D01*
X111652500Y-75943750D01*
X111653553Y-75922309D01*
X111656703Y-75901074D01*
X111661919Y-75880250D01*
X111669151Y-75860038D01*
X111678330Y-75840632D01*
X111689366Y-75822219D01*
X111702154Y-75804976D01*
X111716570Y-75789070D01*
X111732476Y-75774654D01*
X111749719Y-75761866D01*
X111768132Y-75750830D01*
X111787538Y-75741651D01*
X111807750Y-75734419D01*
X111828574Y-75729203D01*
X111849809Y-75726053D01*
X111871250Y-75725000D01*
X112308750Y-75725000D01*
X112330191Y-75726053D01*
X112330191Y-75726053D01*
G37*
D13*
G04 #@! TD*
G04 #@! TO.P,C10,2*
G04 #@! TO.N,GND*
X112090000Y-76200000D03*
D12*
G04 #@! TO.N,/Control Signals (from FPGA or microcontroller)/VS_1*
G04 #@! TO.C,C11*
G36*
X147712691Y-75726053D02*
X147733926Y-75729203D01*
X147754750Y-75734419D01*
X147774962Y-75741651D01*
X147794368Y-75750830D01*
X147812781Y-75761866D01*
X147830024Y-75774654D01*
X147845930Y-75789070D01*
X147860346Y-75804976D01*
X147873134Y-75822219D01*
X147884170Y-75840632D01*
X147893349Y-75860038D01*
X147900581Y-75880250D01*
X147905797Y-75901074D01*
X147908947Y-75922309D01*
X147910000Y-75943750D01*
X147910000Y-76456250D01*
X147908947Y-76477691D01*
X147905797Y-76498926D01*
X147900581Y-76519750D01*
X147893349Y-76539962D01*
X147884170Y-76559368D01*
X147873134Y-76577781D01*
X147860346Y-76595024D01*
X147845930Y-76610930D01*
X147830024Y-76625346D01*
X147812781Y-76638134D01*
X147794368Y-76649170D01*
X147774962Y-76658349D01*
X147754750Y-76665581D01*
X147733926Y-76670797D01*
X147712691Y-76673947D01*
X147691250Y-76675000D01*
X147253750Y-76675000D01*
X147232309Y-76673947D01*
X147211074Y-76670797D01*
X147190250Y-76665581D01*
X147170038Y-76658349D01*
X147150632Y-76649170D01*
X147132219Y-76638134D01*
X147114976Y-76625346D01*
X147099070Y-76610930D01*
X147084654Y-76595024D01*
X147071866Y-76577781D01*
X147060830Y-76559368D01*
X147051651Y-76539962D01*
X147044419Y-76519750D01*
X147039203Y-76498926D01*
X147036053Y-76477691D01*
X147035000Y-76456250D01*
X147035000Y-75943750D01*
X147036053Y-75922309D01*
X147039203Y-75901074D01*
X147044419Y-75880250D01*
X147051651Y-75860038D01*
X147060830Y-75840632D01*
X147071866Y-75822219D01*
X147084654Y-75804976D01*
X147099070Y-75789070D01*
X147114976Y-75774654D01*
X147132219Y-75761866D01*
X147150632Y-75750830D01*
X147170038Y-75741651D01*
X147190250Y-75734419D01*
X147211074Y-75729203D01*
X147232309Y-75726053D01*
X147253750Y-75725000D01*
X147691250Y-75725000D01*
X147712691Y-75726053D01*
X147712691Y-75726053D01*
G37*
D13*
G04 #@! TD*
G04 #@! TO.P,C11,1*
G04 #@! TO.N,/Control Signals (from FPGA or microcontroller)/VS_1*
X147472500Y-76200000D03*
D12*
G04 #@! TO.N,GND*
G04 #@! TO.C,C11*
G36*
X146137691Y-75726053D02*
X146158926Y-75729203D01*
X146179750Y-75734419D01*
X146199962Y-75741651D01*
X146219368Y-75750830D01*
X146237781Y-75761866D01*
X146255024Y-75774654D01*
X146270930Y-75789070D01*
X146285346Y-75804976D01*
X146298134Y-75822219D01*
X146309170Y-75840632D01*
X146318349Y-75860038D01*
X146325581Y-75880250D01*
X146330797Y-75901074D01*
X146333947Y-75922309D01*
X146335000Y-75943750D01*
X146335000Y-76456250D01*
X146333947Y-76477691D01*
X146330797Y-76498926D01*
X146325581Y-76519750D01*
X146318349Y-76539962D01*
X146309170Y-76559368D01*
X146298134Y-76577781D01*
X146285346Y-76595024D01*
X146270930Y-76610930D01*
X146255024Y-76625346D01*
X146237781Y-76638134D01*
X146219368Y-76649170D01*
X146199962Y-76658349D01*
X146179750Y-76665581D01*
X146158926Y-76670797D01*
X146137691Y-76673947D01*
X146116250Y-76675000D01*
X145678750Y-76675000D01*
X145657309Y-76673947D01*
X145636074Y-76670797D01*
X145615250Y-76665581D01*
X145595038Y-76658349D01*
X145575632Y-76649170D01*
X145557219Y-76638134D01*
X145539976Y-76625346D01*
X145524070Y-76610930D01*
X145509654Y-76595024D01*
X145496866Y-76577781D01*
X145485830Y-76559368D01*
X145476651Y-76539962D01*
X145469419Y-76519750D01*
X145464203Y-76498926D01*
X145461053Y-76477691D01*
X145460000Y-76456250D01*
X145460000Y-75943750D01*
X145461053Y-75922309D01*
X145464203Y-75901074D01*
X145469419Y-75880250D01*
X145476651Y-75860038D01*
X145485830Y-75840632D01*
X145496866Y-75822219D01*
X145509654Y-75804976D01*
X145524070Y-75789070D01*
X145539976Y-75774654D01*
X145557219Y-75761866D01*
X145575632Y-75750830D01*
X145595038Y-75741651D01*
X145615250Y-75734419D01*
X145636074Y-75729203D01*
X145657309Y-75726053D01*
X145678750Y-75725000D01*
X146116250Y-75725000D01*
X146137691Y-75726053D01*
X146137691Y-75726053D01*
G37*
D13*
G04 #@! TD*
G04 #@! TO.P,C11,2*
G04 #@! TO.N,GND*
X145897500Y-76200000D03*
D12*
G04 #@! TO.N,GND*
G04 #@! TO.C,C12*
G36*
X129780191Y-75726053D02*
X129801426Y-75729203D01*
X129822250Y-75734419D01*
X129842462Y-75741651D01*
X129861868Y-75750830D01*
X129880281Y-75761866D01*
X129897524Y-75774654D01*
X129913430Y-75789070D01*
X129927846Y-75804976D01*
X129940634Y-75822219D01*
X129951670Y-75840632D01*
X129960849Y-75860038D01*
X129968081Y-75880250D01*
X129973297Y-75901074D01*
X129976447Y-75922309D01*
X129977500Y-75943750D01*
X129977500Y-76456250D01*
X129976447Y-76477691D01*
X129973297Y-76498926D01*
X129968081Y-76519750D01*
X129960849Y-76539962D01*
X129951670Y-76559368D01*
X129940634Y-76577781D01*
X129927846Y-76595024D01*
X129913430Y-76610930D01*
X129897524Y-76625346D01*
X129880281Y-76638134D01*
X129861868Y-76649170D01*
X129842462Y-76658349D01*
X129822250Y-76665581D01*
X129801426Y-76670797D01*
X129780191Y-76673947D01*
X129758750Y-76675000D01*
X129321250Y-76675000D01*
X129299809Y-76673947D01*
X129278574Y-76670797D01*
X129257750Y-76665581D01*
X129237538Y-76658349D01*
X129218132Y-76649170D01*
X129199719Y-76638134D01*
X129182476Y-76625346D01*
X129166570Y-76610930D01*
X129152154Y-76595024D01*
X129139366Y-76577781D01*
X129128330Y-76559368D01*
X129119151Y-76539962D01*
X129111919Y-76519750D01*
X129106703Y-76498926D01*
X129103553Y-76477691D01*
X129102500Y-76456250D01*
X129102500Y-75943750D01*
X129103553Y-75922309D01*
X129106703Y-75901074D01*
X129111919Y-75880250D01*
X129119151Y-75860038D01*
X129128330Y-75840632D01*
X129139366Y-75822219D01*
X129152154Y-75804976D01*
X129166570Y-75789070D01*
X129182476Y-75774654D01*
X129199719Y-75761866D01*
X129218132Y-75750830D01*
X129237538Y-75741651D01*
X129257750Y-75734419D01*
X129278574Y-75729203D01*
X129299809Y-75726053D01*
X129321250Y-75725000D01*
X129758750Y-75725000D01*
X129780191Y-75726053D01*
X129780191Y-75726053D01*
G37*
D13*
G04 #@! TD*
G04 #@! TO.P,C12,2*
G04 #@! TO.N,GND*
X129540000Y-76200000D03*
D12*
G04 #@! TO.N,/Control Signals (from FPGA or microcontroller)/VS_2*
G04 #@! TO.C,C12*
G36*
X131355191Y-75726053D02*
X131376426Y-75729203D01*
X131397250Y-75734419D01*
X131417462Y-75741651D01*
X131436868Y-75750830D01*
X131455281Y-75761866D01*
X131472524Y-75774654D01*
X131488430Y-75789070D01*
X131502846Y-75804976D01*
X131515634Y-75822219D01*
X131526670Y-75840632D01*
X131535849Y-75860038D01*
X131543081Y-75880250D01*
X131548297Y-75901074D01*
X131551447Y-75922309D01*
X131552500Y-75943750D01*
X131552500Y-76456250D01*
X131551447Y-76477691D01*
X131548297Y-76498926D01*
X131543081Y-76519750D01*
X131535849Y-76539962D01*
X131526670Y-76559368D01*
X131515634Y-76577781D01*
X131502846Y-76595024D01*
X131488430Y-76610930D01*
X131472524Y-76625346D01*
X131455281Y-76638134D01*
X131436868Y-76649170D01*
X131417462Y-76658349D01*
X131397250Y-76665581D01*
X131376426Y-76670797D01*
X131355191Y-76673947D01*
X131333750Y-76675000D01*
X130896250Y-76675000D01*
X130874809Y-76673947D01*
X130853574Y-76670797D01*
X130832750Y-76665581D01*
X130812538Y-76658349D01*
X130793132Y-76649170D01*
X130774719Y-76638134D01*
X130757476Y-76625346D01*
X130741570Y-76610930D01*
X130727154Y-76595024D01*
X130714366Y-76577781D01*
X130703330Y-76559368D01*
X130694151Y-76539962D01*
X130686919Y-76519750D01*
X130681703Y-76498926D01*
X130678553Y-76477691D01*
X130677500Y-76456250D01*
X130677500Y-75943750D01*
X130678553Y-75922309D01*
X130681703Y-75901074D01*
X130686919Y-75880250D01*
X130694151Y-75860038D01*
X130703330Y-75840632D01*
X130714366Y-75822219D01*
X130727154Y-75804976D01*
X130741570Y-75789070D01*
X130757476Y-75774654D01*
X130774719Y-75761866D01*
X130793132Y-75750830D01*
X130812538Y-75741651D01*
X130832750Y-75734419D01*
X130853574Y-75729203D01*
X130874809Y-75726053D01*
X130896250Y-75725000D01*
X131333750Y-75725000D01*
X131355191Y-75726053D01*
X131355191Y-75726053D01*
G37*
D13*
G04 #@! TD*
G04 #@! TO.P,C12,1*
G04 #@! TO.N,/Control Signals (from FPGA or microcontroller)/VS_2*
X131115000Y-76200000D03*
D12*
G04 #@! TO.N,GND*
G04 #@! TO.C,C13*
G36*
X129182691Y-81478553D02*
X129203926Y-81481703D01*
X129224750Y-81486919D01*
X129244962Y-81494151D01*
X129264368Y-81503330D01*
X129282781Y-81514366D01*
X129300024Y-81527154D01*
X129315930Y-81541570D01*
X129330346Y-81557476D01*
X129343134Y-81574719D01*
X129354170Y-81593132D01*
X129363349Y-81612538D01*
X129370581Y-81632750D01*
X129375797Y-81653574D01*
X129378947Y-81674809D01*
X129380000Y-81696250D01*
X129380000Y-82133750D01*
X129378947Y-82155191D01*
X129375797Y-82176426D01*
X129370581Y-82197250D01*
X129363349Y-82217462D01*
X129354170Y-82236868D01*
X129343134Y-82255281D01*
X129330346Y-82272524D01*
X129315930Y-82288430D01*
X129300024Y-82302846D01*
X129282781Y-82315634D01*
X129264368Y-82326670D01*
X129244962Y-82335849D01*
X129224750Y-82343081D01*
X129203926Y-82348297D01*
X129182691Y-82351447D01*
X129161250Y-82352500D01*
X128648750Y-82352500D01*
X128627309Y-82351447D01*
X128606074Y-82348297D01*
X128585250Y-82343081D01*
X128565038Y-82335849D01*
X128545632Y-82326670D01*
X128527219Y-82315634D01*
X128509976Y-82302846D01*
X128494070Y-82288430D01*
X128479654Y-82272524D01*
X128466866Y-82255281D01*
X128455830Y-82236868D01*
X128446651Y-82217462D01*
X128439419Y-82197250D01*
X128434203Y-82176426D01*
X128431053Y-82155191D01*
X128430000Y-82133750D01*
X128430000Y-81696250D01*
X128431053Y-81674809D01*
X128434203Y-81653574D01*
X128439419Y-81632750D01*
X128446651Y-81612538D01*
X128455830Y-81593132D01*
X128466866Y-81574719D01*
X128479654Y-81557476D01*
X128494070Y-81541570D01*
X128509976Y-81527154D01*
X128527219Y-81514366D01*
X128545632Y-81503330D01*
X128565038Y-81494151D01*
X128585250Y-81486919D01*
X128606074Y-81481703D01*
X128627309Y-81478553D01*
X128648750Y-81477500D01*
X129161250Y-81477500D01*
X129182691Y-81478553D01*
X129182691Y-81478553D01*
G37*
D13*
G04 #@! TD*
G04 #@! TO.P,C13,2*
G04 #@! TO.N,GND*
X128905000Y-81915000D03*
D12*
G04 #@! TO.N,+3V3*
G04 #@! TO.C,C13*
G36*
X129182691Y-79903553D02*
X129203926Y-79906703D01*
X129224750Y-79911919D01*
X129244962Y-79919151D01*
X129264368Y-79928330D01*
X129282781Y-79939366D01*
X129300024Y-79952154D01*
X129315930Y-79966570D01*
X129330346Y-79982476D01*
X129343134Y-79999719D01*
X129354170Y-80018132D01*
X129363349Y-80037538D01*
X129370581Y-80057750D01*
X129375797Y-80078574D01*
X129378947Y-80099809D01*
X129380000Y-80121250D01*
X129380000Y-80558750D01*
X129378947Y-80580191D01*
X129375797Y-80601426D01*
X129370581Y-80622250D01*
X129363349Y-80642462D01*
X129354170Y-80661868D01*
X129343134Y-80680281D01*
X129330346Y-80697524D01*
X129315930Y-80713430D01*
X129300024Y-80727846D01*
X129282781Y-80740634D01*
X129264368Y-80751670D01*
X129244962Y-80760849D01*
X129224750Y-80768081D01*
X129203926Y-80773297D01*
X129182691Y-80776447D01*
X129161250Y-80777500D01*
X128648750Y-80777500D01*
X128627309Y-80776447D01*
X128606074Y-80773297D01*
X128585250Y-80768081D01*
X128565038Y-80760849D01*
X128545632Y-80751670D01*
X128527219Y-80740634D01*
X128509976Y-80727846D01*
X128494070Y-80713430D01*
X128479654Y-80697524D01*
X128466866Y-80680281D01*
X128455830Y-80661868D01*
X128446651Y-80642462D01*
X128439419Y-80622250D01*
X128434203Y-80601426D01*
X128431053Y-80580191D01*
X128430000Y-80558750D01*
X128430000Y-80121250D01*
X128431053Y-80099809D01*
X128434203Y-80078574D01*
X128439419Y-80057750D01*
X128446651Y-80037538D01*
X128455830Y-80018132D01*
X128466866Y-79999719D01*
X128479654Y-79982476D01*
X128494070Y-79966570D01*
X128509976Y-79952154D01*
X128527219Y-79939366D01*
X128545632Y-79928330D01*
X128565038Y-79919151D01*
X128585250Y-79911919D01*
X128606074Y-79906703D01*
X128627309Y-79903553D01*
X128648750Y-79902500D01*
X129161250Y-79902500D01*
X129182691Y-79903553D01*
X129182691Y-79903553D01*
G37*
D13*
G04 #@! TD*
G04 #@! TO.P,C13,1*
G04 #@! TO.N,+3V3*
X128905000Y-80340000D03*
D12*
G04 #@! TO.N,+3V3*
G04 #@! TO.C,C14*
G36*
X112037691Y-79903553D02*
X112058926Y-79906703D01*
X112079750Y-79911919D01*
X112099962Y-79919151D01*
X112119368Y-79928330D01*
X112137781Y-79939366D01*
X112155024Y-79952154D01*
X112170930Y-79966570D01*
X112185346Y-79982476D01*
X112198134Y-79999719D01*
X112209170Y-80018132D01*
X112218349Y-80037538D01*
X112225581Y-80057750D01*
X112230797Y-80078574D01*
X112233947Y-80099809D01*
X112235000Y-80121250D01*
X112235000Y-80558750D01*
X112233947Y-80580191D01*
X112230797Y-80601426D01*
X112225581Y-80622250D01*
X112218349Y-80642462D01*
X112209170Y-80661868D01*
X112198134Y-80680281D01*
X112185346Y-80697524D01*
X112170930Y-80713430D01*
X112155024Y-80727846D01*
X112137781Y-80740634D01*
X112119368Y-80751670D01*
X112099962Y-80760849D01*
X112079750Y-80768081D01*
X112058926Y-80773297D01*
X112037691Y-80776447D01*
X112016250Y-80777500D01*
X111503750Y-80777500D01*
X111482309Y-80776447D01*
X111461074Y-80773297D01*
X111440250Y-80768081D01*
X111420038Y-80760849D01*
X111400632Y-80751670D01*
X111382219Y-80740634D01*
X111364976Y-80727846D01*
X111349070Y-80713430D01*
X111334654Y-80697524D01*
X111321866Y-80680281D01*
X111310830Y-80661868D01*
X111301651Y-80642462D01*
X111294419Y-80622250D01*
X111289203Y-80601426D01*
X111286053Y-80580191D01*
X111285000Y-80558750D01*
X111285000Y-80121250D01*
X111286053Y-80099809D01*
X111289203Y-80078574D01*
X111294419Y-80057750D01*
X111301651Y-80037538D01*
X111310830Y-80018132D01*
X111321866Y-79999719D01*
X111334654Y-79982476D01*
X111349070Y-79966570D01*
X111364976Y-79952154D01*
X111382219Y-79939366D01*
X111400632Y-79928330D01*
X111420038Y-79919151D01*
X111440250Y-79911919D01*
X111461074Y-79906703D01*
X111482309Y-79903553D01*
X111503750Y-79902500D01*
X112016250Y-79902500D01*
X112037691Y-79903553D01*
X112037691Y-79903553D01*
G37*
D13*
G04 #@! TD*
G04 #@! TO.P,C14,1*
G04 #@! TO.N,+3V3*
X111760000Y-80340000D03*
D12*
G04 #@! TO.N,GND*
G04 #@! TO.C,C14*
G36*
X112037691Y-81478553D02*
X112058926Y-81481703D01*
X112079750Y-81486919D01*
X112099962Y-81494151D01*
X112119368Y-81503330D01*
X112137781Y-81514366D01*
X112155024Y-81527154D01*
X112170930Y-81541570D01*
X112185346Y-81557476D01*
X112198134Y-81574719D01*
X112209170Y-81593132D01*
X112218349Y-81612538D01*
X112225581Y-81632750D01*
X112230797Y-81653574D01*
X112233947Y-81674809D01*
X112235000Y-81696250D01*
X112235000Y-82133750D01*
X112233947Y-82155191D01*
X112230797Y-82176426D01*
X112225581Y-82197250D01*
X112218349Y-82217462D01*
X112209170Y-82236868D01*
X112198134Y-82255281D01*
X112185346Y-82272524D01*
X112170930Y-82288430D01*
X112155024Y-82302846D01*
X112137781Y-82315634D01*
X112119368Y-82326670D01*
X112099962Y-82335849D01*
X112079750Y-82343081D01*
X112058926Y-82348297D01*
X112037691Y-82351447D01*
X112016250Y-82352500D01*
X111503750Y-82352500D01*
X111482309Y-82351447D01*
X111461074Y-82348297D01*
X111440250Y-82343081D01*
X111420038Y-82335849D01*
X111400632Y-82326670D01*
X111382219Y-82315634D01*
X111364976Y-82302846D01*
X111349070Y-82288430D01*
X111334654Y-82272524D01*
X111321866Y-82255281D01*
X111310830Y-82236868D01*
X111301651Y-82217462D01*
X111294419Y-82197250D01*
X111289203Y-82176426D01*
X111286053Y-82155191D01*
X111285000Y-82133750D01*
X111285000Y-81696250D01*
X111286053Y-81674809D01*
X111289203Y-81653574D01*
X111294419Y-81632750D01*
X111301651Y-81612538D01*
X111310830Y-81593132D01*
X111321866Y-81574719D01*
X111334654Y-81557476D01*
X111349070Y-81541570D01*
X111364976Y-81527154D01*
X111382219Y-81514366D01*
X111400632Y-81503330D01*
X111420038Y-81494151D01*
X111440250Y-81486919D01*
X111461074Y-81481703D01*
X111482309Y-81478553D01*
X111503750Y-81477500D01*
X112016250Y-81477500D01*
X112037691Y-81478553D01*
X112037691Y-81478553D01*
G37*
D13*
G04 #@! TD*
G04 #@! TO.P,C14,2*
G04 #@! TO.N,GND*
X111760000Y-81915000D03*
D12*
G04 #@! TO.N,GND*
G04 #@! TO.C,C15*
G36*
X145565691Y-81631053D02*
X145586926Y-81634203D01*
X145607750Y-81639419D01*
X145627962Y-81646651D01*
X145647368Y-81655830D01*
X145665781Y-81666866D01*
X145683024Y-81679654D01*
X145698930Y-81694070D01*
X145713346Y-81709976D01*
X145726134Y-81727219D01*
X145737170Y-81745632D01*
X145746349Y-81765038D01*
X145753581Y-81785250D01*
X145758797Y-81806074D01*
X145761947Y-81827309D01*
X145763000Y-81848750D01*
X145763000Y-82286250D01*
X145761947Y-82307691D01*
X145758797Y-82328926D01*
X145753581Y-82349750D01*
X145746349Y-82369962D01*
X145737170Y-82389368D01*
X145726134Y-82407781D01*
X145713346Y-82425024D01*
X145698930Y-82440930D01*
X145683024Y-82455346D01*
X145665781Y-82468134D01*
X145647368Y-82479170D01*
X145627962Y-82488349D01*
X145607750Y-82495581D01*
X145586926Y-82500797D01*
X145565691Y-82503947D01*
X145544250Y-82505000D01*
X145031750Y-82505000D01*
X145010309Y-82503947D01*
X144989074Y-82500797D01*
X144968250Y-82495581D01*
X144948038Y-82488349D01*
X144928632Y-82479170D01*
X144910219Y-82468134D01*
X144892976Y-82455346D01*
X144877070Y-82440930D01*
X144862654Y-82425024D01*
X144849866Y-82407781D01*
X144838830Y-82389368D01*
X144829651Y-82369962D01*
X144822419Y-82349750D01*
X144817203Y-82328926D01*
X144814053Y-82307691D01*
X144813000Y-82286250D01*
X144813000Y-81848750D01*
X144814053Y-81827309D01*
X144817203Y-81806074D01*
X144822419Y-81785250D01*
X144829651Y-81765038D01*
X144838830Y-81745632D01*
X144849866Y-81727219D01*
X144862654Y-81709976D01*
X144877070Y-81694070D01*
X144892976Y-81679654D01*
X144910219Y-81666866D01*
X144928632Y-81655830D01*
X144948038Y-81646651D01*
X144968250Y-81639419D01*
X144989074Y-81634203D01*
X145010309Y-81631053D01*
X145031750Y-81630000D01*
X145544250Y-81630000D01*
X145565691Y-81631053D01*
X145565691Y-81631053D01*
G37*
D13*
G04 #@! TD*
G04 #@! TO.P,C15,2*
G04 #@! TO.N,GND*
X145288000Y-82067500D03*
D12*
G04 #@! TO.N,+3V3*
G04 #@! TO.C,C15*
G36*
X145565691Y-80056053D02*
X145586926Y-80059203D01*
X145607750Y-80064419D01*
X145627962Y-80071651D01*
X145647368Y-80080830D01*
X145665781Y-80091866D01*
X145683024Y-80104654D01*
X145698930Y-80119070D01*
X145713346Y-80134976D01*
X145726134Y-80152219D01*
X145737170Y-80170632D01*
X145746349Y-80190038D01*
X145753581Y-80210250D01*
X145758797Y-80231074D01*
X145761947Y-80252309D01*
X145763000Y-80273750D01*
X145763000Y-80711250D01*
X145761947Y-80732691D01*
X145758797Y-80753926D01*
X145753581Y-80774750D01*
X145746349Y-80794962D01*
X145737170Y-80814368D01*
X145726134Y-80832781D01*
X145713346Y-80850024D01*
X145698930Y-80865930D01*
X145683024Y-80880346D01*
X145665781Y-80893134D01*
X145647368Y-80904170D01*
X145627962Y-80913349D01*
X145607750Y-80920581D01*
X145586926Y-80925797D01*
X145565691Y-80928947D01*
X145544250Y-80930000D01*
X145031750Y-80930000D01*
X145010309Y-80928947D01*
X144989074Y-80925797D01*
X144968250Y-80920581D01*
X144948038Y-80913349D01*
X144928632Y-80904170D01*
X144910219Y-80893134D01*
X144892976Y-80880346D01*
X144877070Y-80865930D01*
X144862654Y-80850024D01*
X144849866Y-80832781D01*
X144838830Y-80814368D01*
X144829651Y-80794962D01*
X144822419Y-80774750D01*
X144817203Y-80753926D01*
X144814053Y-80732691D01*
X144813000Y-80711250D01*
X144813000Y-80273750D01*
X144814053Y-80252309D01*
X144817203Y-80231074D01*
X144822419Y-80210250D01*
X144829651Y-80190038D01*
X144838830Y-80170632D01*
X144849866Y-80152219D01*
X144862654Y-80134976D01*
X144877070Y-80119070D01*
X144892976Y-80104654D01*
X144910219Y-80091866D01*
X144928632Y-80080830D01*
X144948038Y-80071651D01*
X144968250Y-80064419D01*
X144989074Y-80059203D01*
X145010309Y-80056053D01*
X145031750Y-80055000D01*
X145544250Y-80055000D01*
X145565691Y-80056053D01*
X145565691Y-80056053D01*
G37*
D13*
G04 #@! TD*
G04 #@! TO.P,C15,1*
G04 #@! TO.N,+3V3*
X145288000Y-80492500D03*
D14*
G04 #@! TO.P,U1,11*
G04 #@! TO.N,GND*
X149276000Y-52009000D03*
X148776000Y-51509000D03*
X149776000Y-51509000D03*
X148776000Y-52509000D03*
X149776000Y-52509000D03*
D15*
G04 #@! TD*
G04 #@! TO.N,GND*
G04 #@! TO.C,U1*
X149275000Y-52009000D03*
D14*
G04 #@! TO.P,U2,11*
G04 #@! TO.N,GND*
X133078000Y-51705000D03*
X132578000Y-51205000D03*
X133578000Y-51205000D03*
X132578000Y-52205000D03*
X133578000Y-52205000D03*
D15*
G04 #@! TD*
G04 #@! TO.N,GND*
G04 #@! TO.C,U2*
X133077000Y-51705000D03*
G04 #@! TO.N,GND*
G04 #@! TO.C,U3*
X116219000Y-51935000D03*
D14*
G04 #@! TD*
G04 #@! TO.P,U3,11*
G04 #@! TO.N,GND*
X116720000Y-52435000D03*
G04 #@! TO.P,U3,11*
G04 #@! TO.N,GND*
X115720000Y-52435000D03*
X116720000Y-51435000D03*
X115720000Y-51435000D03*
X116220000Y-51935000D03*
G04 #@! TD*
D16*
G04 #@! TO.P,U4,1*
G04 #@! TO.N,/Three Phase Bridge/PHASE_1*
X155100000Y-76200000D03*
G04 #@! TO.P,U4,2*
X155100000Y-77470000D03*
G04 #@! TO.P,U4,3*
G04 #@! TO.N,/Motor Output/output_1*
X155100000Y-78740000D03*
G04 #@! TO.P,U4,4*
X155100000Y-80010000D03*
G04 #@! TO.P,U4,5*
G04 #@! TO.N,Net-(U4-Pad5)*
X149700000Y-80010000D03*
G04 #@! TO.P,U4,6*
G04 #@! TO.N,/Motor Output/fault_1*
X149700000Y-78740000D03*
G04 #@! TO.P,U4,7*
G04 #@! TO.N,/Control Signals (from FPGA or microcontroller)/VS_1*
X149700000Y-77470000D03*
G04 #@! TO.P,U4,8*
G04 #@! TO.N,GND*
X149700000Y-76200000D03*
G04 #@! TD*
G04 #@! TO.P,U5,8*
G04 #@! TO.N,GND*
X133190000Y-76200000D03*
G04 #@! TO.P,U5,7*
G04 #@! TO.N,/Control Signals (from FPGA or microcontroller)/VS_2*
X133190000Y-77470000D03*
G04 #@! TO.P,U5,6*
G04 #@! TO.N,/Motor Output/fault_2*
X133190000Y-78740000D03*
G04 #@! TO.P,U5,5*
G04 #@! TO.N,+3V3*
X133190000Y-80010000D03*
G04 #@! TO.P,U5,4*
G04 #@! TO.N,/Motor Output/output_2*
X138590000Y-80010000D03*
G04 #@! TO.P,U5,3*
X138590000Y-78740000D03*
G04 #@! TO.P,U5,2*
G04 #@! TO.N,/Three Phase Bridge/PHASE_2*
X138590000Y-77470000D03*
G04 #@! TO.P,U5,1*
X138590000Y-76200000D03*
G04 #@! TD*
G04 #@! TO.P,U6,1*
G04 #@! TO.N,/Three Phase Bridge/PHASE_3*
X121445000Y-76200000D03*
G04 #@! TO.P,U6,2*
X121445000Y-77470000D03*
G04 #@! TO.P,U6,3*
G04 #@! TO.N,/Motor Output/output_3*
X121445000Y-78740000D03*
G04 #@! TO.P,U6,4*
X121445000Y-80010000D03*
G04 #@! TO.P,U6,5*
G04 #@! TO.N,+3V3*
X116045000Y-80010000D03*
G04 #@! TO.P,U6,6*
G04 #@! TO.N,/Motor Output/fault_3*
X116045000Y-78740000D03*
G04 #@! TO.P,U6,7*
G04 #@! TO.N,/Control Signals (from FPGA or microcontroller)/VS_3*
X116045000Y-77470000D03*
G04 #@! TO.P,U6,8*
G04 #@! TO.N,GND*
X116045000Y-76200000D03*
G04 #@! TD*
D12*
G04 #@! TO.N,+3V3*
G04 #@! TO.C,R7*
G36*
X113942691Y-79878553D02*
X113963926Y-79881703D01*
X113984750Y-79886919D01*
X114004962Y-79894151D01*
X114024368Y-79903330D01*
X114042781Y-79914366D01*
X114060024Y-79927154D01*
X114075930Y-79941570D01*
X114090346Y-79957476D01*
X114103134Y-79974719D01*
X114114170Y-79993132D01*
X114123349Y-80012538D01*
X114130581Y-80032750D01*
X114135797Y-80053574D01*
X114138947Y-80074809D01*
X114140000Y-80096250D01*
X114140000Y-80533750D01*
X114138947Y-80555191D01*
X114135797Y-80576426D01*
X114130581Y-80597250D01*
X114123349Y-80617462D01*
X114114170Y-80636868D01*
X114103134Y-80655281D01*
X114090346Y-80672524D01*
X114075930Y-80688430D01*
X114060024Y-80702846D01*
X114042781Y-80715634D01*
X114024368Y-80726670D01*
X114004962Y-80735849D01*
X113984750Y-80743081D01*
X113963926Y-80748297D01*
X113942691Y-80751447D01*
X113921250Y-80752500D01*
X113408750Y-80752500D01*
X113387309Y-80751447D01*
X113366074Y-80748297D01*
X113345250Y-80743081D01*
X113325038Y-80735849D01*
X113305632Y-80726670D01*
X113287219Y-80715634D01*
X113269976Y-80702846D01*
X113254070Y-80688430D01*
X113239654Y-80672524D01*
X113226866Y-80655281D01*
X113215830Y-80636868D01*
X113206651Y-80617462D01*
X113199419Y-80597250D01*
X113194203Y-80576426D01*
X113191053Y-80555191D01*
X113190000Y-80533750D01*
X113190000Y-80096250D01*
X113191053Y-80074809D01*
X113194203Y-80053574D01*
X113199419Y-80032750D01*
X113206651Y-80012538D01*
X113215830Y-79993132D01*
X113226866Y-79974719D01*
X113239654Y-79957476D01*
X113254070Y-79941570D01*
X113269976Y-79927154D01*
X113287219Y-79914366D01*
X113305632Y-79903330D01*
X113325038Y-79894151D01*
X113345250Y-79886919D01*
X113366074Y-79881703D01*
X113387309Y-79878553D01*
X113408750Y-79877500D01*
X113921250Y-79877500D01*
X113942691Y-79878553D01*
X113942691Y-79878553D01*
G37*
D13*
G04 #@! TD*
G04 #@! TO.P,R7,1*
G04 #@! TO.N,+3V3*
X113665000Y-80315000D03*
D12*
G04 #@! TO.N,/Motor Output/fault_3*
G04 #@! TO.C,R7*
G36*
X113942691Y-78303553D02*
X113963926Y-78306703D01*
X113984750Y-78311919D01*
X114004962Y-78319151D01*
X114024368Y-78328330D01*
X114042781Y-78339366D01*
X114060024Y-78352154D01*
X114075930Y-78366570D01*
X114090346Y-78382476D01*
X114103134Y-78399719D01*
X114114170Y-78418132D01*
X114123349Y-78437538D01*
X114130581Y-78457750D01*
X114135797Y-78478574D01*
X114138947Y-78499809D01*
X114140000Y-78521250D01*
X114140000Y-78958750D01*
X114138947Y-78980191D01*
X114135797Y-79001426D01*
X114130581Y-79022250D01*
X114123349Y-79042462D01*
X114114170Y-79061868D01*
X114103134Y-79080281D01*
X114090346Y-79097524D01*
X114075930Y-79113430D01*
X114060024Y-79127846D01*
X114042781Y-79140634D01*
X114024368Y-79151670D01*
X114004962Y-79160849D01*
X113984750Y-79168081D01*
X113963926Y-79173297D01*
X113942691Y-79176447D01*
X113921250Y-79177500D01*
X113408750Y-79177500D01*
X113387309Y-79176447D01*
X113366074Y-79173297D01*
X113345250Y-79168081D01*
X113325038Y-79160849D01*
X113305632Y-79151670D01*
X113287219Y-79140634D01*
X113269976Y-79127846D01*
X113254070Y-79113430D01*
X113239654Y-79097524D01*
X113226866Y-79080281D01*
X113215830Y-79061868D01*
X113206651Y-79042462D01*
X113199419Y-79022250D01*
X113194203Y-79001426D01*
X113191053Y-78980191D01*
X113190000Y-78958750D01*
X113190000Y-78521250D01*
X113191053Y-78499809D01*
X113194203Y-78478574D01*
X113199419Y-78457750D01*
X113206651Y-78437538D01*
X113215830Y-78418132D01*
X113226866Y-78399719D01*
X113239654Y-78382476D01*
X113254070Y-78366570D01*
X113269976Y-78352154D01*
X113287219Y-78339366D01*
X113305632Y-78328330D01*
X113325038Y-78319151D01*
X113345250Y-78311919D01*
X113366074Y-78306703D01*
X113387309Y-78303553D01*
X113408750Y-78302500D01*
X113921250Y-78302500D01*
X113942691Y-78303553D01*
X113942691Y-78303553D01*
G37*
D13*
G04 #@! TD*
G04 #@! TO.P,R7,2*
G04 #@! TO.N,/Motor Output/fault_3*
X113665000Y-78740000D03*
D12*
G04 #@! TO.N,+3V3*
G04 #@! TO.C,R8*
G36*
X147597691Y-79726053D02*
X147618926Y-79729203D01*
X147639750Y-79734419D01*
X147659962Y-79741651D01*
X147679368Y-79750830D01*
X147697781Y-79761866D01*
X147715024Y-79774654D01*
X147730930Y-79789070D01*
X147745346Y-79804976D01*
X147758134Y-79822219D01*
X147769170Y-79840632D01*
X147778349Y-79860038D01*
X147785581Y-79880250D01*
X147790797Y-79901074D01*
X147793947Y-79922309D01*
X147795000Y-79943750D01*
X147795000Y-80381250D01*
X147793947Y-80402691D01*
X147790797Y-80423926D01*
X147785581Y-80444750D01*
X147778349Y-80464962D01*
X147769170Y-80484368D01*
X147758134Y-80502781D01*
X147745346Y-80520024D01*
X147730930Y-80535930D01*
X147715024Y-80550346D01*
X147697781Y-80563134D01*
X147679368Y-80574170D01*
X147659962Y-80583349D01*
X147639750Y-80590581D01*
X147618926Y-80595797D01*
X147597691Y-80598947D01*
X147576250Y-80600000D01*
X147063750Y-80600000D01*
X147042309Y-80598947D01*
X147021074Y-80595797D01*
X147000250Y-80590581D01*
X146980038Y-80583349D01*
X146960632Y-80574170D01*
X146942219Y-80563134D01*
X146924976Y-80550346D01*
X146909070Y-80535930D01*
X146894654Y-80520024D01*
X146881866Y-80502781D01*
X146870830Y-80484368D01*
X146861651Y-80464962D01*
X146854419Y-80444750D01*
X146849203Y-80423926D01*
X146846053Y-80402691D01*
X146845000Y-80381250D01*
X146845000Y-79943750D01*
X146846053Y-79922309D01*
X146849203Y-79901074D01*
X146854419Y-79880250D01*
X146861651Y-79860038D01*
X146870830Y-79840632D01*
X146881866Y-79822219D01*
X146894654Y-79804976D01*
X146909070Y-79789070D01*
X146924976Y-79774654D01*
X146942219Y-79761866D01*
X146960632Y-79750830D01*
X146980038Y-79741651D01*
X147000250Y-79734419D01*
X147021074Y-79729203D01*
X147042309Y-79726053D01*
X147063750Y-79725000D01*
X147576250Y-79725000D01*
X147597691Y-79726053D01*
X147597691Y-79726053D01*
G37*
D13*
G04 #@! TD*
G04 #@! TO.P,R8,1*
G04 #@! TO.N,+3V3*
X147320000Y-80162500D03*
D12*
G04 #@! TO.N,/Motor Output/fault_1*
G04 #@! TO.C,R8*
G36*
X147597691Y-78151053D02*
X147618926Y-78154203D01*
X147639750Y-78159419D01*
X147659962Y-78166651D01*
X147679368Y-78175830D01*
X147697781Y-78186866D01*
X147715024Y-78199654D01*
X147730930Y-78214070D01*
X147745346Y-78229976D01*
X147758134Y-78247219D01*
X147769170Y-78265632D01*
X147778349Y-78285038D01*
X147785581Y-78305250D01*
X147790797Y-78326074D01*
X147793947Y-78347309D01*
X147795000Y-78368750D01*
X147795000Y-78806250D01*
X147793947Y-78827691D01*
X147790797Y-78848926D01*
X147785581Y-78869750D01*
X147778349Y-78889962D01*
X147769170Y-78909368D01*
X147758134Y-78927781D01*
X147745346Y-78945024D01*
X147730930Y-78960930D01*
X147715024Y-78975346D01*
X147697781Y-78988134D01*
X147679368Y-78999170D01*
X147659962Y-79008349D01*
X147639750Y-79015581D01*
X147618926Y-79020797D01*
X147597691Y-79023947D01*
X147576250Y-79025000D01*
X147063750Y-79025000D01*
X147042309Y-79023947D01*
X147021074Y-79020797D01*
X147000250Y-79015581D01*
X146980038Y-79008349D01*
X146960632Y-78999170D01*
X146942219Y-78988134D01*
X146924976Y-78975346D01*
X146909070Y-78960930D01*
X146894654Y-78945024D01*
X146881866Y-78927781D01*
X146870830Y-78909368D01*
X146861651Y-78889962D01*
X146854419Y-78869750D01*
X146849203Y-78848926D01*
X146846053Y-78827691D01*
X146845000Y-78806250D01*
X146845000Y-78368750D01*
X146846053Y-78347309D01*
X146849203Y-78326074D01*
X146854419Y-78305250D01*
X146861651Y-78285038D01*
X146870830Y-78265632D01*
X146881866Y-78247219D01*
X146894654Y-78229976D01*
X146909070Y-78214070D01*
X146924976Y-78199654D01*
X146942219Y-78186866D01*
X146960632Y-78175830D01*
X146980038Y-78166651D01*
X147000250Y-78159419D01*
X147021074Y-78154203D01*
X147042309Y-78151053D01*
X147063750Y-78150000D01*
X147576250Y-78150000D01*
X147597691Y-78151053D01*
X147597691Y-78151053D01*
G37*
D13*
G04 #@! TD*
G04 #@! TO.P,R8,2*
G04 #@! TO.N,/Motor Output/fault_1*
X147320000Y-78587500D03*
D12*
G04 #@! TO.N,/Motor Output/fault_2*
G04 #@! TO.C,R9*
G36*
X131087691Y-78151053D02*
X131108926Y-78154203D01*
X131129750Y-78159419D01*
X131149962Y-78166651D01*
X131169368Y-78175830D01*
X131187781Y-78186866D01*
X131205024Y-78199654D01*
X131220930Y-78214070D01*
X131235346Y-78229976D01*
X131248134Y-78247219D01*
X131259170Y-78265632D01*
X131268349Y-78285038D01*
X131275581Y-78305250D01*
X131280797Y-78326074D01*
X131283947Y-78347309D01*
X131285000Y-78368750D01*
X131285000Y-78806250D01*
X131283947Y-78827691D01*
X131280797Y-78848926D01*
X131275581Y-78869750D01*
X131268349Y-78889962D01*
X131259170Y-78909368D01*
X131248134Y-78927781D01*
X131235346Y-78945024D01*
X131220930Y-78960930D01*
X131205024Y-78975346D01*
X131187781Y-78988134D01*
X131169368Y-78999170D01*
X131149962Y-79008349D01*
X131129750Y-79015581D01*
X131108926Y-79020797D01*
X131087691Y-79023947D01*
X131066250Y-79025000D01*
X130553750Y-79025000D01*
X130532309Y-79023947D01*
X130511074Y-79020797D01*
X130490250Y-79015581D01*
X130470038Y-79008349D01*
X130450632Y-78999170D01*
X130432219Y-78988134D01*
X130414976Y-78975346D01*
X130399070Y-78960930D01*
X130384654Y-78945024D01*
X130371866Y-78927781D01*
X130360830Y-78909368D01*
X130351651Y-78889962D01*
X130344419Y-78869750D01*
X130339203Y-78848926D01*
X130336053Y-78827691D01*
X130335000Y-78806250D01*
X130335000Y-78368750D01*
X130336053Y-78347309D01*
X130339203Y-78326074D01*
X130344419Y-78305250D01*
X130351651Y-78285038D01*
X130360830Y-78265632D01*
X130371866Y-78247219D01*
X130384654Y-78229976D01*
X130399070Y-78214070D01*
X130414976Y-78199654D01*
X130432219Y-78186866D01*
X130450632Y-78175830D01*
X130470038Y-78166651D01*
X130490250Y-78159419D01*
X130511074Y-78154203D01*
X130532309Y-78151053D01*
X130553750Y-78150000D01*
X131066250Y-78150000D01*
X131087691Y-78151053D01*
X131087691Y-78151053D01*
G37*
D13*
G04 #@! TD*
G04 #@! TO.P,R9,2*
G04 #@! TO.N,/Motor Output/fault_2*
X130810000Y-78587500D03*
D12*
G04 #@! TO.N,+3V3*
G04 #@! TO.C,R9*
G36*
X131087691Y-79726053D02*
X131108926Y-79729203D01*
X131129750Y-79734419D01*
X131149962Y-79741651D01*
X131169368Y-79750830D01*
X131187781Y-79761866D01*
X131205024Y-79774654D01*
X131220930Y-79789070D01*
X131235346Y-79804976D01*
X131248134Y-79822219D01*
X131259170Y-79840632D01*
X131268349Y-79860038D01*
X131275581Y-79880250D01*
X131280797Y-79901074D01*
X131283947Y-79922309D01*
X131285000Y-79943750D01*
X131285000Y-80381250D01*
X131283947Y-80402691D01*
X131280797Y-80423926D01*
X131275581Y-80444750D01*
X131268349Y-80464962D01*
X131259170Y-80484368D01*
X131248134Y-80502781D01*
X131235346Y-80520024D01*
X131220930Y-80535930D01*
X131205024Y-80550346D01*
X131187781Y-80563134D01*
X131169368Y-80574170D01*
X131149962Y-80583349D01*
X131129750Y-80590581D01*
X131108926Y-80595797D01*
X131087691Y-80598947D01*
X131066250Y-80600000D01*
X130553750Y-80600000D01*
X130532309Y-80598947D01*
X130511074Y-80595797D01*
X130490250Y-80590581D01*
X130470038Y-80583349D01*
X130450632Y-80574170D01*
X130432219Y-80563134D01*
X130414976Y-80550346D01*
X130399070Y-80535930D01*
X130384654Y-80520024D01*
X130371866Y-80502781D01*
X130360830Y-80484368D01*
X130351651Y-80464962D01*
X130344419Y-80444750D01*
X130339203Y-80423926D01*
X130336053Y-80402691D01*
X130335000Y-80381250D01*
X130335000Y-79943750D01*
X130336053Y-79922309D01*
X130339203Y-79901074D01*
X130344419Y-79880250D01*
X130351651Y-79860038D01*
X130360830Y-79840632D01*
X130371866Y-79822219D01*
X130384654Y-79804976D01*
X130399070Y-79789070D01*
X130414976Y-79774654D01*
X130432219Y-79761866D01*
X130450632Y-79750830D01*
X130470038Y-79741651D01*
X130490250Y-79734419D01*
X130511074Y-79729203D01*
X130532309Y-79726053D01*
X130553750Y-79725000D01*
X131066250Y-79725000D01*
X131087691Y-79726053D01*
X131087691Y-79726053D01*
G37*
D13*
G04 #@! TD*
G04 #@! TO.P,R9,1*
G04 #@! TO.N,+3V3*
X130810000Y-80162500D03*
D17*
G04 #@! TO.P,J2,1*
G04 #@! TO.N,/Control Signals (from FPGA or microcontroller)/VS_3*
X125730000Y-40640000D03*
D18*
G04 #@! TO.P,J2,2*
G04 #@! TO.N,/Control Signals (from FPGA or microcontroller)/VS_2*
X128270000Y-40640000D03*
G04 #@! TO.P,J2,3*
G04 #@! TO.N,/Control Signals (from FPGA or microcontroller)/VS_1*
X130810000Y-40640000D03*
G04 #@! TO.P,J2,4*
G04 #@! TO.N,/Control Signals (from FPGA or microcontroller)/L3*
X133350000Y-40640000D03*
G04 #@! TO.P,J2,5*
G04 #@! TO.N,/Control Signals (from FPGA or microcontroller)/H3*
X135890000Y-40640000D03*
G04 #@! TO.P,J2,6*
G04 #@! TO.N,/Control Signals (from FPGA or microcontroller)/L2*
X138430000Y-40640000D03*
G04 #@! TO.P,J2,7*
G04 #@! TO.N,/Control Signals (from FPGA or microcontroller)/H2*
X140970000Y-40640000D03*
G04 #@! TO.P,J2,8*
G04 #@! TO.N,/Control Signals (from FPGA or microcontroller)/L1*
X143510000Y-40640000D03*
G04 #@! TO.P,J2,9*
G04 #@! TO.N,/Control Signals (from FPGA or microcontroller)/H1*
X146050000Y-40640000D03*
G04 #@! TD*
D19*
G04 #@! TO.P,Q1,4*
G04 #@! TO.N,N/C*
X148459999Y-61340000D03*
D20*
G04 #@! TO.P,Q1,3*
G04 #@! TO.N,/Three Phase Bridge/PHASE_1*
X154759999Y-63620000D03*
G04 #@! TO.P,Q1,2*
G04 #@! TO.N,Net-(Q1-Pad2)*
X154759999Y-61340000D03*
G04 #@! TO.P,Q1,1*
G04 #@! TO.N,V_POWER*
X154759999Y-59060000D03*
G04 #@! TD*
D19*
G04 #@! TO.P,Q2,4*
G04 #@! TO.N,N/C*
X148395000Y-70485000D03*
D20*
G04 #@! TO.P,Q2,3*
G04 #@! TO.N,GND*
X154695000Y-72765000D03*
G04 #@! TO.P,Q2,2*
G04 #@! TO.N,Net-(Q2-Pad2)*
X154695000Y-70485000D03*
G04 #@! TO.P,Q2,1*
G04 #@! TO.N,/Three Phase Bridge/PHASE_1*
X154695000Y-68205000D03*
G04 #@! TD*
G04 #@! TO.P,Q3,1*
G04 #@! TO.N,V_POWER*
X138380000Y-59125772D03*
G04 #@! TO.P,Q3,2*
G04 #@! TO.N,Net-(Q3-Pad2)*
X138380000Y-61405772D03*
G04 #@! TO.P,Q3,3*
G04 #@! TO.N,/Three Phase Bridge/PHASE_2*
X138380000Y-63685772D03*
D19*
G04 #@! TO.P,Q3,4*
G04 #@! TO.N,N/C*
X132080000Y-61405772D03*
G04 #@! TD*
D20*
G04 #@! TO.P,Q4,1*
G04 #@! TO.N,/Three Phase Bridge/PHASE_2*
X138380000Y-68270772D03*
G04 #@! TO.P,Q4,2*
G04 #@! TO.N,Net-(Q4-Pad2)*
X138380000Y-70550772D03*
G04 #@! TO.P,Q4,3*
G04 #@! TO.N,GND*
X138380000Y-72830772D03*
D19*
G04 #@! TO.P,Q4,4*
G04 #@! TO.N,N/C*
X132080000Y-70550772D03*
G04 #@! TD*
D20*
G04 #@! TO.P,Q5,1*
G04 #@! TO.N,V_POWER*
X121675000Y-59125772D03*
G04 #@! TO.P,Q5,2*
G04 #@! TO.N,Net-(Q5-Pad2)*
X121675000Y-61405772D03*
G04 #@! TO.P,Q5,3*
G04 #@! TO.N,/Three Phase Bridge/PHASE_3*
X121675000Y-63685772D03*
D19*
G04 #@! TO.P,Q5,4*
G04 #@! TO.N,N/C*
X115375000Y-61405772D03*
G04 #@! TD*
G04 #@! TO.P,Q6,4*
G04 #@! TO.N,N/C*
X115375000Y-70295772D03*
D20*
G04 #@! TO.P,Q6,3*
G04 #@! TO.N,GND*
X121675000Y-72575772D03*
G04 #@! TO.P,Q6,2*
G04 #@! TO.N,Net-(Q6-Pad2)*
X121675000Y-70295772D03*
G04 #@! TO.P,Q6,1*
G04 #@! TO.N,/Three Phase Bridge/PHASE_3*
X121675000Y-68015772D03*
G04 #@! TD*
D21*
G04 #@! TO.N,*
X115443000Y-70231000D03*
X115443000Y-61341000D03*
X117348000Y-63246000D03*
X117348000Y-59690000D03*
X113538000Y-59690000D03*
X113538000Y-63246000D03*
X113538000Y-72136000D03*
X117348000Y-72136000D03*
X117348000Y-68580000D03*
X113538000Y-68580000D03*
X150241000Y-68834000D03*
X146304000Y-72136000D03*
X146304000Y-68834000D03*
X150368000Y-72263000D03*
X148336000Y-70612000D03*
X150495000Y-59563000D03*
X146558000Y-62865000D03*
X146558000Y-59563000D03*
X150622000Y-62992000D03*
X148590000Y-61341000D03*
X134112000Y-63119000D03*
X133985000Y-59690000D03*
X132080000Y-61468000D03*
X130048000Y-62992000D03*
X130048000Y-59690000D03*
X133985000Y-72390000D03*
X130175000Y-72390000D03*
X132080000Y-70612000D03*
X133985000Y-68707000D03*
X130175000Y-68707000D03*
G04 #@! TO.N,/Control Signals (from FPGA or microcontroller)/H2*
X139573000Y-54356000D03*
G04 #@! TO.N,/Control Signals (from FPGA or microcontroller)/H3*
X121158000Y-53848000D03*
G04 #@! TO.N,/Control Signals (from FPGA or microcontroller)/L2*
X137922000Y-52247490D03*
G04 #@! TO.N,/Control Signals (from FPGA or microcontroller)/L3*
X124206000Y-51435000D03*
G04 #@! TO.N,/Three Phase Bridge/PHASE_1*
X154940000Y-66167000D03*
G04 #@! TO.N,/Three Phase Bridge/PHASE_2*
X138303000Y-65659000D03*
G04 #@! TO.N,/Three Phase Bridge/PHASE_3*
X121675000Y-66040000D03*
G04 #@! TO.N,/Control Signals (from FPGA or microcontroller)/VS_3*
X118110000Y-77470000D03*
G04 #@! TO.N,/Control Signals (from FPGA or microcontroller)/VS_1*
X152019000Y-77597000D03*
G04 #@! TO.N,/Control Signals (from FPGA or microcontroller)/VS_2*
X134874000Y-77470000D03*
G04 #@! TO.N,+3V3*
X130810000Y-81915000D03*
X113665000Y-82042000D03*
X147320000Y-82042000D03*
G04 #@! TO.N,Net-(Q1-Pad2)*
X158496000Y-61341000D03*
G04 #@! TO.N,V_POWER*
X140335000Y-57150000D03*
X156591000Y-57150000D03*
X123571000Y-57150000D03*
X114808000Y-46990000D03*
X131572000Y-46990000D03*
X147828000Y-47117000D03*
G04 #@! TO.N,Net-(Q2-Pad2)*
X157099000Y-70358000D03*
G04 #@! TO.N,Net-(Q3-Pad2)*
X140843000Y-60833000D03*
G04 #@! TO.N,Net-(Q4-Pad2)*
X140716000Y-69977000D03*
G04 #@! TO.N,Net-(Q5-Pad2)*
X125730000Y-62484000D03*
G04 #@! TO.N,Net-(Q6-Pad2)*
X124333000Y-70485000D03*
G04 #@! TD*
D22*
G04 #@! TO.N,GND*
X153345000Y-72765000D02*
X153339000Y-72771000D01*
X154695000Y-72765000D02*
X153345000Y-72765000D01*
X153339000Y-72771000D02*
X152527000Y-72771000D01*
G04 #@! TO.N,/Three Phase Bridge/PHASE_3*
X122175000Y-68015772D02*
X122245772Y-67945000D01*
X121675000Y-68015772D02*
X122175000Y-68015772D01*
D23*
X121675000Y-66040000D02*
X121675000Y-66040000D01*
D22*
G04 #@! TO.N,/Control Signals (from FPGA or microcontroller)/VS_3*
X116045000Y-77470000D02*
X118110000Y-77470000D01*
X118110000Y-77470000D02*
X118110000Y-77470000D01*
X113665000Y-76200000D02*
X113665000Y-77089000D01*
X114046000Y-77470000D02*
X116045000Y-77470000D01*
X113665000Y-77089000D02*
X114046000Y-77470000D01*
G04 #@! TO.N,/Control Signals (from FPGA or microcontroller)/VS_1*
X151892000Y-77470000D02*
X152019000Y-77597000D01*
X149700000Y-77470000D02*
X151892000Y-77470000D01*
X147472500Y-76200000D02*
X147472500Y-77241500D01*
X147701000Y-77470000D02*
X149700000Y-77470000D01*
X147472500Y-77241500D02*
X147701000Y-77470000D01*
G04 #@! TO.N,/Control Signals (from FPGA or microcontroller)/VS_2*
X132165000Y-77470000D02*
X133190000Y-77470000D01*
X131810000Y-77470000D02*
X132165000Y-77470000D01*
X131115000Y-76200000D02*
X131115000Y-76775000D01*
X131115000Y-76775000D02*
X131810000Y-77470000D01*
X133190000Y-77470000D02*
X134874000Y-77470000D01*
X134874000Y-77470000D02*
X134874000Y-77470000D01*
G04 #@! TO.N,+3V3*
X130632500Y-80340000D02*
X130632500Y-80340000D01*
X128905000Y-80340000D02*
X130632500Y-80340000D01*
X133037500Y-80162500D02*
X133190000Y-80010000D01*
X130810000Y-80162500D02*
X133037500Y-80162500D01*
X113640000Y-80340000D02*
X113640000Y-80340000D01*
X111760000Y-80340000D02*
X113640000Y-80340000D01*
X113665000Y-80315000D02*
X114240000Y-80315000D01*
X114545000Y-80010000D02*
X116045000Y-80010000D01*
X114240000Y-80315000D02*
X114545000Y-80010000D01*
X130632500Y-80340000D02*
X130810000Y-80162500D01*
X146990000Y-80492500D02*
X147320000Y-80162500D01*
X145288000Y-80492500D02*
X146075500Y-80492500D01*
X146405500Y-80162500D02*
X147320000Y-80162500D01*
X146075500Y-80492500D02*
X146405500Y-80162500D01*
X113640000Y-80340000D02*
X113665000Y-80315000D01*
X147320000Y-80162500D02*
X147320000Y-80162500D01*
X113665000Y-82042000D02*
X113665000Y-80315000D01*
X130810000Y-81915000D02*
X130810000Y-80162500D01*
X147320000Y-82042000D02*
X147320000Y-80162500D01*
G04 #@! TO.N,Net-(Q1-Pad2)*
X158495000Y-61340000D02*
X158496000Y-61341000D01*
X154759999Y-61340000D02*
X158495000Y-61340000D01*
G04 #@! TO.N,V_POWER*
X154759999Y-59060000D02*
X154759999Y-57457001D01*
X155067000Y-57150000D02*
X156591000Y-57150000D01*
X154759999Y-57457001D02*
X155067000Y-57150000D01*
X138380000Y-59125772D02*
X138380000Y-57708000D01*
X138938000Y-57150000D02*
X140335000Y-57150000D01*
X138380000Y-57708000D02*
X138938000Y-57150000D01*
X121675000Y-59125772D02*
X121675000Y-57649000D01*
X122174000Y-57150000D02*
X123571000Y-57150000D01*
X121675000Y-57649000D02*
X122174000Y-57150000D01*
G04 #@! TO.N,Net-(Q2-Pad2)*
X156972000Y-70485000D02*
X157099000Y-70358000D01*
X154695000Y-70485000D02*
X156972000Y-70485000D01*
G04 #@! TO.N,Net-(Q3-Pad2)*
X140270228Y-61405772D02*
X140843000Y-60833000D01*
X138380000Y-61405772D02*
X140270228Y-61405772D01*
G04 #@! TO.N,Net-(Q4-Pad2)*
X140142228Y-70550772D02*
X140716000Y-69977000D01*
X138380000Y-70550772D02*
X140142228Y-70550772D01*
G04 #@! TO.N,Net-(Q5-Pad2)*
X125730000Y-61722000D02*
X125730000Y-62484000D01*
X121675000Y-61405772D02*
X125413772Y-61405772D01*
X125413772Y-61405772D02*
X125730000Y-61722000D01*
G04 #@! TO.N,Net-(Q6-Pad2)*
X124143772Y-70295772D02*
X124333000Y-70485000D01*
X121675000Y-70295772D02*
X124143772Y-70295772D01*
D23*
G04 #@! TO.N,/Motor Output/output_1*
X143256000Y-87757000D02*
X156591000Y-87757000D01*
X156591000Y-87757000D02*
X159004000Y-85344000D01*
X159004000Y-85344000D02*
X159004000Y-79883000D01*
X122301000Y-91553000D02*
X123049000Y-90805000D01*
X122301000Y-93853000D02*
X122301000Y-91553000D01*
X140208000Y-90805000D02*
X140335000Y-90678000D01*
X123049000Y-90805000D02*
X140208000Y-90805000D01*
X140335000Y-90678000D02*
X143256000Y-87757000D01*
D22*
G04 #@! TO.N,/Motor Output/fault_1*
X147320000Y-78587500D02*
X148056500Y-78587500D01*
X148209000Y-78740000D02*
X149700000Y-78740000D01*
X148056500Y-78587500D02*
X148209000Y-78740000D01*
G04 #@! TO.N,/Motor Output/fault_2*
X133037500Y-78587500D02*
X133190000Y-78740000D01*
X130810000Y-78587500D02*
X133037500Y-78587500D01*
D23*
G04 #@! TO.N,/Motor Output/output_2*
X117301000Y-92014523D02*
X117301000Y-93853000D01*
X117301000Y-89836000D02*
X117301000Y-92014523D01*
X117983000Y-89154000D02*
X117301000Y-89836000D01*
X137033000Y-89154000D02*
X117983000Y-89154000D01*
X138938000Y-84074000D02*
X138938000Y-87249000D01*
X138938000Y-87249000D02*
X137033000Y-89154000D01*
G04 #@! TO.N,/Motor Output/output_3*
X112301000Y-88359000D02*
X112301000Y-93853000D01*
X113284000Y-87376000D02*
X112301000Y-88359000D01*
X121666000Y-87376000D02*
X113284000Y-87376000D01*
X124079000Y-79502000D02*
X124079000Y-84963000D01*
X124079000Y-84963000D02*
X121666000Y-87376000D01*
D22*
G04 #@! TO.N,/Motor Output/fault_3*
X113665000Y-78740000D02*
X116045000Y-78740000D01*
G04 #@! TD*
D24*
G04 #@! TO.N,/Three Phase Bridge/PHASE_3*
G36*
X124706316Y-62717193D02*
X124852569Y-63070280D01*
X125143720Y-63361431D01*
X125524126Y-63519000D01*
X125935874Y-63519000D01*
X126316280Y-63361431D01*
X126607431Y-63070280D01*
X126619000Y-63042350D01*
X126619000Y-77343000D01*
X122855000Y-77343000D01*
X122855000Y-77342998D01*
X122696252Y-77342998D01*
X122855000Y-77184250D01*
X122855000Y-77043690D01*
X122768558Y-76835000D01*
X122855000Y-76626310D01*
X122855000Y-76485750D01*
X122696250Y-76327000D01*
X121572000Y-76327000D01*
X121572000Y-77343000D01*
X121318000Y-77343000D01*
X121318000Y-76327000D01*
X121298000Y-76327000D01*
X121298000Y-76073000D01*
X121318000Y-76073000D01*
X121318000Y-76053000D01*
X121572000Y-76053000D01*
X121572000Y-76073000D01*
X122696250Y-76073000D01*
X122855000Y-75914250D01*
X122855000Y-75773690D01*
X122758327Y-75540301D01*
X122579698Y-75361673D01*
X122346309Y-75265000D01*
X121730750Y-75265000D01*
X121572002Y-75423748D01*
X121572002Y-75266997D01*
X121767600Y-75006200D01*
X121789027Y-74961519D01*
X121793000Y-74930000D01*
X121793000Y-73823212D01*
X122775000Y-73823212D01*
X123022765Y-73773929D01*
X123232809Y-73633581D01*
X123373157Y-73423537D01*
X123422440Y-73175772D01*
X123422440Y-71975772D01*
X123373157Y-71728007D01*
X123232809Y-71517963D01*
X123109802Y-71435772D01*
X123232809Y-71353581D01*
X123373157Y-71143537D01*
X123390614Y-71055772D01*
X123449145Y-71055772D01*
X123455569Y-71071280D01*
X123746720Y-71362431D01*
X124127126Y-71520000D01*
X124538874Y-71520000D01*
X124919280Y-71362431D01*
X125210431Y-71071280D01*
X125368000Y-70690874D01*
X125368000Y-70279126D01*
X125210431Y-69898720D01*
X124919280Y-69607569D01*
X124538874Y-69450000D01*
X124127126Y-69450000D01*
X123920054Y-69535772D01*
X123390614Y-69535772D01*
X123373157Y-69448007D01*
X123232809Y-69237963D01*
X123117784Y-69161105D01*
X123134698Y-69154099D01*
X123313327Y-68975471D01*
X123410000Y-68742082D01*
X123410000Y-68301522D01*
X123251250Y-68142772D01*
X121802000Y-68142772D01*
X121802000Y-68162772D01*
X121548000Y-68162772D01*
X121548000Y-68142772D01*
X121528000Y-68142772D01*
X121528000Y-67888772D01*
X121548000Y-67888772D01*
X121548000Y-66939522D01*
X121802000Y-66939522D01*
X121802000Y-67888772D01*
X123251250Y-67888772D01*
X123410000Y-67730022D01*
X123410000Y-67289462D01*
X123313327Y-67056073D01*
X123134698Y-66877445D01*
X122901309Y-66780772D01*
X121960750Y-66780772D01*
X121802000Y-66939522D01*
X121548000Y-66939522D01*
X121389250Y-66780772D01*
X120591622Y-66780772D01*
X120617278Y-64920772D01*
X121389250Y-64920772D01*
X121548000Y-64762022D01*
X121548000Y-63812772D01*
X121802000Y-63812772D01*
X121802000Y-64762022D01*
X121960750Y-64920772D01*
X122901309Y-64920772D01*
X123134698Y-64824099D01*
X123313327Y-64645471D01*
X123410000Y-64412082D01*
X123410000Y-63971522D01*
X123251250Y-63812772D01*
X121802000Y-63812772D01*
X121548000Y-63812772D01*
X121528000Y-63812772D01*
X121528000Y-63558772D01*
X121548000Y-63558772D01*
X121548000Y-63538772D01*
X121802000Y-63538772D01*
X121802000Y-63558772D01*
X123251250Y-63558772D01*
X123410000Y-63400022D01*
X123410000Y-62959462D01*
X123313327Y-62726073D01*
X123289994Y-62702741D01*
X124706316Y-62717193D01*
X124706316Y-62717193D01*
G37*
X124706316Y-62717193D02*
X124852569Y-63070280D01*
X125143720Y-63361431D01*
X125524126Y-63519000D01*
X125935874Y-63519000D01*
X126316280Y-63361431D01*
X126607431Y-63070280D01*
X126619000Y-63042350D01*
X126619000Y-77343000D01*
X122855000Y-77343000D01*
X122855000Y-77342998D01*
X122696252Y-77342998D01*
X122855000Y-77184250D01*
X122855000Y-77043690D01*
X122768558Y-76835000D01*
X122855000Y-76626310D01*
X122855000Y-76485750D01*
X122696250Y-76327000D01*
X121572000Y-76327000D01*
X121572000Y-77343000D01*
X121318000Y-77343000D01*
X121318000Y-76327000D01*
X121298000Y-76327000D01*
X121298000Y-76073000D01*
X121318000Y-76073000D01*
X121318000Y-76053000D01*
X121572000Y-76053000D01*
X121572000Y-76073000D01*
X122696250Y-76073000D01*
X122855000Y-75914250D01*
X122855000Y-75773690D01*
X122758327Y-75540301D01*
X122579698Y-75361673D01*
X122346309Y-75265000D01*
X121730750Y-75265000D01*
X121572002Y-75423748D01*
X121572002Y-75266997D01*
X121767600Y-75006200D01*
X121789027Y-74961519D01*
X121793000Y-74930000D01*
X121793000Y-73823212D01*
X122775000Y-73823212D01*
X123022765Y-73773929D01*
X123232809Y-73633581D01*
X123373157Y-73423537D01*
X123422440Y-73175772D01*
X123422440Y-71975772D01*
X123373157Y-71728007D01*
X123232809Y-71517963D01*
X123109802Y-71435772D01*
X123232809Y-71353581D01*
X123373157Y-71143537D01*
X123390614Y-71055772D01*
X123449145Y-71055772D01*
X123455569Y-71071280D01*
X123746720Y-71362431D01*
X124127126Y-71520000D01*
X124538874Y-71520000D01*
X124919280Y-71362431D01*
X125210431Y-71071280D01*
X125368000Y-70690874D01*
X125368000Y-70279126D01*
X125210431Y-69898720D01*
X124919280Y-69607569D01*
X124538874Y-69450000D01*
X124127126Y-69450000D01*
X123920054Y-69535772D01*
X123390614Y-69535772D01*
X123373157Y-69448007D01*
X123232809Y-69237963D01*
X123117784Y-69161105D01*
X123134698Y-69154099D01*
X123313327Y-68975471D01*
X123410000Y-68742082D01*
X123410000Y-68301522D01*
X123251250Y-68142772D01*
X121802000Y-68142772D01*
X121802000Y-68162772D01*
X121548000Y-68162772D01*
X121548000Y-68142772D01*
X121528000Y-68142772D01*
X121528000Y-67888772D01*
X121548000Y-67888772D01*
X121548000Y-66939522D01*
X121802000Y-66939522D01*
X121802000Y-67888772D01*
X123251250Y-67888772D01*
X123410000Y-67730022D01*
X123410000Y-67289462D01*
X123313327Y-67056073D01*
X123134698Y-66877445D01*
X122901309Y-66780772D01*
X121960750Y-66780772D01*
X121802000Y-66939522D01*
X121548000Y-66939522D01*
X121389250Y-66780772D01*
X120591622Y-66780772D01*
X120617278Y-64920772D01*
X121389250Y-64920772D01*
X121548000Y-64762022D01*
X121548000Y-63812772D01*
X121802000Y-63812772D01*
X121802000Y-64762022D01*
X121960750Y-64920772D01*
X122901309Y-64920772D01*
X123134698Y-64824099D01*
X123313327Y-64645471D01*
X123410000Y-64412082D01*
X123410000Y-63971522D01*
X123251250Y-63812772D01*
X121802000Y-63812772D01*
X121548000Y-63812772D01*
X121528000Y-63812772D01*
X121528000Y-63558772D01*
X121548000Y-63558772D01*
X121548000Y-63538772D01*
X121802000Y-63538772D01*
X121802000Y-63558772D01*
X123251250Y-63558772D01*
X123410000Y-63400022D01*
X123410000Y-62959462D01*
X123313327Y-62726073D01*
X123289994Y-62702741D01*
X124706316Y-62717193D01*
G04 #@! TO.N,/Motor Output/output_3*
G36*
X126619000Y-84328000D02*
X121539000Y-84328000D01*
X121539000Y-80945000D01*
X121572002Y-80945000D01*
X121572002Y-80786252D01*
X121730750Y-80945000D01*
X122346309Y-80945000D01*
X122579698Y-80848327D01*
X122758327Y-80669699D01*
X122855000Y-80436310D01*
X122855000Y-80295750D01*
X122696250Y-80137000D01*
X121572000Y-80137000D01*
X121572000Y-80157000D01*
X121539000Y-80157000D01*
X121539000Y-79863000D01*
X121572000Y-79863000D01*
X121572000Y-79883000D01*
X122696250Y-79883000D01*
X122855000Y-79724250D01*
X122855000Y-79583690D01*
X122768558Y-79375000D01*
X122855000Y-79166310D01*
X122855000Y-79025750D01*
X122696250Y-78867000D01*
X121572000Y-78867000D01*
X121572000Y-78887000D01*
X121539000Y-78887000D01*
X121539000Y-78593000D01*
X121572000Y-78593000D01*
X121572000Y-78613000D01*
X122696250Y-78613000D01*
X122855000Y-78454250D01*
X122855000Y-78313690D01*
X122821163Y-78232000D01*
X126619000Y-78232000D01*
X126619000Y-84328000D01*
X126619000Y-84328000D01*
G37*
X126619000Y-84328000D02*
X121539000Y-84328000D01*
X121539000Y-80945000D01*
X121572002Y-80945000D01*
X121572002Y-80786252D01*
X121730750Y-80945000D01*
X122346309Y-80945000D01*
X122579698Y-80848327D01*
X122758327Y-80669699D01*
X122855000Y-80436310D01*
X122855000Y-80295750D01*
X122696250Y-80137000D01*
X121572000Y-80137000D01*
X121572000Y-80157000D01*
X121539000Y-80157000D01*
X121539000Y-79863000D01*
X121572000Y-79863000D01*
X121572000Y-79883000D01*
X122696250Y-79883000D01*
X122855000Y-79724250D01*
X122855000Y-79583690D01*
X122768558Y-79375000D01*
X122855000Y-79166310D01*
X122855000Y-79025750D01*
X122696250Y-78867000D01*
X121572000Y-78867000D01*
X121572000Y-78887000D01*
X121539000Y-78887000D01*
X121539000Y-78593000D01*
X121572000Y-78593000D01*
X121572000Y-78613000D01*
X122696250Y-78613000D01*
X122855000Y-78454250D01*
X122855000Y-78313690D01*
X122821163Y-78232000D01*
X126619000Y-78232000D01*
X126619000Y-84328000D01*
G04 #@! TO.N,/Motor Output/output_2*
G36*
X143789400Y-84606939D02*
X137033000Y-84582459D01*
X137033000Y-80295750D01*
X137180000Y-80295750D01*
X137180000Y-80436310D01*
X137276673Y-80669699D01*
X137455302Y-80848327D01*
X137688691Y-80945000D01*
X138304250Y-80945000D01*
X138463000Y-80786250D01*
X138463000Y-80137000D01*
X138717000Y-80137000D01*
X138717000Y-80786250D01*
X138875750Y-80945000D01*
X139491309Y-80945000D01*
X139724698Y-80848327D01*
X139903327Y-80669699D01*
X140000000Y-80436310D01*
X140000000Y-80295750D01*
X139841250Y-80137000D01*
X138717000Y-80137000D01*
X138463000Y-80137000D01*
X137338750Y-80137000D01*
X137180000Y-80295750D01*
X137033000Y-80295750D01*
X137033000Y-79025750D01*
X137180000Y-79025750D01*
X137180000Y-79166310D01*
X137266442Y-79375000D01*
X137180000Y-79583690D01*
X137180000Y-79724250D01*
X137338750Y-79883000D01*
X138463000Y-79883000D01*
X138463000Y-78867000D01*
X138717000Y-78867000D01*
X138717000Y-79883000D01*
X139841250Y-79883000D01*
X140000000Y-79724250D01*
X140000000Y-79583690D01*
X139913558Y-79375000D01*
X140000000Y-79166310D01*
X140000000Y-79025750D01*
X139841250Y-78867000D01*
X138717000Y-78867000D01*
X138463000Y-78867000D01*
X137338750Y-78867000D01*
X137180000Y-79025750D01*
X137033000Y-79025750D01*
X137033000Y-78231541D01*
X137214300Y-78230884D01*
X137180000Y-78313690D01*
X137180000Y-78454250D01*
X137338750Y-78613000D01*
X138463000Y-78613000D01*
X138463000Y-78593000D01*
X138717000Y-78593000D01*
X138717000Y-78613000D01*
X139841250Y-78613000D01*
X140000000Y-78454250D01*
X140000000Y-78313690D01*
X139961577Y-78220930D01*
X143789400Y-78207061D01*
X143789400Y-84606939D01*
X143789400Y-84606939D01*
G37*
X143789400Y-84606939D02*
X137033000Y-84582459D01*
X137033000Y-80295750D01*
X137180000Y-80295750D01*
X137180000Y-80436310D01*
X137276673Y-80669699D01*
X137455302Y-80848327D01*
X137688691Y-80945000D01*
X138304250Y-80945000D01*
X138463000Y-80786250D01*
X138463000Y-80137000D01*
X138717000Y-80137000D01*
X138717000Y-80786250D01*
X138875750Y-80945000D01*
X139491309Y-80945000D01*
X139724698Y-80848327D01*
X139903327Y-80669699D01*
X140000000Y-80436310D01*
X140000000Y-80295750D01*
X139841250Y-80137000D01*
X138717000Y-80137000D01*
X138463000Y-80137000D01*
X137338750Y-80137000D01*
X137180000Y-80295750D01*
X137033000Y-80295750D01*
X137033000Y-79025750D01*
X137180000Y-79025750D01*
X137180000Y-79166310D01*
X137266442Y-79375000D01*
X137180000Y-79583690D01*
X137180000Y-79724250D01*
X137338750Y-79883000D01*
X138463000Y-79883000D01*
X138463000Y-78867000D01*
X138717000Y-78867000D01*
X138717000Y-79883000D01*
X139841250Y-79883000D01*
X140000000Y-79724250D01*
X140000000Y-79583690D01*
X139913558Y-79375000D01*
X140000000Y-79166310D01*
X140000000Y-79025750D01*
X139841250Y-78867000D01*
X138717000Y-78867000D01*
X138463000Y-78867000D01*
X137338750Y-78867000D01*
X137180000Y-79025750D01*
X137033000Y-79025750D01*
X137033000Y-78231541D01*
X137214300Y-78230884D01*
X137180000Y-78313690D01*
X137180000Y-78454250D01*
X137338750Y-78613000D01*
X138463000Y-78613000D01*
X138463000Y-78593000D01*
X138717000Y-78593000D01*
X138717000Y-78613000D01*
X139841250Y-78613000D01*
X140000000Y-78454250D01*
X140000000Y-78313690D01*
X139961577Y-78220930D01*
X143789400Y-78207061D01*
X143789400Y-84606939D01*
G04 #@! TO.N,GND*
G36*
X136645000Y-72104462D02*
X136645000Y-72545022D01*
X136803750Y-72703772D01*
X138253000Y-72703772D01*
X138253000Y-72683772D01*
X138507000Y-72683772D01*
X138507000Y-72703772D01*
X138527000Y-72703772D01*
X138527000Y-72957772D01*
X138507000Y-72957772D01*
X138507000Y-73907022D01*
X138665750Y-74065772D01*
X138684000Y-74065772D01*
X138684000Y-74930000D01*
X138303000Y-74930000D01*
X138059996Y-74978336D01*
X137853987Y-75115987D01*
X137754720Y-75264550D01*
X137567235Y-75301843D01*
X137553531Y-75311000D01*
X136144000Y-75311000D01*
X136144000Y-73116522D01*
X136645000Y-73116522D01*
X136645000Y-73557082D01*
X136741673Y-73790471D01*
X136920302Y-73969099D01*
X137153691Y-74065772D01*
X138094250Y-74065772D01*
X138253000Y-73907022D01*
X138253000Y-72957772D01*
X136803750Y-72957772D01*
X136645000Y-73116522D01*
X136144000Y-73116522D01*
X136144000Y-72009000D01*
X136684542Y-72009000D01*
X136645000Y-72104462D01*
X136645000Y-72104462D01*
G37*
X136645000Y-72104462D02*
X136645000Y-72545022D01*
X136803750Y-72703772D01*
X138253000Y-72703772D01*
X138253000Y-72683772D01*
X138507000Y-72683772D01*
X138507000Y-72703772D01*
X138527000Y-72703772D01*
X138527000Y-72957772D01*
X138507000Y-72957772D01*
X138507000Y-73907022D01*
X138665750Y-74065772D01*
X138684000Y-74065772D01*
X138684000Y-74930000D01*
X138303000Y-74930000D01*
X138059996Y-74978336D01*
X137853987Y-75115987D01*
X137754720Y-75264550D01*
X137567235Y-75301843D01*
X137553531Y-75311000D01*
X136144000Y-75311000D01*
X136144000Y-73116522D01*
X136645000Y-73116522D01*
X136645000Y-73557082D01*
X136741673Y-73790471D01*
X136920302Y-73969099D01*
X137153691Y-74065772D01*
X138094250Y-74065772D01*
X138253000Y-73907022D01*
X138253000Y-72957772D01*
X136803750Y-72957772D01*
X136645000Y-73116522D01*
X136144000Y-73116522D01*
X136144000Y-72009000D01*
X136684542Y-72009000D01*
X136645000Y-72104462D01*
G04 #@! TO.N,/Three Phase Bridge/PHASE_2*
G36*
X143687800Y-62648401D02*
X143687800Y-77253219D01*
X139956821Y-77227429D01*
X140000000Y-77184250D01*
X140000000Y-77043690D01*
X139913558Y-76835000D01*
X140000000Y-76626310D01*
X140000000Y-76485750D01*
X139841250Y-76327000D01*
X138717000Y-76327000D01*
X138717000Y-77218859D01*
X138463000Y-77217103D01*
X138463000Y-76327000D01*
X138443000Y-76327000D01*
X138443000Y-76073000D01*
X138463000Y-76073000D01*
X138463000Y-76053000D01*
X138717000Y-76053000D01*
X138717000Y-76073000D01*
X139841250Y-76073000D01*
X140000000Y-75914250D01*
X140000000Y-75773690D01*
X139966163Y-75692000D01*
X140208000Y-75692000D01*
X140256601Y-75682333D01*
X140297803Y-75654803D01*
X140325333Y-75613601D01*
X140335000Y-75565000D01*
X140335000Y-71287316D01*
X140438765Y-71266676D01*
X140690157Y-71098701D01*
X140732559Y-71035242D01*
X140755801Y-71012000D01*
X140921874Y-71012000D01*
X141302280Y-70854431D01*
X141593431Y-70563280D01*
X141751000Y-70182874D01*
X141751000Y-69771126D01*
X141593431Y-69390720D01*
X141302280Y-69099569D01*
X140921874Y-68942000D01*
X140510126Y-68942000D01*
X140129720Y-69099569D01*
X140032122Y-69197167D01*
X140115000Y-68997082D01*
X140115000Y-68556522D01*
X139956250Y-68397772D01*
X138507000Y-68397772D01*
X138507000Y-68417772D01*
X138253000Y-68417772D01*
X138253000Y-68397772D01*
X138233000Y-68397772D01*
X138233000Y-68143772D01*
X138253000Y-68143772D01*
X138253000Y-67194522D01*
X138507000Y-67194522D01*
X138507000Y-68143772D01*
X139956250Y-68143772D01*
X140115000Y-67985022D01*
X140115000Y-67544462D01*
X140018327Y-67311073D01*
X139839698Y-67132445D01*
X139606309Y-67035772D01*
X138665750Y-67035772D01*
X138507000Y-67194522D01*
X138253000Y-67194522D01*
X138094250Y-67035772D01*
X137153691Y-67035772D01*
X137033000Y-67085764D01*
X137033000Y-64870780D01*
X137153691Y-64920772D01*
X138094250Y-64920772D01*
X138253000Y-64762022D01*
X138253000Y-63812772D01*
X138507000Y-63812772D01*
X138507000Y-64762022D01*
X138665750Y-64920772D01*
X139606309Y-64920772D01*
X139839698Y-64824099D01*
X140018327Y-64645471D01*
X140115000Y-64412082D01*
X140115000Y-63971522D01*
X139956250Y-63812772D01*
X138507000Y-63812772D01*
X138253000Y-63812772D01*
X138233000Y-63812772D01*
X138233000Y-63558772D01*
X138253000Y-63558772D01*
X138253000Y-63538772D01*
X138507000Y-63538772D01*
X138507000Y-63558772D01*
X139956250Y-63558772D01*
X140115000Y-63400022D01*
X140115000Y-62959462D01*
X140018327Y-62726073D01*
X139919876Y-62627622D01*
X143687800Y-62648401D01*
X143687800Y-62648401D01*
G37*
X143687800Y-62648401D02*
X143687800Y-77253219D01*
X139956821Y-77227429D01*
X140000000Y-77184250D01*
X140000000Y-77043690D01*
X139913558Y-76835000D01*
X140000000Y-76626310D01*
X140000000Y-76485750D01*
X139841250Y-76327000D01*
X138717000Y-76327000D01*
X138717000Y-77218859D01*
X138463000Y-77217103D01*
X138463000Y-76327000D01*
X138443000Y-76327000D01*
X138443000Y-76073000D01*
X138463000Y-76073000D01*
X138463000Y-76053000D01*
X138717000Y-76053000D01*
X138717000Y-76073000D01*
X139841250Y-76073000D01*
X140000000Y-75914250D01*
X140000000Y-75773690D01*
X139966163Y-75692000D01*
X140208000Y-75692000D01*
X140256601Y-75682333D01*
X140297803Y-75654803D01*
X140325333Y-75613601D01*
X140335000Y-75565000D01*
X140335000Y-71287316D01*
X140438765Y-71266676D01*
X140690157Y-71098701D01*
X140732559Y-71035242D01*
X140755801Y-71012000D01*
X140921874Y-71012000D01*
X141302280Y-70854431D01*
X141593431Y-70563280D01*
X141751000Y-70182874D01*
X141751000Y-69771126D01*
X141593431Y-69390720D01*
X141302280Y-69099569D01*
X140921874Y-68942000D01*
X140510126Y-68942000D01*
X140129720Y-69099569D01*
X140032122Y-69197167D01*
X140115000Y-68997082D01*
X140115000Y-68556522D01*
X139956250Y-68397772D01*
X138507000Y-68397772D01*
X138507000Y-68417772D01*
X138253000Y-68417772D01*
X138253000Y-68397772D01*
X138233000Y-68397772D01*
X138233000Y-68143772D01*
X138253000Y-68143772D01*
X138253000Y-67194522D01*
X138507000Y-67194522D01*
X138507000Y-68143772D01*
X139956250Y-68143772D01*
X140115000Y-67985022D01*
X140115000Y-67544462D01*
X140018327Y-67311073D01*
X139839698Y-67132445D01*
X139606309Y-67035772D01*
X138665750Y-67035772D01*
X138507000Y-67194522D01*
X138253000Y-67194522D01*
X138094250Y-67035772D01*
X137153691Y-67035772D01*
X137033000Y-67085764D01*
X137033000Y-64870780D01*
X137153691Y-64920772D01*
X138094250Y-64920772D01*
X138253000Y-64762022D01*
X138253000Y-63812772D01*
X138507000Y-63812772D01*
X138507000Y-64762022D01*
X138665750Y-64920772D01*
X139606309Y-64920772D01*
X139839698Y-64824099D01*
X140018327Y-64645471D01*
X140115000Y-64412082D01*
X140115000Y-63971522D01*
X139956250Y-63812772D01*
X138507000Y-63812772D01*
X138253000Y-63812772D01*
X138233000Y-63812772D01*
X138233000Y-63558772D01*
X138253000Y-63558772D01*
X138253000Y-63538772D01*
X138507000Y-63538772D01*
X138507000Y-63558772D01*
X139956250Y-63558772D01*
X140115000Y-63400022D01*
X140115000Y-62959462D01*
X140018327Y-62726073D01*
X139919876Y-62627622D01*
X143687800Y-62648401D01*
G04 #@! TO.N,/Three Phase Bridge/PHASE_1*
G36*
X160451366Y-62762864D02*
X160401434Y-77343000D01*
X156510000Y-77343000D01*
X156510000Y-77342998D01*
X156351252Y-77342998D01*
X156510000Y-77184250D01*
X156510000Y-77043690D01*
X156423558Y-76835000D01*
X156510000Y-76626310D01*
X156510000Y-76485750D01*
X156351250Y-76327000D01*
X155227000Y-76327000D01*
X155227000Y-77343000D01*
X154973000Y-77343000D01*
X154973000Y-76327000D01*
X154953000Y-76327000D01*
X154953000Y-76073000D01*
X154973000Y-76073000D01*
X154973000Y-75423750D01*
X155227000Y-75423750D01*
X155227000Y-76073000D01*
X156351250Y-76073000D01*
X156510000Y-75914250D01*
X156510000Y-75773690D01*
X156413327Y-75540301D01*
X156234698Y-75361673D01*
X156001309Y-75265000D01*
X155385750Y-75265000D01*
X155227000Y-75423750D01*
X154973000Y-75423750D01*
X154903857Y-75354607D01*
X154880914Y-74012440D01*
X155795000Y-74012440D01*
X156042765Y-73963157D01*
X156252809Y-73822809D01*
X156393157Y-73612765D01*
X156442440Y-73365000D01*
X156442440Y-72165000D01*
X156393157Y-71917235D01*
X156252809Y-71707191D01*
X156129802Y-71625000D01*
X156252809Y-71542809D01*
X156393157Y-71332765D01*
X156410614Y-71245000D01*
X156535822Y-71245000D01*
X156893126Y-71393000D01*
X157304874Y-71393000D01*
X157685280Y-71235431D01*
X157976431Y-70944280D01*
X158134000Y-70563874D01*
X158134000Y-70152126D01*
X157976431Y-69771720D01*
X157685280Y-69480569D01*
X157304874Y-69323000D01*
X156893126Y-69323000D01*
X156512720Y-69480569D01*
X156378296Y-69614993D01*
X156252809Y-69427191D01*
X156137784Y-69350333D01*
X156154698Y-69343327D01*
X156333327Y-69164699D01*
X156430000Y-68931310D01*
X156430000Y-68490750D01*
X156271250Y-68332000D01*
X154822000Y-68332000D01*
X154822000Y-68352000D01*
X154784154Y-68352000D01*
X154779129Y-68058000D01*
X154822000Y-68058000D01*
X154822000Y-68078000D01*
X156271250Y-68078000D01*
X156430000Y-67919250D01*
X156430000Y-67478690D01*
X156333327Y-67245301D01*
X156154698Y-67066673D01*
X155921309Y-66970000D01*
X154980750Y-66970000D01*
X154822002Y-67128748D01*
X154822002Y-66970000D01*
X154760530Y-66970000D01*
X154705437Y-63747000D01*
X154886999Y-63747000D01*
X154886999Y-64696250D01*
X155045749Y-64855000D01*
X155986308Y-64855000D01*
X156219697Y-64758327D01*
X156398326Y-64579699D01*
X156494999Y-64346310D01*
X156494999Y-63905750D01*
X156336249Y-63747000D01*
X154886999Y-63747000D01*
X154705437Y-63747000D01*
X154700753Y-63473000D01*
X154886999Y-63473000D01*
X154886999Y-63493000D01*
X156336249Y-63493000D01*
X156494999Y-63334250D01*
X156494999Y-62893690D01*
X156433787Y-62745912D01*
X160451366Y-62762864D01*
X160451366Y-62762864D01*
G37*
X160451366Y-62762864D02*
X160401434Y-77343000D01*
X156510000Y-77343000D01*
X156510000Y-77342998D01*
X156351252Y-77342998D01*
X156510000Y-77184250D01*
X156510000Y-77043690D01*
X156423558Y-76835000D01*
X156510000Y-76626310D01*
X156510000Y-76485750D01*
X156351250Y-76327000D01*
X155227000Y-76327000D01*
X155227000Y-77343000D01*
X154973000Y-77343000D01*
X154973000Y-76327000D01*
X154953000Y-76327000D01*
X154953000Y-76073000D01*
X154973000Y-76073000D01*
X154973000Y-75423750D01*
X155227000Y-75423750D01*
X155227000Y-76073000D01*
X156351250Y-76073000D01*
X156510000Y-75914250D01*
X156510000Y-75773690D01*
X156413327Y-75540301D01*
X156234698Y-75361673D01*
X156001309Y-75265000D01*
X155385750Y-75265000D01*
X155227000Y-75423750D01*
X154973000Y-75423750D01*
X154903857Y-75354607D01*
X154880914Y-74012440D01*
X155795000Y-74012440D01*
X156042765Y-73963157D01*
X156252809Y-73822809D01*
X156393157Y-73612765D01*
X156442440Y-73365000D01*
X156442440Y-72165000D01*
X156393157Y-71917235D01*
X156252809Y-71707191D01*
X156129802Y-71625000D01*
X156252809Y-71542809D01*
X156393157Y-71332765D01*
X156410614Y-71245000D01*
X156535822Y-71245000D01*
X156893126Y-71393000D01*
X157304874Y-71393000D01*
X157685280Y-71235431D01*
X157976431Y-70944280D01*
X158134000Y-70563874D01*
X158134000Y-70152126D01*
X157976431Y-69771720D01*
X157685280Y-69480569D01*
X157304874Y-69323000D01*
X156893126Y-69323000D01*
X156512720Y-69480569D01*
X156378296Y-69614993D01*
X156252809Y-69427191D01*
X156137784Y-69350333D01*
X156154698Y-69343327D01*
X156333327Y-69164699D01*
X156430000Y-68931310D01*
X156430000Y-68490750D01*
X156271250Y-68332000D01*
X154822000Y-68332000D01*
X154822000Y-68352000D01*
X154784154Y-68352000D01*
X154779129Y-68058000D01*
X154822000Y-68058000D01*
X154822000Y-68078000D01*
X156271250Y-68078000D01*
X156430000Y-67919250D01*
X156430000Y-67478690D01*
X156333327Y-67245301D01*
X156154698Y-67066673D01*
X155921309Y-66970000D01*
X154980750Y-66970000D01*
X154822002Y-67128748D01*
X154822002Y-66970000D01*
X154760530Y-66970000D01*
X154705437Y-63747000D01*
X154886999Y-63747000D01*
X154886999Y-64696250D01*
X155045749Y-64855000D01*
X155986308Y-64855000D01*
X156219697Y-64758327D01*
X156398326Y-64579699D01*
X156494999Y-64346310D01*
X156494999Y-63905750D01*
X156336249Y-63747000D01*
X154886999Y-63747000D01*
X154705437Y-63747000D01*
X154700753Y-63473000D01*
X154886999Y-63473000D01*
X154886999Y-63493000D01*
X156336249Y-63493000D01*
X156494999Y-63334250D01*
X156494999Y-62893690D01*
X156433787Y-62745912D01*
X160451366Y-62762864D01*
G04 #@! TO.N,/Motor Output/output_1*
G36*
X153690000Y-78454250D02*
X153848750Y-78613000D01*
X154973000Y-78613000D01*
X154973000Y-78593000D01*
X155227000Y-78593000D01*
X155227000Y-78613000D01*
X156351250Y-78613000D01*
X156510000Y-78454250D01*
X156510000Y-78359000D01*
X160451800Y-78359000D01*
X160451800Y-83947000D01*
X153543000Y-83947000D01*
X153543000Y-80295750D01*
X153690000Y-80295750D01*
X153690000Y-80436310D01*
X153786673Y-80669699D01*
X153965302Y-80848327D01*
X154198691Y-80945000D01*
X154814250Y-80945000D01*
X154973000Y-80786250D01*
X154973000Y-80137000D01*
X155227000Y-80137000D01*
X155227000Y-80786250D01*
X155385750Y-80945000D01*
X156001309Y-80945000D01*
X156234698Y-80848327D01*
X156413327Y-80669699D01*
X156510000Y-80436310D01*
X156510000Y-80295750D01*
X156351250Y-80137000D01*
X155227000Y-80137000D01*
X154973000Y-80137000D01*
X153848750Y-80137000D01*
X153690000Y-80295750D01*
X153543000Y-80295750D01*
X153543000Y-79025750D01*
X153690000Y-79025750D01*
X153690000Y-79166310D01*
X153776442Y-79375000D01*
X153690000Y-79583690D01*
X153690000Y-79724250D01*
X153848750Y-79883000D01*
X154973000Y-79883000D01*
X154973000Y-78867000D01*
X155227000Y-78867000D01*
X155227000Y-79883000D01*
X156351250Y-79883000D01*
X156510000Y-79724250D01*
X156510000Y-79583690D01*
X156423558Y-79375000D01*
X156510000Y-79166310D01*
X156510000Y-79025750D01*
X156351250Y-78867000D01*
X155227000Y-78867000D01*
X154973000Y-78867000D01*
X153848750Y-78867000D01*
X153690000Y-79025750D01*
X153543000Y-79025750D01*
X153543000Y-78359000D01*
X153690000Y-78359000D01*
X153690000Y-78454250D01*
X153690000Y-78454250D01*
G37*
X153690000Y-78454250D02*
X153848750Y-78613000D01*
X154973000Y-78613000D01*
X154973000Y-78593000D01*
X155227000Y-78593000D01*
X155227000Y-78613000D01*
X156351250Y-78613000D01*
X156510000Y-78454250D01*
X156510000Y-78359000D01*
X160451800Y-78359000D01*
X160451800Y-83947000D01*
X153543000Y-83947000D01*
X153543000Y-80295750D01*
X153690000Y-80295750D01*
X153690000Y-80436310D01*
X153786673Y-80669699D01*
X153965302Y-80848327D01*
X154198691Y-80945000D01*
X154814250Y-80945000D01*
X154973000Y-80786250D01*
X154973000Y-80137000D01*
X155227000Y-80137000D01*
X155227000Y-80786250D01*
X155385750Y-80945000D01*
X156001309Y-80945000D01*
X156234698Y-80848327D01*
X156413327Y-80669699D01*
X156510000Y-80436310D01*
X156510000Y-80295750D01*
X156351250Y-80137000D01*
X155227000Y-80137000D01*
X154973000Y-80137000D01*
X153848750Y-80137000D01*
X153690000Y-80295750D01*
X153543000Y-80295750D01*
X153543000Y-79025750D01*
X153690000Y-79025750D01*
X153690000Y-79166310D01*
X153776442Y-79375000D01*
X153690000Y-79583690D01*
X153690000Y-79724250D01*
X153848750Y-79883000D01*
X154973000Y-79883000D01*
X154973000Y-78867000D01*
X155227000Y-78867000D01*
X155227000Y-79883000D01*
X156351250Y-79883000D01*
X156510000Y-79724250D01*
X156510000Y-79583690D01*
X156423558Y-79375000D01*
X156510000Y-79166310D01*
X156510000Y-79025750D01*
X156351250Y-78867000D01*
X155227000Y-78867000D01*
X154973000Y-78867000D01*
X153848750Y-78867000D01*
X153690000Y-79025750D01*
X153543000Y-79025750D01*
X153543000Y-78359000D01*
X153690000Y-78359000D01*
X153690000Y-78454250D01*
G04 #@! TO.N,GND*
G36*
X163550918Y-99542600D02*
X109347000Y-99542600D01*
X109347000Y-93468105D01*
X110366000Y-93468105D01*
X110366000Y-94237895D01*
X110660586Y-94949090D01*
X111204910Y-95493414D01*
X111916105Y-95788000D01*
X112685895Y-95788000D01*
X113397090Y-95493414D01*
X113941414Y-94949090D01*
X114236000Y-94237895D01*
X114236000Y-93468105D01*
X113941414Y-92756910D01*
X113436000Y-92251496D01*
X113436000Y-88829131D01*
X113754132Y-88511000D01*
X117020869Y-88511000D01*
X116577482Y-88954387D01*
X116482711Y-89017711D01*
X116231855Y-89393145D01*
X116231854Y-89393146D01*
X116143765Y-89836000D01*
X116166000Y-89947784D01*
X116166001Y-91902736D01*
X116166000Y-91902741D01*
X116166000Y-92251496D01*
X115660586Y-92756910D01*
X115366000Y-93468105D01*
X115366000Y-94237895D01*
X115660586Y-94949090D01*
X116204910Y-95493414D01*
X116916105Y-95788000D01*
X117685895Y-95788000D01*
X118397090Y-95493414D01*
X118941414Y-94949090D01*
X119236000Y-94237895D01*
X119236000Y-93468105D01*
X118941414Y-92756910D01*
X118436000Y-92251496D01*
X118436000Y-90306131D01*
X118453131Y-90289000D01*
X121959868Y-90289000D01*
X121577479Y-90671389D01*
X121482712Y-90734711D01*
X121309972Y-90993235D01*
X121231854Y-91110146D01*
X121143765Y-91553000D01*
X121166001Y-91664788D01*
X121166001Y-91905560D01*
X121001000Y-91905560D01*
X120753235Y-91954843D01*
X120543191Y-92095191D01*
X120402843Y-92305235D01*
X120353560Y-92553000D01*
X120353560Y-95153000D01*
X120402843Y-95400765D01*
X120543191Y-95610809D01*
X120753235Y-95751157D01*
X121001000Y-95800440D01*
X123601000Y-95800440D01*
X123848765Y-95751157D01*
X124058809Y-95610809D01*
X124199157Y-95400765D01*
X124248440Y-95153000D01*
X124248440Y-92553000D01*
X124199157Y-92305235D01*
X124058809Y-92095191D01*
X123848765Y-91954843D01*
X123774143Y-91940000D01*
X140096217Y-91940000D01*
X140208000Y-91962235D01*
X140319783Y-91940000D01*
X140650855Y-91874146D01*
X141026289Y-91623289D01*
X141089613Y-91528518D01*
X141216608Y-91401523D01*
X143726132Y-88892000D01*
X156479217Y-88892000D01*
X156591000Y-88914235D01*
X156702783Y-88892000D01*
X157033855Y-88826146D01*
X157409289Y-88575289D01*
X157472613Y-88480518D01*
X159727521Y-86225610D01*
X159822289Y-86162289D01*
X160073146Y-85786855D01*
X160139000Y-85455783D01*
X160139000Y-85455782D01*
X160161235Y-85344001D01*
X160139000Y-85232219D01*
X160139000Y-84709000D01*
X160578800Y-84709000D01*
X160821804Y-84660664D01*
X161027813Y-84523013D01*
X161165464Y-84317004D01*
X161213800Y-84074000D01*
X161213800Y-78232000D01*
X161165464Y-77988996D01*
X161047867Y-77813000D01*
X161113828Y-77715012D01*
X161162996Y-77472175D01*
X161213796Y-62638575D01*
X161166484Y-62395874D01*
X161029703Y-62189286D01*
X160824277Y-62050767D01*
X160581479Y-62001406D01*
X159304692Y-61996019D01*
X159373431Y-61927280D01*
X159531000Y-61546874D01*
X159531000Y-61135126D01*
X159373431Y-60754720D01*
X159082280Y-60463569D01*
X158701874Y-60306000D01*
X158290126Y-60306000D01*
X157909720Y-60463569D01*
X157793289Y-60580000D01*
X156475613Y-60580000D01*
X156458156Y-60492235D01*
X156317808Y-60282191D01*
X156194801Y-60200000D01*
X156317808Y-60117809D01*
X156458156Y-59907765D01*
X156507439Y-59660000D01*
X156507439Y-58460000D01*
X156458156Y-58212235D01*
X156439958Y-58185000D01*
X156796874Y-58185000D01*
X157177280Y-58027431D01*
X157468431Y-57736280D01*
X157626000Y-57355874D01*
X157626000Y-56944126D01*
X157468431Y-56563720D01*
X157177280Y-56272569D01*
X156796874Y-56115000D01*
X156385126Y-56115000D01*
X156004720Y-56272569D01*
X155887289Y-56390000D01*
X155141847Y-56390000D01*
X155067000Y-56375112D01*
X154992153Y-56390000D01*
X154992148Y-56390000D01*
X154770463Y-56434096D01*
X154519071Y-56602071D01*
X154476669Y-56665530D01*
X154275527Y-56866672D01*
X154212071Y-56909072D01*
X154169671Y-56972528D01*
X154169670Y-56972529D01*
X154044096Y-57160464D01*
X153985111Y-57457001D01*
X154000000Y-57531852D01*
X154000000Y-57812560D01*
X153659999Y-57812560D01*
X153412234Y-57861843D01*
X153202190Y-58002191D01*
X153061842Y-58212235D01*
X153012559Y-58460000D01*
X153012559Y-59660000D01*
X153061842Y-59907765D01*
X153202190Y-60117809D01*
X153325197Y-60200000D01*
X153202190Y-60282191D01*
X153061842Y-60492235D01*
X153012559Y-60740000D01*
X153012559Y-61940000D01*
X153061842Y-62187765D01*
X153202190Y-62397809D01*
X153325197Y-62480000D01*
X153202190Y-62562191D01*
X153061842Y-62772235D01*
X153012559Y-63020000D01*
X153012559Y-64220000D01*
X153061842Y-64467765D01*
X153202190Y-64677809D01*
X153412234Y-64818157D01*
X153659999Y-64867440D01*
X153962479Y-64867440D01*
X153978156Y-65784513D01*
X153905000Y-65961126D01*
X153905000Y-66372874D01*
X153991795Y-66582416D01*
X153998208Y-66957560D01*
X153595000Y-66957560D01*
X153347235Y-67006843D01*
X153137191Y-67147191D01*
X152996843Y-67357235D01*
X152947560Y-67605000D01*
X152947560Y-68805000D01*
X152996843Y-69052765D01*
X153137191Y-69262809D01*
X153260198Y-69345000D01*
X153137191Y-69427191D01*
X152996843Y-69637235D01*
X152947560Y-69885000D01*
X152947560Y-71085000D01*
X152996843Y-71332765D01*
X153137191Y-71542809D01*
X153252216Y-71619667D01*
X153235302Y-71626673D01*
X153056673Y-71805301D01*
X152960000Y-72038690D01*
X152960000Y-72479250D01*
X153118750Y-72638000D01*
X154095309Y-72638000D01*
X154099651Y-72892000D01*
X153118750Y-72892000D01*
X152960000Y-73050750D01*
X152960000Y-73491310D01*
X153056673Y-73724699D01*
X153235302Y-73903327D01*
X153468691Y-74000000D01*
X154118591Y-74000000D01*
X154140629Y-75289233D01*
X154077235Y-75301843D01*
X153867191Y-75442191D01*
X153726843Y-75652235D01*
X153677560Y-75900000D01*
X153677560Y-76500000D01*
X153726843Y-76747765D01*
X153785132Y-76835000D01*
X153726843Y-76922235D01*
X153677560Y-77170000D01*
X153677560Y-77597000D01*
X153416000Y-77597000D01*
X153172996Y-77645336D01*
X153054000Y-77724847D01*
X153054000Y-77391126D01*
X152896431Y-77010720D01*
X152605280Y-76719569D01*
X152224874Y-76562000D01*
X151813126Y-76562000D01*
X151455822Y-76710000D01*
X151075334Y-76710000D01*
X151110000Y-76626310D01*
X151110000Y-76485750D01*
X150951250Y-76327000D01*
X149827000Y-76327000D01*
X149827000Y-76347000D01*
X149573000Y-76347000D01*
X149573000Y-76327000D01*
X149553000Y-76327000D01*
X149553000Y-76073000D01*
X149573000Y-76073000D01*
X149573000Y-75423750D01*
X149827000Y-75423750D01*
X149827000Y-76073000D01*
X150951250Y-76073000D01*
X151110000Y-75914250D01*
X151110000Y-75773690D01*
X151013327Y-75540301D01*
X150834698Y-75361673D01*
X150601309Y-75265000D01*
X149985750Y-75265000D01*
X149827000Y-75423750D01*
X149573000Y-75423750D01*
X149414250Y-75265000D01*
X148798691Y-75265000D01*
X148565302Y-75361673D01*
X148420687Y-75506287D01*
X148303739Y-75331261D01*
X148022727Y-75143495D01*
X147691250Y-75077560D01*
X147253750Y-75077560D01*
X146922273Y-75143495D01*
X146759969Y-75251943D01*
X146694698Y-75186673D01*
X146461309Y-75090000D01*
X146183250Y-75090000D01*
X146024500Y-75248750D01*
X146024500Y-76073000D01*
X146044500Y-76073000D01*
X146044500Y-76327000D01*
X146024500Y-76327000D01*
X146024500Y-77151250D01*
X146183250Y-77310000D01*
X146461309Y-77310000D01*
X146694698Y-77213327D01*
X146705331Y-77202694D01*
X146697612Y-77241500D01*
X146756597Y-77538037D01*
X146771707Y-77560651D01*
X146732273Y-77568495D01*
X146451261Y-77756261D01*
X146263495Y-78037273D01*
X146197560Y-78368750D01*
X146197560Y-78806250D01*
X146263495Y-79137727D01*
X146422036Y-79375000D01*
X146412657Y-79389036D01*
X146405499Y-79387612D01*
X146330652Y-79402500D01*
X146330648Y-79402500D01*
X146108963Y-79446596D01*
X145972217Y-79537967D01*
X145875727Y-79473495D01*
X145544250Y-79407560D01*
X145031750Y-79407560D01*
X144700273Y-79473495D01*
X144551400Y-79572969D01*
X144551400Y-78079600D01*
X144502179Y-77834472D01*
X144381068Y-77654629D01*
X144401464Y-77624104D01*
X144449800Y-77381100D01*
X144449800Y-76485750D01*
X144825000Y-76485750D01*
X144825000Y-76801310D01*
X144921673Y-77034699D01*
X145100302Y-77213327D01*
X145333691Y-77310000D01*
X145611750Y-77310000D01*
X145770500Y-77151250D01*
X145770500Y-76327000D01*
X144983750Y-76327000D01*
X144825000Y-76485750D01*
X144449800Y-76485750D01*
X144449800Y-75598690D01*
X144825000Y-75598690D01*
X144825000Y-75914250D01*
X144983750Y-76073000D01*
X145770500Y-76073000D01*
X145770500Y-75248750D01*
X145611750Y-75090000D01*
X145333691Y-75090000D01*
X145100302Y-75186673D01*
X144921673Y-75365301D01*
X144825000Y-75598690D01*
X144449800Y-75598690D01*
X144449800Y-67585000D01*
X144547560Y-67585000D01*
X144547560Y-73385000D01*
X144596843Y-73632765D01*
X144737191Y-73842809D01*
X144947235Y-73983157D01*
X145195000Y-74032440D01*
X151595000Y-74032440D01*
X151842765Y-73983157D01*
X152052809Y-73842809D01*
X152193157Y-73632765D01*
X152242440Y-73385000D01*
X152242440Y-67585000D01*
X152193157Y-67337235D01*
X152052809Y-67127191D01*
X151842765Y-66986843D01*
X151595000Y-66937560D01*
X145195000Y-66937560D01*
X144947235Y-66986843D01*
X144737191Y-67127191D01*
X144596843Y-67337235D01*
X144547560Y-67585000D01*
X144449800Y-67585000D01*
X144449800Y-62522100D01*
X144402795Y-62282335D01*
X144266282Y-62075570D01*
X144061036Y-61936785D01*
X143818302Y-61887110D01*
X140879896Y-61870906D01*
X140882801Y-61868000D01*
X141048874Y-61868000D01*
X141429280Y-61710431D01*
X141720431Y-61419280D01*
X141878000Y-61038874D01*
X141878000Y-60627126D01*
X141720431Y-60246720D01*
X141429280Y-59955569D01*
X141048874Y-59798000D01*
X140637126Y-59798000D01*
X140256720Y-59955569D01*
X139965569Y-60246720D01*
X139926706Y-60340544D01*
X139814802Y-60265772D01*
X139937809Y-60183581D01*
X140078157Y-59973537D01*
X140127440Y-59725772D01*
X140127440Y-58525772D01*
X140110380Y-58440000D01*
X144612559Y-58440000D01*
X144612559Y-64240000D01*
X144661842Y-64487765D01*
X144802190Y-64697809D01*
X145012234Y-64838157D01*
X145259999Y-64887440D01*
X151659999Y-64887440D01*
X151907764Y-64838157D01*
X152117808Y-64697809D01*
X152258156Y-64487765D01*
X152307439Y-64240000D01*
X152307439Y-58440000D01*
X152258156Y-58192235D01*
X152117808Y-57982191D01*
X151907764Y-57841843D01*
X151659999Y-57792560D01*
X145259999Y-57792560D01*
X145012234Y-57841843D01*
X144802190Y-57982191D01*
X144661842Y-58192235D01*
X144612559Y-58440000D01*
X140110380Y-58440000D01*
X140078157Y-58278007D01*
X139972724Y-58120216D01*
X140129126Y-58185000D01*
X140540874Y-58185000D01*
X140921280Y-58027431D01*
X141212431Y-57736280D01*
X141370000Y-57355874D01*
X141370000Y-56944126D01*
X141212431Y-56563720D01*
X140921280Y-56272569D01*
X140540874Y-56115000D01*
X140129126Y-56115000D01*
X139748720Y-56272569D01*
X139631289Y-56390000D01*
X139012846Y-56390000D01*
X138937999Y-56375112D01*
X138863152Y-56390000D01*
X138863148Y-56390000D01*
X138641463Y-56434096D01*
X138390071Y-56602071D01*
X138347671Y-56665527D01*
X137895528Y-57117671D01*
X137832072Y-57160071D01*
X137789672Y-57223527D01*
X137789671Y-57223528D01*
X137664097Y-57411463D01*
X137605112Y-57708000D01*
X137620001Y-57782851D01*
X137620001Y-57878332D01*
X137280000Y-57878332D01*
X137032235Y-57927615D01*
X136822191Y-58067963D01*
X136681843Y-58278007D01*
X136632560Y-58525772D01*
X136632560Y-59725772D01*
X136681843Y-59973537D01*
X136822191Y-60183581D01*
X136945198Y-60265772D01*
X136822191Y-60347963D01*
X136681843Y-60558007D01*
X136632560Y-60805772D01*
X136632560Y-61917673D01*
X136456987Y-62034987D01*
X136319336Y-62240996D01*
X136271000Y-62484000D01*
X136271000Y-69342000D01*
X136319336Y-69585004D01*
X136456987Y-69791013D01*
X136640012Y-69913307D01*
X136632560Y-69950772D01*
X136632560Y-71150772D01*
X136681843Y-71398537D01*
X136822191Y-71608581D01*
X136937216Y-71685439D01*
X136920302Y-71692445D01*
X136741673Y-71871073D01*
X136645000Y-72104462D01*
X136645000Y-72545022D01*
X136803750Y-72703772D01*
X138253000Y-72703772D01*
X138253000Y-72683772D01*
X138507000Y-72683772D01*
X138507000Y-72703772D01*
X138527000Y-72703772D01*
X138527000Y-72957772D01*
X138507000Y-72957772D01*
X138507000Y-73907022D01*
X138665750Y-74065772D01*
X139573000Y-74065772D01*
X139573000Y-74930000D01*
X138303000Y-74930000D01*
X138059996Y-74978336D01*
X137853987Y-75115987D01*
X137754720Y-75264550D01*
X137567235Y-75301843D01*
X137357191Y-75442191D01*
X137216843Y-75652235D01*
X137167560Y-75900000D01*
X137167560Y-76500000D01*
X137216843Y-76747765D01*
X137275132Y-76835000D01*
X137216843Y-76922235D01*
X137167560Y-77170000D01*
X137167560Y-77469048D01*
X136903699Y-77470004D01*
X136662996Y-77518336D01*
X136456987Y-77655987D01*
X136319336Y-77861996D01*
X136271000Y-78105000D01*
X136271000Y-84709000D01*
X136318460Y-84949877D01*
X136455363Y-85156383D01*
X136660872Y-85294779D01*
X136903699Y-85343996D01*
X137803000Y-85347254D01*
X137803001Y-86778867D01*
X136562869Y-88019000D01*
X122628131Y-88019000D01*
X124802521Y-85844611D01*
X124897289Y-85781289D01*
X125148146Y-85405855D01*
X125210973Y-85090000D01*
X126746000Y-85090000D01*
X126989004Y-85041664D01*
X127195013Y-84904013D01*
X127332664Y-84698004D01*
X127381000Y-84455000D01*
X127381000Y-82200750D01*
X127795000Y-82200750D01*
X127795000Y-82478809D01*
X127891673Y-82712198D01*
X128070301Y-82890827D01*
X128303690Y-82987500D01*
X128619250Y-82987500D01*
X128778000Y-82828750D01*
X128778000Y-82042000D01*
X127953750Y-82042000D01*
X127795000Y-82200750D01*
X127381000Y-82200750D01*
X127381000Y-80121250D01*
X127782560Y-80121250D01*
X127782560Y-80558750D01*
X127848495Y-80890227D01*
X127956943Y-81052531D01*
X127891673Y-81117802D01*
X127795000Y-81351191D01*
X127795000Y-81629250D01*
X127953750Y-81788000D01*
X128778000Y-81788000D01*
X128778000Y-81768000D01*
X129032000Y-81768000D01*
X129032000Y-81788000D01*
X129052000Y-81788000D01*
X129052000Y-82042000D01*
X129032000Y-82042000D01*
X129032000Y-82828750D01*
X129190750Y-82987500D01*
X129506310Y-82987500D01*
X129739699Y-82890827D01*
X129918327Y-82712198D01*
X129984275Y-82552986D01*
X130223720Y-82792431D01*
X130604126Y-82950000D01*
X131015874Y-82950000D01*
X131396280Y-82792431D01*
X131687431Y-82501280D01*
X131845000Y-82120874D01*
X131845000Y-81709126D01*
X131687431Y-81328720D01*
X131570000Y-81211289D01*
X131570000Y-81066396D01*
X131678739Y-80993739D01*
X131726339Y-80922500D01*
X132239343Y-80922500D01*
X132415000Y-80957440D01*
X133965000Y-80957440D01*
X134212765Y-80908157D01*
X134422809Y-80767809D01*
X134563157Y-80557765D01*
X134612440Y-80310000D01*
X134612440Y-79710000D01*
X134563157Y-79462235D01*
X134504868Y-79375000D01*
X134563157Y-79287765D01*
X134612440Y-79040000D01*
X134612440Y-78481934D01*
X134668126Y-78505000D01*
X135079874Y-78505000D01*
X135460280Y-78347431D01*
X135751431Y-78056280D01*
X135909000Y-77675874D01*
X135909000Y-77264126D01*
X135751431Y-76883720D01*
X135460280Y-76592569D01*
X135079874Y-76435000D01*
X134668126Y-76435000D01*
X134584068Y-76469818D01*
X134441250Y-76327000D01*
X133317000Y-76327000D01*
X133317000Y-76347000D01*
X133063000Y-76347000D01*
X133063000Y-76327000D01*
X133043000Y-76327000D01*
X133043000Y-76073000D01*
X133063000Y-76073000D01*
X133063000Y-75423750D01*
X133317000Y-75423750D01*
X133317000Y-76073000D01*
X134441250Y-76073000D01*
X134600000Y-75914250D01*
X134600000Y-75773690D01*
X134503327Y-75540301D01*
X134324698Y-75361673D01*
X134091309Y-75265000D01*
X133475750Y-75265000D01*
X133317000Y-75423750D01*
X133063000Y-75423750D01*
X132904250Y-75265000D01*
X132288691Y-75265000D01*
X132055302Y-75361673D01*
X132002105Y-75414870D01*
X131946239Y-75331261D01*
X131665227Y-75143495D01*
X131333750Y-75077560D01*
X130896250Y-75077560D01*
X130564773Y-75143495D01*
X130402469Y-75251943D01*
X130337198Y-75186673D01*
X130103809Y-75090000D01*
X129825750Y-75090000D01*
X129667000Y-75248750D01*
X129667000Y-76073000D01*
X129687000Y-76073000D01*
X129687000Y-76327000D01*
X129667000Y-76327000D01*
X129667000Y-77151250D01*
X129825750Y-77310000D01*
X130103809Y-77310000D01*
X130337198Y-77213327D01*
X130402469Y-77148057D01*
X130488744Y-77205704D01*
X130567072Y-77322929D01*
X130630527Y-77365328D01*
X130767758Y-77502560D01*
X130553750Y-77502560D01*
X130222273Y-77568495D01*
X129941261Y-77756261D01*
X129753495Y-78037273D01*
X129687560Y-78368750D01*
X129687560Y-78806250D01*
X129753495Y-79137727D01*
X129912036Y-79375000D01*
X129798199Y-79545368D01*
X129773739Y-79508761D01*
X129492727Y-79320995D01*
X129161250Y-79255060D01*
X128648750Y-79255060D01*
X128317273Y-79320995D01*
X128036261Y-79508761D01*
X127848495Y-79789773D01*
X127782560Y-80121250D01*
X127381000Y-80121250D01*
X127381000Y-78105000D01*
X127332664Y-77861996D01*
X127282887Y-77787500D01*
X127332664Y-77713004D01*
X127381000Y-77470000D01*
X127381000Y-76485750D01*
X128467500Y-76485750D01*
X128467500Y-76801310D01*
X128564173Y-77034699D01*
X128742802Y-77213327D01*
X128976191Y-77310000D01*
X129254250Y-77310000D01*
X129413000Y-77151250D01*
X129413000Y-76327000D01*
X128626250Y-76327000D01*
X128467500Y-76485750D01*
X127381000Y-76485750D01*
X127381000Y-75598690D01*
X128467500Y-75598690D01*
X128467500Y-75914250D01*
X128626250Y-76073000D01*
X129413000Y-76073000D01*
X129413000Y-75248750D01*
X129254250Y-75090000D01*
X128976191Y-75090000D01*
X128742802Y-75186673D01*
X128564173Y-75365301D01*
X128467500Y-75598690D01*
X127381000Y-75598690D01*
X127381000Y-67650772D01*
X128232560Y-67650772D01*
X128232560Y-73450772D01*
X128281843Y-73698537D01*
X128422191Y-73908581D01*
X128632235Y-74048929D01*
X128880000Y-74098212D01*
X135280000Y-74098212D01*
X135527765Y-74048929D01*
X135737809Y-73908581D01*
X135878157Y-73698537D01*
X135927440Y-73450772D01*
X135927440Y-73116522D01*
X136645000Y-73116522D01*
X136645000Y-73557082D01*
X136741673Y-73790471D01*
X136920302Y-73969099D01*
X137153691Y-74065772D01*
X138094250Y-74065772D01*
X138253000Y-73907022D01*
X138253000Y-72957772D01*
X136803750Y-72957772D01*
X136645000Y-73116522D01*
X135927440Y-73116522D01*
X135927440Y-67650772D01*
X135878157Y-67403007D01*
X135737809Y-67192963D01*
X135527765Y-67052615D01*
X135280000Y-67003332D01*
X128880000Y-67003332D01*
X128632235Y-67052615D01*
X128422191Y-67192963D01*
X128281843Y-67403007D01*
X128232560Y-67650772D01*
X127381000Y-67650772D01*
X127381000Y-62611000D01*
X127335112Y-62373995D01*
X127199571Y-62166592D01*
X126994977Y-62026847D01*
X126752479Y-61976033D01*
X126639391Y-61974879D01*
X126607431Y-61897720D01*
X126492747Y-61783036D01*
X126504888Y-61722000D01*
X126490000Y-61647153D01*
X126490000Y-61647148D01*
X126445904Y-61425463D01*
X126277929Y-61174071D01*
X126214470Y-61131669D01*
X126004103Y-60921302D01*
X125961701Y-60857843D01*
X125710309Y-60689868D01*
X125488624Y-60645772D01*
X125488619Y-60645772D01*
X125413772Y-60630884D01*
X125338925Y-60645772D01*
X123390614Y-60645772D01*
X123373157Y-60558007D01*
X123232809Y-60347963D01*
X123109802Y-60265772D01*
X123232809Y-60183581D01*
X123373157Y-59973537D01*
X123422440Y-59725772D01*
X123422440Y-58525772D01*
X123418462Y-58505772D01*
X128232560Y-58505772D01*
X128232560Y-64305772D01*
X128281843Y-64553537D01*
X128422191Y-64763581D01*
X128632235Y-64903929D01*
X128880000Y-64953212D01*
X135280000Y-64953212D01*
X135527765Y-64903929D01*
X135737809Y-64763581D01*
X135878157Y-64553537D01*
X135927440Y-64305772D01*
X135927440Y-58505772D01*
X135878157Y-58258007D01*
X135737809Y-58047963D01*
X135527765Y-57907615D01*
X135280000Y-57858332D01*
X128880000Y-57858332D01*
X128632235Y-57907615D01*
X128422191Y-58047963D01*
X128281843Y-58258007D01*
X128232560Y-58505772D01*
X123418462Y-58505772D01*
X123373157Y-58278007D01*
X123290302Y-58154007D01*
X123365126Y-58185000D01*
X123776874Y-58185000D01*
X124157280Y-58027431D01*
X124448431Y-57736280D01*
X124606000Y-57355874D01*
X124606000Y-56944126D01*
X124448431Y-56563720D01*
X124157280Y-56272569D01*
X123776874Y-56115000D01*
X123365126Y-56115000D01*
X122984720Y-56272569D01*
X122867289Y-56390000D01*
X122248848Y-56390000D01*
X122174000Y-56375112D01*
X122099152Y-56390000D01*
X122099148Y-56390000D01*
X121877463Y-56434096D01*
X121626071Y-56602071D01*
X121583671Y-56665528D01*
X121190527Y-57058671D01*
X121127072Y-57101071D01*
X121084672Y-57164527D01*
X121084671Y-57164528D01*
X120959097Y-57352463D01*
X120900112Y-57649000D01*
X120915001Y-57723851D01*
X120915001Y-57878332D01*
X120575000Y-57878332D01*
X120327235Y-57927615D01*
X120117191Y-58067963D01*
X119976843Y-58278007D01*
X119927560Y-58525772D01*
X119927560Y-59725772D01*
X119976843Y-59973537D01*
X120117191Y-60183581D01*
X120240198Y-60265772D01*
X120117191Y-60347963D01*
X119976843Y-60558007D01*
X119927560Y-60805772D01*
X119927560Y-62005772D01*
X119975144Y-62244998D01*
X119939744Y-62296428D01*
X119888060Y-62538742D01*
X119761060Y-71746242D01*
X119782834Y-71920084D01*
X119892684Y-72142166D01*
X119940000Y-72203677D01*
X119940000Y-72290022D01*
X120098750Y-72448772D01*
X120128535Y-72448772D01*
X120323919Y-72702772D01*
X120098750Y-72702772D01*
X119940000Y-72861522D01*
X119940000Y-73302082D01*
X120036673Y-73535471D01*
X120215302Y-73714099D01*
X120448691Y-73810772D01*
X121031000Y-73810772D01*
X121031000Y-74718333D01*
X120623374Y-75261834D01*
X120422235Y-75301843D01*
X120212191Y-75442191D01*
X120071843Y-75652235D01*
X120022560Y-75900000D01*
X120022560Y-76500000D01*
X120071843Y-76747765D01*
X120130132Y-76835000D01*
X120071843Y-76922235D01*
X120022560Y-77170000D01*
X120022560Y-77770000D01*
X120071843Y-78017765D01*
X120130132Y-78105000D01*
X120071843Y-78192235D01*
X120022560Y-78440000D01*
X120022560Y-79040000D01*
X120071843Y-79287765D01*
X120130132Y-79375000D01*
X120071843Y-79462235D01*
X120022560Y-79710000D01*
X120022560Y-80310000D01*
X120071843Y-80557765D01*
X120212191Y-80767809D01*
X120422235Y-80908157D01*
X120670000Y-80957440D01*
X120777000Y-80957440D01*
X120777000Y-84455000D01*
X120825336Y-84698004D01*
X120962987Y-84904013D01*
X121168996Y-85041664D01*
X121412000Y-85090000D01*
X122346868Y-85090000D01*
X121195869Y-86241000D01*
X113395783Y-86241000D01*
X113284000Y-86218765D01*
X113172217Y-86241000D01*
X112841145Y-86306854D01*
X112465711Y-86557711D01*
X112402389Y-86652479D01*
X111577481Y-87477387D01*
X111482711Y-87540711D01*
X111296862Y-87818855D01*
X111231854Y-87916146D01*
X111143765Y-88359000D01*
X111166000Y-88470783D01*
X111166001Y-92251495D01*
X110660586Y-92756910D01*
X110366000Y-93468105D01*
X109347000Y-93468105D01*
X109347000Y-82200750D01*
X110650000Y-82200750D01*
X110650000Y-82478809D01*
X110746673Y-82712198D01*
X110925301Y-82890827D01*
X111158690Y-82987500D01*
X111474250Y-82987500D01*
X111633000Y-82828750D01*
X111633000Y-82042000D01*
X110808750Y-82042000D01*
X110650000Y-82200750D01*
X109347000Y-82200750D01*
X109347000Y-80121250D01*
X110637560Y-80121250D01*
X110637560Y-80558750D01*
X110703495Y-80890227D01*
X110811943Y-81052531D01*
X110746673Y-81117802D01*
X110650000Y-81351191D01*
X110650000Y-81629250D01*
X110808750Y-81788000D01*
X111633000Y-81788000D01*
X111633000Y-81768000D01*
X111887000Y-81768000D01*
X111887000Y-81788000D01*
X111907000Y-81788000D01*
X111907000Y-82042000D01*
X111887000Y-82042000D01*
X111887000Y-82828750D01*
X112045750Y-82987500D01*
X112361310Y-82987500D01*
X112594699Y-82890827D01*
X112773327Y-82712198D01*
X112802077Y-82642788D01*
X113078720Y-82919431D01*
X113459126Y-83077000D01*
X113870874Y-83077000D01*
X114251280Y-82919431D01*
X114542431Y-82628280D01*
X114700000Y-82247874D01*
X114700000Y-81836126D01*
X114542431Y-81455720D01*
X114425000Y-81338289D01*
X114425000Y-81218896D01*
X114533739Y-81146239D01*
X114670704Y-80941257D01*
X114787929Y-80862929D01*
X114830331Y-80799470D01*
X114842044Y-80787757D01*
X115022235Y-80908157D01*
X115270000Y-80957440D01*
X116820000Y-80957440D01*
X117067765Y-80908157D01*
X117277809Y-80767809D01*
X117418157Y-80557765D01*
X117467440Y-80310000D01*
X117467440Y-79710000D01*
X117418157Y-79462235D01*
X117359868Y-79375000D01*
X117418157Y-79287765D01*
X117467440Y-79040000D01*
X117467440Y-78440000D01*
X117430481Y-78254192D01*
X117523720Y-78347431D01*
X117904126Y-78505000D01*
X118315874Y-78505000D01*
X118696280Y-78347431D01*
X118987431Y-78056280D01*
X119145000Y-77675874D01*
X119145000Y-77264126D01*
X118987431Y-76883720D01*
X118696280Y-76592569D01*
X118315874Y-76435000D01*
X117904126Y-76435000D01*
X117523720Y-76592569D01*
X117430266Y-76686023D01*
X117455000Y-76626310D01*
X117455000Y-76485750D01*
X117296250Y-76327000D01*
X116172000Y-76327000D01*
X116172000Y-76347000D01*
X115918000Y-76347000D01*
X115918000Y-76327000D01*
X115898000Y-76327000D01*
X115898000Y-76073000D01*
X115918000Y-76073000D01*
X115918000Y-75423750D01*
X116172000Y-75423750D01*
X116172000Y-76073000D01*
X117296250Y-76073000D01*
X117455000Y-75914250D01*
X117455000Y-75773690D01*
X117358327Y-75540301D01*
X117179698Y-75361673D01*
X116946309Y-75265000D01*
X116330750Y-75265000D01*
X116172000Y-75423750D01*
X115918000Y-75423750D01*
X115759250Y-75265000D01*
X115143691Y-75265000D01*
X114910302Y-75361673D01*
X114731673Y-75540301D01*
X114689798Y-75641396D01*
X114684005Y-75612273D01*
X114496239Y-75331261D01*
X114215227Y-75143495D01*
X113883750Y-75077560D01*
X113446250Y-75077560D01*
X113114773Y-75143495D01*
X112952469Y-75251943D01*
X112887198Y-75186673D01*
X112653809Y-75090000D01*
X112375750Y-75090000D01*
X112217000Y-75248750D01*
X112217000Y-76073000D01*
X112237000Y-76073000D01*
X112237000Y-76327000D01*
X112217000Y-76327000D01*
X112217000Y-77151250D01*
X112375750Y-77310000D01*
X112653809Y-77310000D01*
X112887198Y-77213327D01*
X112910256Y-77190269D01*
X112949097Y-77385537D01*
X113071346Y-77568495D01*
X113117072Y-77636929D01*
X113180527Y-77679329D01*
X113198150Y-77696951D01*
X113077273Y-77720995D01*
X112796261Y-77908761D01*
X112608495Y-78189773D01*
X112542560Y-78521250D01*
X112542560Y-78958750D01*
X112608495Y-79290227D01*
X112767036Y-79527500D01*
X112731956Y-79580000D01*
X112676339Y-79580000D01*
X112628739Y-79508761D01*
X112347727Y-79320995D01*
X112016250Y-79255060D01*
X111503750Y-79255060D01*
X111172273Y-79320995D01*
X110891261Y-79508761D01*
X110703495Y-79789773D01*
X110637560Y-80121250D01*
X109347000Y-80121250D01*
X109347000Y-76485750D01*
X111017500Y-76485750D01*
X111017500Y-76801310D01*
X111114173Y-77034699D01*
X111292802Y-77213327D01*
X111526191Y-77310000D01*
X111804250Y-77310000D01*
X111963000Y-77151250D01*
X111963000Y-76327000D01*
X111176250Y-76327000D01*
X111017500Y-76485750D01*
X109347000Y-76485750D01*
X109347000Y-75598690D01*
X111017500Y-75598690D01*
X111017500Y-75914250D01*
X111176250Y-76073000D01*
X111963000Y-76073000D01*
X111963000Y-75248750D01*
X111804250Y-75090000D01*
X111526191Y-75090000D01*
X111292802Y-75186673D01*
X111114173Y-75365301D01*
X111017500Y-75598690D01*
X109347000Y-75598690D01*
X109347000Y-67395772D01*
X111527560Y-67395772D01*
X111527560Y-73195772D01*
X111576843Y-73443537D01*
X111717191Y-73653581D01*
X111927235Y-73793929D01*
X112175000Y-73843212D01*
X118575000Y-73843212D01*
X118822765Y-73793929D01*
X119032809Y-73653581D01*
X119173157Y-73443537D01*
X119222440Y-73195772D01*
X119222440Y-67395772D01*
X119173157Y-67148007D01*
X119032809Y-66937963D01*
X118822765Y-66797615D01*
X118575000Y-66748332D01*
X112175000Y-66748332D01*
X111927235Y-66797615D01*
X111717191Y-66937963D01*
X111576843Y-67148007D01*
X111527560Y-67395772D01*
X109347000Y-67395772D01*
X109347000Y-58505772D01*
X111527560Y-58505772D01*
X111527560Y-64305772D01*
X111576843Y-64553537D01*
X111717191Y-64763581D01*
X111927235Y-64903929D01*
X112175000Y-64953212D01*
X118575000Y-64953212D01*
X118822765Y-64903929D01*
X119032809Y-64763581D01*
X119173157Y-64553537D01*
X119222440Y-64305772D01*
X119222440Y-58505772D01*
X119173157Y-58258007D01*
X119032809Y-58047963D01*
X118822765Y-57907615D01*
X118575000Y-57858332D01*
X112175000Y-57858332D01*
X111927235Y-57907615D01*
X111717191Y-58047963D01*
X111576843Y-58258007D01*
X111527560Y-58505772D01*
X109347000Y-58505772D01*
X109347000Y-50658690D01*
X114434000Y-50658690D01*
X114434000Y-51649250D01*
X114592750Y-51808000D01*
X114848001Y-51808000D01*
X114880975Y-51887607D01*
X115000500Y-51895108D01*
X115040392Y-51935000D01*
X115000500Y-51974892D01*
X114880975Y-51982393D01*
X114856493Y-52062000D01*
X114592750Y-52062000D01*
X114434000Y-52220750D01*
X114434000Y-53211310D01*
X114530673Y-53444699D01*
X114709302Y-53623327D01*
X114942691Y-53720000D01*
X115933250Y-53720000D01*
X116092000Y-53561250D01*
X116092000Y-53307414D01*
X116172607Y-53274025D01*
X116180108Y-53154500D01*
X116220000Y-53114608D01*
X116259892Y-53154500D01*
X116267393Y-53274025D01*
X116346000Y-53298199D01*
X116346000Y-53561250D01*
X116504750Y-53720000D01*
X117495309Y-53720000D01*
X117683313Y-53642126D01*
X120123000Y-53642126D01*
X120123000Y-54053874D01*
X120280569Y-54434280D01*
X120571720Y-54725431D01*
X120952126Y-54883000D01*
X121363874Y-54883000D01*
X121744280Y-54725431D01*
X122035431Y-54434280D01*
X122153131Y-54150126D01*
X138538000Y-54150126D01*
X138538000Y-54561874D01*
X138695569Y-54942280D01*
X138986720Y-55233431D01*
X139367126Y-55391000D01*
X139778874Y-55391000D01*
X140159280Y-55233431D01*
X140450431Y-54942280D01*
X140608000Y-54561874D01*
X140608000Y-54150126D01*
X140450431Y-53769720D01*
X140159280Y-53478569D01*
X139778874Y-53321000D01*
X139367126Y-53321000D01*
X138986720Y-53478569D01*
X138695569Y-53769720D01*
X138538000Y-54150126D01*
X122153131Y-54150126D01*
X122193000Y-54053874D01*
X122193000Y-53642126D01*
X122035431Y-53261720D01*
X121744280Y-52970569D01*
X121363874Y-52813000D01*
X120952126Y-52813000D01*
X120571720Y-52970569D01*
X120280569Y-53261720D01*
X120123000Y-53642126D01*
X117683313Y-53642126D01*
X117728698Y-53623327D01*
X117907327Y-53444699D01*
X118004000Y-53211310D01*
X118004000Y-52220750D01*
X117845250Y-52062000D01*
X117591999Y-52062000D01*
X117559025Y-51982393D01*
X117439500Y-51974892D01*
X117399608Y-51935000D01*
X117439500Y-51895108D01*
X117559025Y-51887607D01*
X117583507Y-51808000D01*
X117845250Y-51808000D01*
X118004000Y-51649250D01*
X118004000Y-51229126D01*
X123171000Y-51229126D01*
X123171000Y-51640874D01*
X123328569Y-52021280D01*
X123619720Y-52312431D01*
X124000126Y-52470000D01*
X124411874Y-52470000D01*
X124792280Y-52312431D01*
X125083431Y-52021280D01*
X125241000Y-51640874D01*
X125241000Y-51229126D01*
X125083431Y-50848720D01*
X124792280Y-50557569D01*
X124481138Y-50428690D01*
X131292000Y-50428690D01*
X131292000Y-51419250D01*
X131450750Y-51578000D01*
X131706001Y-51578000D01*
X131738975Y-51657607D01*
X131858500Y-51665108D01*
X131898392Y-51705000D01*
X131858500Y-51744892D01*
X131738975Y-51752393D01*
X131714493Y-51832000D01*
X131450750Y-51832000D01*
X131292000Y-51990750D01*
X131292000Y-52981310D01*
X131388673Y-53214699D01*
X131567302Y-53393327D01*
X131800691Y-53490000D01*
X132791250Y-53490000D01*
X132950000Y-53331250D01*
X132950000Y-53077414D01*
X133030607Y-53044025D01*
X133038108Y-52924500D01*
X133078000Y-52884608D01*
X133117892Y-52924500D01*
X133125393Y-53044025D01*
X133204000Y-53068199D01*
X133204000Y-53331250D01*
X133362750Y-53490000D01*
X134353309Y-53490000D01*
X134586698Y-53393327D01*
X134765327Y-53214699D01*
X134862000Y-52981310D01*
X134862000Y-52041616D01*
X136887000Y-52041616D01*
X136887000Y-52453364D01*
X137044569Y-52833770D01*
X137335720Y-53124921D01*
X137716126Y-53282490D01*
X138127874Y-53282490D01*
X138508280Y-53124921D01*
X138799431Y-52833770D01*
X138957000Y-52453364D01*
X138957000Y-52041616D01*
X138799431Y-51661210D01*
X138508280Y-51370059D01*
X138127874Y-51212490D01*
X137716126Y-51212490D01*
X137335720Y-51370059D01*
X137044569Y-51661210D01*
X136887000Y-52041616D01*
X134862000Y-52041616D01*
X134862000Y-51990750D01*
X134703250Y-51832000D01*
X134449999Y-51832000D01*
X134417025Y-51752393D01*
X134297500Y-51744892D01*
X134257608Y-51705000D01*
X134297500Y-51665108D01*
X134417025Y-51657607D01*
X134441507Y-51578000D01*
X134703250Y-51578000D01*
X134862000Y-51419250D01*
X134862000Y-50732690D01*
X147490000Y-50732690D01*
X147490000Y-51723250D01*
X147648750Y-51882000D01*
X147904001Y-51882000D01*
X147936975Y-51961607D01*
X148056500Y-51969108D01*
X148096392Y-52009000D01*
X148056500Y-52048892D01*
X147936975Y-52056393D01*
X147912493Y-52136000D01*
X147648750Y-52136000D01*
X147490000Y-52294750D01*
X147490000Y-53285310D01*
X147586673Y-53518699D01*
X147765302Y-53697327D01*
X147998691Y-53794000D01*
X148989250Y-53794000D01*
X149148000Y-53635250D01*
X149148000Y-53381414D01*
X149228607Y-53348025D01*
X149236108Y-53228500D01*
X149276000Y-53188608D01*
X149315892Y-53228500D01*
X149323393Y-53348025D01*
X149402000Y-53372199D01*
X149402000Y-53635250D01*
X149560750Y-53794000D01*
X150551309Y-53794000D01*
X150784698Y-53697327D01*
X150963327Y-53518699D01*
X151060000Y-53285310D01*
X151060000Y-52294750D01*
X150901250Y-52136000D01*
X150647999Y-52136000D01*
X150615025Y-52056393D01*
X150495500Y-52048892D01*
X150455608Y-52009000D01*
X150495500Y-51969108D01*
X150615025Y-51961607D01*
X150639507Y-51882000D01*
X150901250Y-51882000D01*
X151060000Y-51723250D01*
X151060000Y-50732690D01*
X150963327Y-50499301D01*
X150784698Y-50320673D01*
X150551309Y-50224000D01*
X149560750Y-50224000D01*
X149402000Y-50382750D01*
X149402000Y-50637415D01*
X149323393Y-50669975D01*
X149315892Y-50789500D01*
X149276000Y-50829392D01*
X149236108Y-50789500D01*
X149228607Y-50669975D01*
X149148000Y-50645186D01*
X149148000Y-50382750D01*
X148989250Y-50224000D01*
X147998691Y-50224000D01*
X147765302Y-50320673D01*
X147586673Y-50499301D01*
X147490000Y-50732690D01*
X134862000Y-50732690D01*
X134862000Y-50428690D01*
X134765327Y-50195301D01*
X134586698Y-50016673D01*
X134353309Y-49920000D01*
X133362750Y-49920000D01*
X133204000Y-50078750D01*
X133204000Y-50333415D01*
X133125393Y-50365975D01*
X133117892Y-50485500D01*
X133078000Y-50525392D01*
X133038108Y-50485500D01*
X133030607Y-50365975D01*
X132950000Y-50341186D01*
X132950000Y-50078750D01*
X132791250Y-49920000D01*
X131800691Y-49920000D01*
X131567302Y-50016673D01*
X131388673Y-50195301D01*
X131292000Y-50428690D01*
X124481138Y-50428690D01*
X124411874Y-50400000D01*
X124000126Y-50400000D01*
X123619720Y-50557569D01*
X123328569Y-50848720D01*
X123171000Y-51229126D01*
X118004000Y-51229126D01*
X118004000Y-50658690D01*
X117907327Y-50425301D01*
X117728698Y-50246673D01*
X117495309Y-50150000D01*
X116504750Y-50150000D01*
X116346000Y-50308750D01*
X116346000Y-50563415D01*
X116267393Y-50595975D01*
X116259892Y-50715500D01*
X116220000Y-50755392D01*
X116180108Y-50715500D01*
X116172607Y-50595975D01*
X116092000Y-50571186D01*
X116092000Y-50308750D01*
X115933250Y-50150000D01*
X114942691Y-50150000D01*
X114709302Y-50246673D01*
X114530673Y-50425301D01*
X114434000Y-50658690D01*
X109347000Y-50658690D01*
X109347000Y-46784126D01*
X113773000Y-46784126D01*
X113773000Y-47195874D01*
X113930569Y-47576280D01*
X114221720Y-47867431D01*
X114602126Y-48025000D01*
X115013874Y-48025000D01*
X115394280Y-47867431D01*
X115685431Y-47576280D01*
X115843000Y-47195874D01*
X115843000Y-46784126D01*
X130537000Y-46784126D01*
X130537000Y-47195874D01*
X130694569Y-47576280D01*
X130985720Y-47867431D01*
X131366126Y-48025000D01*
X131777874Y-48025000D01*
X132158280Y-47867431D01*
X132449431Y-47576280D01*
X132607000Y-47195874D01*
X132607000Y-46911126D01*
X146793000Y-46911126D01*
X146793000Y-47322874D01*
X146950569Y-47703280D01*
X147241720Y-47994431D01*
X147622126Y-48152000D01*
X148033874Y-48152000D01*
X148414280Y-47994431D01*
X148705431Y-47703280D01*
X148863000Y-47322874D01*
X148863000Y-46911126D01*
X148705431Y-46530720D01*
X148414280Y-46239569D01*
X148033874Y-46082000D01*
X147622126Y-46082000D01*
X147241720Y-46239569D01*
X146950569Y-46530720D01*
X146793000Y-46911126D01*
X132607000Y-46911126D01*
X132607000Y-46784126D01*
X132449431Y-46403720D01*
X132158280Y-46112569D01*
X131777874Y-45955000D01*
X131366126Y-45955000D01*
X130985720Y-46112569D01*
X130694569Y-46403720D01*
X130537000Y-46784126D01*
X115843000Y-46784126D01*
X115685431Y-46403720D01*
X115394280Y-46112569D01*
X115013874Y-45955000D01*
X114602126Y-45955000D01*
X114221720Y-46112569D01*
X113930569Y-46403720D01*
X113773000Y-46784126D01*
X109347000Y-46784126D01*
X109347000Y-45413059D01*
X154410546Y-45413059D01*
X154545904Y-45711055D01*
X155264280Y-45987666D01*
X156033827Y-45968310D01*
X156654896Y-45711055D01*
X156790254Y-45413059D01*
X155600400Y-44223205D01*
X154410546Y-45413059D01*
X109347000Y-45413059D01*
X109347000Y-43707480D01*
X153656334Y-43707480D01*
X153675690Y-44477027D01*
X153932945Y-45098096D01*
X154230941Y-45233454D01*
X155420795Y-44043600D01*
X155780005Y-44043600D01*
X156969859Y-45233454D01*
X157267855Y-45098096D01*
X157544466Y-44379720D01*
X157525110Y-43610173D01*
X157267855Y-42989104D01*
X156969859Y-42853746D01*
X155780005Y-44043600D01*
X155420795Y-44043600D01*
X154230941Y-42853746D01*
X153932945Y-42989104D01*
X153656334Y-43707480D01*
X109347000Y-43707480D01*
X109347000Y-42674141D01*
X154410546Y-42674141D01*
X155600400Y-43863995D01*
X156720795Y-42743600D01*
X158652960Y-42743600D01*
X158652960Y-45343600D01*
X158702243Y-45591365D01*
X158842591Y-45801409D01*
X159052635Y-45941757D01*
X159300400Y-45991040D01*
X161900400Y-45991040D01*
X162148165Y-45941757D01*
X162358209Y-45801409D01*
X162498557Y-45591365D01*
X162547840Y-45343600D01*
X162547840Y-42743600D01*
X162498557Y-42495835D01*
X162358209Y-42285791D01*
X162148165Y-42145443D01*
X161900400Y-42096160D01*
X159300400Y-42096160D01*
X159052635Y-42145443D01*
X158842591Y-42285791D01*
X158702243Y-42495835D01*
X158652960Y-42743600D01*
X156720795Y-42743600D01*
X156790254Y-42674141D01*
X156654896Y-42376145D01*
X155936520Y-42099534D01*
X155166973Y-42118890D01*
X154545904Y-42376145D01*
X154410546Y-42674141D01*
X109347000Y-42674141D01*
X109347000Y-39242647D01*
X124619991Y-39200024D01*
X124422191Y-39332191D01*
X124281843Y-39542235D01*
X124232560Y-39790000D01*
X124232560Y-41490000D01*
X124281843Y-41737765D01*
X124422191Y-41947809D01*
X124632235Y-42088157D01*
X124880000Y-42137440D01*
X126580000Y-42137440D01*
X126827765Y-42088157D01*
X127037809Y-41947809D01*
X127178157Y-41737765D01*
X127187184Y-41692381D01*
X127199375Y-41710625D01*
X127690582Y-42038839D01*
X128123744Y-42125000D01*
X128416256Y-42125000D01*
X128849418Y-42038839D01*
X129340625Y-41710625D01*
X129540000Y-41412239D01*
X129739375Y-41710625D01*
X130230582Y-42038839D01*
X130663744Y-42125000D01*
X130956256Y-42125000D01*
X131389418Y-42038839D01*
X131880625Y-41710625D01*
X132080000Y-41412239D01*
X132279375Y-41710625D01*
X132770582Y-42038839D01*
X133203744Y-42125000D01*
X133496256Y-42125000D01*
X133929418Y-42038839D01*
X134420625Y-41710625D01*
X134620000Y-41412239D01*
X134819375Y-41710625D01*
X135310582Y-42038839D01*
X135743744Y-42125000D01*
X136036256Y-42125000D01*
X136469418Y-42038839D01*
X136960625Y-41710625D01*
X137160000Y-41412239D01*
X137359375Y-41710625D01*
X137850582Y-42038839D01*
X138283744Y-42125000D01*
X138576256Y-42125000D01*
X139009418Y-42038839D01*
X139500625Y-41710625D01*
X139700000Y-41412239D01*
X139899375Y-41710625D01*
X140390582Y-42038839D01*
X140823744Y-42125000D01*
X141116256Y-42125000D01*
X141549418Y-42038839D01*
X142040625Y-41710625D01*
X142240000Y-41412239D01*
X142439375Y-41710625D01*
X142930582Y-42038839D01*
X143363744Y-42125000D01*
X143656256Y-42125000D01*
X144089418Y-42038839D01*
X144580625Y-41710625D01*
X144780000Y-41412239D01*
X144979375Y-41710625D01*
X145470582Y-42038839D01*
X145903744Y-42125000D01*
X146196256Y-42125000D01*
X146629418Y-42038839D01*
X147120625Y-41710625D01*
X147448839Y-41219418D01*
X147564092Y-40640000D01*
X147448839Y-40060582D01*
X147120625Y-39569375D01*
X146629418Y-39241161D01*
X146196256Y-39155000D01*
X145903744Y-39155000D01*
X145470582Y-39241161D01*
X144979375Y-39569375D01*
X144780000Y-39867761D01*
X144580625Y-39569375D01*
X144089418Y-39241161D01*
X143656256Y-39155000D01*
X143363744Y-39155000D01*
X142930582Y-39241161D01*
X142439375Y-39569375D01*
X142240000Y-39867761D01*
X142040625Y-39569375D01*
X141549418Y-39241161D01*
X141116256Y-39155000D01*
X140823744Y-39155000D01*
X140390582Y-39241161D01*
X139899375Y-39569375D01*
X139700000Y-39867761D01*
X139500625Y-39569375D01*
X139009418Y-39241161D01*
X138606383Y-39160993D01*
X163702679Y-39090956D01*
X163550918Y-99542600D01*
X163550918Y-99542600D01*
G37*
X163550918Y-99542600D02*
X109347000Y-99542600D01*
X109347000Y-93468105D01*
X110366000Y-93468105D01*
X110366000Y-94237895D01*
X110660586Y-94949090D01*
X111204910Y-95493414D01*
X111916105Y-95788000D01*
X112685895Y-95788000D01*
X113397090Y-95493414D01*
X113941414Y-94949090D01*
X114236000Y-94237895D01*
X114236000Y-93468105D01*
X113941414Y-92756910D01*
X113436000Y-92251496D01*
X113436000Y-88829131D01*
X113754132Y-88511000D01*
X117020869Y-88511000D01*
X116577482Y-88954387D01*
X116482711Y-89017711D01*
X116231855Y-89393145D01*
X116231854Y-89393146D01*
X116143765Y-89836000D01*
X116166000Y-89947784D01*
X116166001Y-91902736D01*
X116166000Y-91902741D01*
X116166000Y-92251496D01*
X115660586Y-92756910D01*
X115366000Y-93468105D01*
X115366000Y-94237895D01*
X115660586Y-94949090D01*
X116204910Y-95493414D01*
X116916105Y-95788000D01*
X117685895Y-95788000D01*
X118397090Y-95493414D01*
X118941414Y-94949090D01*
X119236000Y-94237895D01*
X119236000Y-93468105D01*
X118941414Y-92756910D01*
X118436000Y-92251496D01*
X118436000Y-90306131D01*
X118453131Y-90289000D01*
X121959868Y-90289000D01*
X121577479Y-90671389D01*
X121482712Y-90734711D01*
X121309972Y-90993235D01*
X121231854Y-91110146D01*
X121143765Y-91553000D01*
X121166001Y-91664788D01*
X121166001Y-91905560D01*
X121001000Y-91905560D01*
X120753235Y-91954843D01*
X120543191Y-92095191D01*
X120402843Y-92305235D01*
X120353560Y-92553000D01*
X120353560Y-95153000D01*
X120402843Y-95400765D01*
X120543191Y-95610809D01*
X120753235Y-95751157D01*
X121001000Y-95800440D01*
X123601000Y-95800440D01*
X123848765Y-95751157D01*
X124058809Y-95610809D01*
X124199157Y-95400765D01*
X124248440Y-95153000D01*
X124248440Y-92553000D01*
X124199157Y-92305235D01*
X124058809Y-92095191D01*
X123848765Y-91954843D01*
X123774143Y-91940000D01*
X140096217Y-91940000D01*
X140208000Y-91962235D01*
X140319783Y-91940000D01*
X140650855Y-91874146D01*
X141026289Y-91623289D01*
X141089613Y-91528518D01*
X141216608Y-91401523D01*
X143726132Y-88892000D01*
X156479217Y-88892000D01*
X156591000Y-88914235D01*
X156702783Y-88892000D01*
X157033855Y-88826146D01*
X157409289Y-88575289D01*
X157472613Y-88480518D01*
X159727521Y-86225610D01*
X159822289Y-86162289D01*
X160073146Y-85786855D01*
X160139000Y-85455783D01*
X160139000Y-85455782D01*
X160161235Y-85344001D01*
X160139000Y-85232219D01*
X160139000Y-84709000D01*
X160578800Y-84709000D01*
X160821804Y-84660664D01*
X161027813Y-84523013D01*
X161165464Y-84317004D01*
X161213800Y-84074000D01*
X161213800Y-78232000D01*
X161165464Y-77988996D01*
X161047867Y-77813000D01*
X161113828Y-77715012D01*
X161162996Y-77472175D01*
X161213796Y-62638575D01*
X161166484Y-62395874D01*
X161029703Y-62189286D01*
X160824277Y-62050767D01*
X160581479Y-62001406D01*
X159304692Y-61996019D01*
X159373431Y-61927280D01*
X159531000Y-61546874D01*
X159531000Y-61135126D01*
X159373431Y-60754720D01*
X159082280Y-60463569D01*
X158701874Y-60306000D01*
X158290126Y-60306000D01*
X157909720Y-60463569D01*
X157793289Y-60580000D01*
X156475613Y-60580000D01*
X156458156Y-60492235D01*
X156317808Y-60282191D01*
X156194801Y-60200000D01*
X156317808Y-60117809D01*
X156458156Y-59907765D01*
X156507439Y-59660000D01*
X156507439Y-58460000D01*
X156458156Y-58212235D01*
X156439958Y-58185000D01*
X156796874Y-58185000D01*
X157177280Y-58027431D01*
X157468431Y-57736280D01*
X157626000Y-57355874D01*
X157626000Y-56944126D01*
X157468431Y-56563720D01*
X157177280Y-56272569D01*
X156796874Y-56115000D01*
X156385126Y-56115000D01*
X156004720Y-56272569D01*
X155887289Y-56390000D01*
X155141847Y-56390000D01*
X155067000Y-56375112D01*
X154992153Y-56390000D01*
X154992148Y-56390000D01*
X154770463Y-56434096D01*
X154519071Y-56602071D01*
X154476669Y-56665530D01*
X154275527Y-56866672D01*
X154212071Y-56909072D01*
X154169671Y-56972528D01*
X154169670Y-56972529D01*
X154044096Y-57160464D01*
X153985111Y-57457001D01*
X154000000Y-57531852D01*
X154000000Y-57812560D01*
X153659999Y-57812560D01*
X153412234Y-57861843D01*
X153202190Y-58002191D01*
X153061842Y-58212235D01*
X153012559Y-58460000D01*
X153012559Y-59660000D01*
X153061842Y-59907765D01*
X153202190Y-60117809D01*
X153325197Y-60200000D01*
X153202190Y-60282191D01*
X153061842Y-60492235D01*
X153012559Y-60740000D01*
X153012559Y-61940000D01*
X153061842Y-62187765D01*
X153202190Y-62397809D01*
X153325197Y-62480000D01*
X153202190Y-62562191D01*
X153061842Y-62772235D01*
X153012559Y-63020000D01*
X153012559Y-64220000D01*
X153061842Y-64467765D01*
X153202190Y-64677809D01*
X153412234Y-64818157D01*
X153659999Y-64867440D01*
X153962479Y-64867440D01*
X153978156Y-65784513D01*
X153905000Y-65961126D01*
X153905000Y-66372874D01*
X153991795Y-66582416D01*
X153998208Y-66957560D01*
X153595000Y-66957560D01*
X153347235Y-67006843D01*
X153137191Y-67147191D01*
X152996843Y-67357235D01*
X152947560Y-67605000D01*
X152947560Y-68805000D01*
X152996843Y-69052765D01*
X153137191Y-69262809D01*
X153260198Y-69345000D01*
X153137191Y-69427191D01*
X152996843Y-69637235D01*
X152947560Y-69885000D01*
X152947560Y-71085000D01*
X152996843Y-71332765D01*
X153137191Y-71542809D01*
X153252216Y-71619667D01*
X153235302Y-71626673D01*
X153056673Y-71805301D01*
X152960000Y-72038690D01*
X152960000Y-72479250D01*
X153118750Y-72638000D01*
X154095309Y-72638000D01*
X154099651Y-72892000D01*
X153118750Y-72892000D01*
X152960000Y-73050750D01*
X152960000Y-73491310D01*
X153056673Y-73724699D01*
X153235302Y-73903327D01*
X153468691Y-74000000D01*
X154118591Y-74000000D01*
X154140629Y-75289233D01*
X154077235Y-75301843D01*
X153867191Y-75442191D01*
X153726843Y-75652235D01*
X153677560Y-75900000D01*
X153677560Y-76500000D01*
X153726843Y-76747765D01*
X153785132Y-76835000D01*
X153726843Y-76922235D01*
X153677560Y-77170000D01*
X153677560Y-77597000D01*
X153416000Y-77597000D01*
X153172996Y-77645336D01*
X153054000Y-77724847D01*
X153054000Y-77391126D01*
X152896431Y-77010720D01*
X152605280Y-76719569D01*
X152224874Y-76562000D01*
X151813126Y-76562000D01*
X151455822Y-76710000D01*
X151075334Y-76710000D01*
X151110000Y-76626310D01*
X151110000Y-76485750D01*
X150951250Y-76327000D01*
X149827000Y-76327000D01*
X149827000Y-76347000D01*
X149573000Y-76347000D01*
X149573000Y-76327000D01*
X149553000Y-76327000D01*
X149553000Y-76073000D01*
X149573000Y-76073000D01*
X149573000Y-75423750D01*
X149827000Y-75423750D01*
X149827000Y-76073000D01*
X150951250Y-76073000D01*
X151110000Y-75914250D01*
X151110000Y-75773690D01*
X151013327Y-75540301D01*
X150834698Y-75361673D01*
X150601309Y-75265000D01*
X149985750Y-75265000D01*
X149827000Y-75423750D01*
X149573000Y-75423750D01*
X149414250Y-75265000D01*
X148798691Y-75265000D01*
X148565302Y-75361673D01*
X148420687Y-75506287D01*
X148303739Y-75331261D01*
X148022727Y-75143495D01*
X147691250Y-75077560D01*
X147253750Y-75077560D01*
X146922273Y-75143495D01*
X146759969Y-75251943D01*
X146694698Y-75186673D01*
X146461309Y-75090000D01*
X146183250Y-75090000D01*
X146024500Y-75248750D01*
X146024500Y-76073000D01*
X146044500Y-76073000D01*
X146044500Y-76327000D01*
X146024500Y-76327000D01*
X146024500Y-77151250D01*
X146183250Y-77310000D01*
X146461309Y-77310000D01*
X146694698Y-77213327D01*
X146705331Y-77202694D01*
X146697612Y-77241500D01*
X146756597Y-77538037D01*
X146771707Y-77560651D01*
X146732273Y-77568495D01*
X146451261Y-77756261D01*
X146263495Y-78037273D01*
X146197560Y-78368750D01*
X146197560Y-78806250D01*
X146263495Y-79137727D01*
X146422036Y-79375000D01*
X146412657Y-79389036D01*
X146405499Y-79387612D01*
X146330652Y-79402500D01*
X146330648Y-79402500D01*
X146108963Y-79446596D01*
X145972217Y-79537967D01*
X145875727Y-79473495D01*
X145544250Y-79407560D01*
X145031750Y-79407560D01*
X144700273Y-79473495D01*
X144551400Y-79572969D01*
X144551400Y-78079600D01*
X144502179Y-77834472D01*
X144381068Y-77654629D01*
X144401464Y-77624104D01*
X144449800Y-77381100D01*
X144449800Y-76485750D01*
X144825000Y-76485750D01*
X144825000Y-76801310D01*
X144921673Y-77034699D01*
X145100302Y-77213327D01*
X145333691Y-77310000D01*
X145611750Y-77310000D01*
X145770500Y-77151250D01*
X145770500Y-76327000D01*
X144983750Y-76327000D01*
X144825000Y-76485750D01*
X144449800Y-76485750D01*
X144449800Y-75598690D01*
X144825000Y-75598690D01*
X144825000Y-75914250D01*
X144983750Y-76073000D01*
X145770500Y-76073000D01*
X145770500Y-75248750D01*
X145611750Y-75090000D01*
X145333691Y-75090000D01*
X145100302Y-75186673D01*
X144921673Y-75365301D01*
X144825000Y-75598690D01*
X144449800Y-75598690D01*
X144449800Y-67585000D01*
X144547560Y-67585000D01*
X144547560Y-73385000D01*
X144596843Y-73632765D01*
X144737191Y-73842809D01*
X144947235Y-73983157D01*
X145195000Y-74032440D01*
X151595000Y-74032440D01*
X151842765Y-73983157D01*
X152052809Y-73842809D01*
X152193157Y-73632765D01*
X152242440Y-73385000D01*
X152242440Y-67585000D01*
X152193157Y-67337235D01*
X152052809Y-67127191D01*
X151842765Y-66986843D01*
X151595000Y-66937560D01*
X145195000Y-66937560D01*
X144947235Y-66986843D01*
X144737191Y-67127191D01*
X144596843Y-67337235D01*
X144547560Y-67585000D01*
X144449800Y-67585000D01*
X144449800Y-62522100D01*
X144402795Y-62282335D01*
X144266282Y-62075570D01*
X144061036Y-61936785D01*
X143818302Y-61887110D01*
X140879896Y-61870906D01*
X140882801Y-61868000D01*
X141048874Y-61868000D01*
X141429280Y-61710431D01*
X141720431Y-61419280D01*
X141878000Y-61038874D01*
X141878000Y-60627126D01*
X141720431Y-60246720D01*
X141429280Y-59955569D01*
X141048874Y-59798000D01*
X140637126Y-59798000D01*
X140256720Y-59955569D01*
X139965569Y-60246720D01*
X139926706Y-60340544D01*
X139814802Y-60265772D01*
X139937809Y-60183581D01*
X140078157Y-59973537D01*
X140127440Y-59725772D01*
X140127440Y-58525772D01*
X140110380Y-58440000D01*
X144612559Y-58440000D01*
X144612559Y-64240000D01*
X144661842Y-64487765D01*
X144802190Y-64697809D01*
X145012234Y-64838157D01*
X145259999Y-64887440D01*
X151659999Y-64887440D01*
X151907764Y-64838157D01*
X152117808Y-64697809D01*
X152258156Y-64487765D01*
X152307439Y-64240000D01*
X152307439Y-58440000D01*
X152258156Y-58192235D01*
X152117808Y-57982191D01*
X151907764Y-57841843D01*
X151659999Y-57792560D01*
X145259999Y-57792560D01*
X145012234Y-57841843D01*
X144802190Y-57982191D01*
X144661842Y-58192235D01*
X144612559Y-58440000D01*
X140110380Y-58440000D01*
X140078157Y-58278007D01*
X139972724Y-58120216D01*
X140129126Y-58185000D01*
X140540874Y-58185000D01*
X140921280Y-58027431D01*
X141212431Y-57736280D01*
X141370000Y-57355874D01*
X141370000Y-56944126D01*
X141212431Y-56563720D01*
X140921280Y-56272569D01*
X140540874Y-56115000D01*
X140129126Y-56115000D01*
X139748720Y-56272569D01*
X139631289Y-56390000D01*
X139012846Y-56390000D01*
X138937999Y-56375112D01*
X138863152Y-56390000D01*
X138863148Y-56390000D01*
X138641463Y-56434096D01*
X138390071Y-56602071D01*
X138347671Y-56665527D01*
X137895528Y-57117671D01*
X137832072Y-57160071D01*
X137789672Y-57223527D01*
X137789671Y-57223528D01*
X137664097Y-57411463D01*
X137605112Y-57708000D01*
X137620001Y-57782851D01*
X137620001Y-57878332D01*
X137280000Y-57878332D01*
X137032235Y-57927615D01*
X136822191Y-58067963D01*
X136681843Y-58278007D01*
X136632560Y-58525772D01*
X136632560Y-59725772D01*
X136681843Y-59973537D01*
X136822191Y-60183581D01*
X136945198Y-60265772D01*
X136822191Y-60347963D01*
X136681843Y-60558007D01*
X136632560Y-60805772D01*
X136632560Y-61917673D01*
X136456987Y-62034987D01*
X136319336Y-62240996D01*
X136271000Y-62484000D01*
X136271000Y-69342000D01*
X136319336Y-69585004D01*
X136456987Y-69791013D01*
X136640012Y-69913307D01*
X136632560Y-69950772D01*
X136632560Y-71150772D01*
X136681843Y-71398537D01*
X136822191Y-71608581D01*
X136937216Y-71685439D01*
X136920302Y-71692445D01*
X136741673Y-71871073D01*
X136645000Y-72104462D01*
X136645000Y-72545022D01*
X136803750Y-72703772D01*
X138253000Y-72703772D01*
X138253000Y-72683772D01*
X138507000Y-72683772D01*
X138507000Y-72703772D01*
X138527000Y-72703772D01*
X138527000Y-72957772D01*
X138507000Y-72957772D01*
X138507000Y-73907022D01*
X138665750Y-74065772D01*
X139573000Y-74065772D01*
X139573000Y-74930000D01*
X138303000Y-74930000D01*
X138059996Y-74978336D01*
X137853987Y-75115987D01*
X137754720Y-75264550D01*
X137567235Y-75301843D01*
X137357191Y-75442191D01*
X137216843Y-75652235D01*
X137167560Y-75900000D01*
X137167560Y-76500000D01*
X137216843Y-76747765D01*
X137275132Y-76835000D01*
X137216843Y-76922235D01*
X137167560Y-77170000D01*
X137167560Y-77469048D01*
X136903699Y-77470004D01*
X136662996Y-77518336D01*
X136456987Y-77655987D01*
X136319336Y-77861996D01*
X136271000Y-78105000D01*
X136271000Y-84709000D01*
X136318460Y-84949877D01*
X136455363Y-85156383D01*
X136660872Y-85294779D01*
X136903699Y-85343996D01*
X137803000Y-85347254D01*
X137803001Y-86778867D01*
X136562869Y-88019000D01*
X122628131Y-88019000D01*
X124802521Y-85844611D01*
X124897289Y-85781289D01*
X125148146Y-85405855D01*
X125210973Y-85090000D01*
X126746000Y-85090000D01*
X126989004Y-85041664D01*
X127195013Y-84904013D01*
X127332664Y-84698004D01*
X127381000Y-84455000D01*
X127381000Y-82200750D01*
X127795000Y-82200750D01*
X127795000Y-82478809D01*
X127891673Y-82712198D01*
X128070301Y-82890827D01*
X128303690Y-82987500D01*
X128619250Y-82987500D01*
X128778000Y-82828750D01*
X128778000Y-82042000D01*
X127953750Y-82042000D01*
X127795000Y-82200750D01*
X127381000Y-82200750D01*
X127381000Y-80121250D01*
X127782560Y-80121250D01*
X127782560Y-80558750D01*
X127848495Y-80890227D01*
X127956943Y-81052531D01*
X127891673Y-81117802D01*
X127795000Y-81351191D01*
X127795000Y-81629250D01*
X127953750Y-81788000D01*
X128778000Y-81788000D01*
X128778000Y-81768000D01*
X129032000Y-81768000D01*
X129032000Y-81788000D01*
X129052000Y-81788000D01*
X129052000Y-82042000D01*
X129032000Y-82042000D01*
X129032000Y-82828750D01*
X129190750Y-82987500D01*
X129506310Y-82987500D01*
X129739699Y-82890827D01*
X129918327Y-82712198D01*
X129984275Y-82552986D01*
X130223720Y-82792431D01*
X130604126Y-82950000D01*
X131015874Y-82950000D01*
X131396280Y-82792431D01*
X131687431Y-82501280D01*
X131845000Y-82120874D01*
X131845000Y-81709126D01*
X131687431Y-81328720D01*
X131570000Y-81211289D01*
X131570000Y-81066396D01*
X131678739Y-80993739D01*
X131726339Y-80922500D01*
X132239343Y-80922500D01*
X132415000Y-80957440D01*
X133965000Y-80957440D01*
X134212765Y-80908157D01*
X134422809Y-80767809D01*
X134563157Y-80557765D01*
X134612440Y-80310000D01*
X134612440Y-79710000D01*
X134563157Y-79462235D01*
X134504868Y-79375000D01*
X134563157Y-79287765D01*
X134612440Y-79040000D01*
X134612440Y-78481934D01*
X134668126Y-78505000D01*
X135079874Y-78505000D01*
X135460280Y-78347431D01*
X135751431Y-78056280D01*
X135909000Y-77675874D01*
X135909000Y-77264126D01*
X135751431Y-76883720D01*
X135460280Y-76592569D01*
X135079874Y-76435000D01*
X134668126Y-76435000D01*
X134584068Y-76469818D01*
X134441250Y-76327000D01*
X133317000Y-76327000D01*
X133317000Y-76347000D01*
X133063000Y-76347000D01*
X133063000Y-76327000D01*
X133043000Y-76327000D01*
X133043000Y-76073000D01*
X133063000Y-76073000D01*
X133063000Y-75423750D01*
X133317000Y-75423750D01*
X133317000Y-76073000D01*
X134441250Y-76073000D01*
X134600000Y-75914250D01*
X134600000Y-75773690D01*
X134503327Y-75540301D01*
X134324698Y-75361673D01*
X134091309Y-75265000D01*
X133475750Y-75265000D01*
X133317000Y-75423750D01*
X133063000Y-75423750D01*
X132904250Y-75265000D01*
X132288691Y-75265000D01*
X132055302Y-75361673D01*
X132002105Y-75414870D01*
X131946239Y-75331261D01*
X131665227Y-75143495D01*
X131333750Y-75077560D01*
X130896250Y-75077560D01*
X130564773Y-75143495D01*
X130402469Y-75251943D01*
X130337198Y-75186673D01*
X130103809Y-75090000D01*
X129825750Y-75090000D01*
X129667000Y-75248750D01*
X129667000Y-76073000D01*
X129687000Y-76073000D01*
X129687000Y-76327000D01*
X129667000Y-76327000D01*
X129667000Y-77151250D01*
X129825750Y-77310000D01*
X130103809Y-77310000D01*
X130337198Y-77213327D01*
X130402469Y-77148057D01*
X130488744Y-77205704D01*
X130567072Y-77322929D01*
X130630527Y-77365328D01*
X130767758Y-77502560D01*
X130553750Y-77502560D01*
X130222273Y-77568495D01*
X129941261Y-77756261D01*
X129753495Y-78037273D01*
X129687560Y-78368750D01*
X129687560Y-78806250D01*
X129753495Y-79137727D01*
X129912036Y-79375000D01*
X129798199Y-79545368D01*
X129773739Y-79508761D01*
X129492727Y-79320995D01*
X129161250Y-79255060D01*
X128648750Y-79255060D01*
X128317273Y-79320995D01*
X128036261Y-79508761D01*
X127848495Y-79789773D01*
X127782560Y-80121250D01*
X127381000Y-80121250D01*
X127381000Y-78105000D01*
X127332664Y-77861996D01*
X127282887Y-77787500D01*
X127332664Y-77713004D01*
X127381000Y-77470000D01*
X127381000Y-76485750D01*
X128467500Y-76485750D01*
X128467500Y-76801310D01*
X128564173Y-77034699D01*
X128742802Y-77213327D01*
X128976191Y-77310000D01*
X129254250Y-77310000D01*
X129413000Y-77151250D01*
X129413000Y-76327000D01*
X128626250Y-76327000D01*
X128467500Y-76485750D01*
X127381000Y-76485750D01*
X127381000Y-75598690D01*
X128467500Y-75598690D01*
X128467500Y-75914250D01*
X128626250Y-76073000D01*
X129413000Y-76073000D01*
X129413000Y-75248750D01*
X129254250Y-75090000D01*
X128976191Y-75090000D01*
X128742802Y-75186673D01*
X128564173Y-75365301D01*
X128467500Y-75598690D01*
X127381000Y-75598690D01*
X127381000Y-67650772D01*
X128232560Y-67650772D01*
X128232560Y-73450772D01*
X128281843Y-73698537D01*
X128422191Y-73908581D01*
X128632235Y-74048929D01*
X128880000Y-74098212D01*
X135280000Y-74098212D01*
X135527765Y-74048929D01*
X135737809Y-73908581D01*
X135878157Y-73698537D01*
X135927440Y-73450772D01*
X135927440Y-73116522D01*
X136645000Y-73116522D01*
X136645000Y-73557082D01*
X136741673Y-73790471D01*
X136920302Y-73969099D01*
X137153691Y-74065772D01*
X138094250Y-74065772D01*
X138253000Y-73907022D01*
X138253000Y-72957772D01*
X136803750Y-72957772D01*
X136645000Y-73116522D01*
X135927440Y-73116522D01*
X135927440Y-67650772D01*
X135878157Y-67403007D01*
X135737809Y-67192963D01*
X135527765Y-67052615D01*
X135280000Y-67003332D01*
X128880000Y-67003332D01*
X128632235Y-67052615D01*
X128422191Y-67192963D01*
X128281843Y-67403007D01*
X128232560Y-67650772D01*
X127381000Y-67650772D01*
X127381000Y-62611000D01*
X127335112Y-62373995D01*
X127199571Y-62166592D01*
X126994977Y-62026847D01*
X126752479Y-61976033D01*
X126639391Y-61974879D01*
X126607431Y-61897720D01*
X126492747Y-61783036D01*
X126504888Y-61722000D01*
X126490000Y-61647153D01*
X126490000Y-61647148D01*
X126445904Y-61425463D01*
X126277929Y-61174071D01*
X126214470Y-61131669D01*
X126004103Y-60921302D01*
X125961701Y-60857843D01*
X125710309Y-60689868D01*
X125488624Y-60645772D01*
X125488619Y-60645772D01*
X125413772Y-60630884D01*
X125338925Y-60645772D01*
X123390614Y-60645772D01*
X123373157Y-60558007D01*
X123232809Y-60347963D01*
X123109802Y-60265772D01*
X123232809Y-60183581D01*
X123373157Y-59973537D01*
X123422440Y-59725772D01*
X123422440Y-58525772D01*
X123418462Y-58505772D01*
X128232560Y-58505772D01*
X128232560Y-64305772D01*
X128281843Y-64553537D01*
X128422191Y-64763581D01*
X128632235Y-64903929D01*
X128880000Y-64953212D01*
X135280000Y-64953212D01*
X135527765Y-64903929D01*
X135737809Y-64763581D01*
X135878157Y-64553537D01*
X135927440Y-64305772D01*
X135927440Y-58505772D01*
X135878157Y-58258007D01*
X135737809Y-58047963D01*
X135527765Y-57907615D01*
X135280000Y-57858332D01*
X128880000Y-57858332D01*
X128632235Y-57907615D01*
X128422191Y-58047963D01*
X128281843Y-58258007D01*
X128232560Y-58505772D01*
X123418462Y-58505772D01*
X123373157Y-58278007D01*
X123290302Y-58154007D01*
X123365126Y-58185000D01*
X123776874Y-58185000D01*
X124157280Y-58027431D01*
X124448431Y-57736280D01*
X124606000Y-57355874D01*
X124606000Y-56944126D01*
X124448431Y-56563720D01*
X124157280Y-56272569D01*
X123776874Y-56115000D01*
X123365126Y-56115000D01*
X122984720Y-56272569D01*
X122867289Y-56390000D01*
X122248848Y-56390000D01*
X122174000Y-56375112D01*
X122099152Y-56390000D01*
X122099148Y-56390000D01*
X121877463Y-56434096D01*
X121626071Y-56602071D01*
X121583671Y-56665528D01*
X121190527Y-57058671D01*
X121127072Y-57101071D01*
X121084672Y-57164527D01*
X121084671Y-57164528D01*
X120959097Y-57352463D01*
X120900112Y-57649000D01*
X120915001Y-57723851D01*
X120915001Y-57878332D01*
X120575000Y-57878332D01*
X120327235Y-57927615D01*
X120117191Y-58067963D01*
X119976843Y-58278007D01*
X119927560Y-58525772D01*
X119927560Y-59725772D01*
X119976843Y-59973537D01*
X120117191Y-60183581D01*
X120240198Y-60265772D01*
X120117191Y-60347963D01*
X119976843Y-60558007D01*
X119927560Y-60805772D01*
X119927560Y-62005772D01*
X119975144Y-62244998D01*
X119939744Y-62296428D01*
X119888060Y-62538742D01*
X119761060Y-71746242D01*
X119782834Y-71920084D01*
X119892684Y-72142166D01*
X119940000Y-72203677D01*
X119940000Y-72290022D01*
X120098750Y-72448772D01*
X120128535Y-72448772D01*
X120323919Y-72702772D01*
X120098750Y-72702772D01*
X119940000Y-72861522D01*
X119940000Y-73302082D01*
X120036673Y-73535471D01*
X120215302Y-73714099D01*
X120448691Y-73810772D01*
X121031000Y-73810772D01*
X121031000Y-74718333D01*
X120623374Y-75261834D01*
X120422235Y-75301843D01*
X120212191Y-75442191D01*
X120071843Y-75652235D01*
X120022560Y-75900000D01*
X120022560Y-76500000D01*
X120071843Y-76747765D01*
X120130132Y-76835000D01*
X120071843Y-76922235D01*
X120022560Y-77170000D01*
X120022560Y-77770000D01*
X120071843Y-78017765D01*
X120130132Y-78105000D01*
X120071843Y-78192235D01*
X120022560Y-78440000D01*
X120022560Y-79040000D01*
X120071843Y-79287765D01*
X120130132Y-79375000D01*
X120071843Y-79462235D01*
X120022560Y-79710000D01*
X120022560Y-80310000D01*
X120071843Y-80557765D01*
X120212191Y-80767809D01*
X120422235Y-80908157D01*
X120670000Y-80957440D01*
X120777000Y-80957440D01*
X120777000Y-84455000D01*
X120825336Y-84698004D01*
X120962987Y-84904013D01*
X121168996Y-85041664D01*
X121412000Y-85090000D01*
X122346868Y-85090000D01*
X121195869Y-86241000D01*
X113395783Y-86241000D01*
X113284000Y-86218765D01*
X113172217Y-86241000D01*
X112841145Y-86306854D01*
X112465711Y-86557711D01*
X112402389Y-86652479D01*
X111577481Y-87477387D01*
X111482711Y-87540711D01*
X111296862Y-87818855D01*
X111231854Y-87916146D01*
X111143765Y-88359000D01*
X111166000Y-88470783D01*
X111166001Y-92251495D01*
X110660586Y-92756910D01*
X110366000Y-93468105D01*
X109347000Y-93468105D01*
X109347000Y-82200750D01*
X110650000Y-82200750D01*
X110650000Y-82478809D01*
X110746673Y-82712198D01*
X110925301Y-82890827D01*
X111158690Y-82987500D01*
X111474250Y-82987500D01*
X111633000Y-82828750D01*
X111633000Y-82042000D01*
X110808750Y-82042000D01*
X110650000Y-82200750D01*
X109347000Y-82200750D01*
X109347000Y-80121250D01*
X110637560Y-80121250D01*
X110637560Y-80558750D01*
X110703495Y-80890227D01*
X110811943Y-81052531D01*
X110746673Y-81117802D01*
X110650000Y-81351191D01*
X110650000Y-81629250D01*
X110808750Y-81788000D01*
X111633000Y-81788000D01*
X111633000Y-81768000D01*
X111887000Y-81768000D01*
X111887000Y-81788000D01*
X111907000Y-81788000D01*
X111907000Y-82042000D01*
X111887000Y-82042000D01*
X111887000Y-82828750D01*
X112045750Y-82987500D01*
X112361310Y-82987500D01*
X112594699Y-82890827D01*
X112773327Y-82712198D01*
X112802077Y-82642788D01*
X113078720Y-82919431D01*
X113459126Y-83077000D01*
X113870874Y-83077000D01*
X114251280Y-82919431D01*
X114542431Y-82628280D01*
X114700000Y-82247874D01*
X114700000Y-81836126D01*
X114542431Y-81455720D01*
X114425000Y-81338289D01*
X114425000Y-81218896D01*
X114533739Y-81146239D01*
X114670704Y-80941257D01*
X114787929Y-80862929D01*
X114830331Y-80799470D01*
X114842044Y-80787757D01*
X115022235Y-80908157D01*
X115270000Y-80957440D01*
X116820000Y-80957440D01*
X117067765Y-80908157D01*
X117277809Y-80767809D01*
X117418157Y-80557765D01*
X117467440Y-80310000D01*
X117467440Y-79710000D01*
X117418157Y-79462235D01*
X117359868Y-79375000D01*
X117418157Y-79287765D01*
X117467440Y-79040000D01*
X117467440Y-78440000D01*
X117430481Y-78254192D01*
X117523720Y-78347431D01*
X117904126Y-78505000D01*
X118315874Y-78505000D01*
X118696280Y-78347431D01*
X118987431Y-78056280D01*
X119145000Y-77675874D01*
X119145000Y-77264126D01*
X118987431Y-76883720D01*
X118696280Y-76592569D01*
X118315874Y-76435000D01*
X117904126Y-76435000D01*
X117523720Y-76592569D01*
X117430266Y-76686023D01*
X117455000Y-76626310D01*
X117455000Y-76485750D01*
X117296250Y-76327000D01*
X116172000Y-76327000D01*
X116172000Y-76347000D01*
X115918000Y-76347000D01*
X115918000Y-76327000D01*
X115898000Y-76327000D01*
X115898000Y-76073000D01*
X115918000Y-76073000D01*
X115918000Y-75423750D01*
X116172000Y-75423750D01*
X116172000Y-76073000D01*
X117296250Y-76073000D01*
X117455000Y-75914250D01*
X117455000Y-75773690D01*
X117358327Y-75540301D01*
X117179698Y-75361673D01*
X116946309Y-75265000D01*
X116330750Y-75265000D01*
X116172000Y-75423750D01*
X115918000Y-75423750D01*
X115759250Y-75265000D01*
X115143691Y-75265000D01*
X114910302Y-75361673D01*
X114731673Y-75540301D01*
X114689798Y-75641396D01*
X114684005Y-75612273D01*
X114496239Y-75331261D01*
X114215227Y-75143495D01*
X113883750Y-75077560D01*
X113446250Y-75077560D01*
X113114773Y-75143495D01*
X112952469Y-75251943D01*
X112887198Y-75186673D01*
X112653809Y-75090000D01*
X112375750Y-75090000D01*
X112217000Y-75248750D01*
X112217000Y-76073000D01*
X112237000Y-76073000D01*
X112237000Y-76327000D01*
X112217000Y-76327000D01*
X112217000Y-77151250D01*
X112375750Y-77310000D01*
X112653809Y-77310000D01*
X112887198Y-77213327D01*
X112910256Y-77190269D01*
X112949097Y-77385537D01*
X113071346Y-77568495D01*
X113117072Y-77636929D01*
X113180527Y-77679329D01*
X113198150Y-77696951D01*
X113077273Y-77720995D01*
X112796261Y-77908761D01*
X112608495Y-78189773D01*
X112542560Y-78521250D01*
X112542560Y-78958750D01*
X112608495Y-79290227D01*
X112767036Y-79527500D01*
X112731956Y-79580000D01*
X112676339Y-79580000D01*
X112628739Y-79508761D01*
X112347727Y-79320995D01*
X112016250Y-79255060D01*
X111503750Y-79255060D01*
X111172273Y-79320995D01*
X110891261Y-79508761D01*
X110703495Y-79789773D01*
X110637560Y-80121250D01*
X109347000Y-80121250D01*
X109347000Y-76485750D01*
X111017500Y-76485750D01*
X111017500Y-76801310D01*
X111114173Y-77034699D01*
X111292802Y-77213327D01*
X111526191Y-77310000D01*
X111804250Y-77310000D01*
X111963000Y-77151250D01*
X111963000Y-76327000D01*
X111176250Y-76327000D01*
X111017500Y-76485750D01*
X109347000Y-76485750D01*
X109347000Y-75598690D01*
X111017500Y-75598690D01*
X111017500Y-75914250D01*
X111176250Y-76073000D01*
X111963000Y-76073000D01*
X111963000Y-75248750D01*
X111804250Y-75090000D01*
X111526191Y-75090000D01*
X111292802Y-75186673D01*
X111114173Y-75365301D01*
X111017500Y-75598690D01*
X109347000Y-75598690D01*
X109347000Y-67395772D01*
X111527560Y-67395772D01*
X111527560Y-73195772D01*
X111576843Y-73443537D01*
X111717191Y-73653581D01*
X111927235Y-73793929D01*
X112175000Y-73843212D01*
X118575000Y-73843212D01*
X118822765Y-73793929D01*
X119032809Y-73653581D01*
X119173157Y-73443537D01*
X119222440Y-73195772D01*
X119222440Y-67395772D01*
X119173157Y-67148007D01*
X119032809Y-66937963D01*
X118822765Y-66797615D01*
X118575000Y-66748332D01*
X112175000Y-66748332D01*
X111927235Y-66797615D01*
X111717191Y-66937963D01*
X111576843Y-67148007D01*
X111527560Y-67395772D01*
X109347000Y-67395772D01*
X109347000Y-58505772D01*
X111527560Y-58505772D01*
X111527560Y-64305772D01*
X111576843Y-64553537D01*
X111717191Y-64763581D01*
X111927235Y-64903929D01*
X112175000Y-64953212D01*
X118575000Y-64953212D01*
X118822765Y-64903929D01*
X119032809Y-64763581D01*
X119173157Y-64553537D01*
X119222440Y-64305772D01*
X119222440Y-58505772D01*
X119173157Y-58258007D01*
X119032809Y-58047963D01*
X118822765Y-57907615D01*
X118575000Y-57858332D01*
X112175000Y-57858332D01*
X111927235Y-57907615D01*
X111717191Y-58047963D01*
X111576843Y-58258007D01*
X111527560Y-58505772D01*
X109347000Y-58505772D01*
X109347000Y-50658690D01*
X114434000Y-50658690D01*
X114434000Y-51649250D01*
X114592750Y-51808000D01*
X114848001Y-51808000D01*
X114880975Y-51887607D01*
X115000500Y-51895108D01*
X115040392Y-51935000D01*
X115000500Y-51974892D01*
X114880975Y-51982393D01*
X114856493Y-52062000D01*
X114592750Y-52062000D01*
X114434000Y-52220750D01*
X114434000Y-53211310D01*
X114530673Y-53444699D01*
X114709302Y-53623327D01*
X114942691Y-53720000D01*
X115933250Y-53720000D01*
X116092000Y-53561250D01*
X116092000Y-53307414D01*
X116172607Y-53274025D01*
X116180108Y-53154500D01*
X116220000Y-53114608D01*
X116259892Y-53154500D01*
X116267393Y-53274025D01*
X116346000Y-53298199D01*
X116346000Y-53561250D01*
X116504750Y-53720000D01*
X117495309Y-53720000D01*
X117683313Y-53642126D01*
X120123000Y-53642126D01*
X120123000Y-54053874D01*
X120280569Y-54434280D01*
X120571720Y-54725431D01*
X120952126Y-54883000D01*
X121363874Y-54883000D01*
X121744280Y-54725431D01*
X122035431Y-54434280D01*
X122153131Y-54150126D01*
X138538000Y-54150126D01*
X138538000Y-54561874D01*
X138695569Y-54942280D01*
X138986720Y-55233431D01*
X139367126Y-55391000D01*
X139778874Y-55391000D01*
X140159280Y-55233431D01*
X140450431Y-54942280D01*
X140608000Y-54561874D01*
X140608000Y-54150126D01*
X140450431Y-53769720D01*
X140159280Y-53478569D01*
X139778874Y-53321000D01*
X139367126Y-53321000D01*
X138986720Y-53478569D01*
X138695569Y-53769720D01*
X138538000Y-54150126D01*
X122153131Y-54150126D01*
X122193000Y-54053874D01*
X122193000Y-53642126D01*
X122035431Y-53261720D01*
X121744280Y-52970569D01*
X121363874Y-52813000D01*
X120952126Y-52813000D01*
X120571720Y-52970569D01*
X120280569Y-53261720D01*
X120123000Y-53642126D01*
X117683313Y-53642126D01*
X117728698Y-53623327D01*
X117907327Y-53444699D01*
X118004000Y-53211310D01*
X118004000Y-52220750D01*
X117845250Y-52062000D01*
X117591999Y-52062000D01*
X117559025Y-51982393D01*
X117439500Y-51974892D01*
X117399608Y-51935000D01*
X117439500Y-51895108D01*
X117559025Y-51887607D01*
X117583507Y-51808000D01*
X117845250Y-51808000D01*
X118004000Y-51649250D01*
X118004000Y-51229126D01*
X123171000Y-51229126D01*
X123171000Y-51640874D01*
X123328569Y-52021280D01*
X123619720Y-52312431D01*
X124000126Y-52470000D01*
X124411874Y-52470000D01*
X124792280Y-52312431D01*
X125083431Y-52021280D01*
X125241000Y-51640874D01*
X125241000Y-51229126D01*
X125083431Y-50848720D01*
X124792280Y-50557569D01*
X124481138Y-50428690D01*
X131292000Y-50428690D01*
X131292000Y-51419250D01*
X131450750Y-51578000D01*
X131706001Y-51578000D01*
X131738975Y-51657607D01*
X131858500Y-51665108D01*
X131898392Y-51705000D01*
X131858500Y-51744892D01*
X131738975Y-51752393D01*
X131714493Y-51832000D01*
X131450750Y-51832000D01*
X131292000Y-51990750D01*
X131292000Y-52981310D01*
X131388673Y-53214699D01*
X131567302Y-53393327D01*
X131800691Y-53490000D01*
X132791250Y-53490000D01*
X132950000Y-53331250D01*
X132950000Y-53077414D01*
X133030607Y-53044025D01*
X133038108Y-52924500D01*
X133078000Y-52884608D01*
X133117892Y-52924500D01*
X133125393Y-53044025D01*
X133204000Y-53068199D01*
X133204000Y-53331250D01*
X133362750Y-53490000D01*
X134353309Y-53490000D01*
X134586698Y-53393327D01*
X134765327Y-53214699D01*
X134862000Y-52981310D01*
X134862000Y-52041616D01*
X136887000Y-52041616D01*
X136887000Y-52453364D01*
X137044569Y-52833770D01*
X137335720Y-53124921D01*
X137716126Y-53282490D01*
X138127874Y-53282490D01*
X138508280Y-53124921D01*
X138799431Y-52833770D01*
X138957000Y-52453364D01*
X138957000Y-52041616D01*
X138799431Y-51661210D01*
X138508280Y-51370059D01*
X138127874Y-51212490D01*
X137716126Y-51212490D01*
X137335720Y-51370059D01*
X137044569Y-51661210D01*
X136887000Y-52041616D01*
X134862000Y-52041616D01*
X134862000Y-51990750D01*
X134703250Y-51832000D01*
X134449999Y-51832000D01*
X134417025Y-51752393D01*
X134297500Y-51744892D01*
X134257608Y-51705000D01*
X134297500Y-51665108D01*
X134417025Y-51657607D01*
X134441507Y-51578000D01*
X134703250Y-51578000D01*
X134862000Y-51419250D01*
X134862000Y-50732690D01*
X147490000Y-50732690D01*
X147490000Y-51723250D01*
X147648750Y-51882000D01*
X147904001Y-51882000D01*
X147936975Y-51961607D01*
X148056500Y-51969108D01*
X148096392Y-52009000D01*
X148056500Y-52048892D01*
X147936975Y-52056393D01*
X147912493Y-52136000D01*
X147648750Y-52136000D01*
X147490000Y-52294750D01*
X147490000Y-53285310D01*
X147586673Y-53518699D01*
X147765302Y-53697327D01*
X147998691Y-53794000D01*
X148989250Y-53794000D01*
X149148000Y-53635250D01*
X149148000Y-53381414D01*
X149228607Y-53348025D01*
X149236108Y-53228500D01*
X149276000Y-53188608D01*
X149315892Y-53228500D01*
X149323393Y-53348025D01*
X149402000Y-53372199D01*
X149402000Y-53635250D01*
X149560750Y-53794000D01*
X150551309Y-53794000D01*
X150784698Y-53697327D01*
X150963327Y-53518699D01*
X151060000Y-53285310D01*
X151060000Y-52294750D01*
X150901250Y-52136000D01*
X150647999Y-52136000D01*
X150615025Y-52056393D01*
X150495500Y-52048892D01*
X150455608Y-52009000D01*
X150495500Y-51969108D01*
X150615025Y-51961607D01*
X150639507Y-51882000D01*
X150901250Y-51882000D01*
X151060000Y-51723250D01*
X151060000Y-50732690D01*
X150963327Y-50499301D01*
X150784698Y-50320673D01*
X150551309Y-50224000D01*
X149560750Y-50224000D01*
X149402000Y-50382750D01*
X149402000Y-50637415D01*
X149323393Y-50669975D01*
X149315892Y-50789500D01*
X149276000Y-50829392D01*
X149236108Y-50789500D01*
X149228607Y-50669975D01*
X149148000Y-50645186D01*
X149148000Y-50382750D01*
X148989250Y-50224000D01*
X147998691Y-50224000D01*
X147765302Y-50320673D01*
X147586673Y-50499301D01*
X147490000Y-50732690D01*
X134862000Y-50732690D01*
X134862000Y-50428690D01*
X134765327Y-50195301D01*
X134586698Y-50016673D01*
X134353309Y-49920000D01*
X133362750Y-49920000D01*
X133204000Y-50078750D01*
X133204000Y-50333415D01*
X133125393Y-50365975D01*
X133117892Y-50485500D01*
X133078000Y-50525392D01*
X133038108Y-50485500D01*
X133030607Y-50365975D01*
X132950000Y-50341186D01*
X132950000Y-50078750D01*
X132791250Y-49920000D01*
X131800691Y-49920000D01*
X131567302Y-50016673D01*
X131388673Y-50195301D01*
X131292000Y-50428690D01*
X124481138Y-50428690D01*
X124411874Y-50400000D01*
X124000126Y-50400000D01*
X123619720Y-50557569D01*
X123328569Y-50848720D01*
X123171000Y-51229126D01*
X118004000Y-51229126D01*
X118004000Y-50658690D01*
X117907327Y-50425301D01*
X117728698Y-50246673D01*
X117495309Y-50150000D01*
X116504750Y-50150000D01*
X116346000Y-50308750D01*
X116346000Y-50563415D01*
X116267393Y-50595975D01*
X116259892Y-50715500D01*
X116220000Y-50755392D01*
X116180108Y-50715500D01*
X116172607Y-50595975D01*
X116092000Y-50571186D01*
X116092000Y-50308750D01*
X115933250Y-50150000D01*
X114942691Y-50150000D01*
X114709302Y-50246673D01*
X114530673Y-50425301D01*
X114434000Y-50658690D01*
X109347000Y-50658690D01*
X109347000Y-46784126D01*
X113773000Y-46784126D01*
X113773000Y-47195874D01*
X113930569Y-47576280D01*
X114221720Y-47867431D01*
X114602126Y-48025000D01*
X115013874Y-48025000D01*
X115394280Y-47867431D01*
X115685431Y-47576280D01*
X115843000Y-47195874D01*
X115843000Y-46784126D01*
X130537000Y-46784126D01*
X130537000Y-47195874D01*
X130694569Y-47576280D01*
X130985720Y-47867431D01*
X131366126Y-48025000D01*
X131777874Y-48025000D01*
X132158280Y-47867431D01*
X132449431Y-47576280D01*
X132607000Y-47195874D01*
X132607000Y-46911126D01*
X146793000Y-46911126D01*
X146793000Y-47322874D01*
X146950569Y-47703280D01*
X147241720Y-47994431D01*
X147622126Y-48152000D01*
X148033874Y-48152000D01*
X148414280Y-47994431D01*
X148705431Y-47703280D01*
X148863000Y-47322874D01*
X148863000Y-46911126D01*
X148705431Y-46530720D01*
X148414280Y-46239569D01*
X148033874Y-46082000D01*
X147622126Y-46082000D01*
X147241720Y-46239569D01*
X146950569Y-46530720D01*
X146793000Y-46911126D01*
X132607000Y-46911126D01*
X132607000Y-46784126D01*
X132449431Y-46403720D01*
X132158280Y-46112569D01*
X131777874Y-45955000D01*
X131366126Y-45955000D01*
X130985720Y-46112569D01*
X130694569Y-46403720D01*
X130537000Y-46784126D01*
X115843000Y-46784126D01*
X115685431Y-46403720D01*
X115394280Y-46112569D01*
X115013874Y-45955000D01*
X114602126Y-45955000D01*
X114221720Y-46112569D01*
X113930569Y-46403720D01*
X113773000Y-46784126D01*
X109347000Y-46784126D01*
X109347000Y-45413059D01*
X154410546Y-45413059D01*
X154545904Y-45711055D01*
X155264280Y-45987666D01*
X156033827Y-45968310D01*
X156654896Y-45711055D01*
X156790254Y-45413059D01*
X155600400Y-44223205D01*
X154410546Y-45413059D01*
X109347000Y-45413059D01*
X109347000Y-43707480D01*
X153656334Y-43707480D01*
X153675690Y-44477027D01*
X153932945Y-45098096D01*
X154230941Y-45233454D01*
X155420795Y-44043600D01*
X155780005Y-44043600D01*
X156969859Y-45233454D01*
X157267855Y-45098096D01*
X157544466Y-44379720D01*
X157525110Y-43610173D01*
X157267855Y-42989104D01*
X156969859Y-42853746D01*
X155780005Y-44043600D01*
X155420795Y-44043600D01*
X154230941Y-42853746D01*
X153932945Y-42989104D01*
X153656334Y-43707480D01*
X109347000Y-43707480D01*
X109347000Y-42674141D01*
X154410546Y-42674141D01*
X155600400Y-43863995D01*
X156720795Y-42743600D01*
X158652960Y-42743600D01*
X158652960Y-45343600D01*
X158702243Y-45591365D01*
X158842591Y-45801409D01*
X159052635Y-45941757D01*
X159300400Y-45991040D01*
X161900400Y-45991040D01*
X162148165Y-45941757D01*
X162358209Y-45801409D01*
X162498557Y-45591365D01*
X162547840Y-45343600D01*
X162547840Y-42743600D01*
X162498557Y-42495835D01*
X162358209Y-42285791D01*
X162148165Y-42145443D01*
X161900400Y-42096160D01*
X159300400Y-42096160D01*
X159052635Y-42145443D01*
X158842591Y-42285791D01*
X158702243Y-42495835D01*
X158652960Y-42743600D01*
X156720795Y-42743600D01*
X156790254Y-42674141D01*
X156654896Y-42376145D01*
X155936520Y-42099534D01*
X155166973Y-42118890D01*
X154545904Y-42376145D01*
X154410546Y-42674141D01*
X109347000Y-42674141D01*
X109347000Y-39242647D01*
X124619991Y-39200024D01*
X124422191Y-39332191D01*
X124281843Y-39542235D01*
X124232560Y-39790000D01*
X124232560Y-41490000D01*
X124281843Y-41737765D01*
X124422191Y-41947809D01*
X124632235Y-42088157D01*
X124880000Y-42137440D01*
X126580000Y-42137440D01*
X126827765Y-42088157D01*
X127037809Y-41947809D01*
X127178157Y-41737765D01*
X127187184Y-41692381D01*
X127199375Y-41710625D01*
X127690582Y-42038839D01*
X128123744Y-42125000D01*
X128416256Y-42125000D01*
X128849418Y-42038839D01*
X129340625Y-41710625D01*
X129540000Y-41412239D01*
X129739375Y-41710625D01*
X130230582Y-42038839D01*
X130663744Y-42125000D01*
X130956256Y-42125000D01*
X131389418Y-42038839D01*
X131880625Y-41710625D01*
X132080000Y-41412239D01*
X132279375Y-41710625D01*
X132770582Y-42038839D01*
X133203744Y-42125000D01*
X133496256Y-42125000D01*
X133929418Y-42038839D01*
X134420625Y-41710625D01*
X134620000Y-41412239D01*
X134819375Y-41710625D01*
X135310582Y-42038839D01*
X135743744Y-42125000D01*
X136036256Y-42125000D01*
X136469418Y-42038839D01*
X136960625Y-41710625D01*
X137160000Y-41412239D01*
X137359375Y-41710625D01*
X137850582Y-42038839D01*
X138283744Y-42125000D01*
X138576256Y-42125000D01*
X139009418Y-42038839D01*
X139500625Y-41710625D01*
X139700000Y-41412239D01*
X139899375Y-41710625D01*
X140390582Y-42038839D01*
X140823744Y-42125000D01*
X141116256Y-42125000D01*
X141549418Y-42038839D01*
X142040625Y-41710625D01*
X142240000Y-41412239D01*
X142439375Y-41710625D01*
X142930582Y-42038839D01*
X143363744Y-42125000D01*
X143656256Y-42125000D01*
X144089418Y-42038839D01*
X144580625Y-41710625D01*
X144780000Y-41412239D01*
X144979375Y-41710625D01*
X145470582Y-42038839D01*
X145903744Y-42125000D01*
X146196256Y-42125000D01*
X146629418Y-42038839D01*
X147120625Y-41710625D01*
X147448839Y-41219418D01*
X147564092Y-40640000D01*
X147448839Y-40060582D01*
X147120625Y-39569375D01*
X146629418Y-39241161D01*
X146196256Y-39155000D01*
X145903744Y-39155000D01*
X145470582Y-39241161D01*
X144979375Y-39569375D01*
X144780000Y-39867761D01*
X144580625Y-39569375D01*
X144089418Y-39241161D01*
X143656256Y-39155000D01*
X143363744Y-39155000D01*
X142930582Y-39241161D01*
X142439375Y-39569375D01*
X142240000Y-39867761D01*
X142040625Y-39569375D01*
X141549418Y-39241161D01*
X141116256Y-39155000D01*
X140823744Y-39155000D01*
X140390582Y-39241161D01*
X139899375Y-39569375D01*
X139700000Y-39867761D01*
X139500625Y-39569375D01*
X139009418Y-39241161D01*
X138606383Y-39160993D01*
X163702679Y-39090956D01*
X163550918Y-99542600D01*
G36*
X151432720Y-78474431D02*
X151813126Y-78632000D01*
X152224874Y-78632000D01*
X152605280Y-78474431D01*
X152781000Y-78298711D01*
X152781000Y-84074000D01*
X152829336Y-84317004D01*
X152966987Y-84523013D01*
X153172996Y-84660664D01*
X153416000Y-84709000D01*
X157869000Y-84709000D01*
X157869000Y-84873868D01*
X156120869Y-86622000D01*
X143367783Y-86622000D01*
X143256000Y-86599765D01*
X143144217Y-86622000D01*
X142813145Y-86687854D01*
X142437711Y-86938711D01*
X142374389Y-87033479D01*
X139737869Y-89670000D01*
X138122131Y-89670000D01*
X139661521Y-88130611D01*
X139756289Y-88067289D01*
X140007146Y-87691855D01*
X140073000Y-87360783D01*
X140095235Y-87249000D01*
X140073000Y-87137217D01*
X140073000Y-85355479D01*
X143914099Y-85369396D01*
X144159404Y-85321064D01*
X144365413Y-85183413D01*
X144503064Y-84977404D01*
X144551400Y-84734400D01*
X144551400Y-83083961D01*
X144686690Y-83140000D01*
X145002250Y-83140000D01*
X145161000Y-82981250D01*
X145161000Y-82194500D01*
X145141000Y-82194500D01*
X145141000Y-81940500D01*
X145161000Y-81940500D01*
X145161000Y-81920500D01*
X145415000Y-81920500D01*
X145415000Y-81940500D01*
X145435000Y-81940500D01*
X145435000Y-82194500D01*
X145415000Y-82194500D01*
X145415000Y-82981250D01*
X145573750Y-83140000D01*
X145889310Y-83140000D01*
X146122699Y-83043327D01*
X146301327Y-82864698D01*
X146398000Y-82631309D01*
X146398000Y-82520681D01*
X146442569Y-82628280D01*
X146733720Y-82919431D01*
X147114126Y-83077000D01*
X147525874Y-83077000D01*
X147906280Y-82919431D01*
X148197431Y-82628280D01*
X148355000Y-82247874D01*
X148355000Y-81836126D01*
X148197431Y-81455720D01*
X148080000Y-81338289D01*
X148080000Y-81066396D01*
X148188739Y-80993739D01*
X148376505Y-80712727D01*
X148388865Y-80650587D01*
X148467191Y-80767809D01*
X148677235Y-80908157D01*
X148925000Y-80957440D01*
X150475000Y-80957440D01*
X150722765Y-80908157D01*
X150932809Y-80767809D01*
X151073157Y-80557765D01*
X151122440Y-80310000D01*
X151122440Y-79710000D01*
X151073157Y-79462235D01*
X151014868Y-79375000D01*
X151073157Y-79287765D01*
X151122440Y-79040000D01*
X151122440Y-78440000D01*
X151080669Y-78230000D01*
X151188289Y-78230000D01*
X151432720Y-78474431D01*
X151432720Y-78474431D01*
G37*
X151432720Y-78474431D02*
X151813126Y-78632000D01*
X152224874Y-78632000D01*
X152605280Y-78474431D01*
X152781000Y-78298711D01*
X152781000Y-84074000D01*
X152829336Y-84317004D01*
X152966987Y-84523013D01*
X153172996Y-84660664D01*
X153416000Y-84709000D01*
X157869000Y-84709000D01*
X157869000Y-84873868D01*
X156120869Y-86622000D01*
X143367783Y-86622000D01*
X143256000Y-86599765D01*
X143144217Y-86622000D01*
X142813145Y-86687854D01*
X142437711Y-86938711D01*
X142374389Y-87033479D01*
X139737869Y-89670000D01*
X138122131Y-89670000D01*
X139661521Y-88130611D01*
X139756289Y-88067289D01*
X140007146Y-87691855D01*
X140073000Y-87360783D01*
X140095235Y-87249000D01*
X140073000Y-87137217D01*
X140073000Y-85355479D01*
X143914099Y-85369396D01*
X144159404Y-85321064D01*
X144365413Y-85183413D01*
X144503064Y-84977404D01*
X144551400Y-84734400D01*
X144551400Y-83083961D01*
X144686690Y-83140000D01*
X145002250Y-83140000D01*
X145161000Y-82981250D01*
X145161000Y-82194500D01*
X145141000Y-82194500D01*
X145141000Y-81940500D01*
X145161000Y-81940500D01*
X145161000Y-81920500D01*
X145415000Y-81920500D01*
X145415000Y-81940500D01*
X145435000Y-81940500D01*
X145435000Y-82194500D01*
X145415000Y-82194500D01*
X145415000Y-82981250D01*
X145573750Y-83140000D01*
X145889310Y-83140000D01*
X146122699Y-83043327D01*
X146301327Y-82864698D01*
X146398000Y-82631309D01*
X146398000Y-82520681D01*
X146442569Y-82628280D01*
X146733720Y-82919431D01*
X147114126Y-83077000D01*
X147525874Y-83077000D01*
X147906280Y-82919431D01*
X148197431Y-82628280D01*
X148355000Y-82247874D01*
X148355000Y-81836126D01*
X148197431Y-81455720D01*
X148080000Y-81338289D01*
X148080000Y-81066396D01*
X148188739Y-80993739D01*
X148376505Y-80712727D01*
X148388865Y-80650587D01*
X148467191Y-80767809D01*
X148677235Y-80908157D01*
X148925000Y-80957440D01*
X150475000Y-80957440D01*
X150722765Y-80908157D01*
X150932809Y-80767809D01*
X151073157Y-80557765D01*
X151122440Y-80310000D01*
X151122440Y-79710000D01*
X151073157Y-79462235D01*
X151014868Y-79375000D01*
X151073157Y-79287765D01*
X151122440Y-79040000D01*
X151122440Y-78440000D01*
X151080669Y-78230000D01*
X151188289Y-78230000D01*
X151432720Y-78474431D01*
G04 #@! TD*
M02*
