G04 #@! TF.GenerationSoftware,KiCad,Pcbnew,(5.0.1)-3*
G04 #@! TF.CreationDate,2021-02-08T17:12:00-05:00*
G04 #@! TF.ProjectId,fpga_esc,667067615F6573632E6B696361645F70,rev?*
G04 #@! TF.SameCoordinates,Original*
G04 #@! TF.FileFunction,Paste,Bot*
G04 #@! TF.FilePolarity,Positive*
%FSLAX46Y46*%
G04 Gerber Fmt 4.6, Leading zero omitted, Abs format (unit mm)*
G04 Created by KiCad (PCBNEW (5.0.1)-3) date 2021-02-08 5:12:00 PM*
%MOMM*%
%LPD*%
G01*
G04 APERTURE LIST*
%ADD10C,0.100000*%
%ADD11C,0.875000*%
%ADD12R,1.550000X0.600000*%
%ADD13R,3.050000X2.750000*%
%ADD14R,2.200000X1.200000*%
G04 APERTURE END LIST*
D10*
G04 #@! TO.C,C10*
G36*
X113905191Y-75726053D02*
X113926426Y-75729203D01*
X113947250Y-75734419D01*
X113967462Y-75741651D01*
X113986868Y-75750830D01*
X114005281Y-75761866D01*
X114022524Y-75774654D01*
X114038430Y-75789070D01*
X114052846Y-75804976D01*
X114065634Y-75822219D01*
X114076670Y-75840632D01*
X114085849Y-75860038D01*
X114093081Y-75880250D01*
X114098297Y-75901074D01*
X114101447Y-75922309D01*
X114102500Y-75943750D01*
X114102500Y-76456250D01*
X114101447Y-76477691D01*
X114098297Y-76498926D01*
X114093081Y-76519750D01*
X114085849Y-76539962D01*
X114076670Y-76559368D01*
X114065634Y-76577781D01*
X114052846Y-76595024D01*
X114038430Y-76610930D01*
X114022524Y-76625346D01*
X114005281Y-76638134D01*
X113986868Y-76649170D01*
X113967462Y-76658349D01*
X113947250Y-76665581D01*
X113926426Y-76670797D01*
X113905191Y-76673947D01*
X113883750Y-76675000D01*
X113446250Y-76675000D01*
X113424809Y-76673947D01*
X113403574Y-76670797D01*
X113382750Y-76665581D01*
X113362538Y-76658349D01*
X113343132Y-76649170D01*
X113324719Y-76638134D01*
X113307476Y-76625346D01*
X113291570Y-76610930D01*
X113277154Y-76595024D01*
X113264366Y-76577781D01*
X113253330Y-76559368D01*
X113244151Y-76539962D01*
X113236919Y-76519750D01*
X113231703Y-76498926D01*
X113228553Y-76477691D01*
X113227500Y-76456250D01*
X113227500Y-75943750D01*
X113228553Y-75922309D01*
X113231703Y-75901074D01*
X113236919Y-75880250D01*
X113244151Y-75860038D01*
X113253330Y-75840632D01*
X113264366Y-75822219D01*
X113277154Y-75804976D01*
X113291570Y-75789070D01*
X113307476Y-75774654D01*
X113324719Y-75761866D01*
X113343132Y-75750830D01*
X113362538Y-75741651D01*
X113382750Y-75734419D01*
X113403574Y-75729203D01*
X113424809Y-75726053D01*
X113446250Y-75725000D01*
X113883750Y-75725000D01*
X113905191Y-75726053D01*
X113905191Y-75726053D01*
G37*
D11*
X113665000Y-76200000D03*
D10*
G36*
X112330191Y-75726053D02*
X112351426Y-75729203D01*
X112372250Y-75734419D01*
X112392462Y-75741651D01*
X112411868Y-75750830D01*
X112430281Y-75761866D01*
X112447524Y-75774654D01*
X112463430Y-75789070D01*
X112477846Y-75804976D01*
X112490634Y-75822219D01*
X112501670Y-75840632D01*
X112510849Y-75860038D01*
X112518081Y-75880250D01*
X112523297Y-75901074D01*
X112526447Y-75922309D01*
X112527500Y-75943750D01*
X112527500Y-76456250D01*
X112526447Y-76477691D01*
X112523297Y-76498926D01*
X112518081Y-76519750D01*
X112510849Y-76539962D01*
X112501670Y-76559368D01*
X112490634Y-76577781D01*
X112477846Y-76595024D01*
X112463430Y-76610930D01*
X112447524Y-76625346D01*
X112430281Y-76638134D01*
X112411868Y-76649170D01*
X112392462Y-76658349D01*
X112372250Y-76665581D01*
X112351426Y-76670797D01*
X112330191Y-76673947D01*
X112308750Y-76675000D01*
X111871250Y-76675000D01*
X111849809Y-76673947D01*
X111828574Y-76670797D01*
X111807750Y-76665581D01*
X111787538Y-76658349D01*
X111768132Y-76649170D01*
X111749719Y-76638134D01*
X111732476Y-76625346D01*
X111716570Y-76610930D01*
X111702154Y-76595024D01*
X111689366Y-76577781D01*
X111678330Y-76559368D01*
X111669151Y-76539962D01*
X111661919Y-76519750D01*
X111656703Y-76498926D01*
X111653553Y-76477691D01*
X111652500Y-76456250D01*
X111652500Y-75943750D01*
X111653553Y-75922309D01*
X111656703Y-75901074D01*
X111661919Y-75880250D01*
X111669151Y-75860038D01*
X111678330Y-75840632D01*
X111689366Y-75822219D01*
X111702154Y-75804976D01*
X111716570Y-75789070D01*
X111732476Y-75774654D01*
X111749719Y-75761866D01*
X111768132Y-75750830D01*
X111787538Y-75741651D01*
X111807750Y-75734419D01*
X111828574Y-75729203D01*
X111849809Y-75726053D01*
X111871250Y-75725000D01*
X112308750Y-75725000D01*
X112330191Y-75726053D01*
X112330191Y-75726053D01*
G37*
D11*
X112090000Y-76200000D03*
G04 #@! TD*
D10*
G04 #@! TO.C,C11*
G36*
X147712691Y-75726053D02*
X147733926Y-75729203D01*
X147754750Y-75734419D01*
X147774962Y-75741651D01*
X147794368Y-75750830D01*
X147812781Y-75761866D01*
X147830024Y-75774654D01*
X147845930Y-75789070D01*
X147860346Y-75804976D01*
X147873134Y-75822219D01*
X147884170Y-75840632D01*
X147893349Y-75860038D01*
X147900581Y-75880250D01*
X147905797Y-75901074D01*
X147908947Y-75922309D01*
X147910000Y-75943750D01*
X147910000Y-76456250D01*
X147908947Y-76477691D01*
X147905797Y-76498926D01*
X147900581Y-76519750D01*
X147893349Y-76539962D01*
X147884170Y-76559368D01*
X147873134Y-76577781D01*
X147860346Y-76595024D01*
X147845930Y-76610930D01*
X147830024Y-76625346D01*
X147812781Y-76638134D01*
X147794368Y-76649170D01*
X147774962Y-76658349D01*
X147754750Y-76665581D01*
X147733926Y-76670797D01*
X147712691Y-76673947D01*
X147691250Y-76675000D01*
X147253750Y-76675000D01*
X147232309Y-76673947D01*
X147211074Y-76670797D01*
X147190250Y-76665581D01*
X147170038Y-76658349D01*
X147150632Y-76649170D01*
X147132219Y-76638134D01*
X147114976Y-76625346D01*
X147099070Y-76610930D01*
X147084654Y-76595024D01*
X147071866Y-76577781D01*
X147060830Y-76559368D01*
X147051651Y-76539962D01*
X147044419Y-76519750D01*
X147039203Y-76498926D01*
X147036053Y-76477691D01*
X147035000Y-76456250D01*
X147035000Y-75943750D01*
X147036053Y-75922309D01*
X147039203Y-75901074D01*
X147044419Y-75880250D01*
X147051651Y-75860038D01*
X147060830Y-75840632D01*
X147071866Y-75822219D01*
X147084654Y-75804976D01*
X147099070Y-75789070D01*
X147114976Y-75774654D01*
X147132219Y-75761866D01*
X147150632Y-75750830D01*
X147170038Y-75741651D01*
X147190250Y-75734419D01*
X147211074Y-75729203D01*
X147232309Y-75726053D01*
X147253750Y-75725000D01*
X147691250Y-75725000D01*
X147712691Y-75726053D01*
X147712691Y-75726053D01*
G37*
D11*
X147472500Y-76200000D03*
D10*
G36*
X146137691Y-75726053D02*
X146158926Y-75729203D01*
X146179750Y-75734419D01*
X146199962Y-75741651D01*
X146219368Y-75750830D01*
X146237781Y-75761866D01*
X146255024Y-75774654D01*
X146270930Y-75789070D01*
X146285346Y-75804976D01*
X146298134Y-75822219D01*
X146309170Y-75840632D01*
X146318349Y-75860038D01*
X146325581Y-75880250D01*
X146330797Y-75901074D01*
X146333947Y-75922309D01*
X146335000Y-75943750D01*
X146335000Y-76456250D01*
X146333947Y-76477691D01*
X146330797Y-76498926D01*
X146325581Y-76519750D01*
X146318349Y-76539962D01*
X146309170Y-76559368D01*
X146298134Y-76577781D01*
X146285346Y-76595024D01*
X146270930Y-76610930D01*
X146255024Y-76625346D01*
X146237781Y-76638134D01*
X146219368Y-76649170D01*
X146199962Y-76658349D01*
X146179750Y-76665581D01*
X146158926Y-76670797D01*
X146137691Y-76673947D01*
X146116250Y-76675000D01*
X145678750Y-76675000D01*
X145657309Y-76673947D01*
X145636074Y-76670797D01*
X145615250Y-76665581D01*
X145595038Y-76658349D01*
X145575632Y-76649170D01*
X145557219Y-76638134D01*
X145539976Y-76625346D01*
X145524070Y-76610930D01*
X145509654Y-76595024D01*
X145496866Y-76577781D01*
X145485830Y-76559368D01*
X145476651Y-76539962D01*
X145469419Y-76519750D01*
X145464203Y-76498926D01*
X145461053Y-76477691D01*
X145460000Y-76456250D01*
X145460000Y-75943750D01*
X145461053Y-75922309D01*
X145464203Y-75901074D01*
X145469419Y-75880250D01*
X145476651Y-75860038D01*
X145485830Y-75840632D01*
X145496866Y-75822219D01*
X145509654Y-75804976D01*
X145524070Y-75789070D01*
X145539976Y-75774654D01*
X145557219Y-75761866D01*
X145575632Y-75750830D01*
X145595038Y-75741651D01*
X145615250Y-75734419D01*
X145636074Y-75729203D01*
X145657309Y-75726053D01*
X145678750Y-75725000D01*
X146116250Y-75725000D01*
X146137691Y-75726053D01*
X146137691Y-75726053D01*
G37*
D11*
X145897500Y-76200000D03*
G04 #@! TD*
D10*
G04 #@! TO.C,C12*
G36*
X129780191Y-75726053D02*
X129801426Y-75729203D01*
X129822250Y-75734419D01*
X129842462Y-75741651D01*
X129861868Y-75750830D01*
X129880281Y-75761866D01*
X129897524Y-75774654D01*
X129913430Y-75789070D01*
X129927846Y-75804976D01*
X129940634Y-75822219D01*
X129951670Y-75840632D01*
X129960849Y-75860038D01*
X129968081Y-75880250D01*
X129973297Y-75901074D01*
X129976447Y-75922309D01*
X129977500Y-75943750D01*
X129977500Y-76456250D01*
X129976447Y-76477691D01*
X129973297Y-76498926D01*
X129968081Y-76519750D01*
X129960849Y-76539962D01*
X129951670Y-76559368D01*
X129940634Y-76577781D01*
X129927846Y-76595024D01*
X129913430Y-76610930D01*
X129897524Y-76625346D01*
X129880281Y-76638134D01*
X129861868Y-76649170D01*
X129842462Y-76658349D01*
X129822250Y-76665581D01*
X129801426Y-76670797D01*
X129780191Y-76673947D01*
X129758750Y-76675000D01*
X129321250Y-76675000D01*
X129299809Y-76673947D01*
X129278574Y-76670797D01*
X129257750Y-76665581D01*
X129237538Y-76658349D01*
X129218132Y-76649170D01*
X129199719Y-76638134D01*
X129182476Y-76625346D01*
X129166570Y-76610930D01*
X129152154Y-76595024D01*
X129139366Y-76577781D01*
X129128330Y-76559368D01*
X129119151Y-76539962D01*
X129111919Y-76519750D01*
X129106703Y-76498926D01*
X129103553Y-76477691D01*
X129102500Y-76456250D01*
X129102500Y-75943750D01*
X129103553Y-75922309D01*
X129106703Y-75901074D01*
X129111919Y-75880250D01*
X129119151Y-75860038D01*
X129128330Y-75840632D01*
X129139366Y-75822219D01*
X129152154Y-75804976D01*
X129166570Y-75789070D01*
X129182476Y-75774654D01*
X129199719Y-75761866D01*
X129218132Y-75750830D01*
X129237538Y-75741651D01*
X129257750Y-75734419D01*
X129278574Y-75729203D01*
X129299809Y-75726053D01*
X129321250Y-75725000D01*
X129758750Y-75725000D01*
X129780191Y-75726053D01*
X129780191Y-75726053D01*
G37*
D11*
X129540000Y-76200000D03*
D10*
G36*
X131355191Y-75726053D02*
X131376426Y-75729203D01*
X131397250Y-75734419D01*
X131417462Y-75741651D01*
X131436868Y-75750830D01*
X131455281Y-75761866D01*
X131472524Y-75774654D01*
X131488430Y-75789070D01*
X131502846Y-75804976D01*
X131515634Y-75822219D01*
X131526670Y-75840632D01*
X131535849Y-75860038D01*
X131543081Y-75880250D01*
X131548297Y-75901074D01*
X131551447Y-75922309D01*
X131552500Y-75943750D01*
X131552500Y-76456250D01*
X131551447Y-76477691D01*
X131548297Y-76498926D01*
X131543081Y-76519750D01*
X131535849Y-76539962D01*
X131526670Y-76559368D01*
X131515634Y-76577781D01*
X131502846Y-76595024D01*
X131488430Y-76610930D01*
X131472524Y-76625346D01*
X131455281Y-76638134D01*
X131436868Y-76649170D01*
X131417462Y-76658349D01*
X131397250Y-76665581D01*
X131376426Y-76670797D01*
X131355191Y-76673947D01*
X131333750Y-76675000D01*
X130896250Y-76675000D01*
X130874809Y-76673947D01*
X130853574Y-76670797D01*
X130832750Y-76665581D01*
X130812538Y-76658349D01*
X130793132Y-76649170D01*
X130774719Y-76638134D01*
X130757476Y-76625346D01*
X130741570Y-76610930D01*
X130727154Y-76595024D01*
X130714366Y-76577781D01*
X130703330Y-76559368D01*
X130694151Y-76539962D01*
X130686919Y-76519750D01*
X130681703Y-76498926D01*
X130678553Y-76477691D01*
X130677500Y-76456250D01*
X130677500Y-75943750D01*
X130678553Y-75922309D01*
X130681703Y-75901074D01*
X130686919Y-75880250D01*
X130694151Y-75860038D01*
X130703330Y-75840632D01*
X130714366Y-75822219D01*
X130727154Y-75804976D01*
X130741570Y-75789070D01*
X130757476Y-75774654D01*
X130774719Y-75761866D01*
X130793132Y-75750830D01*
X130812538Y-75741651D01*
X130832750Y-75734419D01*
X130853574Y-75729203D01*
X130874809Y-75726053D01*
X130896250Y-75725000D01*
X131333750Y-75725000D01*
X131355191Y-75726053D01*
X131355191Y-75726053D01*
G37*
D11*
X131115000Y-76200000D03*
G04 #@! TD*
D10*
G04 #@! TO.C,C13*
G36*
X129182691Y-81478553D02*
X129203926Y-81481703D01*
X129224750Y-81486919D01*
X129244962Y-81494151D01*
X129264368Y-81503330D01*
X129282781Y-81514366D01*
X129300024Y-81527154D01*
X129315930Y-81541570D01*
X129330346Y-81557476D01*
X129343134Y-81574719D01*
X129354170Y-81593132D01*
X129363349Y-81612538D01*
X129370581Y-81632750D01*
X129375797Y-81653574D01*
X129378947Y-81674809D01*
X129380000Y-81696250D01*
X129380000Y-82133750D01*
X129378947Y-82155191D01*
X129375797Y-82176426D01*
X129370581Y-82197250D01*
X129363349Y-82217462D01*
X129354170Y-82236868D01*
X129343134Y-82255281D01*
X129330346Y-82272524D01*
X129315930Y-82288430D01*
X129300024Y-82302846D01*
X129282781Y-82315634D01*
X129264368Y-82326670D01*
X129244962Y-82335849D01*
X129224750Y-82343081D01*
X129203926Y-82348297D01*
X129182691Y-82351447D01*
X129161250Y-82352500D01*
X128648750Y-82352500D01*
X128627309Y-82351447D01*
X128606074Y-82348297D01*
X128585250Y-82343081D01*
X128565038Y-82335849D01*
X128545632Y-82326670D01*
X128527219Y-82315634D01*
X128509976Y-82302846D01*
X128494070Y-82288430D01*
X128479654Y-82272524D01*
X128466866Y-82255281D01*
X128455830Y-82236868D01*
X128446651Y-82217462D01*
X128439419Y-82197250D01*
X128434203Y-82176426D01*
X128431053Y-82155191D01*
X128430000Y-82133750D01*
X128430000Y-81696250D01*
X128431053Y-81674809D01*
X128434203Y-81653574D01*
X128439419Y-81632750D01*
X128446651Y-81612538D01*
X128455830Y-81593132D01*
X128466866Y-81574719D01*
X128479654Y-81557476D01*
X128494070Y-81541570D01*
X128509976Y-81527154D01*
X128527219Y-81514366D01*
X128545632Y-81503330D01*
X128565038Y-81494151D01*
X128585250Y-81486919D01*
X128606074Y-81481703D01*
X128627309Y-81478553D01*
X128648750Y-81477500D01*
X129161250Y-81477500D01*
X129182691Y-81478553D01*
X129182691Y-81478553D01*
G37*
D11*
X128905000Y-81915000D03*
D10*
G36*
X129182691Y-79903553D02*
X129203926Y-79906703D01*
X129224750Y-79911919D01*
X129244962Y-79919151D01*
X129264368Y-79928330D01*
X129282781Y-79939366D01*
X129300024Y-79952154D01*
X129315930Y-79966570D01*
X129330346Y-79982476D01*
X129343134Y-79999719D01*
X129354170Y-80018132D01*
X129363349Y-80037538D01*
X129370581Y-80057750D01*
X129375797Y-80078574D01*
X129378947Y-80099809D01*
X129380000Y-80121250D01*
X129380000Y-80558750D01*
X129378947Y-80580191D01*
X129375797Y-80601426D01*
X129370581Y-80622250D01*
X129363349Y-80642462D01*
X129354170Y-80661868D01*
X129343134Y-80680281D01*
X129330346Y-80697524D01*
X129315930Y-80713430D01*
X129300024Y-80727846D01*
X129282781Y-80740634D01*
X129264368Y-80751670D01*
X129244962Y-80760849D01*
X129224750Y-80768081D01*
X129203926Y-80773297D01*
X129182691Y-80776447D01*
X129161250Y-80777500D01*
X128648750Y-80777500D01*
X128627309Y-80776447D01*
X128606074Y-80773297D01*
X128585250Y-80768081D01*
X128565038Y-80760849D01*
X128545632Y-80751670D01*
X128527219Y-80740634D01*
X128509976Y-80727846D01*
X128494070Y-80713430D01*
X128479654Y-80697524D01*
X128466866Y-80680281D01*
X128455830Y-80661868D01*
X128446651Y-80642462D01*
X128439419Y-80622250D01*
X128434203Y-80601426D01*
X128431053Y-80580191D01*
X128430000Y-80558750D01*
X128430000Y-80121250D01*
X128431053Y-80099809D01*
X128434203Y-80078574D01*
X128439419Y-80057750D01*
X128446651Y-80037538D01*
X128455830Y-80018132D01*
X128466866Y-79999719D01*
X128479654Y-79982476D01*
X128494070Y-79966570D01*
X128509976Y-79952154D01*
X128527219Y-79939366D01*
X128545632Y-79928330D01*
X128565038Y-79919151D01*
X128585250Y-79911919D01*
X128606074Y-79906703D01*
X128627309Y-79903553D01*
X128648750Y-79902500D01*
X129161250Y-79902500D01*
X129182691Y-79903553D01*
X129182691Y-79903553D01*
G37*
D11*
X128905000Y-80340000D03*
G04 #@! TD*
D10*
G04 #@! TO.C,C14*
G36*
X112037691Y-79903553D02*
X112058926Y-79906703D01*
X112079750Y-79911919D01*
X112099962Y-79919151D01*
X112119368Y-79928330D01*
X112137781Y-79939366D01*
X112155024Y-79952154D01*
X112170930Y-79966570D01*
X112185346Y-79982476D01*
X112198134Y-79999719D01*
X112209170Y-80018132D01*
X112218349Y-80037538D01*
X112225581Y-80057750D01*
X112230797Y-80078574D01*
X112233947Y-80099809D01*
X112235000Y-80121250D01*
X112235000Y-80558750D01*
X112233947Y-80580191D01*
X112230797Y-80601426D01*
X112225581Y-80622250D01*
X112218349Y-80642462D01*
X112209170Y-80661868D01*
X112198134Y-80680281D01*
X112185346Y-80697524D01*
X112170930Y-80713430D01*
X112155024Y-80727846D01*
X112137781Y-80740634D01*
X112119368Y-80751670D01*
X112099962Y-80760849D01*
X112079750Y-80768081D01*
X112058926Y-80773297D01*
X112037691Y-80776447D01*
X112016250Y-80777500D01*
X111503750Y-80777500D01*
X111482309Y-80776447D01*
X111461074Y-80773297D01*
X111440250Y-80768081D01*
X111420038Y-80760849D01*
X111400632Y-80751670D01*
X111382219Y-80740634D01*
X111364976Y-80727846D01*
X111349070Y-80713430D01*
X111334654Y-80697524D01*
X111321866Y-80680281D01*
X111310830Y-80661868D01*
X111301651Y-80642462D01*
X111294419Y-80622250D01*
X111289203Y-80601426D01*
X111286053Y-80580191D01*
X111285000Y-80558750D01*
X111285000Y-80121250D01*
X111286053Y-80099809D01*
X111289203Y-80078574D01*
X111294419Y-80057750D01*
X111301651Y-80037538D01*
X111310830Y-80018132D01*
X111321866Y-79999719D01*
X111334654Y-79982476D01*
X111349070Y-79966570D01*
X111364976Y-79952154D01*
X111382219Y-79939366D01*
X111400632Y-79928330D01*
X111420038Y-79919151D01*
X111440250Y-79911919D01*
X111461074Y-79906703D01*
X111482309Y-79903553D01*
X111503750Y-79902500D01*
X112016250Y-79902500D01*
X112037691Y-79903553D01*
X112037691Y-79903553D01*
G37*
D11*
X111760000Y-80340000D03*
D10*
G36*
X112037691Y-81478553D02*
X112058926Y-81481703D01*
X112079750Y-81486919D01*
X112099962Y-81494151D01*
X112119368Y-81503330D01*
X112137781Y-81514366D01*
X112155024Y-81527154D01*
X112170930Y-81541570D01*
X112185346Y-81557476D01*
X112198134Y-81574719D01*
X112209170Y-81593132D01*
X112218349Y-81612538D01*
X112225581Y-81632750D01*
X112230797Y-81653574D01*
X112233947Y-81674809D01*
X112235000Y-81696250D01*
X112235000Y-82133750D01*
X112233947Y-82155191D01*
X112230797Y-82176426D01*
X112225581Y-82197250D01*
X112218349Y-82217462D01*
X112209170Y-82236868D01*
X112198134Y-82255281D01*
X112185346Y-82272524D01*
X112170930Y-82288430D01*
X112155024Y-82302846D01*
X112137781Y-82315634D01*
X112119368Y-82326670D01*
X112099962Y-82335849D01*
X112079750Y-82343081D01*
X112058926Y-82348297D01*
X112037691Y-82351447D01*
X112016250Y-82352500D01*
X111503750Y-82352500D01*
X111482309Y-82351447D01*
X111461074Y-82348297D01*
X111440250Y-82343081D01*
X111420038Y-82335849D01*
X111400632Y-82326670D01*
X111382219Y-82315634D01*
X111364976Y-82302846D01*
X111349070Y-82288430D01*
X111334654Y-82272524D01*
X111321866Y-82255281D01*
X111310830Y-82236868D01*
X111301651Y-82217462D01*
X111294419Y-82197250D01*
X111289203Y-82176426D01*
X111286053Y-82155191D01*
X111285000Y-82133750D01*
X111285000Y-81696250D01*
X111286053Y-81674809D01*
X111289203Y-81653574D01*
X111294419Y-81632750D01*
X111301651Y-81612538D01*
X111310830Y-81593132D01*
X111321866Y-81574719D01*
X111334654Y-81557476D01*
X111349070Y-81541570D01*
X111364976Y-81527154D01*
X111382219Y-81514366D01*
X111400632Y-81503330D01*
X111420038Y-81494151D01*
X111440250Y-81486919D01*
X111461074Y-81481703D01*
X111482309Y-81478553D01*
X111503750Y-81477500D01*
X112016250Y-81477500D01*
X112037691Y-81478553D01*
X112037691Y-81478553D01*
G37*
D11*
X111760000Y-81915000D03*
G04 #@! TD*
D10*
G04 #@! TO.C,C15*
G36*
X145565691Y-81631053D02*
X145586926Y-81634203D01*
X145607750Y-81639419D01*
X145627962Y-81646651D01*
X145647368Y-81655830D01*
X145665781Y-81666866D01*
X145683024Y-81679654D01*
X145698930Y-81694070D01*
X145713346Y-81709976D01*
X145726134Y-81727219D01*
X145737170Y-81745632D01*
X145746349Y-81765038D01*
X145753581Y-81785250D01*
X145758797Y-81806074D01*
X145761947Y-81827309D01*
X145763000Y-81848750D01*
X145763000Y-82286250D01*
X145761947Y-82307691D01*
X145758797Y-82328926D01*
X145753581Y-82349750D01*
X145746349Y-82369962D01*
X145737170Y-82389368D01*
X145726134Y-82407781D01*
X145713346Y-82425024D01*
X145698930Y-82440930D01*
X145683024Y-82455346D01*
X145665781Y-82468134D01*
X145647368Y-82479170D01*
X145627962Y-82488349D01*
X145607750Y-82495581D01*
X145586926Y-82500797D01*
X145565691Y-82503947D01*
X145544250Y-82505000D01*
X145031750Y-82505000D01*
X145010309Y-82503947D01*
X144989074Y-82500797D01*
X144968250Y-82495581D01*
X144948038Y-82488349D01*
X144928632Y-82479170D01*
X144910219Y-82468134D01*
X144892976Y-82455346D01*
X144877070Y-82440930D01*
X144862654Y-82425024D01*
X144849866Y-82407781D01*
X144838830Y-82389368D01*
X144829651Y-82369962D01*
X144822419Y-82349750D01*
X144817203Y-82328926D01*
X144814053Y-82307691D01*
X144813000Y-82286250D01*
X144813000Y-81848750D01*
X144814053Y-81827309D01*
X144817203Y-81806074D01*
X144822419Y-81785250D01*
X144829651Y-81765038D01*
X144838830Y-81745632D01*
X144849866Y-81727219D01*
X144862654Y-81709976D01*
X144877070Y-81694070D01*
X144892976Y-81679654D01*
X144910219Y-81666866D01*
X144928632Y-81655830D01*
X144948038Y-81646651D01*
X144968250Y-81639419D01*
X144989074Y-81634203D01*
X145010309Y-81631053D01*
X145031750Y-81630000D01*
X145544250Y-81630000D01*
X145565691Y-81631053D01*
X145565691Y-81631053D01*
G37*
D11*
X145288000Y-82067500D03*
D10*
G36*
X145565691Y-80056053D02*
X145586926Y-80059203D01*
X145607750Y-80064419D01*
X145627962Y-80071651D01*
X145647368Y-80080830D01*
X145665781Y-80091866D01*
X145683024Y-80104654D01*
X145698930Y-80119070D01*
X145713346Y-80134976D01*
X145726134Y-80152219D01*
X145737170Y-80170632D01*
X145746349Y-80190038D01*
X145753581Y-80210250D01*
X145758797Y-80231074D01*
X145761947Y-80252309D01*
X145763000Y-80273750D01*
X145763000Y-80711250D01*
X145761947Y-80732691D01*
X145758797Y-80753926D01*
X145753581Y-80774750D01*
X145746349Y-80794962D01*
X145737170Y-80814368D01*
X145726134Y-80832781D01*
X145713346Y-80850024D01*
X145698930Y-80865930D01*
X145683024Y-80880346D01*
X145665781Y-80893134D01*
X145647368Y-80904170D01*
X145627962Y-80913349D01*
X145607750Y-80920581D01*
X145586926Y-80925797D01*
X145565691Y-80928947D01*
X145544250Y-80930000D01*
X145031750Y-80930000D01*
X145010309Y-80928947D01*
X144989074Y-80925797D01*
X144968250Y-80920581D01*
X144948038Y-80913349D01*
X144928632Y-80904170D01*
X144910219Y-80893134D01*
X144892976Y-80880346D01*
X144877070Y-80865930D01*
X144862654Y-80850024D01*
X144849866Y-80832781D01*
X144838830Y-80814368D01*
X144829651Y-80794962D01*
X144822419Y-80774750D01*
X144817203Y-80753926D01*
X144814053Y-80732691D01*
X144813000Y-80711250D01*
X144813000Y-80273750D01*
X144814053Y-80252309D01*
X144817203Y-80231074D01*
X144822419Y-80210250D01*
X144829651Y-80190038D01*
X144838830Y-80170632D01*
X144849866Y-80152219D01*
X144862654Y-80134976D01*
X144877070Y-80119070D01*
X144892976Y-80104654D01*
X144910219Y-80091866D01*
X144928632Y-80080830D01*
X144948038Y-80071651D01*
X144968250Y-80064419D01*
X144989074Y-80059203D01*
X145010309Y-80056053D01*
X145031750Y-80055000D01*
X145544250Y-80055000D01*
X145565691Y-80056053D01*
X145565691Y-80056053D01*
G37*
D11*
X145288000Y-80492500D03*
G04 #@! TD*
D12*
G04 #@! TO.C,U4*
X155100000Y-76200000D03*
X155100000Y-77470000D03*
X155100000Y-78740000D03*
X155100000Y-80010000D03*
X149700000Y-80010000D03*
X149700000Y-78740000D03*
X149700000Y-77470000D03*
X149700000Y-76200000D03*
G04 #@! TD*
G04 #@! TO.C,U5*
X133190000Y-76200000D03*
X133190000Y-77470000D03*
X133190000Y-78740000D03*
X133190000Y-80010000D03*
X138590000Y-80010000D03*
X138590000Y-78740000D03*
X138590000Y-77470000D03*
X138590000Y-76200000D03*
G04 #@! TD*
G04 #@! TO.C,U6*
X121445000Y-76200000D03*
X121445000Y-77470000D03*
X121445000Y-78740000D03*
X121445000Y-80010000D03*
X116045000Y-80010000D03*
X116045000Y-78740000D03*
X116045000Y-77470000D03*
X116045000Y-76200000D03*
G04 #@! TD*
D10*
G04 #@! TO.C,R7*
G36*
X113942691Y-79878553D02*
X113963926Y-79881703D01*
X113984750Y-79886919D01*
X114004962Y-79894151D01*
X114024368Y-79903330D01*
X114042781Y-79914366D01*
X114060024Y-79927154D01*
X114075930Y-79941570D01*
X114090346Y-79957476D01*
X114103134Y-79974719D01*
X114114170Y-79993132D01*
X114123349Y-80012538D01*
X114130581Y-80032750D01*
X114135797Y-80053574D01*
X114138947Y-80074809D01*
X114140000Y-80096250D01*
X114140000Y-80533750D01*
X114138947Y-80555191D01*
X114135797Y-80576426D01*
X114130581Y-80597250D01*
X114123349Y-80617462D01*
X114114170Y-80636868D01*
X114103134Y-80655281D01*
X114090346Y-80672524D01*
X114075930Y-80688430D01*
X114060024Y-80702846D01*
X114042781Y-80715634D01*
X114024368Y-80726670D01*
X114004962Y-80735849D01*
X113984750Y-80743081D01*
X113963926Y-80748297D01*
X113942691Y-80751447D01*
X113921250Y-80752500D01*
X113408750Y-80752500D01*
X113387309Y-80751447D01*
X113366074Y-80748297D01*
X113345250Y-80743081D01*
X113325038Y-80735849D01*
X113305632Y-80726670D01*
X113287219Y-80715634D01*
X113269976Y-80702846D01*
X113254070Y-80688430D01*
X113239654Y-80672524D01*
X113226866Y-80655281D01*
X113215830Y-80636868D01*
X113206651Y-80617462D01*
X113199419Y-80597250D01*
X113194203Y-80576426D01*
X113191053Y-80555191D01*
X113190000Y-80533750D01*
X113190000Y-80096250D01*
X113191053Y-80074809D01*
X113194203Y-80053574D01*
X113199419Y-80032750D01*
X113206651Y-80012538D01*
X113215830Y-79993132D01*
X113226866Y-79974719D01*
X113239654Y-79957476D01*
X113254070Y-79941570D01*
X113269976Y-79927154D01*
X113287219Y-79914366D01*
X113305632Y-79903330D01*
X113325038Y-79894151D01*
X113345250Y-79886919D01*
X113366074Y-79881703D01*
X113387309Y-79878553D01*
X113408750Y-79877500D01*
X113921250Y-79877500D01*
X113942691Y-79878553D01*
X113942691Y-79878553D01*
G37*
D11*
X113665000Y-80315000D03*
D10*
G36*
X113942691Y-78303553D02*
X113963926Y-78306703D01*
X113984750Y-78311919D01*
X114004962Y-78319151D01*
X114024368Y-78328330D01*
X114042781Y-78339366D01*
X114060024Y-78352154D01*
X114075930Y-78366570D01*
X114090346Y-78382476D01*
X114103134Y-78399719D01*
X114114170Y-78418132D01*
X114123349Y-78437538D01*
X114130581Y-78457750D01*
X114135797Y-78478574D01*
X114138947Y-78499809D01*
X114140000Y-78521250D01*
X114140000Y-78958750D01*
X114138947Y-78980191D01*
X114135797Y-79001426D01*
X114130581Y-79022250D01*
X114123349Y-79042462D01*
X114114170Y-79061868D01*
X114103134Y-79080281D01*
X114090346Y-79097524D01*
X114075930Y-79113430D01*
X114060024Y-79127846D01*
X114042781Y-79140634D01*
X114024368Y-79151670D01*
X114004962Y-79160849D01*
X113984750Y-79168081D01*
X113963926Y-79173297D01*
X113942691Y-79176447D01*
X113921250Y-79177500D01*
X113408750Y-79177500D01*
X113387309Y-79176447D01*
X113366074Y-79173297D01*
X113345250Y-79168081D01*
X113325038Y-79160849D01*
X113305632Y-79151670D01*
X113287219Y-79140634D01*
X113269976Y-79127846D01*
X113254070Y-79113430D01*
X113239654Y-79097524D01*
X113226866Y-79080281D01*
X113215830Y-79061868D01*
X113206651Y-79042462D01*
X113199419Y-79022250D01*
X113194203Y-79001426D01*
X113191053Y-78980191D01*
X113190000Y-78958750D01*
X113190000Y-78521250D01*
X113191053Y-78499809D01*
X113194203Y-78478574D01*
X113199419Y-78457750D01*
X113206651Y-78437538D01*
X113215830Y-78418132D01*
X113226866Y-78399719D01*
X113239654Y-78382476D01*
X113254070Y-78366570D01*
X113269976Y-78352154D01*
X113287219Y-78339366D01*
X113305632Y-78328330D01*
X113325038Y-78319151D01*
X113345250Y-78311919D01*
X113366074Y-78306703D01*
X113387309Y-78303553D01*
X113408750Y-78302500D01*
X113921250Y-78302500D01*
X113942691Y-78303553D01*
X113942691Y-78303553D01*
G37*
D11*
X113665000Y-78740000D03*
G04 #@! TD*
D10*
G04 #@! TO.C,R8*
G36*
X147597691Y-79726053D02*
X147618926Y-79729203D01*
X147639750Y-79734419D01*
X147659962Y-79741651D01*
X147679368Y-79750830D01*
X147697781Y-79761866D01*
X147715024Y-79774654D01*
X147730930Y-79789070D01*
X147745346Y-79804976D01*
X147758134Y-79822219D01*
X147769170Y-79840632D01*
X147778349Y-79860038D01*
X147785581Y-79880250D01*
X147790797Y-79901074D01*
X147793947Y-79922309D01*
X147795000Y-79943750D01*
X147795000Y-80381250D01*
X147793947Y-80402691D01*
X147790797Y-80423926D01*
X147785581Y-80444750D01*
X147778349Y-80464962D01*
X147769170Y-80484368D01*
X147758134Y-80502781D01*
X147745346Y-80520024D01*
X147730930Y-80535930D01*
X147715024Y-80550346D01*
X147697781Y-80563134D01*
X147679368Y-80574170D01*
X147659962Y-80583349D01*
X147639750Y-80590581D01*
X147618926Y-80595797D01*
X147597691Y-80598947D01*
X147576250Y-80600000D01*
X147063750Y-80600000D01*
X147042309Y-80598947D01*
X147021074Y-80595797D01*
X147000250Y-80590581D01*
X146980038Y-80583349D01*
X146960632Y-80574170D01*
X146942219Y-80563134D01*
X146924976Y-80550346D01*
X146909070Y-80535930D01*
X146894654Y-80520024D01*
X146881866Y-80502781D01*
X146870830Y-80484368D01*
X146861651Y-80464962D01*
X146854419Y-80444750D01*
X146849203Y-80423926D01*
X146846053Y-80402691D01*
X146845000Y-80381250D01*
X146845000Y-79943750D01*
X146846053Y-79922309D01*
X146849203Y-79901074D01*
X146854419Y-79880250D01*
X146861651Y-79860038D01*
X146870830Y-79840632D01*
X146881866Y-79822219D01*
X146894654Y-79804976D01*
X146909070Y-79789070D01*
X146924976Y-79774654D01*
X146942219Y-79761866D01*
X146960632Y-79750830D01*
X146980038Y-79741651D01*
X147000250Y-79734419D01*
X147021074Y-79729203D01*
X147042309Y-79726053D01*
X147063750Y-79725000D01*
X147576250Y-79725000D01*
X147597691Y-79726053D01*
X147597691Y-79726053D01*
G37*
D11*
X147320000Y-80162500D03*
D10*
G36*
X147597691Y-78151053D02*
X147618926Y-78154203D01*
X147639750Y-78159419D01*
X147659962Y-78166651D01*
X147679368Y-78175830D01*
X147697781Y-78186866D01*
X147715024Y-78199654D01*
X147730930Y-78214070D01*
X147745346Y-78229976D01*
X147758134Y-78247219D01*
X147769170Y-78265632D01*
X147778349Y-78285038D01*
X147785581Y-78305250D01*
X147790797Y-78326074D01*
X147793947Y-78347309D01*
X147795000Y-78368750D01*
X147795000Y-78806250D01*
X147793947Y-78827691D01*
X147790797Y-78848926D01*
X147785581Y-78869750D01*
X147778349Y-78889962D01*
X147769170Y-78909368D01*
X147758134Y-78927781D01*
X147745346Y-78945024D01*
X147730930Y-78960930D01*
X147715024Y-78975346D01*
X147697781Y-78988134D01*
X147679368Y-78999170D01*
X147659962Y-79008349D01*
X147639750Y-79015581D01*
X147618926Y-79020797D01*
X147597691Y-79023947D01*
X147576250Y-79025000D01*
X147063750Y-79025000D01*
X147042309Y-79023947D01*
X147021074Y-79020797D01*
X147000250Y-79015581D01*
X146980038Y-79008349D01*
X146960632Y-78999170D01*
X146942219Y-78988134D01*
X146924976Y-78975346D01*
X146909070Y-78960930D01*
X146894654Y-78945024D01*
X146881866Y-78927781D01*
X146870830Y-78909368D01*
X146861651Y-78889962D01*
X146854419Y-78869750D01*
X146849203Y-78848926D01*
X146846053Y-78827691D01*
X146845000Y-78806250D01*
X146845000Y-78368750D01*
X146846053Y-78347309D01*
X146849203Y-78326074D01*
X146854419Y-78305250D01*
X146861651Y-78285038D01*
X146870830Y-78265632D01*
X146881866Y-78247219D01*
X146894654Y-78229976D01*
X146909070Y-78214070D01*
X146924976Y-78199654D01*
X146942219Y-78186866D01*
X146960632Y-78175830D01*
X146980038Y-78166651D01*
X147000250Y-78159419D01*
X147021074Y-78154203D01*
X147042309Y-78151053D01*
X147063750Y-78150000D01*
X147576250Y-78150000D01*
X147597691Y-78151053D01*
X147597691Y-78151053D01*
G37*
D11*
X147320000Y-78587500D03*
G04 #@! TD*
D10*
G04 #@! TO.C,R9*
G36*
X131087691Y-78151053D02*
X131108926Y-78154203D01*
X131129750Y-78159419D01*
X131149962Y-78166651D01*
X131169368Y-78175830D01*
X131187781Y-78186866D01*
X131205024Y-78199654D01*
X131220930Y-78214070D01*
X131235346Y-78229976D01*
X131248134Y-78247219D01*
X131259170Y-78265632D01*
X131268349Y-78285038D01*
X131275581Y-78305250D01*
X131280797Y-78326074D01*
X131283947Y-78347309D01*
X131285000Y-78368750D01*
X131285000Y-78806250D01*
X131283947Y-78827691D01*
X131280797Y-78848926D01*
X131275581Y-78869750D01*
X131268349Y-78889962D01*
X131259170Y-78909368D01*
X131248134Y-78927781D01*
X131235346Y-78945024D01*
X131220930Y-78960930D01*
X131205024Y-78975346D01*
X131187781Y-78988134D01*
X131169368Y-78999170D01*
X131149962Y-79008349D01*
X131129750Y-79015581D01*
X131108926Y-79020797D01*
X131087691Y-79023947D01*
X131066250Y-79025000D01*
X130553750Y-79025000D01*
X130532309Y-79023947D01*
X130511074Y-79020797D01*
X130490250Y-79015581D01*
X130470038Y-79008349D01*
X130450632Y-78999170D01*
X130432219Y-78988134D01*
X130414976Y-78975346D01*
X130399070Y-78960930D01*
X130384654Y-78945024D01*
X130371866Y-78927781D01*
X130360830Y-78909368D01*
X130351651Y-78889962D01*
X130344419Y-78869750D01*
X130339203Y-78848926D01*
X130336053Y-78827691D01*
X130335000Y-78806250D01*
X130335000Y-78368750D01*
X130336053Y-78347309D01*
X130339203Y-78326074D01*
X130344419Y-78305250D01*
X130351651Y-78285038D01*
X130360830Y-78265632D01*
X130371866Y-78247219D01*
X130384654Y-78229976D01*
X130399070Y-78214070D01*
X130414976Y-78199654D01*
X130432219Y-78186866D01*
X130450632Y-78175830D01*
X130470038Y-78166651D01*
X130490250Y-78159419D01*
X130511074Y-78154203D01*
X130532309Y-78151053D01*
X130553750Y-78150000D01*
X131066250Y-78150000D01*
X131087691Y-78151053D01*
X131087691Y-78151053D01*
G37*
D11*
X130810000Y-78587500D03*
D10*
G36*
X131087691Y-79726053D02*
X131108926Y-79729203D01*
X131129750Y-79734419D01*
X131149962Y-79741651D01*
X131169368Y-79750830D01*
X131187781Y-79761866D01*
X131205024Y-79774654D01*
X131220930Y-79789070D01*
X131235346Y-79804976D01*
X131248134Y-79822219D01*
X131259170Y-79840632D01*
X131268349Y-79860038D01*
X131275581Y-79880250D01*
X131280797Y-79901074D01*
X131283947Y-79922309D01*
X131285000Y-79943750D01*
X131285000Y-80381250D01*
X131283947Y-80402691D01*
X131280797Y-80423926D01*
X131275581Y-80444750D01*
X131268349Y-80464962D01*
X131259170Y-80484368D01*
X131248134Y-80502781D01*
X131235346Y-80520024D01*
X131220930Y-80535930D01*
X131205024Y-80550346D01*
X131187781Y-80563134D01*
X131169368Y-80574170D01*
X131149962Y-80583349D01*
X131129750Y-80590581D01*
X131108926Y-80595797D01*
X131087691Y-80598947D01*
X131066250Y-80600000D01*
X130553750Y-80600000D01*
X130532309Y-80598947D01*
X130511074Y-80595797D01*
X130490250Y-80590581D01*
X130470038Y-80583349D01*
X130450632Y-80574170D01*
X130432219Y-80563134D01*
X130414976Y-80550346D01*
X130399070Y-80535930D01*
X130384654Y-80520024D01*
X130371866Y-80502781D01*
X130360830Y-80484368D01*
X130351651Y-80464962D01*
X130344419Y-80444750D01*
X130339203Y-80423926D01*
X130336053Y-80402691D01*
X130335000Y-80381250D01*
X130335000Y-79943750D01*
X130336053Y-79922309D01*
X130339203Y-79901074D01*
X130344419Y-79880250D01*
X130351651Y-79860038D01*
X130360830Y-79840632D01*
X130371866Y-79822219D01*
X130384654Y-79804976D01*
X130399070Y-79789070D01*
X130414976Y-79774654D01*
X130432219Y-79761866D01*
X130450632Y-79750830D01*
X130470038Y-79741651D01*
X130490250Y-79734419D01*
X130511074Y-79729203D01*
X130532309Y-79726053D01*
X130553750Y-79725000D01*
X131066250Y-79725000D01*
X131087691Y-79726053D01*
X131087691Y-79726053D01*
G37*
D11*
X130810000Y-80162500D03*
G04 #@! TD*
D13*
G04 #@! TO.C,Q1*
X150134999Y-62865000D03*
X146784999Y-59815000D03*
X150134999Y-59815000D03*
X146784999Y-62865000D03*
D14*
X154759999Y-63620000D03*
X154759999Y-61340000D03*
X154759999Y-59060000D03*
G04 #@! TD*
D13*
G04 #@! TO.C,Q2*
X150070000Y-72010000D03*
X146720000Y-68960000D03*
X150070000Y-68960000D03*
X146720000Y-72010000D03*
D14*
X154695000Y-72765000D03*
X154695000Y-70485000D03*
X154695000Y-68205000D03*
G04 #@! TD*
G04 #@! TO.C,Q3*
X138380000Y-59125772D03*
X138380000Y-61405772D03*
X138380000Y-63685772D03*
D13*
X130405000Y-62930772D03*
X133755000Y-59880772D03*
X130405000Y-59880772D03*
X133755000Y-62930772D03*
G04 #@! TD*
D14*
G04 #@! TO.C,Q4*
X138380000Y-68270772D03*
X138380000Y-70550772D03*
X138380000Y-72830772D03*
D13*
X130405000Y-72075772D03*
X133755000Y-69025772D03*
X130405000Y-69025772D03*
X133755000Y-72075772D03*
G04 #@! TD*
D14*
G04 #@! TO.C,Q5*
X121675000Y-59125772D03*
X121675000Y-61405772D03*
X121675000Y-63685772D03*
D13*
X113700000Y-62930772D03*
X117050000Y-59880772D03*
X113700000Y-59880772D03*
X117050000Y-62930772D03*
G04 #@! TD*
G04 #@! TO.C,Q6*
X117050000Y-71820772D03*
X113700000Y-68770772D03*
X117050000Y-68770772D03*
X113700000Y-71820772D03*
D14*
X121675000Y-72575772D03*
X121675000Y-70295772D03*
X121675000Y-68015772D03*
G04 #@! TD*
M02*
