G04 #@! TF.GenerationSoftware,KiCad,Pcbnew,(5.0.1)-3*
G04 #@! TF.CreationDate,2021-02-08T17:12:00-05:00*
G04 #@! TF.ProjectId,fpga_esc,667067615F6573632E6B696361645F70,rev?*
G04 #@! TF.SameCoordinates,Original*
G04 #@! TF.FileFunction,Copper,L2,Inr,Plane*
G04 #@! TF.FilePolarity,Positive*
%FSLAX46Y46*%
G04 Gerber Fmt 4.6, Leading zero omitted, Abs format (unit mm)*
G04 Created by KiCad (PCBNEW (5.0.1)-3) date 2021-02-08 5:12:00 PM*
%MOMM*%
%LPD*%
G01*
G04 APERTURE LIST*
G04 #@! TA.AperFunction,ViaPad*
%ADD10R,2.600000X2.600000*%
G04 #@! TD*
G04 #@! TA.AperFunction,ViaPad*
%ADD11C,2.600000*%
G04 #@! TD*
G04 #@! TA.AperFunction,ViaPad*
%ADD12C,0.600000*%
G04 #@! TD*
G04 #@! TA.AperFunction,ViaPad*
%ADD13R,1.700000X1.700000*%
G04 #@! TD*
G04 #@! TA.AperFunction,ViaPad*
%ADD14O,1.700000X1.700000*%
G04 #@! TD*
G04 #@! TA.AperFunction,ViaPad*
%ADD15C,0.800000*%
G04 #@! TD*
G04 #@! TA.AperFunction,Conductor*
%ADD16C,0.250000*%
G04 #@! TD*
G04 #@! TA.AperFunction,Conductor*
%ADD17C,0.254000*%
G04 #@! TD*
G04 APERTURE END LIST*
D10*
G04 #@! TO.N,V_POWER*
G04 #@! TO.C,J3*
X160600400Y-44043600D03*
D11*
G04 #@! TO.N,GND*
X155600400Y-44043600D03*
G04 #@! TD*
D10*
G04 #@! TO.N,/Motor Output/output_1*
G04 #@! TO.C,J1*
X122301000Y-93853000D03*
D11*
G04 #@! TO.N,/Motor Output/output_2*
X117301000Y-93853000D03*
G04 #@! TO.N,/Motor Output/output_3*
X112301000Y-93853000D03*
G04 #@! TD*
D12*
G04 #@! TO.N,GND*
G04 #@! TO.C,U1*
X149276000Y-52009000D03*
X148776000Y-51509000D03*
X149776000Y-51509000D03*
X148776000Y-52509000D03*
X149776000Y-52509000D03*
G04 #@! TD*
G04 #@! TO.N,GND*
G04 #@! TO.C,U2*
X133078000Y-51705000D03*
X132578000Y-51205000D03*
X133578000Y-51205000D03*
X132578000Y-52205000D03*
X133578000Y-52205000D03*
G04 #@! TD*
G04 #@! TO.N,GND*
G04 #@! TO.C,U3*
X116720000Y-52435000D03*
X115720000Y-52435000D03*
X116720000Y-51435000D03*
X115720000Y-51435000D03*
X116220000Y-51935000D03*
G04 #@! TD*
D13*
G04 #@! TO.N,/Control Signals (from FPGA or microcontroller)/VS_3*
G04 #@! TO.C,J2*
X125730000Y-40640000D03*
D14*
G04 #@! TO.N,/Control Signals (from FPGA or microcontroller)/VS_2*
X128270000Y-40640000D03*
G04 #@! TO.N,/Control Signals (from FPGA or microcontroller)/VS_1*
X130810000Y-40640000D03*
G04 #@! TO.N,/Control Signals (from FPGA or microcontroller)/L3*
X133350000Y-40640000D03*
G04 #@! TO.N,/Control Signals (from FPGA or microcontroller)/H3*
X135890000Y-40640000D03*
G04 #@! TO.N,/Control Signals (from FPGA or microcontroller)/L2*
X138430000Y-40640000D03*
G04 #@! TO.N,/Control Signals (from FPGA or microcontroller)/H2*
X140970000Y-40640000D03*
G04 #@! TO.N,/Control Signals (from FPGA or microcontroller)/L1*
X143510000Y-40640000D03*
G04 #@! TO.N,/Control Signals (from FPGA or microcontroller)/H1*
X146050000Y-40640000D03*
G04 #@! TD*
D15*
G04 #@! TO.N,*
X115443000Y-70231000D03*
X115443000Y-61341000D03*
X117348000Y-63246000D03*
X117348000Y-59690000D03*
X113538000Y-59690000D03*
X113538000Y-63246000D03*
X113538000Y-72136000D03*
X117348000Y-72136000D03*
X117348000Y-68580000D03*
X113538000Y-68580000D03*
X150241000Y-68834000D03*
X146304000Y-72136000D03*
X146304000Y-68834000D03*
X150368000Y-72263000D03*
X148336000Y-70612000D03*
X150495000Y-59563000D03*
X146558000Y-62865000D03*
X146558000Y-59563000D03*
X150622000Y-62992000D03*
X148590000Y-61341000D03*
X134112000Y-63119000D03*
X133985000Y-59690000D03*
X132080000Y-61468000D03*
X130048000Y-62992000D03*
X130048000Y-59690000D03*
X133985000Y-72390000D03*
X130175000Y-72390000D03*
X132080000Y-70612000D03*
X133985000Y-68707000D03*
X130175000Y-68707000D03*
G04 #@! TO.N,/Control Signals (from FPGA or microcontroller)/H2*
X139573000Y-54356000D03*
G04 #@! TO.N,/Control Signals (from FPGA or microcontroller)/H3*
X121158000Y-53848000D03*
G04 #@! TO.N,/Control Signals (from FPGA or microcontroller)/L2*
X137922000Y-52247490D03*
G04 #@! TO.N,/Control Signals (from FPGA or microcontroller)/L3*
X124206000Y-51435000D03*
G04 #@! TO.N,/Three Phase Bridge/PHASE_1*
X154940000Y-66167000D03*
G04 #@! TO.N,/Three Phase Bridge/PHASE_2*
X138303000Y-65659000D03*
G04 #@! TO.N,/Three Phase Bridge/PHASE_3*
X121675000Y-66040000D03*
G04 #@! TO.N,/Control Signals (from FPGA or microcontroller)/VS_3*
X118110000Y-77470000D03*
G04 #@! TO.N,/Control Signals (from FPGA or microcontroller)/VS_1*
X152019000Y-77597000D03*
G04 #@! TO.N,/Control Signals (from FPGA or microcontroller)/VS_2*
X134874000Y-77470000D03*
G04 #@! TO.N,+3V3*
X130810000Y-81915000D03*
X113665000Y-82042000D03*
X147320000Y-82042000D03*
G04 #@! TO.N,Net-(Q1-Pad2)*
X158496000Y-61341000D03*
G04 #@! TO.N,V_POWER*
X140335000Y-57150000D03*
X156591000Y-57150000D03*
X123571000Y-57150000D03*
X114808000Y-46990000D03*
X131572000Y-46990000D03*
X147828000Y-47117000D03*
G04 #@! TO.N,Net-(Q2-Pad2)*
X157099000Y-70358000D03*
G04 #@! TO.N,Net-(Q3-Pad2)*
X140843000Y-60833000D03*
G04 #@! TO.N,Net-(Q4-Pad2)*
X140716000Y-69977000D03*
G04 #@! TO.N,Net-(Q5-Pad2)*
X125730000Y-62484000D03*
G04 #@! TO.N,Net-(Q6-Pad2)*
X124333000Y-70485000D03*
G04 #@! TD*
D16*
G04 #@! TO.N,/Control Signals (from FPGA or microcontroller)/H2*
X140970000Y-52959000D02*
X140970000Y-40640000D01*
X139573000Y-54356000D02*
X140970000Y-52959000D01*
G04 #@! TO.N,/Control Signals (from FPGA or microcontroller)/H3*
X135890000Y-41021000D02*
X135890000Y-40640000D01*
X121158000Y-53848000D02*
X121723685Y-53848000D01*
X124587000Y-53848000D02*
X124968000Y-53848000D01*
X121723685Y-53848000D02*
X124587000Y-53848000D01*
X124968000Y-53848000D02*
X125730000Y-53086000D01*
X125730000Y-53086000D02*
X125730000Y-49911000D01*
X125730000Y-49911000D02*
X132461000Y-43180000D01*
X132461000Y-43180000D02*
X135001000Y-43180000D01*
X135890000Y-42291000D02*
X135890000Y-40640000D01*
X135001000Y-43180000D02*
X135890000Y-42291000D01*
G04 #@! TO.N,/Control Signals (from FPGA or microcontroller)/L2*
X138430000Y-51739490D02*
X138430000Y-40640000D01*
X137922000Y-52247490D02*
X138430000Y-51739490D01*
G04 #@! TO.N,/Control Signals (from FPGA or microcontroller)/L3*
X132500001Y-41489999D02*
X133350000Y-40640000D01*
X124478999Y-49511001D02*
X132500001Y-41489999D01*
X124206000Y-49784000D02*
X124206000Y-51435000D01*
X124478999Y-49511001D02*
X124206000Y-49784000D01*
G04 #@! TD*
D17*
G04 #@! TO.N,GND*
G36*
X124422191Y-39332191D02*
X124281843Y-39542235D01*
X124232560Y-39790000D01*
X124232560Y-41490000D01*
X124281843Y-41737765D01*
X124422191Y-41947809D01*
X124632235Y-42088157D01*
X124880000Y-42137440D01*
X126580000Y-42137440D01*
X126827765Y-42088157D01*
X127037809Y-41947809D01*
X127178157Y-41737765D01*
X127187184Y-41692381D01*
X127199375Y-41710625D01*
X127690582Y-42038839D01*
X128123744Y-42125000D01*
X128416256Y-42125000D01*
X128849418Y-42038839D01*
X129340625Y-41710625D01*
X129540000Y-41412239D01*
X129739375Y-41710625D01*
X130230582Y-42038839D01*
X130663744Y-42125000D01*
X130790198Y-42125000D01*
X123994527Y-48920672D01*
X123721530Y-49193669D01*
X123658071Y-49236071D01*
X123490096Y-49487464D01*
X123446000Y-49709149D01*
X123446000Y-49709153D01*
X123431112Y-49784000D01*
X123446000Y-49858847D01*
X123446001Y-50731288D01*
X123328569Y-50848720D01*
X123171000Y-51229126D01*
X123171000Y-51640874D01*
X123328569Y-52021280D01*
X123619720Y-52312431D01*
X124000126Y-52470000D01*
X124411874Y-52470000D01*
X124792280Y-52312431D01*
X124970000Y-52134711D01*
X124970000Y-52771198D01*
X124653199Y-53088000D01*
X121861711Y-53088000D01*
X121744280Y-52970569D01*
X121363874Y-52813000D01*
X120952126Y-52813000D01*
X120571720Y-52970569D01*
X120280569Y-53261720D01*
X120123000Y-53642126D01*
X120123000Y-54053874D01*
X120280569Y-54434280D01*
X120571720Y-54725431D01*
X120952126Y-54883000D01*
X121363874Y-54883000D01*
X121744280Y-54725431D01*
X121861711Y-54608000D01*
X124893153Y-54608000D01*
X124968000Y-54622888D01*
X125042847Y-54608000D01*
X125042852Y-54608000D01*
X125264537Y-54563904D01*
X125515929Y-54395929D01*
X125558331Y-54332470D01*
X126214473Y-53676329D01*
X126277929Y-53633929D01*
X126362788Y-53506929D01*
X126445904Y-53382538D01*
X126455480Y-53334395D01*
X126490000Y-53160852D01*
X126490000Y-53160848D01*
X126504888Y-53086000D01*
X126490000Y-53011152D01*
X126490000Y-51107927D01*
X131629637Y-51107927D01*
X131664678Y-51478239D01*
X131738975Y-51657607D01*
X131858500Y-51665108D01*
X131898392Y-51705000D01*
X131858500Y-51744892D01*
X131738975Y-51752393D01*
X131629637Y-52107927D01*
X131664678Y-52478239D01*
X131738975Y-52657607D01*
X131933576Y-52669819D01*
X132398395Y-52205000D01*
X132384253Y-52190858D01*
X132406961Y-52168149D01*
X132433576Y-52169819D01*
X132457299Y-52146096D01*
X132480927Y-52153363D01*
X132632579Y-52139013D01*
X132649091Y-52313514D01*
X132613181Y-52349424D01*
X132614851Y-52376039D01*
X132592143Y-52398748D01*
X132578000Y-52384605D01*
X132113181Y-52849424D01*
X132125393Y-53044025D01*
X132480927Y-53153363D01*
X132851239Y-53118322D01*
X133030607Y-53044025D01*
X133038108Y-52924500D01*
X133078000Y-52884608D01*
X133117892Y-52924500D01*
X133125393Y-53044025D01*
X133480927Y-53153363D01*
X133851239Y-53118322D01*
X134030607Y-53044025D01*
X134042819Y-52849424D01*
X133578000Y-52384605D01*
X133563858Y-52398748D01*
X133541149Y-52376039D01*
X133542819Y-52349424D01*
X133519096Y-52325701D01*
X133526363Y-52302073D01*
X133512013Y-52150421D01*
X133686514Y-52133909D01*
X133722424Y-52169819D01*
X133749039Y-52168149D01*
X133771748Y-52190858D01*
X133757605Y-52205000D01*
X134222424Y-52669819D01*
X134417025Y-52657607D01*
X134526363Y-52302073D01*
X134491322Y-51931761D01*
X134417025Y-51752393D01*
X134297500Y-51744892D01*
X134257608Y-51705000D01*
X134297500Y-51665108D01*
X134417025Y-51657607D01*
X134526363Y-51302073D01*
X134491322Y-50931761D01*
X134417025Y-50752393D01*
X134222424Y-50740181D01*
X133757605Y-51205000D01*
X133771748Y-51219143D01*
X133749039Y-51241851D01*
X133722424Y-51240181D01*
X133698701Y-51263904D01*
X133675073Y-51256637D01*
X133523421Y-51270987D01*
X133506909Y-51096486D01*
X133542819Y-51060576D01*
X133541149Y-51033961D01*
X133563858Y-51011253D01*
X133578000Y-51025395D01*
X134042819Y-50560576D01*
X134030607Y-50365975D01*
X133675073Y-50256637D01*
X133304761Y-50291678D01*
X133125393Y-50365975D01*
X133117892Y-50485500D01*
X133078000Y-50525392D01*
X133038108Y-50485500D01*
X133030607Y-50365975D01*
X132675073Y-50256637D01*
X132304761Y-50291678D01*
X132125393Y-50365975D01*
X132113181Y-50560576D01*
X132578000Y-51025395D01*
X132592143Y-51011253D01*
X132614851Y-51033961D01*
X132613181Y-51060576D01*
X132636904Y-51084299D01*
X132629637Y-51107927D01*
X132643987Y-51259579D01*
X132469486Y-51276091D01*
X132433576Y-51240181D01*
X132406961Y-51241851D01*
X132384253Y-51219143D01*
X132398395Y-51205000D01*
X131933576Y-50740181D01*
X131738975Y-50752393D01*
X131629637Y-51107927D01*
X126490000Y-51107927D01*
X126490000Y-50225801D01*
X129931676Y-46784126D01*
X130537000Y-46784126D01*
X130537000Y-47195874D01*
X130694569Y-47576280D01*
X130985720Y-47867431D01*
X131366126Y-48025000D01*
X131777874Y-48025000D01*
X132158280Y-47867431D01*
X132449431Y-47576280D01*
X132607000Y-47195874D01*
X132607000Y-46784126D01*
X132449431Y-46403720D01*
X132158280Y-46112569D01*
X131777874Y-45955000D01*
X131366126Y-45955000D01*
X130985720Y-46112569D01*
X130694569Y-46403720D01*
X130537000Y-46784126D01*
X129931676Y-46784126D01*
X132775803Y-43940000D01*
X134926153Y-43940000D01*
X135001000Y-43954888D01*
X135075847Y-43940000D01*
X135075852Y-43940000D01*
X135297537Y-43895904D01*
X135548929Y-43727929D01*
X135591331Y-43664470D01*
X136374473Y-42881329D01*
X136437929Y-42838929D01*
X136605904Y-42587537D01*
X136650000Y-42365852D01*
X136650000Y-42365847D01*
X136664888Y-42291000D01*
X136650000Y-42216153D01*
X136650000Y-41918178D01*
X136960625Y-41710625D01*
X137160000Y-41412239D01*
X137359375Y-41710625D01*
X137670001Y-41918179D01*
X137670000Y-51231596D01*
X137335720Y-51370059D01*
X137044569Y-51661210D01*
X136887000Y-52041616D01*
X136887000Y-52453364D01*
X137044569Y-52833770D01*
X137335720Y-53124921D01*
X137716126Y-53282490D01*
X138127874Y-53282490D01*
X138508280Y-53124921D01*
X138799431Y-52833770D01*
X138957000Y-52453364D01*
X138957000Y-52301403D01*
X138977929Y-52287419D01*
X139020327Y-52223966D01*
X139020329Y-52223964D01*
X139132296Y-52056393D01*
X139145904Y-52036027D01*
X139190000Y-51814342D01*
X139190000Y-51814338D01*
X139204888Y-51739491D01*
X139190000Y-51664644D01*
X139190000Y-41918178D01*
X139500625Y-41710625D01*
X139700000Y-41412239D01*
X139899375Y-41710625D01*
X140210001Y-41918179D01*
X140210000Y-52644197D01*
X139533198Y-53321000D01*
X139367126Y-53321000D01*
X138986720Y-53478569D01*
X138695569Y-53769720D01*
X138538000Y-54150126D01*
X138538000Y-54561874D01*
X138695569Y-54942280D01*
X138986720Y-55233431D01*
X139367126Y-55391000D01*
X139778874Y-55391000D01*
X140159280Y-55233431D01*
X140450431Y-54942280D01*
X140608000Y-54561874D01*
X140608000Y-54395802D01*
X141454476Y-53549327D01*
X141517929Y-53506929D01*
X141560327Y-53443476D01*
X141560329Y-53443474D01*
X141656147Y-53300071D01*
X141685904Y-53255537D01*
X141730000Y-53033852D01*
X141730000Y-53033848D01*
X141744888Y-52959001D01*
X141730000Y-52884154D01*
X141730000Y-51411927D01*
X147827637Y-51411927D01*
X147862678Y-51782239D01*
X147936975Y-51961607D01*
X148056500Y-51969108D01*
X148096392Y-52009000D01*
X148056500Y-52048892D01*
X147936975Y-52056393D01*
X147827637Y-52411927D01*
X147862678Y-52782239D01*
X147936975Y-52961607D01*
X148131576Y-52973819D01*
X148596395Y-52509000D01*
X148582253Y-52494858D01*
X148604961Y-52472149D01*
X148631576Y-52473819D01*
X148655299Y-52450096D01*
X148678927Y-52457363D01*
X148830579Y-52443013D01*
X148847091Y-52617514D01*
X148811181Y-52653424D01*
X148812851Y-52680039D01*
X148790143Y-52702748D01*
X148776000Y-52688605D01*
X148311181Y-53153424D01*
X148323393Y-53348025D01*
X148678927Y-53457363D01*
X149049239Y-53422322D01*
X149228607Y-53348025D01*
X149236108Y-53228500D01*
X149276000Y-53188608D01*
X149315892Y-53228500D01*
X149323393Y-53348025D01*
X149678927Y-53457363D01*
X150049239Y-53422322D01*
X150228607Y-53348025D01*
X150240819Y-53153424D01*
X149776000Y-52688605D01*
X149761858Y-52702748D01*
X149739149Y-52680039D01*
X149740819Y-52653424D01*
X149717096Y-52629701D01*
X149724363Y-52606073D01*
X149710013Y-52454421D01*
X149884514Y-52437909D01*
X149920424Y-52473819D01*
X149947039Y-52472149D01*
X149969748Y-52494858D01*
X149955605Y-52509000D01*
X150420424Y-52973819D01*
X150615025Y-52961607D01*
X150724363Y-52606073D01*
X150689322Y-52235761D01*
X150615025Y-52056393D01*
X150495500Y-52048892D01*
X150455608Y-52009000D01*
X150495500Y-51969108D01*
X150615025Y-51961607D01*
X150724363Y-51606073D01*
X150689322Y-51235761D01*
X150615025Y-51056393D01*
X150420424Y-51044181D01*
X149955605Y-51509000D01*
X149969748Y-51523143D01*
X149947039Y-51545851D01*
X149920424Y-51544181D01*
X149896701Y-51567904D01*
X149873073Y-51560637D01*
X149721421Y-51574987D01*
X149704909Y-51400486D01*
X149740819Y-51364576D01*
X149739149Y-51337961D01*
X149761858Y-51315253D01*
X149776000Y-51329395D01*
X150240819Y-50864576D01*
X150228607Y-50669975D01*
X149873073Y-50560637D01*
X149502761Y-50595678D01*
X149323393Y-50669975D01*
X149315892Y-50789500D01*
X149276000Y-50829392D01*
X149236108Y-50789500D01*
X149228607Y-50669975D01*
X148873073Y-50560637D01*
X148502761Y-50595678D01*
X148323393Y-50669975D01*
X148311181Y-50864576D01*
X148776000Y-51329395D01*
X148790143Y-51315253D01*
X148812851Y-51337961D01*
X148811181Y-51364576D01*
X148834904Y-51388299D01*
X148827637Y-51411927D01*
X148841987Y-51563579D01*
X148667486Y-51580091D01*
X148631576Y-51544181D01*
X148604961Y-51545851D01*
X148582253Y-51523143D01*
X148596395Y-51509000D01*
X148131576Y-51044181D01*
X147936975Y-51056393D01*
X147827637Y-51411927D01*
X141730000Y-51411927D01*
X141730000Y-46911126D01*
X146793000Y-46911126D01*
X146793000Y-47322874D01*
X146950569Y-47703280D01*
X147241720Y-47994431D01*
X147622126Y-48152000D01*
X148033874Y-48152000D01*
X148414280Y-47994431D01*
X148705431Y-47703280D01*
X148863000Y-47322874D01*
X148863000Y-46911126D01*
X148705431Y-46530720D01*
X148414280Y-46239569D01*
X148033874Y-46082000D01*
X147622126Y-46082000D01*
X147241720Y-46239569D01*
X146950569Y-46530720D01*
X146793000Y-46911126D01*
X141730000Y-46911126D01*
X141730000Y-45413059D01*
X154410546Y-45413059D01*
X154545904Y-45711055D01*
X155264280Y-45987666D01*
X156033827Y-45968310D01*
X156654896Y-45711055D01*
X156790254Y-45413059D01*
X155600400Y-44223205D01*
X154410546Y-45413059D01*
X141730000Y-45413059D01*
X141730000Y-43707480D01*
X153656334Y-43707480D01*
X153675690Y-44477027D01*
X153932945Y-45098096D01*
X154230941Y-45233454D01*
X155420795Y-44043600D01*
X155780005Y-44043600D01*
X156969859Y-45233454D01*
X157267855Y-45098096D01*
X157544466Y-44379720D01*
X157525110Y-43610173D01*
X157267855Y-42989104D01*
X156969859Y-42853746D01*
X155780005Y-44043600D01*
X155420795Y-44043600D01*
X154230941Y-42853746D01*
X153932945Y-42989104D01*
X153656334Y-43707480D01*
X141730000Y-43707480D01*
X141730000Y-42674141D01*
X154410546Y-42674141D01*
X155600400Y-43863995D01*
X156720795Y-42743600D01*
X158652960Y-42743600D01*
X158652960Y-45343600D01*
X158702243Y-45591365D01*
X158842591Y-45801409D01*
X159052635Y-45941757D01*
X159300400Y-45991040D01*
X161900400Y-45991040D01*
X162148165Y-45941757D01*
X162358209Y-45801409D01*
X162498557Y-45591365D01*
X162547840Y-45343600D01*
X162547840Y-42743600D01*
X162498557Y-42495835D01*
X162358209Y-42285791D01*
X162148165Y-42145443D01*
X161900400Y-42096160D01*
X159300400Y-42096160D01*
X159052635Y-42145443D01*
X158842591Y-42285791D01*
X158702243Y-42495835D01*
X158652960Y-42743600D01*
X156720795Y-42743600D01*
X156790254Y-42674141D01*
X156654896Y-42376145D01*
X155936520Y-42099534D01*
X155166973Y-42118890D01*
X154545904Y-42376145D01*
X154410546Y-42674141D01*
X141730000Y-42674141D01*
X141730000Y-41918178D01*
X142040625Y-41710625D01*
X142240000Y-41412239D01*
X142439375Y-41710625D01*
X142930582Y-42038839D01*
X143363744Y-42125000D01*
X143656256Y-42125000D01*
X144089418Y-42038839D01*
X144580625Y-41710625D01*
X144780000Y-41412239D01*
X144979375Y-41710625D01*
X145470582Y-42038839D01*
X145903744Y-42125000D01*
X146196256Y-42125000D01*
X146629418Y-42038839D01*
X147120625Y-41710625D01*
X147448839Y-41219418D01*
X147564092Y-40640000D01*
X147448839Y-40060582D01*
X147120625Y-39569375D01*
X146632170Y-39243000D01*
X163702787Y-39243000D01*
X163601613Y-99542600D01*
X109245613Y-99542600D01*
X109255805Y-93468105D01*
X110366000Y-93468105D01*
X110366000Y-94237895D01*
X110660586Y-94949090D01*
X111204910Y-95493414D01*
X111916105Y-95788000D01*
X112685895Y-95788000D01*
X113397090Y-95493414D01*
X113941414Y-94949090D01*
X114236000Y-94237895D01*
X114236000Y-93468105D01*
X115366000Y-93468105D01*
X115366000Y-94237895D01*
X115660586Y-94949090D01*
X116204910Y-95493414D01*
X116916105Y-95788000D01*
X117685895Y-95788000D01*
X118397090Y-95493414D01*
X118941414Y-94949090D01*
X119236000Y-94237895D01*
X119236000Y-93468105D01*
X118941414Y-92756910D01*
X118737504Y-92553000D01*
X120353560Y-92553000D01*
X120353560Y-95153000D01*
X120402843Y-95400765D01*
X120543191Y-95610809D01*
X120753235Y-95751157D01*
X121001000Y-95800440D01*
X123601000Y-95800440D01*
X123848765Y-95751157D01*
X124058809Y-95610809D01*
X124199157Y-95400765D01*
X124248440Y-95153000D01*
X124248440Y-92553000D01*
X124199157Y-92305235D01*
X124058809Y-92095191D01*
X123848765Y-91954843D01*
X123601000Y-91905560D01*
X121001000Y-91905560D01*
X120753235Y-91954843D01*
X120543191Y-92095191D01*
X120402843Y-92305235D01*
X120353560Y-92553000D01*
X118737504Y-92553000D01*
X118397090Y-92212586D01*
X117685895Y-91918000D01*
X116916105Y-91918000D01*
X116204910Y-92212586D01*
X115660586Y-92756910D01*
X115366000Y-93468105D01*
X114236000Y-93468105D01*
X113941414Y-92756910D01*
X113397090Y-92212586D01*
X112685895Y-91918000D01*
X111916105Y-91918000D01*
X111204910Y-92212586D01*
X110660586Y-92756910D01*
X110366000Y-93468105D01*
X109255805Y-93468105D01*
X109275321Y-81836126D01*
X112630000Y-81836126D01*
X112630000Y-82247874D01*
X112787569Y-82628280D01*
X113078720Y-82919431D01*
X113459126Y-83077000D01*
X113870874Y-83077000D01*
X114251280Y-82919431D01*
X114542431Y-82628280D01*
X114700000Y-82247874D01*
X114700000Y-81836126D01*
X114647395Y-81709126D01*
X129775000Y-81709126D01*
X129775000Y-82120874D01*
X129932569Y-82501280D01*
X130223720Y-82792431D01*
X130604126Y-82950000D01*
X131015874Y-82950000D01*
X131396280Y-82792431D01*
X131687431Y-82501280D01*
X131845000Y-82120874D01*
X131845000Y-81836126D01*
X146285000Y-81836126D01*
X146285000Y-82247874D01*
X146442569Y-82628280D01*
X146733720Y-82919431D01*
X147114126Y-83077000D01*
X147525874Y-83077000D01*
X147906280Y-82919431D01*
X148197431Y-82628280D01*
X148355000Y-82247874D01*
X148355000Y-81836126D01*
X148197431Y-81455720D01*
X147906280Y-81164569D01*
X147525874Y-81007000D01*
X147114126Y-81007000D01*
X146733720Y-81164569D01*
X146442569Y-81455720D01*
X146285000Y-81836126D01*
X131845000Y-81836126D01*
X131845000Y-81709126D01*
X131687431Y-81328720D01*
X131396280Y-81037569D01*
X131015874Y-80880000D01*
X130604126Y-80880000D01*
X130223720Y-81037569D01*
X129932569Y-81328720D01*
X129775000Y-81709126D01*
X114647395Y-81709126D01*
X114542431Y-81455720D01*
X114251280Y-81164569D01*
X113870874Y-81007000D01*
X113459126Y-81007000D01*
X113078720Y-81164569D01*
X112787569Y-81455720D01*
X112630000Y-81836126D01*
X109275321Y-81836126D01*
X109282992Y-77264126D01*
X117075000Y-77264126D01*
X117075000Y-77675874D01*
X117232569Y-78056280D01*
X117523720Y-78347431D01*
X117904126Y-78505000D01*
X118315874Y-78505000D01*
X118696280Y-78347431D01*
X118987431Y-78056280D01*
X119145000Y-77675874D01*
X119145000Y-77264126D01*
X133839000Y-77264126D01*
X133839000Y-77675874D01*
X133996569Y-78056280D01*
X134287720Y-78347431D01*
X134668126Y-78505000D01*
X135079874Y-78505000D01*
X135460280Y-78347431D01*
X135751431Y-78056280D01*
X135909000Y-77675874D01*
X135909000Y-77391126D01*
X150984000Y-77391126D01*
X150984000Y-77802874D01*
X151141569Y-78183280D01*
X151432720Y-78474431D01*
X151813126Y-78632000D01*
X152224874Y-78632000D01*
X152605280Y-78474431D01*
X152896431Y-78183280D01*
X153054000Y-77802874D01*
X153054000Y-77391126D01*
X152896431Y-77010720D01*
X152605280Y-76719569D01*
X152224874Y-76562000D01*
X151813126Y-76562000D01*
X151432720Y-76719569D01*
X151141569Y-77010720D01*
X150984000Y-77391126D01*
X135909000Y-77391126D01*
X135909000Y-77264126D01*
X135751431Y-76883720D01*
X135460280Y-76592569D01*
X135079874Y-76435000D01*
X134668126Y-76435000D01*
X134287720Y-76592569D01*
X133996569Y-76883720D01*
X133839000Y-77264126D01*
X119145000Y-77264126D01*
X118987431Y-76883720D01*
X118696280Y-76592569D01*
X118315874Y-76435000D01*
X117904126Y-76435000D01*
X117523720Y-76592569D01*
X117232569Y-76883720D01*
X117075000Y-77264126D01*
X109282992Y-77264126D01*
X109291942Y-71930126D01*
X112503000Y-71930126D01*
X112503000Y-72341874D01*
X112660569Y-72722280D01*
X112951720Y-73013431D01*
X113332126Y-73171000D01*
X113743874Y-73171000D01*
X114124280Y-73013431D01*
X114415431Y-72722280D01*
X114573000Y-72341874D01*
X114573000Y-71930126D01*
X116313000Y-71930126D01*
X116313000Y-72341874D01*
X116470569Y-72722280D01*
X116761720Y-73013431D01*
X117142126Y-73171000D01*
X117553874Y-73171000D01*
X117934280Y-73013431D01*
X118225431Y-72722280D01*
X118383000Y-72341874D01*
X118383000Y-72184126D01*
X129140000Y-72184126D01*
X129140000Y-72595874D01*
X129297569Y-72976280D01*
X129588720Y-73267431D01*
X129969126Y-73425000D01*
X130380874Y-73425000D01*
X130761280Y-73267431D01*
X131052431Y-72976280D01*
X131210000Y-72595874D01*
X131210000Y-72184126D01*
X132950000Y-72184126D01*
X132950000Y-72595874D01*
X133107569Y-72976280D01*
X133398720Y-73267431D01*
X133779126Y-73425000D01*
X134190874Y-73425000D01*
X134571280Y-73267431D01*
X134862431Y-72976280D01*
X135020000Y-72595874D01*
X135020000Y-72184126D01*
X134914790Y-71930126D01*
X145269000Y-71930126D01*
X145269000Y-72341874D01*
X145426569Y-72722280D01*
X145717720Y-73013431D01*
X146098126Y-73171000D01*
X146509874Y-73171000D01*
X146890280Y-73013431D01*
X147181431Y-72722280D01*
X147339000Y-72341874D01*
X147339000Y-72057126D01*
X149333000Y-72057126D01*
X149333000Y-72468874D01*
X149490569Y-72849280D01*
X149781720Y-73140431D01*
X150162126Y-73298000D01*
X150573874Y-73298000D01*
X150954280Y-73140431D01*
X151245431Y-72849280D01*
X151403000Y-72468874D01*
X151403000Y-72057126D01*
X151245431Y-71676720D01*
X150954280Y-71385569D01*
X150573874Y-71228000D01*
X150162126Y-71228000D01*
X149781720Y-71385569D01*
X149490569Y-71676720D01*
X149333000Y-72057126D01*
X147339000Y-72057126D01*
X147339000Y-71930126D01*
X147181431Y-71549720D01*
X146890280Y-71258569D01*
X146509874Y-71101000D01*
X146098126Y-71101000D01*
X145717720Y-71258569D01*
X145426569Y-71549720D01*
X145269000Y-71930126D01*
X134914790Y-71930126D01*
X134862431Y-71803720D01*
X134571280Y-71512569D01*
X134190874Y-71355000D01*
X133779126Y-71355000D01*
X133398720Y-71512569D01*
X133107569Y-71803720D01*
X132950000Y-72184126D01*
X131210000Y-72184126D01*
X131052431Y-71803720D01*
X130761280Y-71512569D01*
X130380874Y-71355000D01*
X129969126Y-71355000D01*
X129588720Y-71512569D01*
X129297569Y-71803720D01*
X129140000Y-72184126D01*
X118383000Y-72184126D01*
X118383000Y-71930126D01*
X118225431Y-71549720D01*
X117934280Y-71258569D01*
X117553874Y-71101000D01*
X117142126Y-71101000D01*
X116761720Y-71258569D01*
X116470569Y-71549720D01*
X116313000Y-71930126D01*
X114573000Y-71930126D01*
X114415431Y-71549720D01*
X114124280Y-71258569D01*
X113743874Y-71101000D01*
X113332126Y-71101000D01*
X112951720Y-71258569D01*
X112660569Y-71549720D01*
X112503000Y-71930126D01*
X109291942Y-71930126D01*
X109295138Y-70025126D01*
X114408000Y-70025126D01*
X114408000Y-70436874D01*
X114565569Y-70817280D01*
X114856720Y-71108431D01*
X115237126Y-71266000D01*
X115648874Y-71266000D01*
X116029280Y-71108431D01*
X116320431Y-70817280D01*
X116478000Y-70436874D01*
X116478000Y-70279126D01*
X123298000Y-70279126D01*
X123298000Y-70690874D01*
X123455569Y-71071280D01*
X123746720Y-71362431D01*
X124127126Y-71520000D01*
X124538874Y-71520000D01*
X124919280Y-71362431D01*
X125210431Y-71071280D01*
X125368000Y-70690874D01*
X125368000Y-70406126D01*
X131045000Y-70406126D01*
X131045000Y-70817874D01*
X131202569Y-71198280D01*
X131493720Y-71489431D01*
X131874126Y-71647000D01*
X132285874Y-71647000D01*
X132666280Y-71489431D01*
X132957431Y-71198280D01*
X133115000Y-70817874D01*
X133115000Y-70406126D01*
X132957431Y-70025720D01*
X132702837Y-69771126D01*
X139681000Y-69771126D01*
X139681000Y-70182874D01*
X139838569Y-70563280D01*
X140129720Y-70854431D01*
X140510126Y-71012000D01*
X140921874Y-71012000D01*
X141302280Y-70854431D01*
X141593431Y-70563280D01*
X141658526Y-70406126D01*
X147301000Y-70406126D01*
X147301000Y-70817874D01*
X147458569Y-71198280D01*
X147749720Y-71489431D01*
X148130126Y-71647000D01*
X148541874Y-71647000D01*
X148922280Y-71489431D01*
X149213431Y-71198280D01*
X149371000Y-70817874D01*
X149371000Y-70406126D01*
X149265790Y-70152126D01*
X156064000Y-70152126D01*
X156064000Y-70563874D01*
X156221569Y-70944280D01*
X156512720Y-71235431D01*
X156893126Y-71393000D01*
X157304874Y-71393000D01*
X157685280Y-71235431D01*
X157976431Y-70944280D01*
X158134000Y-70563874D01*
X158134000Y-70152126D01*
X157976431Y-69771720D01*
X157685280Y-69480569D01*
X157304874Y-69323000D01*
X156893126Y-69323000D01*
X156512720Y-69480569D01*
X156221569Y-69771720D01*
X156064000Y-70152126D01*
X149265790Y-70152126D01*
X149213431Y-70025720D01*
X148922280Y-69734569D01*
X148541874Y-69577000D01*
X148130126Y-69577000D01*
X147749720Y-69734569D01*
X147458569Y-70025720D01*
X147301000Y-70406126D01*
X141658526Y-70406126D01*
X141751000Y-70182874D01*
X141751000Y-69771126D01*
X141593431Y-69390720D01*
X141302280Y-69099569D01*
X140921874Y-68942000D01*
X140510126Y-68942000D01*
X140129720Y-69099569D01*
X139838569Y-69390720D01*
X139681000Y-69771126D01*
X132702837Y-69771126D01*
X132666280Y-69734569D01*
X132285874Y-69577000D01*
X131874126Y-69577000D01*
X131493720Y-69734569D01*
X131202569Y-70025720D01*
X131045000Y-70406126D01*
X125368000Y-70406126D01*
X125368000Y-70279126D01*
X125210431Y-69898720D01*
X124919280Y-69607569D01*
X124538874Y-69450000D01*
X124127126Y-69450000D01*
X123746720Y-69607569D01*
X123455569Y-69898720D01*
X123298000Y-70279126D01*
X116478000Y-70279126D01*
X116478000Y-70025126D01*
X116320431Y-69644720D01*
X116029280Y-69353569D01*
X115648874Y-69196000D01*
X115237126Y-69196000D01*
X114856720Y-69353569D01*
X114565569Y-69644720D01*
X114408000Y-70025126D01*
X109295138Y-70025126D01*
X109297908Y-68374126D01*
X112503000Y-68374126D01*
X112503000Y-68785874D01*
X112660569Y-69166280D01*
X112951720Y-69457431D01*
X113332126Y-69615000D01*
X113743874Y-69615000D01*
X114124280Y-69457431D01*
X114415431Y-69166280D01*
X114573000Y-68785874D01*
X114573000Y-68374126D01*
X116313000Y-68374126D01*
X116313000Y-68785874D01*
X116470569Y-69166280D01*
X116761720Y-69457431D01*
X117142126Y-69615000D01*
X117553874Y-69615000D01*
X117934280Y-69457431D01*
X118225431Y-69166280D01*
X118383000Y-68785874D01*
X118383000Y-68501126D01*
X129140000Y-68501126D01*
X129140000Y-68912874D01*
X129297569Y-69293280D01*
X129588720Y-69584431D01*
X129969126Y-69742000D01*
X130380874Y-69742000D01*
X130761280Y-69584431D01*
X131052431Y-69293280D01*
X131210000Y-68912874D01*
X131210000Y-68501126D01*
X132950000Y-68501126D01*
X132950000Y-68912874D01*
X133107569Y-69293280D01*
X133398720Y-69584431D01*
X133779126Y-69742000D01*
X134190874Y-69742000D01*
X134571280Y-69584431D01*
X134862431Y-69293280D01*
X135020000Y-68912874D01*
X135020000Y-68628126D01*
X145269000Y-68628126D01*
X145269000Y-69039874D01*
X145426569Y-69420280D01*
X145717720Y-69711431D01*
X146098126Y-69869000D01*
X146509874Y-69869000D01*
X146890280Y-69711431D01*
X147181431Y-69420280D01*
X147339000Y-69039874D01*
X147339000Y-68628126D01*
X149206000Y-68628126D01*
X149206000Y-69039874D01*
X149363569Y-69420280D01*
X149654720Y-69711431D01*
X150035126Y-69869000D01*
X150446874Y-69869000D01*
X150827280Y-69711431D01*
X151118431Y-69420280D01*
X151276000Y-69039874D01*
X151276000Y-68628126D01*
X151118431Y-68247720D01*
X150827280Y-67956569D01*
X150446874Y-67799000D01*
X150035126Y-67799000D01*
X149654720Y-67956569D01*
X149363569Y-68247720D01*
X149206000Y-68628126D01*
X147339000Y-68628126D01*
X147181431Y-68247720D01*
X146890280Y-67956569D01*
X146509874Y-67799000D01*
X146098126Y-67799000D01*
X145717720Y-67956569D01*
X145426569Y-68247720D01*
X145269000Y-68628126D01*
X135020000Y-68628126D01*
X135020000Y-68501126D01*
X134862431Y-68120720D01*
X134571280Y-67829569D01*
X134190874Y-67672000D01*
X133779126Y-67672000D01*
X133398720Y-67829569D01*
X133107569Y-68120720D01*
X132950000Y-68501126D01*
X131210000Y-68501126D01*
X131052431Y-68120720D01*
X130761280Y-67829569D01*
X130380874Y-67672000D01*
X129969126Y-67672000D01*
X129588720Y-67829569D01*
X129297569Y-68120720D01*
X129140000Y-68501126D01*
X118383000Y-68501126D01*
X118383000Y-68374126D01*
X118225431Y-67993720D01*
X117934280Y-67702569D01*
X117553874Y-67545000D01*
X117142126Y-67545000D01*
X116761720Y-67702569D01*
X116470569Y-67993720D01*
X116313000Y-68374126D01*
X114573000Y-68374126D01*
X114415431Y-67993720D01*
X114124280Y-67702569D01*
X113743874Y-67545000D01*
X113332126Y-67545000D01*
X112951720Y-67702569D01*
X112660569Y-67993720D01*
X112503000Y-68374126D01*
X109297908Y-68374126D01*
X109302169Y-65834126D01*
X120640000Y-65834126D01*
X120640000Y-66245874D01*
X120797569Y-66626280D01*
X121088720Y-66917431D01*
X121469126Y-67075000D01*
X121880874Y-67075000D01*
X122261280Y-66917431D01*
X122552431Y-66626280D01*
X122710000Y-66245874D01*
X122710000Y-65834126D01*
X122552431Y-65453720D01*
X122551837Y-65453126D01*
X137268000Y-65453126D01*
X137268000Y-65864874D01*
X137425569Y-66245280D01*
X137716720Y-66536431D01*
X138097126Y-66694000D01*
X138508874Y-66694000D01*
X138889280Y-66536431D01*
X139180431Y-66245280D01*
X139298131Y-65961126D01*
X153905000Y-65961126D01*
X153905000Y-66372874D01*
X154062569Y-66753280D01*
X154353720Y-67044431D01*
X154734126Y-67202000D01*
X155145874Y-67202000D01*
X155526280Y-67044431D01*
X155817431Y-66753280D01*
X155975000Y-66372874D01*
X155975000Y-65961126D01*
X155817431Y-65580720D01*
X155526280Y-65289569D01*
X155145874Y-65132000D01*
X154734126Y-65132000D01*
X154353720Y-65289569D01*
X154062569Y-65580720D01*
X153905000Y-65961126D01*
X139298131Y-65961126D01*
X139338000Y-65864874D01*
X139338000Y-65453126D01*
X139180431Y-65072720D01*
X138889280Y-64781569D01*
X138508874Y-64624000D01*
X138097126Y-64624000D01*
X137716720Y-64781569D01*
X137425569Y-65072720D01*
X137268000Y-65453126D01*
X122551837Y-65453126D01*
X122261280Y-65162569D01*
X121880874Y-65005000D01*
X121469126Y-65005000D01*
X121088720Y-65162569D01*
X120797569Y-65453720D01*
X120640000Y-65834126D01*
X109302169Y-65834126D01*
X109306857Y-63040126D01*
X112503000Y-63040126D01*
X112503000Y-63451874D01*
X112660569Y-63832280D01*
X112951720Y-64123431D01*
X113332126Y-64281000D01*
X113743874Y-64281000D01*
X114124280Y-64123431D01*
X114415431Y-63832280D01*
X114573000Y-63451874D01*
X114573000Y-63040126D01*
X116313000Y-63040126D01*
X116313000Y-63451874D01*
X116470569Y-63832280D01*
X116761720Y-64123431D01*
X117142126Y-64281000D01*
X117553874Y-64281000D01*
X117934280Y-64123431D01*
X118225431Y-63832280D01*
X118383000Y-63451874D01*
X118383000Y-63040126D01*
X118225431Y-62659720D01*
X117934280Y-62368569D01*
X117715931Y-62278126D01*
X124695000Y-62278126D01*
X124695000Y-62689874D01*
X124852569Y-63070280D01*
X125143720Y-63361431D01*
X125524126Y-63519000D01*
X125935874Y-63519000D01*
X126316280Y-63361431D01*
X126607431Y-63070280D01*
X126725131Y-62786126D01*
X129013000Y-62786126D01*
X129013000Y-63197874D01*
X129170569Y-63578280D01*
X129461720Y-63869431D01*
X129842126Y-64027000D01*
X130253874Y-64027000D01*
X130634280Y-63869431D01*
X130925431Y-63578280D01*
X131083000Y-63197874D01*
X131083000Y-62913126D01*
X133077000Y-62913126D01*
X133077000Y-63324874D01*
X133234569Y-63705280D01*
X133525720Y-63996431D01*
X133906126Y-64154000D01*
X134317874Y-64154000D01*
X134698280Y-63996431D01*
X134989431Y-63705280D01*
X135147000Y-63324874D01*
X135147000Y-62913126D01*
X135041790Y-62659126D01*
X145523000Y-62659126D01*
X145523000Y-63070874D01*
X145680569Y-63451280D01*
X145971720Y-63742431D01*
X146352126Y-63900000D01*
X146763874Y-63900000D01*
X147144280Y-63742431D01*
X147435431Y-63451280D01*
X147593000Y-63070874D01*
X147593000Y-62786126D01*
X149587000Y-62786126D01*
X149587000Y-63197874D01*
X149744569Y-63578280D01*
X150035720Y-63869431D01*
X150416126Y-64027000D01*
X150827874Y-64027000D01*
X151208280Y-63869431D01*
X151499431Y-63578280D01*
X151657000Y-63197874D01*
X151657000Y-62786126D01*
X151499431Y-62405720D01*
X151208280Y-62114569D01*
X150827874Y-61957000D01*
X150416126Y-61957000D01*
X150035720Y-62114569D01*
X149744569Y-62405720D01*
X149587000Y-62786126D01*
X147593000Y-62786126D01*
X147593000Y-62659126D01*
X147435431Y-62278720D01*
X147144280Y-61987569D01*
X146763874Y-61830000D01*
X146352126Y-61830000D01*
X145971720Y-61987569D01*
X145680569Y-62278720D01*
X145523000Y-62659126D01*
X135041790Y-62659126D01*
X134989431Y-62532720D01*
X134698280Y-62241569D01*
X134317874Y-62084000D01*
X133906126Y-62084000D01*
X133525720Y-62241569D01*
X133234569Y-62532720D01*
X133077000Y-62913126D01*
X131083000Y-62913126D01*
X131083000Y-62786126D01*
X130925431Y-62405720D01*
X130634280Y-62114569D01*
X130253874Y-61957000D01*
X129842126Y-61957000D01*
X129461720Y-62114569D01*
X129170569Y-62405720D01*
X129013000Y-62786126D01*
X126725131Y-62786126D01*
X126765000Y-62689874D01*
X126765000Y-62278126D01*
X126607431Y-61897720D01*
X126316280Y-61606569D01*
X125935874Y-61449000D01*
X125524126Y-61449000D01*
X125143720Y-61606569D01*
X124852569Y-61897720D01*
X124695000Y-62278126D01*
X117715931Y-62278126D01*
X117553874Y-62211000D01*
X117142126Y-62211000D01*
X116761720Y-62368569D01*
X116470569Y-62659720D01*
X116313000Y-63040126D01*
X114573000Y-63040126D01*
X114415431Y-62659720D01*
X114124280Y-62368569D01*
X113743874Y-62211000D01*
X113332126Y-62211000D01*
X112951720Y-62368569D01*
X112660569Y-62659720D01*
X112503000Y-63040126D01*
X109306857Y-63040126D01*
X109310053Y-61135126D01*
X114408000Y-61135126D01*
X114408000Y-61546874D01*
X114565569Y-61927280D01*
X114856720Y-62218431D01*
X115237126Y-62376000D01*
X115648874Y-62376000D01*
X116029280Y-62218431D01*
X116320431Y-61927280D01*
X116478000Y-61546874D01*
X116478000Y-61262126D01*
X131045000Y-61262126D01*
X131045000Y-61673874D01*
X131202569Y-62054280D01*
X131493720Y-62345431D01*
X131874126Y-62503000D01*
X132285874Y-62503000D01*
X132666280Y-62345431D01*
X132957431Y-62054280D01*
X133115000Y-61673874D01*
X133115000Y-61262126D01*
X132957431Y-60881720D01*
X132666280Y-60590569D01*
X132285874Y-60433000D01*
X131874126Y-60433000D01*
X131493720Y-60590569D01*
X131202569Y-60881720D01*
X131045000Y-61262126D01*
X116478000Y-61262126D01*
X116478000Y-61135126D01*
X116320431Y-60754720D01*
X116029280Y-60463569D01*
X115648874Y-60306000D01*
X115237126Y-60306000D01*
X114856720Y-60463569D01*
X114565569Y-60754720D01*
X114408000Y-61135126D01*
X109310053Y-61135126D01*
X109312823Y-59484126D01*
X112503000Y-59484126D01*
X112503000Y-59895874D01*
X112660569Y-60276280D01*
X112951720Y-60567431D01*
X113332126Y-60725000D01*
X113743874Y-60725000D01*
X114124280Y-60567431D01*
X114415431Y-60276280D01*
X114573000Y-59895874D01*
X114573000Y-59484126D01*
X116313000Y-59484126D01*
X116313000Y-59895874D01*
X116470569Y-60276280D01*
X116761720Y-60567431D01*
X117142126Y-60725000D01*
X117553874Y-60725000D01*
X117934280Y-60567431D01*
X118225431Y-60276280D01*
X118383000Y-59895874D01*
X118383000Y-59484126D01*
X129013000Y-59484126D01*
X129013000Y-59895874D01*
X129170569Y-60276280D01*
X129461720Y-60567431D01*
X129842126Y-60725000D01*
X130253874Y-60725000D01*
X130634280Y-60567431D01*
X130925431Y-60276280D01*
X131083000Y-59895874D01*
X131083000Y-59484126D01*
X132950000Y-59484126D01*
X132950000Y-59895874D01*
X133107569Y-60276280D01*
X133398720Y-60567431D01*
X133779126Y-60725000D01*
X134190874Y-60725000D01*
X134427163Y-60627126D01*
X139808000Y-60627126D01*
X139808000Y-61038874D01*
X139965569Y-61419280D01*
X140256720Y-61710431D01*
X140637126Y-61868000D01*
X141048874Y-61868000D01*
X141429280Y-61710431D01*
X141720431Y-61419280D01*
X141838131Y-61135126D01*
X147555000Y-61135126D01*
X147555000Y-61546874D01*
X147712569Y-61927280D01*
X148003720Y-62218431D01*
X148384126Y-62376000D01*
X148795874Y-62376000D01*
X149176280Y-62218431D01*
X149467431Y-61927280D01*
X149625000Y-61546874D01*
X149625000Y-61135126D01*
X157461000Y-61135126D01*
X157461000Y-61546874D01*
X157618569Y-61927280D01*
X157909720Y-62218431D01*
X158290126Y-62376000D01*
X158701874Y-62376000D01*
X159082280Y-62218431D01*
X159373431Y-61927280D01*
X159531000Y-61546874D01*
X159531000Y-61135126D01*
X159373431Y-60754720D01*
X159082280Y-60463569D01*
X158701874Y-60306000D01*
X158290126Y-60306000D01*
X157909720Y-60463569D01*
X157618569Y-60754720D01*
X157461000Y-61135126D01*
X149625000Y-61135126D01*
X149467431Y-60754720D01*
X149176280Y-60463569D01*
X148795874Y-60306000D01*
X148384126Y-60306000D01*
X148003720Y-60463569D01*
X147712569Y-60754720D01*
X147555000Y-61135126D01*
X141838131Y-61135126D01*
X141878000Y-61038874D01*
X141878000Y-60627126D01*
X141720431Y-60246720D01*
X141429280Y-59955569D01*
X141048874Y-59798000D01*
X140637126Y-59798000D01*
X140256720Y-59955569D01*
X139965569Y-60246720D01*
X139808000Y-60627126D01*
X134427163Y-60627126D01*
X134571280Y-60567431D01*
X134862431Y-60276280D01*
X135020000Y-59895874D01*
X135020000Y-59484126D01*
X134967395Y-59357126D01*
X145523000Y-59357126D01*
X145523000Y-59768874D01*
X145680569Y-60149280D01*
X145971720Y-60440431D01*
X146352126Y-60598000D01*
X146763874Y-60598000D01*
X147144280Y-60440431D01*
X147435431Y-60149280D01*
X147593000Y-59768874D01*
X147593000Y-59357126D01*
X149460000Y-59357126D01*
X149460000Y-59768874D01*
X149617569Y-60149280D01*
X149908720Y-60440431D01*
X150289126Y-60598000D01*
X150700874Y-60598000D01*
X151081280Y-60440431D01*
X151372431Y-60149280D01*
X151530000Y-59768874D01*
X151530000Y-59357126D01*
X151372431Y-58976720D01*
X151081280Y-58685569D01*
X150700874Y-58528000D01*
X150289126Y-58528000D01*
X149908720Y-58685569D01*
X149617569Y-58976720D01*
X149460000Y-59357126D01*
X147593000Y-59357126D01*
X147435431Y-58976720D01*
X147144280Y-58685569D01*
X146763874Y-58528000D01*
X146352126Y-58528000D01*
X145971720Y-58685569D01*
X145680569Y-58976720D01*
X145523000Y-59357126D01*
X134967395Y-59357126D01*
X134862431Y-59103720D01*
X134571280Y-58812569D01*
X134190874Y-58655000D01*
X133779126Y-58655000D01*
X133398720Y-58812569D01*
X133107569Y-59103720D01*
X132950000Y-59484126D01*
X131083000Y-59484126D01*
X130925431Y-59103720D01*
X130634280Y-58812569D01*
X130253874Y-58655000D01*
X129842126Y-58655000D01*
X129461720Y-58812569D01*
X129170569Y-59103720D01*
X129013000Y-59484126D01*
X118383000Y-59484126D01*
X118225431Y-59103720D01*
X117934280Y-58812569D01*
X117553874Y-58655000D01*
X117142126Y-58655000D01*
X116761720Y-58812569D01*
X116470569Y-59103720D01*
X116313000Y-59484126D01*
X114573000Y-59484126D01*
X114415431Y-59103720D01*
X114124280Y-58812569D01*
X113743874Y-58655000D01*
X113332126Y-58655000D01*
X112951720Y-58812569D01*
X112660569Y-59103720D01*
X112503000Y-59484126D01*
X109312823Y-59484126D01*
X109317084Y-56944126D01*
X122536000Y-56944126D01*
X122536000Y-57355874D01*
X122693569Y-57736280D01*
X122984720Y-58027431D01*
X123365126Y-58185000D01*
X123776874Y-58185000D01*
X124157280Y-58027431D01*
X124448431Y-57736280D01*
X124606000Y-57355874D01*
X124606000Y-56944126D01*
X139300000Y-56944126D01*
X139300000Y-57355874D01*
X139457569Y-57736280D01*
X139748720Y-58027431D01*
X140129126Y-58185000D01*
X140540874Y-58185000D01*
X140921280Y-58027431D01*
X141212431Y-57736280D01*
X141370000Y-57355874D01*
X141370000Y-56944126D01*
X155556000Y-56944126D01*
X155556000Y-57355874D01*
X155713569Y-57736280D01*
X156004720Y-58027431D01*
X156385126Y-58185000D01*
X156796874Y-58185000D01*
X157177280Y-58027431D01*
X157468431Y-57736280D01*
X157626000Y-57355874D01*
X157626000Y-56944126D01*
X157468431Y-56563720D01*
X157177280Y-56272569D01*
X156796874Y-56115000D01*
X156385126Y-56115000D01*
X156004720Y-56272569D01*
X155713569Y-56563720D01*
X155556000Y-56944126D01*
X141370000Y-56944126D01*
X141212431Y-56563720D01*
X140921280Y-56272569D01*
X140540874Y-56115000D01*
X140129126Y-56115000D01*
X139748720Y-56272569D01*
X139457569Y-56563720D01*
X139300000Y-56944126D01*
X124606000Y-56944126D01*
X124448431Y-56563720D01*
X124157280Y-56272569D01*
X123776874Y-56115000D01*
X123365126Y-56115000D01*
X122984720Y-56272569D01*
X122693569Y-56563720D01*
X122536000Y-56944126D01*
X109317084Y-56944126D01*
X109326491Y-51337927D01*
X114771637Y-51337927D01*
X114806678Y-51708239D01*
X114880975Y-51887607D01*
X115000500Y-51895108D01*
X115040392Y-51935000D01*
X115000500Y-51974892D01*
X114880975Y-51982393D01*
X114771637Y-52337927D01*
X114806678Y-52708239D01*
X114880975Y-52887607D01*
X115075576Y-52899819D01*
X115540395Y-52435000D01*
X115526253Y-52420858D01*
X115548961Y-52398149D01*
X115575576Y-52399819D01*
X115599299Y-52376096D01*
X115622927Y-52383363D01*
X115774579Y-52369013D01*
X115791091Y-52543514D01*
X115755181Y-52579424D01*
X115756851Y-52606039D01*
X115734143Y-52628748D01*
X115720000Y-52614605D01*
X115255181Y-53079424D01*
X115267393Y-53274025D01*
X115622927Y-53383363D01*
X115993239Y-53348322D01*
X116172607Y-53274025D01*
X116180108Y-53154500D01*
X116220000Y-53114608D01*
X116259892Y-53154500D01*
X116267393Y-53274025D01*
X116622927Y-53383363D01*
X116993239Y-53348322D01*
X117172607Y-53274025D01*
X117184819Y-53079424D01*
X116720000Y-52614605D01*
X116705858Y-52628748D01*
X116683149Y-52606039D01*
X116684819Y-52579424D01*
X116661096Y-52555701D01*
X116668363Y-52532073D01*
X116654013Y-52380421D01*
X116828514Y-52363909D01*
X116864424Y-52399819D01*
X116891039Y-52398149D01*
X116913748Y-52420858D01*
X116899605Y-52435000D01*
X117364424Y-52899819D01*
X117559025Y-52887607D01*
X117668363Y-52532073D01*
X117633322Y-52161761D01*
X117559025Y-51982393D01*
X117439500Y-51974892D01*
X117399608Y-51935000D01*
X117439500Y-51895108D01*
X117559025Y-51887607D01*
X117668363Y-51532073D01*
X117633322Y-51161761D01*
X117559025Y-50982393D01*
X117364424Y-50970181D01*
X116899605Y-51435000D01*
X116913748Y-51449143D01*
X116891039Y-51471851D01*
X116864424Y-51470181D01*
X116840701Y-51493904D01*
X116817073Y-51486637D01*
X116665421Y-51500987D01*
X116648909Y-51326486D01*
X116684819Y-51290576D01*
X116683149Y-51263961D01*
X116705858Y-51241253D01*
X116720000Y-51255395D01*
X117184819Y-50790576D01*
X117172607Y-50595975D01*
X116817073Y-50486637D01*
X116446761Y-50521678D01*
X116267393Y-50595975D01*
X116259892Y-50715500D01*
X116220000Y-50755392D01*
X116180108Y-50715500D01*
X116172607Y-50595975D01*
X115817073Y-50486637D01*
X115446761Y-50521678D01*
X115267393Y-50595975D01*
X115255181Y-50790576D01*
X115720000Y-51255395D01*
X115734143Y-51241253D01*
X115756851Y-51263961D01*
X115755181Y-51290576D01*
X115778904Y-51314299D01*
X115771637Y-51337927D01*
X115785987Y-51489579D01*
X115611486Y-51506091D01*
X115575576Y-51470181D01*
X115548961Y-51471851D01*
X115526253Y-51449143D01*
X115540395Y-51435000D01*
X115075576Y-50970181D01*
X114880975Y-50982393D01*
X114771637Y-51337927D01*
X109326491Y-51337927D01*
X109334133Y-46784126D01*
X113773000Y-46784126D01*
X113773000Y-47195874D01*
X113930569Y-47576280D01*
X114221720Y-47867431D01*
X114602126Y-48025000D01*
X115013874Y-48025000D01*
X115394280Y-47867431D01*
X115685431Y-47576280D01*
X115843000Y-47195874D01*
X115843000Y-46784126D01*
X115685431Y-46403720D01*
X115394280Y-46112569D01*
X115013874Y-45955000D01*
X114602126Y-45955000D01*
X114221720Y-46112569D01*
X113930569Y-46403720D01*
X113773000Y-46784126D01*
X109334133Y-46784126D01*
X109346787Y-39243000D01*
X124555674Y-39243000D01*
X124422191Y-39332191D01*
X124422191Y-39332191D01*
G37*
X124422191Y-39332191D02*
X124281843Y-39542235D01*
X124232560Y-39790000D01*
X124232560Y-41490000D01*
X124281843Y-41737765D01*
X124422191Y-41947809D01*
X124632235Y-42088157D01*
X124880000Y-42137440D01*
X126580000Y-42137440D01*
X126827765Y-42088157D01*
X127037809Y-41947809D01*
X127178157Y-41737765D01*
X127187184Y-41692381D01*
X127199375Y-41710625D01*
X127690582Y-42038839D01*
X128123744Y-42125000D01*
X128416256Y-42125000D01*
X128849418Y-42038839D01*
X129340625Y-41710625D01*
X129540000Y-41412239D01*
X129739375Y-41710625D01*
X130230582Y-42038839D01*
X130663744Y-42125000D01*
X130790198Y-42125000D01*
X123994527Y-48920672D01*
X123721530Y-49193669D01*
X123658071Y-49236071D01*
X123490096Y-49487464D01*
X123446000Y-49709149D01*
X123446000Y-49709153D01*
X123431112Y-49784000D01*
X123446000Y-49858847D01*
X123446001Y-50731288D01*
X123328569Y-50848720D01*
X123171000Y-51229126D01*
X123171000Y-51640874D01*
X123328569Y-52021280D01*
X123619720Y-52312431D01*
X124000126Y-52470000D01*
X124411874Y-52470000D01*
X124792280Y-52312431D01*
X124970000Y-52134711D01*
X124970000Y-52771198D01*
X124653199Y-53088000D01*
X121861711Y-53088000D01*
X121744280Y-52970569D01*
X121363874Y-52813000D01*
X120952126Y-52813000D01*
X120571720Y-52970569D01*
X120280569Y-53261720D01*
X120123000Y-53642126D01*
X120123000Y-54053874D01*
X120280569Y-54434280D01*
X120571720Y-54725431D01*
X120952126Y-54883000D01*
X121363874Y-54883000D01*
X121744280Y-54725431D01*
X121861711Y-54608000D01*
X124893153Y-54608000D01*
X124968000Y-54622888D01*
X125042847Y-54608000D01*
X125042852Y-54608000D01*
X125264537Y-54563904D01*
X125515929Y-54395929D01*
X125558331Y-54332470D01*
X126214473Y-53676329D01*
X126277929Y-53633929D01*
X126362788Y-53506929D01*
X126445904Y-53382538D01*
X126455480Y-53334395D01*
X126490000Y-53160852D01*
X126490000Y-53160848D01*
X126504888Y-53086000D01*
X126490000Y-53011152D01*
X126490000Y-51107927D01*
X131629637Y-51107927D01*
X131664678Y-51478239D01*
X131738975Y-51657607D01*
X131858500Y-51665108D01*
X131898392Y-51705000D01*
X131858500Y-51744892D01*
X131738975Y-51752393D01*
X131629637Y-52107927D01*
X131664678Y-52478239D01*
X131738975Y-52657607D01*
X131933576Y-52669819D01*
X132398395Y-52205000D01*
X132384253Y-52190858D01*
X132406961Y-52168149D01*
X132433576Y-52169819D01*
X132457299Y-52146096D01*
X132480927Y-52153363D01*
X132632579Y-52139013D01*
X132649091Y-52313514D01*
X132613181Y-52349424D01*
X132614851Y-52376039D01*
X132592143Y-52398748D01*
X132578000Y-52384605D01*
X132113181Y-52849424D01*
X132125393Y-53044025D01*
X132480927Y-53153363D01*
X132851239Y-53118322D01*
X133030607Y-53044025D01*
X133038108Y-52924500D01*
X133078000Y-52884608D01*
X133117892Y-52924500D01*
X133125393Y-53044025D01*
X133480927Y-53153363D01*
X133851239Y-53118322D01*
X134030607Y-53044025D01*
X134042819Y-52849424D01*
X133578000Y-52384605D01*
X133563858Y-52398748D01*
X133541149Y-52376039D01*
X133542819Y-52349424D01*
X133519096Y-52325701D01*
X133526363Y-52302073D01*
X133512013Y-52150421D01*
X133686514Y-52133909D01*
X133722424Y-52169819D01*
X133749039Y-52168149D01*
X133771748Y-52190858D01*
X133757605Y-52205000D01*
X134222424Y-52669819D01*
X134417025Y-52657607D01*
X134526363Y-52302073D01*
X134491322Y-51931761D01*
X134417025Y-51752393D01*
X134297500Y-51744892D01*
X134257608Y-51705000D01*
X134297500Y-51665108D01*
X134417025Y-51657607D01*
X134526363Y-51302073D01*
X134491322Y-50931761D01*
X134417025Y-50752393D01*
X134222424Y-50740181D01*
X133757605Y-51205000D01*
X133771748Y-51219143D01*
X133749039Y-51241851D01*
X133722424Y-51240181D01*
X133698701Y-51263904D01*
X133675073Y-51256637D01*
X133523421Y-51270987D01*
X133506909Y-51096486D01*
X133542819Y-51060576D01*
X133541149Y-51033961D01*
X133563858Y-51011253D01*
X133578000Y-51025395D01*
X134042819Y-50560576D01*
X134030607Y-50365975D01*
X133675073Y-50256637D01*
X133304761Y-50291678D01*
X133125393Y-50365975D01*
X133117892Y-50485500D01*
X133078000Y-50525392D01*
X133038108Y-50485500D01*
X133030607Y-50365975D01*
X132675073Y-50256637D01*
X132304761Y-50291678D01*
X132125393Y-50365975D01*
X132113181Y-50560576D01*
X132578000Y-51025395D01*
X132592143Y-51011253D01*
X132614851Y-51033961D01*
X132613181Y-51060576D01*
X132636904Y-51084299D01*
X132629637Y-51107927D01*
X132643987Y-51259579D01*
X132469486Y-51276091D01*
X132433576Y-51240181D01*
X132406961Y-51241851D01*
X132384253Y-51219143D01*
X132398395Y-51205000D01*
X131933576Y-50740181D01*
X131738975Y-50752393D01*
X131629637Y-51107927D01*
X126490000Y-51107927D01*
X126490000Y-50225801D01*
X129931676Y-46784126D01*
X130537000Y-46784126D01*
X130537000Y-47195874D01*
X130694569Y-47576280D01*
X130985720Y-47867431D01*
X131366126Y-48025000D01*
X131777874Y-48025000D01*
X132158280Y-47867431D01*
X132449431Y-47576280D01*
X132607000Y-47195874D01*
X132607000Y-46784126D01*
X132449431Y-46403720D01*
X132158280Y-46112569D01*
X131777874Y-45955000D01*
X131366126Y-45955000D01*
X130985720Y-46112569D01*
X130694569Y-46403720D01*
X130537000Y-46784126D01*
X129931676Y-46784126D01*
X132775803Y-43940000D01*
X134926153Y-43940000D01*
X135001000Y-43954888D01*
X135075847Y-43940000D01*
X135075852Y-43940000D01*
X135297537Y-43895904D01*
X135548929Y-43727929D01*
X135591331Y-43664470D01*
X136374473Y-42881329D01*
X136437929Y-42838929D01*
X136605904Y-42587537D01*
X136650000Y-42365852D01*
X136650000Y-42365847D01*
X136664888Y-42291000D01*
X136650000Y-42216153D01*
X136650000Y-41918178D01*
X136960625Y-41710625D01*
X137160000Y-41412239D01*
X137359375Y-41710625D01*
X137670001Y-41918179D01*
X137670000Y-51231596D01*
X137335720Y-51370059D01*
X137044569Y-51661210D01*
X136887000Y-52041616D01*
X136887000Y-52453364D01*
X137044569Y-52833770D01*
X137335720Y-53124921D01*
X137716126Y-53282490D01*
X138127874Y-53282490D01*
X138508280Y-53124921D01*
X138799431Y-52833770D01*
X138957000Y-52453364D01*
X138957000Y-52301403D01*
X138977929Y-52287419D01*
X139020327Y-52223966D01*
X139020329Y-52223964D01*
X139132296Y-52056393D01*
X139145904Y-52036027D01*
X139190000Y-51814342D01*
X139190000Y-51814338D01*
X139204888Y-51739491D01*
X139190000Y-51664644D01*
X139190000Y-41918178D01*
X139500625Y-41710625D01*
X139700000Y-41412239D01*
X139899375Y-41710625D01*
X140210001Y-41918179D01*
X140210000Y-52644197D01*
X139533198Y-53321000D01*
X139367126Y-53321000D01*
X138986720Y-53478569D01*
X138695569Y-53769720D01*
X138538000Y-54150126D01*
X138538000Y-54561874D01*
X138695569Y-54942280D01*
X138986720Y-55233431D01*
X139367126Y-55391000D01*
X139778874Y-55391000D01*
X140159280Y-55233431D01*
X140450431Y-54942280D01*
X140608000Y-54561874D01*
X140608000Y-54395802D01*
X141454476Y-53549327D01*
X141517929Y-53506929D01*
X141560327Y-53443476D01*
X141560329Y-53443474D01*
X141656147Y-53300071D01*
X141685904Y-53255537D01*
X141730000Y-53033852D01*
X141730000Y-53033848D01*
X141744888Y-52959001D01*
X141730000Y-52884154D01*
X141730000Y-51411927D01*
X147827637Y-51411927D01*
X147862678Y-51782239D01*
X147936975Y-51961607D01*
X148056500Y-51969108D01*
X148096392Y-52009000D01*
X148056500Y-52048892D01*
X147936975Y-52056393D01*
X147827637Y-52411927D01*
X147862678Y-52782239D01*
X147936975Y-52961607D01*
X148131576Y-52973819D01*
X148596395Y-52509000D01*
X148582253Y-52494858D01*
X148604961Y-52472149D01*
X148631576Y-52473819D01*
X148655299Y-52450096D01*
X148678927Y-52457363D01*
X148830579Y-52443013D01*
X148847091Y-52617514D01*
X148811181Y-52653424D01*
X148812851Y-52680039D01*
X148790143Y-52702748D01*
X148776000Y-52688605D01*
X148311181Y-53153424D01*
X148323393Y-53348025D01*
X148678927Y-53457363D01*
X149049239Y-53422322D01*
X149228607Y-53348025D01*
X149236108Y-53228500D01*
X149276000Y-53188608D01*
X149315892Y-53228500D01*
X149323393Y-53348025D01*
X149678927Y-53457363D01*
X150049239Y-53422322D01*
X150228607Y-53348025D01*
X150240819Y-53153424D01*
X149776000Y-52688605D01*
X149761858Y-52702748D01*
X149739149Y-52680039D01*
X149740819Y-52653424D01*
X149717096Y-52629701D01*
X149724363Y-52606073D01*
X149710013Y-52454421D01*
X149884514Y-52437909D01*
X149920424Y-52473819D01*
X149947039Y-52472149D01*
X149969748Y-52494858D01*
X149955605Y-52509000D01*
X150420424Y-52973819D01*
X150615025Y-52961607D01*
X150724363Y-52606073D01*
X150689322Y-52235761D01*
X150615025Y-52056393D01*
X150495500Y-52048892D01*
X150455608Y-52009000D01*
X150495500Y-51969108D01*
X150615025Y-51961607D01*
X150724363Y-51606073D01*
X150689322Y-51235761D01*
X150615025Y-51056393D01*
X150420424Y-51044181D01*
X149955605Y-51509000D01*
X149969748Y-51523143D01*
X149947039Y-51545851D01*
X149920424Y-51544181D01*
X149896701Y-51567904D01*
X149873073Y-51560637D01*
X149721421Y-51574987D01*
X149704909Y-51400486D01*
X149740819Y-51364576D01*
X149739149Y-51337961D01*
X149761858Y-51315253D01*
X149776000Y-51329395D01*
X150240819Y-50864576D01*
X150228607Y-50669975D01*
X149873073Y-50560637D01*
X149502761Y-50595678D01*
X149323393Y-50669975D01*
X149315892Y-50789500D01*
X149276000Y-50829392D01*
X149236108Y-50789500D01*
X149228607Y-50669975D01*
X148873073Y-50560637D01*
X148502761Y-50595678D01*
X148323393Y-50669975D01*
X148311181Y-50864576D01*
X148776000Y-51329395D01*
X148790143Y-51315253D01*
X148812851Y-51337961D01*
X148811181Y-51364576D01*
X148834904Y-51388299D01*
X148827637Y-51411927D01*
X148841987Y-51563579D01*
X148667486Y-51580091D01*
X148631576Y-51544181D01*
X148604961Y-51545851D01*
X148582253Y-51523143D01*
X148596395Y-51509000D01*
X148131576Y-51044181D01*
X147936975Y-51056393D01*
X147827637Y-51411927D01*
X141730000Y-51411927D01*
X141730000Y-46911126D01*
X146793000Y-46911126D01*
X146793000Y-47322874D01*
X146950569Y-47703280D01*
X147241720Y-47994431D01*
X147622126Y-48152000D01*
X148033874Y-48152000D01*
X148414280Y-47994431D01*
X148705431Y-47703280D01*
X148863000Y-47322874D01*
X148863000Y-46911126D01*
X148705431Y-46530720D01*
X148414280Y-46239569D01*
X148033874Y-46082000D01*
X147622126Y-46082000D01*
X147241720Y-46239569D01*
X146950569Y-46530720D01*
X146793000Y-46911126D01*
X141730000Y-46911126D01*
X141730000Y-45413059D01*
X154410546Y-45413059D01*
X154545904Y-45711055D01*
X155264280Y-45987666D01*
X156033827Y-45968310D01*
X156654896Y-45711055D01*
X156790254Y-45413059D01*
X155600400Y-44223205D01*
X154410546Y-45413059D01*
X141730000Y-45413059D01*
X141730000Y-43707480D01*
X153656334Y-43707480D01*
X153675690Y-44477027D01*
X153932945Y-45098096D01*
X154230941Y-45233454D01*
X155420795Y-44043600D01*
X155780005Y-44043600D01*
X156969859Y-45233454D01*
X157267855Y-45098096D01*
X157544466Y-44379720D01*
X157525110Y-43610173D01*
X157267855Y-42989104D01*
X156969859Y-42853746D01*
X155780005Y-44043600D01*
X155420795Y-44043600D01*
X154230941Y-42853746D01*
X153932945Y-42989104D01*
X153656334Y-43707480D01*
X141730000Y-43707480D01*
X141730000Y-42674141D01*
X154410546Y-42674141D01*
X155600400Y-43863995D01*
X156720795Y-42743600D01*
X158652960Y-42743600D01*
X158652960Y-45343600D01*
X158702243Y-45591365D01*
X158842591Y-45801409D01*
X159052635Y-45941757D01*
X159300400Y-45991040D01*
X161900400Y-45991040D01*
X162148165Y-45941757D01*
X162358209Y-45801409D01*
X162498557Y-45591365D01*
X162547840Y-45343600D01*
X162547840Y-42743600D01*
X162498557Y-42495835D01*
X162358209Y-42285791D01*
X162148165Y-42145443D01*
X161900400Y-42096160D01*
X159300400Y-42096160D01*
X159052635Y-42145443D01*
X158842591Y-42285791D01*
X158702243Y-42495835D01*
X158652960Y-42743600D01*
X156720795Y-42743600D01*
X156790254Y-42674141D01*
X156654896Y-42376145D01*
X155936520Y-42099534D01*
X155166973Y-42118890D01*
X154545904Y-42376145D01*
X154410546Y-42674141D01*
X141730000Y-42674141D01*
X141730000Y-41918178D01*
X142040625Y-41710625D01*
X142240000Y-41412239D01*
X142439375Y-41710625D01*
X142930582Y-42038839D01*
X143363744Y-42125000D01*
X143656256Y-42125000D01*
X144089418Y-42038839D01*
X144580625Y-41710625D01*
X144780000Y-41412239D01*
X144979375Y-41710625D01*
X145470582Y-42038839D01*
X145903744Y-42125000D01*
X146196256Y-42125000D01*
X146629418Y-42038839D01*
X147120625Y-41710625D01*
X147448839Y-41219418D01*
X147564092Y-40640000D01*
X147448839Y-40060582D01*
X147120625Y-39569375D01*
X146632170Y-39243000D01*
X163702787Y-39243000D01*
X163601613Y-99542600D01*
X109245613Y-99542600D01*
X109255805Y-93468105D01*
X110366000Y-93468105D01*
X110366000Y-94237895D01*
X110660586Y-94949090D01*
X111204910Y-95493414D01*
X111916105Y-95788000D01*
X112685895Y-95788000D01*
X113397090Y-95493414D01*
X113941414Y-94949090D01*
X114236000Y-94237895D01*
X114236000Y-93468105D01*
X115366000Y-93468105D01*
X115366000Y-94237895D01*
X115660586Y-94949090D01*
X116204910Y-95493414D01*
X116916105Y-95788000D01*
X117685895Y-95788000D01*
X118397090Y-95493414D01*
X118941414Y-94949090D01*
X119236000Y-94237895D01*
X119236000Y-93468105D01*
X118941414Y-92756910D01*
X118737504Y-92553000D01*
X120353560Y-92553000D01*
X120353560Y-95153000D01*
X120402843Y-95400765D01*
X120543191Y-95610809D01*
X120753235Y-95751157D01*
X121001000Y-95800440D01*
X123601000Y-95800440D01*
X123848765Y-95751157D01*
X124058809Y-95610809D01*
X124199157Y-95400765D01*
X124248440Y-95153000D01*
X124248440Y-92553000D01*
X124199157Y-92305235D01*
X124058809Y-92095191D01*
X123848765Y-91954843D01*
X123601000Y-91905560D01*
X121001000Y-91905560D01*
X120753235Y-91954843D01*
X120543191Y-92095191D01*
X120402843Y-92305235D01*
X120353560Y-92553000D01*
X118737504Y-92553000D01*
X118397090Y-92212586D01*
X117685895Y-91918000D01*
X116916105Y-91918000D01*
X116204910Y-92212586D01*
X115660586Y-92756910D01*
X115366000Y-93468105D01*
X114236000Y-93468105D01*
X113941414Y-92756910D01*
X113397090Y-92212586D01*
X112685895Y-91918000D01*
X111916105Y-91918000D01*
X111204910Y-92212586D01*
X110660586Y-92756910D01*
X110366000Y-93468105D01*
X109255805Y-93468105D01*
X109275321Y-81836126D01*
X112630000Y-81836126D01*
X112630000Y-82247874D01*
X112787569Y-82628280D01*
X113078720Y-82919431D01*
X113459126Y-83077000D01*
X113870874Y-83077000D01*
X114251280Y-82919431D01*
X114542431Y-82628280D01*
X114700000Y-82247874D01*
X114700000Y-81836126D01*
X114647395Y-81709126D01*
X129775000Y-81709126D01*
X129775000Y-82120874D01*
X129932569Y-82501280D01*
X130223720Y-82792431D01*
X130604126Y-82950000D01*
X131015874Y-82950000D01*
X131396280Y-82792431D01*
X131687431Y-82501280D01*
X131845000Y-82120874D01*
X131845000Y-81836126D01*
X146285000Y-81836126D01*
X146285000Y-82247874D01*
X146442569Y-82628280D01*
X146733720Y-82919431D01*
X147114126Y-83077000D01*
X147525874Y-83077000D01*
X147906280Y-82919431D01*
X148197431Y-82628280D01*
X148355000Y-82247874D01*
X148355000Y-81836126D01*
X148197431Y-81455720D01*
X147906280Y-81164569D01*
X147525874Y-81007000D01*
X147114126Y-81007000D01*
X146733720Y-81164569D01*
X146442569Y-81455720D01*
X146285000Y-81836126D01*
X131845000Y-81836126D01*
X131845000Y-81709126D01*
X131687431Y-81328720D01*
X131396280Y-81037569D01*
X131015874Y-80880000D01*
X130604126Y-80880000D01*
X130223720Y-81037569D01*
X129932569Y-81328720D01*
X129775000Y-81709126D01*
X114647395Y-81709126D01*
X114542431Y-81455720D01*
X114251280Y-81164569D01*
X113870874Y-81007000D01*
X113459126Y-81007000D01*
X113078720Y-81164569D01*
X112787569Y-81455720D01*
X112630000Y-81836126D01*
X109275321Y-81836126D01*
X109282992Y-77264126D01*
X117075000Y-77264126D01*
X117075000Y-77675874D01*
X117232569Y-78056280D01*
X117523720Y-78347431D01*
X117904126Y-78505000D01*
X118315874Y-78505000D01*
X118696280Y-78347431D01*
X118987431Y-78056280D01*
X119145000Y-77675874D01*
X119145000Y-77264126D01*
X133839000Y-77264126D01*
X133839000Y-77675874D01*
X133996569Y-78056280D01*
X134287720Y-78347431D01*
X134668126Y-78505000D01*
X135079874Y-78505000D01*
X135460280Y-78347431D01*
X135751431Y-78056280D01*
X135909000Y-77675874D01*
X135909000Y-77391126D01*
X150984000Y-77391126D01*
X150984000Y-77802874D01*
X151141569Y-78183280D01*
X151432720Y-78474431D01*
X151813126Y-78632000D01*
X152224874Y-78632000D01*
X152605280Y-78474431D01*
X152896431Y-78183280D01*
X153054000Y-77802874D01*
X153054000Y-77391126D01*
X152896431Y-77010720D01*
X152605280Y-76719569D01*
X152224874Y-76562000D01*
X151813126Y-76562000D01*
X151432720Y-76719569D01*
X151141569Y-77010720D01*
X150984000Y-77391126D01*
X135909000Y-77391126D01*
X135909000Y-77264126D01*
X135751431Y-76883720D01*
X135460280Y-76592569D01*
X135079874Y-76435000D01*
X134668126Y-76435000D01*
X134287720Y-76592569D01*
X133996569Y-76883720D01*
X133839000Y-77264126D01*
X119145000Y-77264126D01*
X118987431Y-76883720D01*
X118696280Y-76592569D01*
X118315874Y-76435000D01*
X117904126Y-76435000D01*
X117523720Y-76592569D01*
X117232569Y-76883720D01*
X117075000Y-77264126D01*
X109282992Y-77264126D01*
X109291942Y-71930126D01*
X112503000Y-71930126D01*
X112503000Y-72341874D01*
X112660569Y-72722280D01*
X112951720Y-73013431D01*
X113332126Y-73171000D01*
X113743874Y-73171000D01*
X114124280Y-73013431D01*
X114415431Y-72722280D01*
X114573000Y-72341874D01*
X114573000Y-71930126D01*
X116313000Y-71930126D01*
X116313000Y-72341874D01*
X116470569Y-72722280D01*
X116761720Y-73013431D01*
X117142126Y-73171000D01*
X117553874Y-73171000D01*
X117934280Y-73013431D01*
X118225431Y-72722280D01*
X118383000Y-72341874D01*
X118383000Y-72184126D01*
X129140000Y-72184126D01*
X129140000Y-72595874D01*
X129297569Y-72976280D01*
X129588720Y-73267431D01*
X129969126Y-73425000D01*
X130380874Y-73425000D01*
X130761280Y-73267431D01*
X131052431Y-72976280D01*
X131210000Y-72595874D01*
X131210000Y-72184126D01*
X132950000Y-72184126D01*
X132950000Y-72595874D01*
X133107569Y-72976280D01*
X133398720Y-73267431D01*
X133779126Y-73425000D01*
X134190874Y-73425000D01*
X134571280Y-73267431D01*
X134862431Y-72976280D01*
X135020000Y-72595874D01*
X135020000Y-72184126D01*
X134914790Y-71930126D01*
X145269000Y-71930126D01*
X145269000Y-72341874D01*
X145426569Y-72722280D01*
X145717720Y-73013431D01*
X146098126Y-73171000D01*
X146509874Y-73171000D01*
X146890280Y-73013431D01*
X147181431Y-72722280D01*
X147339000Y-72341874D01*
X147339000Y-72057126D01*
X149333000Y-72057126D01*
X149333000Y-72468874D01*
X149490569Y-72849280D01*
X149781720Y-73140431D01*
X150162126Y-73298000D01*
X150573874Y-73298000D01*
X150954280Y-73140431D01*
X151245431Y-72849280D01*
X151403000Y-72468874D01*
X151403000Y-72057126D01*
X151245431Y-71676720D01*
X150954280Y-71385569D01*
X150573874Y-71228000D01*
X150162126Y-71228000D01*
X149781720Y-71385569D01*
X149490569Y-71676720D01*
X149333000Y-72057126D01*
X147339000Y-72057126D01*
X147339000Y-71930126D01*
X147181431Y-71549720D01*
X146890280Y-71258569D01*
X146509874Y-71101000D01*
X146098126Y-71101000D01*
X145717720Y-71258569D01*
X145426569Y-71549720D01*
X145269000Y-71930126D01*
X134914790Y-71930126D01*
X134862431Y-71803720D01*
X134571280Y-71512569D01*
X134190874Y-71355000D01*
X133779126Y-71355000D01*
X133398720Y-71512569D01*
X133107569Y-71803720D01*
X132950000Y-72184126D01*
X131210000Y-72184126D01*
X131052431Y-71803720D01*
X130761280Y-71512569D01*
X130380874Y-71355000D01*
X129969126Y-71355000D01*
X129588720Y-71512569D01*
X129297569Y-71803720D01*
X129140000Y-72184126D01*
X118383000Y-72184126D01*
X118383000Y-71930126D01*
X118225431Y-71549720D01*
X117934280Y-71258569D01*
X117553874Y-71101000D01*
X117142126Y-71101000D01*
X116761720Y-71258569D01*
X116470569Y-71549720D01*
X116313000Y-71930126D01*
X114573000Y-71930126D01*
X114415431Y-71549720D01*
X114124280Y-71258569D01*
X113743874Y-71101000D01*
X113332126Y-71101000D01*
X112951720Y-71258569D01*
X112660569Y-71549720D01*
X112503000Y-71930126D01*
X109291942Y-71930126D01*
X109295138Y-70025126D01*
X114408000Y-70025126D01*
X114408000Y-70436874D01*
X114565569Y-70817280D01*
X114856720Y-71108431D01*
X115237126Y-71266000D01*
X115648874Y-71266000D01*
X116029280Y-71108431D01*
X116320431Y-70817280D01*
X116478000Y-70436874D01*
X116478000Y-70279126D01*
X123298000Y-70279126D01*
X123298000Y-70690874D01*
X123455569Y-71071280D01*
X123746720Y-71362431D01*
X124127126Y-71520000D01*
X124538874Y-71520000D01*
X124919280Y-71362431D01*
X125210431Y-71071280D01*
X125368000Y-70690874D01*
X125368000Y-70406126D01*
X131045000Y-70406126D01*
X131045000Y-70817874D01*
X131202569Y-71198280D01*
X131493720Y-71489431D01*
X131874126Y-71647000D01*
X132285874Y-71647000D01*
X132666280Y-71489431D01*
X132957431Y-71198280D01*
X133115000Y-70817874D01*
X133115000Y-70406126D01*
X132957431Y-70025720D01*
X132702837Y-69771126D01*
X139681000Y-69771126D01*
X139681000Y-70182874D01*
X139838569Y-70563280D01*
X140129720Y-70854431D01*
X140510126Y-71012000D01*
X140921874Y-71012000D01*
X141302280Y-70854431D01*
X141593431Y-70563280D01*
X141658526Y-70406126D01*
X147301000Y-70406126D01*
X147301000Y-70817874D01*
X147458569Y-71198280D01*
X147749720Y-71489431D01*
X148130126Y-71647000D01*
X148541874Y-71647000D01*
X148922280Y-71489431D01*
X149213431Y-71198280D01*
X149371000Y-70817874D01*
X149371000Y-70406126D01*
X149265790Y-70152126D01*
X156064000Y-70152126D01*
X156064000Y-70563874D01*
X156221569Y-70944280D01*
X156512720Y-71235431D01*
X156893126Y-71393000D01*
X157304874Y-71393000D01*
X157685280Y-71235431D01*
X157976431Y-70944280D01*
X158134000Y-70563874D01*
X158134000Y-70152126D01*
X157976431Y-69771720D01*
X157685280Y-69480569D01*
X157304874Y-69323000D01*
X156893126Y-69323000D01*
X156512720Y-69480569D01*
X156221569Y-69771720D01*
X156064000Y-70152126D01*
X149265790Y-70152126D01*
X149213431Y-70025720D01*
X148922280Y-69734569D01*
X148541874Y-69577000D01*
X148130126Y-69577000D01*
X147749720Y-69734569D01*
X147458569Y-70025720D01*
X147301000Y-70406126D01*
X141658526Y-70406126D01*
X141751000Y-70182874D01*
X141751000Y-69771126D01*
X141593431Y-69390720D01*
X141302280Y-69099569D01*
X140921874Y-68942000D01*
X140510126Y-68942000D01*
X140129720Y-69099569D01*
X139838569Y-69390720D01*
X139681000Y-69771126D01*
X132702837Y-69771126D01*
X132666280Y-69734569D01*
X132285874Y-69577000D01*
X131874126Y-69577000D01*
X131493720Y-69734569D01*
X131202569Y-70025720D01*
X131045000Y-70406126D01*
X125368000Y-70406126D01*
X125368000Y-70279126D01*
X125210431Y-69898720D01*
X124919280Y-69607569D01*
X124538874Y-69450000D01*
X124127126Y-69450000D01*
X123746720Y-69607569D01*
X123455569Y-69898720D01*
X123298000Y-70279126D01*
X116478000Y-70279126D01*
X116478000Y-70025126D01*
X116320431Y-69644720D01*
X116029280Y-69353569D01*
X115648874Y-69196000D01*
X115237126Y-69196000D01*
X114856720Y-69353569D01*
X114565569Y-69644720D01*
X114408000Y-70025126D01*
X109295138Y-70025126D01*
X109297908Y-68374126D01*
X112503000Y-68374126D01*
X112503000Y-68785874D01*
X112660569Y-69166280D01*
X112951720Y-69457431D01*
X113332126Y-69615000D01*
X113743874Y-69615000D01*
X114124280Y-69457431D01*
X114415431Y-69166280D01*
X114573000Y-68785874D01*
X114573000Y-68374126D01*
X116313000Y-68374126D01*
X116313000Y-68785874D01*
X116470569Y-69166280D01*
X116761720Y-69457431D01*
X117142126Y-69615000D01*
X117553874Y-69615000D01*
X117934280Y-69457431D01*
X118225431Y-69166280D01*
X118383000Y-68785874D01*
X118383000Y-68501126D01*
X129140000Y-68501126D01*
X129140000Y-68912874D01*
X129297569Y-69293280D01*
X129588720Y-69584431D01*
X129969126Y-69742000D01*
X130380874Y-69742000D01*
X130761280Y-69584431D01*
X131052431Y-69293280D01*
X131210000Y-68912874D01*
X131210000Y-68501126D01*
X132950000Y-68501126D01*
X132950000Y-68912874D01*
X133107569Y-69293280D01*
X133398720Y-69584431D01*
X133779126Y-69742000D01*
X134190874Y-69742000D01*
X134571280Y-69584431D01*
X134862431Y-69293280D01*
X135020000Y-68912874D01*
X135020000Y-68628126D01*
X145269000Y-68628126D01*
X145269000Y-69039874D01*
X145426569Y-69420280D01*
X145717720Y-69711431D01*
X146098126Y-69869000D01*
X146509874Y-69869000D01*
X146890280Y-69711431D01*
X147181431Y-69420280D01*
X147339000Y-69039874D01*
X147339000Y-68628126D01*
X149206000Y-68628126D01*
X149206000Y-69039874D01*
X149363569Y-69420280D01*
X149654720Y-69711431D01*
X150035126Y-69869000D01*
X150446874Y-69869000D01*
X150827280Y-69711431D01*
X151118431Y-69420280D01*
X151276000Y-69039874D01*
X151276000Y-68628126D01*
X151118431Y-68247720D01*
X150827280Y-67956569D01*
X150446874Y-67799000D01*
X150035126Y-67799000D01*
X149654720Y-67956569D01*
X149363569Y-68247720D01*
X149206000Y-68628126D01*
X147339000Y-68628126D01*
X147181431Y-68247720D01*
X146890280Y-67956569D01*
X146509874Y-67799000D01*
X146098126Y-67799000D01*
X145717720Y-67956569D01*
X145426569Y-68247720D01*
X145269000Y-68628126D01*
X135020000Y-68628126D01*
X135020000Y-68501126D01*
X134862431Y-68120720D01*
X134571280Y-67829569D01*
X134190874Y-67672000D01*
X133779126Y-67672000D01*
X133398720Y-67829569D01*
X133107569Y-68120720D01*
X132950000Y-68501126D01*
X131210000Y-68501126D01*
X131052431Y-68120720D01*
X130761280Y-67829569D01*
X130380874Y-67672000D01*
X129969126Y-67672000D01*
X129588720Y-67829569D01*
X129297569Y-68120720D01*
X129140000Y-68501126D01*
X118383000Y-68501126D01*
X118383000Y-68374126D01*
X118225431Y-67993720D01*
X117934280Y-67702569D01*
X117553874Y-67545000D01*
X117142126Y-67545000D01*
X116761720Y-67702569D01*
X116470569Y-67993720D01*
X116313000Y-68374126D01*
X114573000Y-68374126D01*
X114415431Y-67993720D01*
X114124280Y-67702569D01*
X113743874Y-67545000D01*
X113332126Y-67545000D01*
X112951720Y-67702569D01*
X112660569Y-67993720D01*
X112503000Y-68374126D01*
X109297908Y-68374126D01*
X109302169Y-65834126D01*
X120640000Y-65834126D01*
X120640000Y-66245874D01*
X120797569Y-66626280D01*
X121088720Y-66917431D01*
X121469126Y-67075000D01*
X121880874Y-67075000D01*
X122261280Y-66917431D01*
X122552431Y-66626280D01*
X122710000Y-66245874D01*
X122710000Y-65834126D01*
X122552431Y-65453720D01*
X122551837Y-65453126D01*
X137268000Y-65453126D01*
X137268000Y-65864874D01*
X137425569Y-66245280D01*
X137716720Y-66536431D01*
X138097126Y-66694000D01*
X138508874Y-66694000D01*
X138889280Y-66536431D01*
X139180431Y-66245280D01*
X139298131Y-65961126D01*
X153905000Y-65961126D01*
X153905000Y-66372874D01*
X154062569Y-66753280D01*
X154353720Y-67044431D01*
X154734126Y-67202000D01*
X155145874Y-67202000D01*
X155526280Y-67044431D01*
X155817431Y-66753280D01*
X155975000Y-66372874D01*
X155975000Y-65961126D01*
X155817431Y-65580720D01*
X155526280Y-65289569D01*
X155145874Y-65132000D01*
X154734126Y-65132000D01*
X154353720Y-65289569D01*
X154062569Y-65580720D01*
X153905000Y-65961126D01*
X139298131Y-65961126D01*
X139338000Y-65864874D01*
X139338000Y-65453126D01*
X139180431Y-65072720D01*
X138889280Y-64781569D01*
X138508874Y-64624000D01*
X138097126Y-64624000D01*
X137716720Y-64781569D01*
X137425569Y-65072720D01*
X137268000Y-65453126D01*
X122551837Y-65453126D01*
X122261280Y-65162569D01*
X121880874Y-65005000D01*
X121469126Y-65005000D01*
X121088720Y-65162569D01*
X120797569Y-65453720D01*
X120640000Y-65834126D01*
X109302169Y-65834126D01*
X109306857Y-63040126D01*
X112503000Y-63040126D01*
X112503000Y-63451874D01*
X112660569Y-63832280D01*
X112951720Y-64123431D01*
X113332126Y-64281000D01*
X113743874Y-64281000D01*
X114124280Y-64123431D01*
X114415431Y-63832280D01*
X114573000Y-63451874D01*
X114573000Y-63040126D01*
X116313000Y-63040126D01*
X116313000Y-63451874D01*
X116470569Y-63832280D01*
X116761720Y-64123431D01*
X117142126Y-64281000D01*
X117553874Y-64281000D01*
X117934280Y-64123431D01*
X118225431Y-63832280D01*
X118383000Y-63451874D01*
X118383000Y-63040126D01*
X118225431Y-62659720D01*
X117934280Y-62368569D01*
X117715931Y-62278126D01*
X124695000Y-62278126D01*
X124695000Y-62689874D01*
X124852569Y-63070280D01*
X125143720Y-63361431D01*
X125524126Y-63519000D01*
X125935874Y-63519000D01*
X126316280Y-63361431D01*
X126607431Y-63070280D01*
X126725131Y-62786126D01*
X129013000Y-62786126D01*
X129013000Y-63197874D01*
X129170569Y-63578280D01*
X129461720Y-63869431D01*
X129842126Y-64027000D01*
X130253874Y-64027000D01*
X130634280Y-63869431D01*
X130925431Y-63578280D01*
X131083000Y-63197874D01*
X131083000Y-62913126D01*
X133077000Y-62913126D01*
X133077000Y-63324874D01*
X133234569Y-63705280D01*
X133525720Y-63996431D01*
X133906126Y-64154000D01*
X134317874Y-64154000D01*
X134698280Y-63996431D01*
X134989431Y-63705280D01*
X135147000Y-63324874D01*
X135147000Y-62913126D01*
X135041790Y-62659126D01*
X145523000Y-62659126D01*
X145523000Y-63070874D01*
X145680569Y-63451280D01*
X145971720Y-63742431D01*
X146352126Y-63900000D01*
X146763874Y-63900000D01*
X147144280Y-63742431D01*
X147435431Y-63451280D01*
X147593000Y-63070874D01*
X147593000Y-62786126D01*
X149587000Y-62786126D01*
X149587000Y-63197874D01*
X149744569Y-63578280D01*
X150035720Y-63869431D01*
X150416126Y-64027000D01*
X150827874Y-64027000D01*
X151208280Y-63869431D01*
X151499431Y-63578280D01*
X151657000Y-63197874D01*
X151657000Y-62786126D01*
X151499431Y-62405720D01*
X151208280Y-62114569D01*
X150827874Y-61957000D01*
X150416126Y-61957000D01*
X150035720Y-62114569D01*
X149744569Y-62405720D01*
X149587000Y-62786126D01*
X147593000Y-62786126D01*
X147593000Y-62659126D01*
X147435431Y-62278720D01*
X147144280Y-61987569D01*
X146763874Y-61830000D01*
X146352126Y-61830000D01*
X145971720Y-61987569D01*
X145680569Y-62278720D01*
X145523000Y-62659126D01*
X135041790Y-62659126D01*
X134989431Y-62532720D01*
X134698280Y-62241569D01*
X134317874Y-62084000D01*
X133906126Y-62084000D01*
X133525720Y-62241569D01*
X133234569Y-62532720D01*
X133077000Y-62913126D01*
X131083000Y-62913126D01*
X131083000Y-62786126D01*
X130925431Y-62405720D01*
X130634280Y-62114569D01*
X130253874Y-61957000D01*
X129842126Y-61957000D01*
X129461720Y-62114569D01*
X129170569Y-62405720D01*
X129013000Y-62786126D01*
X126725131Y-62786126D01*
X126765000Y-62689874D01*
X126765000Y-62278126D01*
X126607431Y-61897720D01*
X126316280Y-61606569D01*
X125935874Y-61449000D01*
X125524126Y-61449000D01*
X125143720Y-61606569D01*
X124852569Y-61897720D01*
X124695000Y-62278126D01*
X117715931Y-62278126D01*
X117553874Y-62211000D01*
X117142126Y-62211000D01*
X116761720Y-62368569D01*
X116470569Y-62659720D01*
X116313000Y-63040126D01*
X114573000Y-63040126D01*
X114415431Y-62659720D01*
X114124280Y-62368569D01*
X113743874Y-62211000D01*
X113332126Y-62211000D01*
X112951720Y-62368569D01*
X112660569Y-62659720D01*
X112503000Y-63040126D01*
X109306857Y-63040126D01*
X109310053Y-61135126D01*
X114408000Y-61135126D01*
X114408000Y-61546874D01*
X114565569Y-61927280D01*
X114856720Y-62218431D01*
X115237126Y-62376000D01*
X115648874Y-62376000D01*
X116029280Y-62218431D01*
X116320431Y-61927280D01*
X116478000Y-61546874D01*
X116478000Y-61262126D01*
X131045000Y-61262126D01*
X131045000Y-61673874D01*
X131202569Y-62054280D01*
X131493720Y-62345431D01*
X131874126Y-62503000D01*
X132285874Y-62503000D01*
X132666280Y-62345431D01*
X132957431Y-62054280D01*
X133115000Y-61673874D01*
X133115000Y-61262126D01*
X132957431Y-60881720D01*
X132666280Y-60590569D01*
X132285874Y-60433000D01*
X131874126Y-60433000D01*
X131493720Y-60590569D01*
X131202569Y-60881720D01*
X131045000Y-61262126D01*
X116478000Y-61262126D01*
X116478000Y-61135126D01*
X116320431Y-60754720D01*
X116029280Y-60463569D01*
X115648874Y-60306000D01*
X115237126Y-60306000D01*
X114856720Y-60463569D01*
X114565569Y-60754720D01*
X114408000Y-61135126D01*
X109310053Y-61135126D01*
X109312823Y-59484126D01*
X112503000Y-59484126D01*
X112503000Y-59895874D01*
X112660569Y-60276280D01*
X112951720Y-60567431D01*
X113332126Y-60725000D01*
X113743874Y-60725000D01*
X114124280Y-60567431D01*
X114415431Y-60276280D01*
X114573000Y-59895874D01*
X114573000Y-59484126D01*
X116313000Y-59484126D01*
X116313000Y-59895874D01*
X116470569Y-60276280D01*
X116761720Y-60567431D01*
X117142126Y-60725000D01*
X117553874Y-60725000D01*
X117934280Y-60567431D01*
X118225431Y-60276280D01*
X118383000Y-59895874D01*
X118383000Y-59484126D01*
X129013000Y-59484126D01*
X129013000Y-59895874D01*
X129170569Y-60276280D01*
X129461720Y-60567431D01*
X129842126Y-60725000D01*
X130253874Y-60725000D01*
X130634280Y-60567431D01*
X130925431Y-60276280D01*
X131083000Y-59895874D01*
X131083000Y-59484126D01*
X132950000Y-59484126D01*
X132950000Y-59895874D01*
X133107569Y-60276280D01*
X133398720Y-60567431D01*
X133779126Y-60725000D01*
X134190874Y-60725000D01*
X134427163Y-60627126D01*
X139808000Y-60627126D01*
X139808000Y-61038874D01*
X139965569Y-61419280D01*
X140256720Y-61710431D01*
X140637126Y-61868000D01*
X141048874Y-61868000D01*
X141429280Y-61710431D01*
X141720431Y-61419280D01*
X141838131Y-61135126D01*
X147555000Y-61135126D01*
X147555000Y-61546874D01*
X147712569Y-61927280D01*
X148003720Y-62218431D01*
X148384126Y-62376000D01*
X148795874Y-62376000D01*
X149176280Y-62218431D01*
X149467431Y-61927280D01*
X149625000Y-61546874D01*
X149625000Y-61135126D01*
X157461000Y-61135126D01*
X157461000Y-61546874D01*
X157618569Y-61927280D01*
X157909720Y-62218431D01*
X158290126Y-62376000D01*
X158701874Y-62376000D01*
X159082280Y-62218431D01*
X159373431Y-61927280D01*
X159531000Y-61546874D01*
X159531000Y-61135126D01*
X159373431Y-60754720D01*
X159082280Y-60463569D01*
X158701874Y-60306000D01*
X158290126Y-60306000D01*
X157909720Y-60463569D01*
X157618569Y-60754720D01*
X157461000Y-61135126D01*
X149625000Y-61135126D01*
X149467431Y-60754720D01*
X149176280Y-60463569D01*
X148795874Y-60306000D01*
X148384126Y-60306000D01*
X148003720Y-60463569D01*
X147712569Y-60754720D01*
X147555000Y-61135126D01*
X141838131Y-61135126D01*
X141878000Y-61038874D01*
X141878000Y-60627126D01*
X141720431Y-60246720D01*
X141429280Y-59955569D01*
X141048874Y-59798000D01*
X140637126Y-59798000D01*
X140256720Y-59955569D01*
X139965569Y-60246720D01*
X139808000Y-60627126D01*
X134427163Y-60627126D01*
X134571280Y-60567431D01*
X134862431Y-60276280D01*
X135020000Y-59895874D01*
X135020000Y-59484126D01*
X134967395Y-59357126D01*
X145523000Y-59357126D01*
X145523000Y-59768874D01*
X145680569Y-60149280D01*
X145971720Y-60440431D01*
X146352126Y-60598000D01*
X146763874Y-60598000D01*
X147144280Y-60440431D01*
X147435431Y-60149280D01*
X147593000Y-59768874D01*
X147593000Y-59357126D01*
X149460000Y-59357126D01*
X149460000Y-59768874D01*
X149617569Y-60149280D01*
X149908720Y-60440431D01*
X150289126Y-60598000D01*
X150700874Y-60598000D01*
X151081280Y-60440431D01*
X151372431Y-60149280D01*
X151530000Y-59768874D01*
X151530000Y-59357126D01*
X151372431Y-58976720D01*
X151081280Y-58685569D01*
X150700874Y-58528000D01*
X150289126Y-58528000D01*
X149908720Y-58685569D01*
X149617569Y-58976720D01*
X149460000Y-59357126D01*
X147593000Y-59357126D01*
X147435431Y-58976720D01*
X147144280Y-58685569D01*
X146763874Y-58528000D01*
X146352126Y-58528000D01*
X145971720Y-58685569D01*
X145680569Y-58976720D01*
X145523000Y-59357126D01*
X134967395Y-59357126D01*
X134862431Y-59103720D01*
X134571280Y-58812569D01*
X134190874Y-58655000D01*
X133779126Y-58655000D01*
X133398720Y-58812569D01*
X133107569Y-59103720D01*
X132950000Y-59484126D01*
X131083000Y-59484126D01*
X130925431Y-59103720D01*
X130634280Y-58812569D01*
X130253874Y-58655000D01*
X129842126Y-58655000D01*
X129461720Y-58812569D01*
X129170569Y-59103720D01*
X129013000Y-59484126D01*
X118383000Y-59484126D01*
X118225431Y-59103720D01*
X117934280Y-58812569D01*
X117553874Y-58655000D01*
X117142126Y-58655000D01*
X116761720Y-58812569D01*
X116470569Y-59103720D01*
X116313000Y-59484126D01*
X114573000Y-59484126D01*
X114415431Y-59103720D01*
X114124280Y-58812569D01*
X113743874Y-58655000D01*
X113332126Y-58655000D01*
X112951720Y-58812569D01*
X112660569Y-59103720D01*
X112503000Y-59484126D01*
X109312823Y-59484126D01*
X109317084Y-56944126D01*
X122536000Y-56944126D01*
X122536000Y-57355874D01*
X122693569Y-57736280D01*
X122984720Y-58027431D01*
X123365126Y-58185000D01*
X123776874Y-58185000D01*
X124157280Y-58027431D01*
X124448431Y-57736280D01*
X124606000Y-57355874D01*
X124606000Y-56944126D01*
X139300000Y-56944126D01*
X139300000Y-57355874D01*
X139457569Y-57736280D01*
X139748720Y-58027431D01*
X140129126Y-58185000D01*
X140540874Y-58185000D01*
X140921280Y-58027431D01*
X141212431Y-57736280D01*
X141370000Y-57355874D01*
X141370000Y-56944126D01*
X155556000Y-56944126D01*
X155556000Y-57355874D01*
X155713569Y-57736280D01*
X156004720Y-58027431D01*
X156385126Y-58185000D01*
X156796874Y-58185000D01*
X157177280Y-58027431D01*
X157468431Y-57736280D01*
X157626000Y-57355874D01*
X157626000Y-56944126D01*
X157468431Y-56563720D01*
X157177280Y-56272569D01*
X156796874Y-56115000D01*
X156385126Y-56115000D01*
X156004720Y-56272569D01*
X155713569Y-56563720D01*
X155556000Y-56944126D01*
X141370000Y-56944126D01*
X141212431Y-56563720D01*
X140921280Y-56272569D01*
X140540874Y-56115000D01*
X140129126Y-56115000D01*
X139748720Y-56272569D01*
X139457569Y-56563720D01*
X139300000Y-56944126D01*
X124606000Y-56944126D01*
X124448431Y-56563720D01*
X124157280Y-56272569D01*
X123776874Y-56115000D01*
X123365126Y-56115000D01*
X122984720Y-56272569D01*
X122693569Y-56563720D01*
X122536000Y-56944126D01*
X109317084Y-56944126D01*
X109326491Y-51337927D01*
X114771637Y-51337927D01*
X114806678Y-51708239D01*
X114880975Y-51887607D01*
X115000500Y-51895108D01*
X115040392Y-51935000D01*
X115000500Y-51974892D01*
X114880975Y-51982393D01*
X114771637Y-52337927D01*
X114806678Y-52708239D01*
X114880975Y-52887607D01*
X115075576Y-52899819D01*
X115540395Y-52435000D01*
X115526253Y-52420858D01*
X115548961Y-52398149D01*
X115575576Y-52399819D01*
X115599299Y-52376096D01*
X115622927Y-52383363D01*
X115774579Y-52369013D01*
X115791091Y-52543514D01*
X115755181Y-52579424D01*
X115756851Y-52606039D01*
X115734143Y-52628748D01*
X115720000Y-52614605D01*
X115255181Y-53079424D01*
X115267393Y-53274025D01*
X115622927Y-53383363D01*
X115993239Y-53348322D01*
X116172607Y-53274025D01*
X116180108Y-53154500D01*
X116220000Y-53114608D01*
X116259892Y-53154500D01*
X116267393Y-53274025D01*
X116622927Y-53383363D01*
X116993239Y-53348322D01*
X117172607Y-53274025D01*
X117184819Y-53079424D01*
X116720000Y-52614605D01*
X116705858Y-52628748D01*
X116683149Y-52606039D01*
X116684819Y-52579424D01*
X116661096Y-52555701D01*
X116668363Y-52532073D01*
X116654013Y-52380421D01*
X116828514Y-52363909D01*
X116864424Y-52399819D01*
X116891039Y-52398149D01*
X116913748Y-52420858D01*
X116899605Y-52435000D01*
X117364424Y-52899819D01*
X117559025Y-52887607D01*
X117668363Y-52532073D01*
X117633322Y-52161761D01*
X117559025Y-51982393D01*
X117439500Y-51974892D01*
X117399608Y-51935000D01*
X117439500Y-51895108D01*
X117559025Y-51887607D01*
X117668363Y-51532073D01*
X117633322Y-51161761D01*
X117559025Y-50982393D01*
X117364424Y-50970181D01*
X116899605Y-51435000D01*
X116913748Y-51449143D01*
X116891039Y-51471851D01*
X116864424Y-51470181D01*
X116840701Y-51493904D01*
X116817073Y-51486637D01*
X116665421Y-51500987D01*
X116648909Y-51326486D01*
X116684819Y-51290576D01*
X116683149Y-51263961D01*
X116705858Y-51241253D01*
X116720000Y-51255395D01*
X117184819Y-50790576D01*
X117172607Y-50595975D01*
X116817073Y-50486637D01*
X116446761Y-50521678D01*
X116267393Y-50595975D01*
X116259892Y-50715500D01*
X116220000Y-50755392D01*
X116180108Y-50715500D01*
X116172607Y-50595975D01*
X115817073Y-50486637D01*
X115446761Y-50521678D01*
X115267393Y-50595975D01*
X115255181Y-50790576D01*
X115720000Y-51255395D01*
X115734143Y-51241253D01*
X115756851Y-51263961D01*
X115755181Y-51290576D01*
X115778904Y-51314299D01*
X115771637Y-51337927D01*
X115785987Y-51489579D01*
X115611486Y-51506091D01*
X115575576Y-51470181D01*
X115548961Y-51471851D01*
X115526253Y-51449143D01*
X115540395Y-51435000D01*
X115075576Y-50970181D01*
X114880975Y-50982393D01*
X114771637Y-51337927D01*
X109326491Y-51337927D01*
X109334133Y-46784126D01*
X113773000Y-46784126D01*
X113773000Y-47195874D01*
X113930569Y-47576280D01*
X114221720Y-47867431D01*
X114602126Y-48025000D01*
X115013874Y-48025000D01*
X115394280Y-47867431D01*
X115685431Y-47576280D01*
X115843000Y-47195874D01*
X115843000Y-46784126D01*
X115685431Y-46403720D01*
X115394280Y-46112569D01*
X115013874Y-45955000D01*
X114602126Y-45955000D01*
X114221720Y-46112569D01*
X113930569Y-46403720D01*
X113773000Y-46784126D01*
X109334133Y-46784126D01*
X109346787Y-39243000D01*
X124555674Y-39243000D01*
X124422191Y-39332191D01*
G04 #@! TD*
M02*
