M48
;DRILL file {KiCad (5.0.1)-3} date 2021-02-08 5:11:58 PM
;FORMAT={-:-/ absolute / inch / decimal}
FMAT,2
INCH,TZ
T1C0.0118
T2C0.0157
T3C0.0394
T4C0.0512
%
G90
G05
M72
T1
X4.5559Y-2.025
X4.5756Y-2.0447
X5.2196Y-2.0159
X5.2196Y-2.0553
X5.2393Y-2.0356
X5.259Y-2.0159
X5.259Y-2.0553
X5.8573Y-2.0279
X5.8573Y-2.0673
X5.877Y-2.0476
X5.8967Y-2.0279
X5.8967Y-2.0673
X4.5559Y-2.0644
X4.5953Y-2.025
X4.5953Y-2.0644
T2
X4.47Y-2.35
X4.47Y-2.49
X4.47Y-2.7
X4.47Y-2.84
X4.475Y-3.23
X4.52Y-1.85
X4.545Y-2.415
X4.545Y-2.765
X4.62Y-2.35
X4.62Y-2.49
X4.62Y-2.7
X4.62Y-2.84
X4.65Y-3.05
X4.77Y-2.12
X4.7904Y-2.6
X4.865Y-2.25
X4.89Y-2.025
X4.895Y-2.775
X4.95Y-2.46
X5.12Y-2.35
X5.12Y-2.48
X5.125Y-2.705
X5.125Y-2.85
X5.15Y-3.225
X5.18Y-1.85
X5.2Y-2.42
X5.2Y-2.78
X5.275Y-2.35
X5.275Y-2.705
X5.275Y-2.85
X5.28Y-2.485
X5.31Y-3.05
X5.43Y-2.057
X5.445Y-2.585
X5.495Y-2.14
X5.525Y-2.25
X5.54Y-2.755
X5.545Y-2.395
X5.76Y-2.71
X5.76Y-2.84
X5.77Y-2.345
X5.77Y-2.475
X5.8Y-3.23
X5.82Y-1.855
X5.84Y-2.78
X5.85Y-2.415
X5.915Y-2.71
X5.92Y-2.845
X5.925Y-2.345
X5.93Y-2.48
X5.985Y-3.055
X6.1Y-2.605
X6.165Y-2.25
X6.185Y-2.77
X6.24Y-2.415
T3
X4.95Y-1.6
X5.05Y-1.6
X5.15Y-1.6
X5.25Y-1.6
X5.35Y-1.6
X5.45Y-1.6
X5.55Y-1.6
X5.65Y-1.6
X5.75Y-1.6
T4
X6.126Y-1.734
X6.3229Y-1.734
X4.4213Y-3.695
X4.6181Y-3.695
X4.815Y-3.695
T0
M30
