G04 #@! TF.GenerationSoftware,KiCad,Pcbnew,(5.0.1)-3*
G04 #@! TF.CreationDate,2021-02-08T17:12:00-05:00*
G04 #@! TF.ProjectId,fpga_esc,667067615F6573632E6B696361645F70,rev?*
G04 #@! TF.SameCoordinates,Original*
G04 #@! TF.FileFunction,Legend,Bot*
G04 #@! TF.FilePolarity,Positive*
%FSLAX46Y46*%
G04 Gerber Fmt 4.6, Leading zero omitted, Abs format (unit mm)*
G04 Created by KiCad (PCBNEW (5.0.1)-3) date 2021-02-08 5:12:00 PM*
%MOMM*%
%LPD*%
G01*
G04 APERTURE LIST*
%ADD10C,0.120000*%
%ADD11C,0.150000*%
G04 APERTURE END LIST*
D10*
G04 #@! TO.C,C10*
X113040279Y-75690000D02*
X112714721Y-75690000D01*
X113040279Y-76710000D02*
X112714721Y-76710000D01*
G04 #@! TO.C,C11*
X146847779Y-75690000D02*
X146522221Y-75690000D01*
X146847779Y-76710000D02*
X146522221Y-76710000D01*
G04 #@! TO.C,C12*
X130490279Y-76710000D02*
X130164721Y-76710000D01*
X130490279Y-75690000D02*
X130164721Y-75690000D01*
G04 #@! TO.C,C13*
X129415000Y-80964721D02*
X129415000Y-81290279D01*
X128395000Y-80964721D02*
X128395000Y-81290279D01*
G04 #@! TO.C,C14*
X111250000Y-80964721D02*
X111250000Y-81290279D01*
X112270000Y-80964721D02*
X112270000Y-81290279D01*
G04 #@! TO.C,C15*
X145798000Y-81117221D02*
X145798000Y-81442779D01*
X144778000Y-81117221D02*
X144778000Y-81442779D01*
D11*
G04 #@! TO.C,U4*
X154475000Y-75530000D02*
X154475000Y-75580000D01*
X150325000Y-75530000D02*
X150325000Y-75675000D01*
X150325000Y-80680000D02*
X150325000Y-80535000D01*
X154475000Y-80680000D02*
X154475000Y-80535000D01*
X154475000Y-75530000D02*
X150325000Y-75530000D01*
X154475000Y-80680000D02*
X150325000Y-80680000D01*
X154475000Y-75580000D02*
X155875000Y-75580000D01*
G04 #@! TO.C,U5*
X137965000Y-75580000D02*
X139365000Y-75580000D01*
X137965000Y-80680000D02*
X133815000Y-80680000D01*
X137965000Y-75530000D02*
X133815000Y-75530000D01*
X137965000Y-80680000D02*
X137965000Y-80535000D01*
X133815000Y-80680000D02*
X133815000Y-80535000D01*
X133815000Y-75530000D02*
X133815000Y-75675000D01*
X137965000Y-75530000D02*
X137965000Y-75580000D01*
G04 #@! TO.C,U6*
X120820000Y-75530000D02*
X120820000Y-75580000D01*
X116670000Y-75530000D02*
X116670000Y-75675000D01*
X116670000Y-80680000D02*
X116670000Y-80535000D01*
X120820000Y-80680000D02*
X120820000Y-80535000D01*
X120820000Y-75530000D02*
X116670000Y-75530000D01*
X120820000Y-80680000D02*
X116670000Y-80680000D01*
X120820000Y-75580000D02*
X122220000Y-75580000D01*
D10*
G04 #@! TO.C,R7*
X114175000Y-79690279D02*
X114175000Y-79364721D01*
X113155000Y-79690279D02*
X113155000Y-79364721D01*
G04 #@! TO.C,R8*
X147830000Y-79537779D02*
X147830000Y-79212221D01*
X146810000Y-79537779D02*
X146810000Y-79212221D01*
G04 #@! TO.C,R9*
X130300000Y-79537779D02*
X130300000Y-79212221D01*
X131320000Y-79537779D02*
X131320000Y-79212221D01*
G04 #@! TO.C,Q1*
X153029999Y-64520000D02*
X154129999Y-64520000D01*
X153029999Y-64790000D02*
X153029999Y-64520000D01*
X151529999Y-64790000D02*
X153029999Y-64790000D01*
X153029999Y-58160000D02*
X155859999Y-58160000D01*
X153029999Y-57890000D02*
X153029999Y-58160000D01*
X151529999Y-57890000D02*
X153029999Y-57890000D01*
G04 #@! TO.C,Q2*
X152965000Y-73665000D02*
X154065000Y-73665000D01*
X152965000Y-73935000D02*
X152965000Y-73665000D01*
X151465000Y-73935000D02*
X152965000Y-73935000D01*
X152965000Y-67305000D02*
X155795000Y-67305000D01*
X152965000Y-67035000D02*
X152965000Y-67305000D01*
X151465000Y-67035000D02*
X152965000Y-67035000D01*
G04 #@! TO.C,Q3*
X135150000Y-57955772D02*
X136650000Y-57955772D01*
X136650000Y-57955772D02*
X136650000Y-58225772D01*
X136650000Y-58225772D02*
X139480000Y-58225772D01*
X135150000Y-64855772D02*
X136650000Y-64855772D01*
X136650000Y-64855772D02*
X136650000Y-64585772D01*
X136650000Y-64585772D02*
X137750000Y-64585772D01*
G04 #@! TO.C,Q4*
X135150000Y-67100772D02*
X136650000Y-67100772D01*
X136650000Y-67100772D02*
X136650000Y-67370772D01*
X136650000Y-67370772D02*
X139480000Y-67370772D01*
X135150000Y-74000772D02*
X136650000Y-74000772D01*
X136650000Y-74000772D02*
X136650000Y-73730772D01*
X136650000Y-73730772D02*
X137750000Y-73730772D01*
G04 #@! TO.C,Q5*
X118445000Y-57955772D02*
X119945000Y-57955772D01*
X119945000Y-57955772D02*
X119945000Y-58225772D01*
X119945000Y-58225772D02*
X122775000Y-58225772D01*
X118445000Y-64855772D02*
X119945000Y-64855772D01*
X119945000Y-64855772D02*
X119945000Y-64585772D01*
X119945000Y-64585772D02*
X121045000Y-64585772D01*
G04 #@! TO.C,Q6*
X119945000Y-73475772D02*
X121045000Y-73475772D01*
X119945000Y-73745772D02*
X119945000Y-73475772D01*
X118445000Y-73745772D02*
X119945000Y-73745772D01*
X119945000Y-67115772D02*
X122775000Y-67115772D01*
X119945000Y-66845772D02*
X119945000Y-67115772D01*
X118445000Y-66845772D02*
X119945000Y-66845772D01*
G04 #@! TO.C,C10*
D11*
X110497857Y-76557142D02*
X110545476Y-76604761D01*
X110688333Y-76652380D01*
X110783571Y-76652380D01*
X110926428Y-76604761D01*
X111021666Y-76509523D01*
X111069285Y-76414285D01*
X111116904Y-76223809D01*
X111116904Y-76080952D01*
X111069285Y-75890476D01*
X111021666Y-75795238D01*
X110926428Y-75700000D01*
X110783571Y-75652380D01*
X110688333Y-75652380D01*
X110545476Y-75700000D01*
X110497857Y-75747619D01*
X109545476Y-76652380D02*
X110116904Y-76652380D01*
X109831190Y-76652380D02*
X109831190Y-75652380D01*
X109926428Y-75795238D01*
X110021666Y-75890476D01*
X110116904Y-75938095D01*
X108926428Y-75652380D02*
X108831190Y-75652380D01*
X108735952Y-75700000D01*
X108688333Y-75747619D01*
X108640714Y-75842857D01*
X108593095Y-76033333D01*
X108593095Y-76271428D01*
X108640714Y-76461904D01*
X108688333Y-76557142D01*
X108735952Y-76604761D01*
X108831190Y-76652380D01*
X108926428Y-76652380D01*
X109021666Y-76604761D01*
X109069285Y-76557142D01*
X109116904Y-76461904D01*
X109164523Y-76271428D01*
X109164523Y-76033333D01*
X109116904Y-75842857D01*
X109069285Y-75747619D01*
X109021666Y-75700000D01*
X108926428Y-75652380D01*
G04 #@! TO.C,C11*
X147327857Y-75127142D02*
X147375476Y-75174761D01*
X147518333Y-75222380D01*
X147613571Y-75222380D01*
X147756428Y-75174761D01*
X147851666Y-75079523D01*
X147899285Y-74984285D01*
X147946904Y-74793809D01*
X147946904Y-74650952D01*
X147899285Y-74460476D01*
X147851666Y-74365238D01*
X147756428Y-74270000D01*
X147613571Y-74222380D01*
X147518333Y-74222380D01*
X147375476Y-74270000D01*
X147327857Y-74317619D01*
X146375476Y-75222380D02*
X146946904Y-75222380D01*
X146661190Y-75222380D02*
X146661190Y-74222380D01*
X146756428Y-74365238D01*
X146851666Y-74460476D01*
X146946904Y-74508095D01*
X145423095Y-75222380D02*
X145994523Y-75222380D01*
X145708809Y-75222380D02*
X145708809Y-74222380D01*
X145804047Y-74365238D01*
X145899285Y-74460476D01*
X145994523Y-74508095D01*
G04 #@! TO.C,C12*
X130970357Y-75127142D02*
X131017976Y-75174761D01*
X131160833Y-75222380D01*
X131256071Y-75222380D01*
X131398928Y-75174761D01*
X131494166Y-75079523D01*
X131541785Y-74984285D01*
X131589404Y-74793809D01*
X131589404Y-74650952D01*
X131541785Y-74460476D01*
X131494166Y-74365238D01*
X131398928Y-74270000D01*
X131256071Y-74222380D01*
X131160833Y-74222380D01*
X131017976Y-74270000D01*
X130970357Y-74317619D01*
X130017976Y-75222380D02*
X130589404Y-75222380D01*
X130303690Y-75222380D02*
X130303690Y-74222380D01*
X130398928Y-74365238D01*
X130494166Y-74460476D01*
X130589404Y-74508095D01*
X129637023Y-74317619D02*
X129589404Y-74270000D01*
X129494166Y-74222380D01*
X129256071Y-74222380D01*
X129160833Y-74270000D01*
X129113214Y-74317619D01*
X129065595Y-74412857D01*
X129065595Y-74508095D01*
X129113214Y-74650952D01*
X129684642Y-75222380D01*
X129065595Y-75222380D01*
G04 #@! TO.C,C13*
X127832142Y-80484642D02*
X127879761Y-80437023D01*
X127927380Y-80294166D01*
X127927380Y-80198928D01*
X127879761Y-80056071D01*
X127784523Y-79960833D01*
X127689285Y-79913214D01*
X127498809Y-79865595D01*
X127355952Y-79865595D01*
X127165476Y-79913214D01*
X127070238Y-79960833D01*
X126975000Y-80056071D01*
X126927380Y-80198928D01*
X126927380Y-80294166D01*
X126975000Y-80437023D01*
X127022619Y-80484642D01*
X127927380Y-81437023D02*
X127927380Y-80865595D01*
X127927380Y-81151309D02*
X126927380Y-81151309D01*
X127070238Y-81056071D01*
X127165476Y-80960833D01*
X127213095Y-80865595D01*
X126927380Y-81770357D02*
X126927380Y-82389404D01*
X127308333Y-82056071D01*
X127308333Y-82198928D01*
X127355952Y-82294166D01*
X127403571Y-82341785D01*
X127498809Y-82389404D01*
X127736904Y-82389404D01*
X127832142Y-82341785D01*
X127879761Y-82294166D01*
X127927380Y-82198928D01*
X127927380Y-81913214D01*
X127879761Y-81817976D01*
X127832142Y-81770357D01*
G04 #@! TO.C,C14*
X114942857Y-82272142D02*
X114990476Y-82319761D01*
X115133333Y-82367380D01*
X115228571Y-82367380D01*
X115371428Y-82319761D01*
X115466666Y-82224523D01*
X115514285Y-82129285D01*
X115561904Y-81938809D01*
X115561904Y-81795952D01*
X115514285Y-81605476D01*
X115466666Y-81510238D01*
X115371428Y-81415000D01*
X115228571Y-81367380D01*
X115133333Y-81367380D01*
X114990476Y-81415000D01*
X114942857Y-81462619D01*
X113990476Y-82367380D02*
X114561904Y-82367380D01*
X114276190Y-82367380D02*
X114276190Y-81367380D01*
X114371428Y-81510238D01*
X114466666Y-81605476D01*
X114561904Y-81653095D01*
X113133333Y-81700714D02*
X113133333Y-82367380D01*
X113371428Y-81319761D02*
X113609523Y-82034047D01*
X112990476Y-82034047D01*
G04 #@! TO.C,C15*
X144215142Y-80637142D02*
X144262761Y-80589523D01*
X144310380Y-80446666D01*
X144310380Y-80351428D01*
X144262761Y-80208571D01*
X144167523Y-80113333D01*
X144072285Y-80065714D01*
X143881809Y-80018095D01*
X143738952Y-80018095D01*
X143548476Y-80065714D01*
X143453238Y-80113333D01*
X143358000Y-80208571D01*
X143310380Y-80351428D01*
X143310380Y-80446666D01*
X143358000Y-80589523D01*
X143405619Y-80637142D01*
X144310380Y-81589523D02*
X144310380Y-81018095D01*
X144310380Y-81303809D02*
X143310380Y-81303809D01*
X143453238Y-81208571D01*
X143548476Y-81113333D01*
X143596095Y-81018095D01*
X143310380Y-82494285D02*
X143310380Y-82018095D01*
X143786571Y-81970476D01*
X143738952Y-82018095D01*
X143691333Y-82113333D01*
X143691333Y-82351428D01*
X143738952Y-82446666D01*
X143786571Y-82494285D01*
X143881809Y-82541904D01*
X144119904Y-82541904D01*
X144215142Y-82494285D01*
X144262761Y-82446666D01*
X144310380Y-82351428D01*
X144310380Y-82113333D01*
X144262761Y-82018095D01*
X144215142Y-81970476D01*
G04 #@! TO.C,U4*
X153161904Y-74057380D02*
X153161904Y-74866904D01*
X153114285Y-74962142D01*
X153066666Y-75009761D01*
X152971428Y-75057380D01*
X152780952Y-75057380D01*
X152685714Y-75009761D01*
X152638095Y-74962142D01*
X152590476Y-74866904D01*
X152590476Y-74057380D01*
X151685714Y-74390714D02*
X151685714Y-75057380D01*
X151923809Y-74009761D02*
X152161904Y-74724047D01*
X151542857Y-74724047D01*
G04 #@! TO.C,U5*
X136651904Y-74057380D02*
X136651904Y-74866904D01*
X136604285Y-74962142D01*
X136556666Y-75009761D01*
X136461428Y-75057380D01*
X136270952Y-75057380D01*
X136175714Y-75009761D01*
X136128095Y-74962142D01*
X136080476Y-74866904D01*
X136080476Y-74057380D01*
X135128095Y-74057380D02*
X135604285Y-74057380D01*
X135651904Y-74533571D01*
X135604285Y-74485952D01*
X135509047Y-74438333D01*
X135270952Y-74438333D01*
X135175714Y-74485952D01*
X135128095Y-74533571D01*
X135080476Y-74628809D01*
X135080476Y-74866904D01*
X135128095Y-74962142D01*
X135175714Y-75009761D01*
X135270952Y-75057380D01*
X135509047Y-75057380D01*
X135604285Y-75009761D01*
X135651904Y-74962142D01*
G04 #@! TO.C,U6*
X119506904Y-74057380D02*
X119506904Y-74866904D01*
X119459285Y-74962142D01*
X119411666Y-75009761D01*
X119316428Y-75057380D01*
X119125952Y-75057380D01*
X119030714Y-75009761D01*
X118983095Y-74962142D01*
X118935476Y-74866904D01*
X118935476Y-74057380D01*
X118030714Y-74057380D02*
X118221190Y-74057380D01*
X118316428Y-74105000D01*
X118364047Y-74152619D01*
X118459285Y-74295476D01*
X118506904Y-74485952D01*
X118506904Y-74866904D01*
X118459285Y-74962142D01*
X118411666Y-75009761D01*
X118316428Y-75057380D01*
X118125952Y-75057380D01*
X118030714Y-75009761D01*
X117983095Y-74962142D01*
X117935476Y-74866904D01*
X117935476Y-74628809D01*
X117983095Y-74533571D01*
X118030714Y-74485952D01*
X118125952Y-74438333D01*
X118316428Y-74438333D01*
X118411666Y-74485952D01*
X118459285Y-74533571D01*
X118506904Y-74628809D01*
G04 #@! TO.C,R7*
X111926666Y-79192380D02*
X112260000Y-78716190D01*
X112498095Y-79192380D02*
X112498095Y-78192380D01*
X112117142Y-78192380D01*
X112021904Y-78240000D01*
X111974285Y-78287619D01*
X111926666Y-78382857D01*
X111926666Y-78525714D01*
X111974285Y-78620952D01*
X112021904Y-78668571D01*
X112117142Y-78716190D01*
X112498095Y-78716190D01*
X111593333Y-78192380D02*
X110926666Y-78192380D01*
X111355238Y-79192380D01*
G04 #@! TO.C,R8*
X145581666Y-79192380D02*
X145915000Y-78716190D01*
X146153095Y-79192380D02*
X146153095Y-78192380D01*
X145772142Y-78192380D01*
X145676904Y-78240000D01*
X145629285Y-78287619D01*
X145581666Y-78382857D01*
X145581666Y-78525714D01*
X145629285Y-78620952D01*
X145676904Y-78668571D01*
X145772142Y-78716190D01*
X146153095Y-78716190D01*
X145010238Y-78620952D02*
X145105476Y-78573333D01*
X145153095Y-78525714D01*
X145200714Y-78430476D01*
X145200714Y-78382857D01*
X145153095Y-78287619D01*
X145105476Y-78240000D01*
X145010238Y-78192380D01*
X144819761Y-78192380D01*
X144724523Y-78240000D01*
X144676904Y-78287619D01*
X144629285Y-78382857D01*
X144629285Y-78430476D01*
X144676904Y-78525714D01*
X144724523Y-78573333D01*
X144819761Y-78620952D01*
X145010238Y-78620952D01*
X145105476Y-78668571D01*
X145153095Y-78716190D01*
X145200714Y-78811428D01*
X145200714Y-79001904D01*
X145153095Y-79097142D01*
X145105476Y-79144761D01*
X145010238Y-79192380D01*
X144819761Y-79192380D01*
X144724523Y-79144761D01*
X144676904Y-79097142D01*
X144629285Y-79001904D01*
X144629285Y-78811428D01*
X144676904Y-78716190D01*
X144724523Y-78668571D01*
X144819761Y-78620952D01*
G04 #@! TO.C,R9*
X129071666Y-79192380D02*
X129405000Y-78716190D01*
X129643095Y-79192380D02*
X129643095Y-78192380D01*
X129262142Y-78192380D01*
X129166904Y-78240000D01*
X129119285Y-78287619D01*
X129071666Y-78382857D01*
X129071666Y-78525714D01*
X129119285Y-78620952D01*
X129166904Y-78668571D01*
X129262142Y-78716190D01*
X129643095Y-78716190D01*
X128595476Y-79192380D02*
X128405000Y-79192380D01*
X128309761Y-79144761D01*
X128262142Y-79097142D01*
X128166904Y-78954285D01*
X128119285Y-78763809D01*
X128119285Y-78382857D01*
X128166904Y-78287619D01*
X128214523Y-78240000D01*
X128309761Y-78192380D01*
X128500238Y-78192380D01*
X128595476Y-78240000D01*
X128643095Y-78287619D01*
X128690714Y-78382857D01*
X128690714Y-78620952D01*
X128643095Y-78716190D01*
X128595476Y-78763809D01*
X128500238Y-78811428D01*
X128309761Y-78811428D01*
X128214523Y-78763809D01*
X128166904Y-78716190D01*
X128119285Y-78620952D01*
G04 #@! TO.C,Q1*
X150655237Y-57387619D02*
X150750475Y-57340000D01*
X150845713Y-57244761D01*
X150988570Y-57101904D01*
X151083808Y-57054285D01*
X151179046Y-57054285D01*
X151131427Y-57292380D02*
X151226665Y-57244761D01*
X151321903Y-57149523D01*
X151369522Y-56959047D01*
X151369522Y-56625714D01*
X151321903Y-56435238D01*
X151226665Y-56340000D01*
X151131427Y-56292380D01*
X150940951Y-56292380D01*
X150845713Y-56340000D01*
X150750475Y-56435238D01*
X150702856Y-56625714D01*
X150702856Y-56959047D01*
X150750475Y-57149523D01*
X150845713Y-57244761D01*
X150940951Y-57292380D01*
X151131427Y-57292380D01*
X149750475Y-57292380D02*
X150321903Y-57292380D01*
X150036189Y-57292380D02*
X150036189Y-56292380D01*
X150131427Y-56435238D01*
X150226665Y-56530476D01*
X150321903Y-56578095D01*
G04 #@! TO.C,Q2*
X150590238Y-66532619D02*
X150685476Y-66485000D01*
X150780714Y-66389761D01*
X150923571Y-66246904D01*
X151018809Y-66199285D01*
X151114047Y-66199285D01*
X151066428Y-66437380D02*
X151161666Y-66389761D01*
X151256904Y-66294523D01*
X151304523Y-66104047D01*
X151304523Y-65770714D01*
X151256904Y-65580238D01*
X151161666Y-65485000D01*
X151066428Y-65437380D01*
X150875952Y-65437380D01*
X150780714Y-65485000D01*
X150685476Y-65580238D01*
X150637857Y-65770714D01*
X150637857Y-66104047D01*
X150685476Y-66294523D01*
X150780714Y-66389761D01*
X150875952Y-66437380D01*
X151066428Y-66437380D01*
X150256904Y-65532619D02*
X150209285Y-65485000D01*
X150114047Y-65437380D01*
X149875952Y-65437380D01*
X149780714Y-65485000D01*
X149733095Y-65532619D01*
X149685476Y-65627857D01*
X149685476Y-65723095D01*
X149733095Y-65865952D01*
X150304523Y-66437380D01*
X149685476Y-66437380D01*
G04 #@! TO.C,Q3*
X134275238Y-57453391D02*
X134370476Y-57405772D01*
X134465714Y-57310533D01*
X134608571Y-57167676D01*
X134703809Y-57120057D01*
X134799047Y-57120057D01*
X134751428Y-57358152D02*
X134846666Y-57310533D01*
X134941904Y-57215295D01*
X134989523Y-57024819D01*
X134989523Y-56691486D01*
X134941904Y-56501010D01*
X134846666Y-56405772D01*
X134751428Y-56358152D01*
X134560952Y-56358152D01*
X134465714Y-56405772D01*
X134370476Y-56501010D01*
X134322857Y-56691486D01*
X134322857Y-57024819D01*
X134370476Y-57215295D01*
X134465714Y-57310533D01*
X134560952Y-57358152D01*
X134751428Y-57358152D01*
X133989523Y-56358152D02*
X133370476Y-56358152D01*
X133703809Y-56739105D01*
X133560952Y-56739105D01*
X133465714Y-56786724D01*
X133418095Y-56834343D01*
X133370476Y-56929581D01*
X133370476Y-57167676D01*
X133418095Y-57262914D01*
X133465714Y-57310533D01*
X133560952Y-57358152D01*
X133846666Y-57358152D01*
X133941904Y-57310533D01*
X133989523Y-57262914D01*
G04 #@! TO.C,Q4*
X134275238Y-66598391D02*
X134370476Y-66550772D01*
X134465714Y-66455533D01*
X134608571Y-66312676D01*
X134703809Y-66265057D01*
X134799047Y-66265057D01*
X134751428Y-66503152D02*
X134846666Y-66455533D01*
X134941904Y-66360295D01*
X134989523Y-66169819D01*
X134989523Y-65836486D01*
X134941904Y-65646010D01*
X134846666Y-65550772D01*
X134751428Y-65503152D01*
X134560952Y-65503152D01*
X134465714Y-65550772D01*
X134370476Y-65646010D01*
X134322857Y-65836486D01*
X134322857Y-66169819D01*
X134370476Y-66360295D01*
X134465714Y-66455533D01*
X134560952Y-66503152D01*
X134751428Y-66503152D01*
X133465714Y-65836486D02*
X133465714Y-66503152D01*
X133703809Y-65455533D02*
X133941904Y-66169819D01*
X133322857Y-66169819D01*
G04 #@! TO.C,Q5*
X117570238Y-57453391D02*
X117665476Y-57405772D01*
X117760714Y-57310533D01*
X117903571Y-57167676D01*
X117998809Y-57120057D01*
X118094047Y-57120057D01*
X118046428Y-57358152D02*
X118141666Y-57310533D01*
X118236904Y-57215295D01*
X118284523Y-57024819D01*
X118284523Y-56691486D01*
X118236904Y-56501010D01*
X118141666Y-56405772D01*
X118046428Y-56358152D01*
X117855952Y-56358152D01*
X117760714Y-56405772D01*
X117665476Y-56501010D01*
X117617857Y-56691486D01*
X117617857Y-57024819D01*
X117665476Y-57215295D01*
X117760714Y-57310533D01*
X117855952Y-57358152D01*
X118046428Y-57358152D01*
X116713095Y-56358152D02*
X117189285Y-56358152D01*
X117236904Y-56834343D01*
X117189285Y-56786724D01*
X117094047Y-56739105D01*
X116855952Y-56739105D01*
X116760714Y-56786724D01*
X116713095Y-56834343D01*
X116665476Y-56929581D01*
X116665476Y-57167676D01*
X116713095Y-57262914D01*
X116760714Y-57310533D01*
X116855952Y-57358152D01*
X117094047Y-57358152D01*
X117189285Y-57310533D01*
X117236904Y-57262914D01*
G04 #@! TO.C,Q6*
X117570238Y-66343391D02*
X117665476Y-66295772D01*
X117760714Y-66200533D01*
X117903571Y-66057676D01*
X117998809Y-66010057D01*
X118094047Y-66010057D01*
X118046428Y-66248152D02*
X118141666Y-66200533D01*
X118236904Y-66105295D01*
X118284523Y-65914819D01*
X118284523Y-65581486D01*
X118236904Y-65391010D01*
X118141666Y-65295772D01*
X118046428Y-65248152D01*
X117855952Y-65248152D01*
X117760714Y-65295772D01*
X117665476Y-65391010D01*
X117617857Y-65581486D01*
X117617857Y-65914819D01*
X117665476Y-66105295D01*
X117760714Y-66200533D01*
X117855952Y-66248152D01*
X118046428Y-66248152D01*
X116760714Y-65248152D02*
X116951190Y-65248152D01*
X117046428Y-65295772D01*
X117094047Y-65343391D01*
X117189285Y-65486248D01*
X117236904Y-65676724D01*
X117236904Y-66057676D01*
X117189285Y-66152914D01*
X117141666Y-66200533D01*
X117046428Y-66248152D01*
X116855952Y-66248152D01*
X116760714Y-66200533D01*
X116713095Y-66152914D01*
X116665476Y-66057676D01*
X116665476Y-65819581D01*
X116713095Y-65724343D01*
X116760714Y-65676724D01*
X116855952Y-65629105D01*
X117046428Y-65629105D01*
X117141666Y-65676724D01*
X117189285Y-65724343D01*
X117236904Y-65819581D01*
G04 #@! TD*
M02*
